<svg xmlns="http://www.w3.org/2000/svg" width="31" height="31" viewBox="0 0 31 31">
    <defs>
        <style>
            .cls-2{fill:#fff}
        </style>
    </defs>
    <g id="그룹_1379" transform="translate(-1480 -2008)">
        <circle id="타원_436" cx="15.5" cy="15.5" r="15.5" fill="#414550" transform="translate(1480 2008)"/>
        <g id="그룹_1363" transform="translate(0 52)">
            <path id="패스_1211" d="M49.95 162.142a3.007 3.007 0 1 0 3-2.759 2.886 2.886 0 0 0-3 2.759zm4.129 0a1.132 1.132 0 1 1-1.132-1.132 1.132 1.132 0 0 1 1.132 1.132z" class="cls-2" transform="translate(1444.918 1809.568)"/>
            <path id="패스_1212" d="M86.513 165.548h-.489v1.7h.81a2.551 2.551 0 0 0 2.637-2.621v-5.447h-1.813v.553a1.82 1.82 0 0 0-1.556-.695 2.543 2.543 0 0 0-2.5 2.431v.823a2.357 2.357 0 0 0 2.225 2.332c1.569 0 1.788-.7 1.788-.7.017 1.726-1.102 1.624-1.102 1.624zm.116-2.576a1.106 1.106 0 1 1 1.106-1.106 1.106 1.106 0 0 1-1.106 1.105z" class="cls-2" transform="translate(1418.027 1809.846)"/>
            <path id="패스_1213" d="M33.694 155.163V150a2.473 2.473 0 0 0-2.65-2.637v1.8s.862.193.862.888v5.107z" class="cls-2" transform="translate(1460.051 1819.113)"/>
            <path id="패스_1214" d="M1.621 156.093v-.437a2.1 2.1 0 0 0 1.518.643 2.529 2.529 0 0 0 2.521-2.5s.338-2.835-2.367-3.087c0 0-1.243-.012-1.672.72v-2.882s-1.714.022-1.827 0v7.534zm1.11-3.573a1.051 1.051 0 1 1-1.051 1.051 1.051 1.051 0 0 1 1.051-1.05z" class="cls-2" transform="translate(1484.998 1818.166)"/>
        </g>
    </g>
</svg>
