<svg xmlns="http://www.w3.org/2000/svg" width="24.798" height="18.599" viewBox="0 0 24.798 18.599">
    <path fill="#282c36" d="M2256.522-33.4a.939.939 0 0 1-.817-.451l-1.814-3.012a1 1 0 0 1-.074-.151h-7.935A1.84 1.84 0 0 1 2244-38.8v-11.41a1.84 1.84 0 0 1 1.882-1.79h21.034a1.84 1.84 0 0 1 1.882 1.79v11.41a1.84 1.84 0 0 1-1.882 1.79h-7.689a.786.786 0 0 1-.075.151l-1.814 3.012a.936.936 0 0 1-.816.447zm7.854-8.882v.366a.711.711 0 0 1-.24.595 2.324 2.324 0 0 1-.74.188c0 .009-.2.981-.048 1.161a.074.074 0 0 0 .058.028 3.009 3.009 0 0 0 1.856-.514 1.717 1.717 0 0 0 .672-1.449v-4.677h-1.37l-.1.292a2.445 2.445 0 0 1-.511-.2 1.339 1.339 0 0 0-.69-.177 1.694 1.694 0 0 0-1.433.678 2.922 2.922 0 0 0-.508 1.783v.092a2.7 2.7 0 0 0 .506 1.709 1.71 1.71 0 0 0 1.426.647 1.484 1.484 0 0 0 .636-.131 1.432 1.432 0 0 0 .49-.388zm-6.411-3.792a2.33 2.33 0 0 0-1.771.671 2.442 2.442 0 0 0-.635 1.737v.092a2.44 2.44 0 0 0 .635 1.74 2.344 2.344 0 0 0 1.779.669 2.326 2.326 0 0 0 1.766-.669 2.432 2.432 0 0 0 .635-1.74v-.092a2.435 2.435 0 0 0-.635-1.737 2.332 2.332 0 0 0-1.774-.672zm-9.564 4.261a1.516 1.516 0 0 0 .52.48 1.454 1.454 0 0 0 .708.166 1.711 1.711 0 0 0 1.444-.638 2.765 2.765 0 0 0 .489-1.718v-.092a2.96 2.96 0 0 0-.492-1.792 1.682 1.682 0 0 0-1.448-.669 1.364 1.364 0 0 0-.634.142 1.476 1.476 0 0 0-.479.4v-2.548h-1.555v6.818h1.355l.093-.554zm4.384-6.263v6.818h1.559v-6.818zm5.188 5.774a.7.7 0 0 1-.663-.339 1.866 1.866 0 0 1-.2-.933v-.092a1.877 1.877 0 0 1 .2-.922.687.687 0 0 1 .655-.35.705.705 0 0 1 .663.348 1.893 1.893 0 0 1 .2.924v.092a1.888 1.888 0 0 1-.2.931.7.7 0 0 1-.655.343zm-8.737 0a1.15 1.15 0 0 1-.436-.074.668.668 0 0 1-.293-.223v-1.989a.705.705 0 0 1 .286-.26.994.994 0 0 1 .436-.089.62.62 0 0 1 .615.348 2.3 2.3 0 0 1 .164.977v.092a2.094 2.094 0 0 1-.155.916.631.631 0 0 1-.617.304zm14.411-.6a.637.637 0 0 1-.6-.321 1.907 1.907 0 0 1-.176-.9v-.092a2.914 2.914 0 0 1 .03-.446 1.781 1.781 0 0 1 .158-.513.626.626 0 0 1 .6-.365.959.959 0 0 1 .427.089.749.749 0 0 1 .294.26v1.99a.7.7 0 0 1-.3.223 1.141 1.141 0 0 1-.433.077z" transform="translate(-2244 52)"/>
</svg>
