<svg xmlns="http://www.w3.org/2000/svg" width="18.015" height="18.015" viewBox="0 0 18.015 18.015">
    <defs>
        <style>
            .cls-1{fill:#282c36}
        </style>
    </defs>
    <g id="FOOTER_인스타그램">
        <path id="패스_105" d="M-326.869 452.617c2.4 0 2.69.009 3.64.053a4.963 4.963 0 0 1 1.673.31 2.785 2.785 0 0 1 1.036.674 2.79 2.79 0 0 1 .674 1.035 4.99 4.99 0 0 1 .31 1.673c.043.95.052 1.235.052 3.64s-.009 2.69-.052 3.639a4.988 4.988 0 0 1-.31 1.672 2.793 2.793 0 0 1-.674 1.036 2.793 2.793 0 0 1-1.036.674 4.966 4.966 0 0 1-1.673.31c-.95.043-1.235.053-3.64.053s-2.69-.009-3.64-.053a4.965 4.965 0 0 1-1.673-.31 2.789 2.789 0 0 1-1.036-.674 2.791 2.791 0 0 1-.674-1.036 4.99 4.99 0 0 1-.31-1.672c-.043-.95-.052-1.235-.052-3.639s.009-2.691.052-3.64a4.991 4.991 0 0 1 .31-1.673 2.788 2.788 0 0 1 .674-1.035 2.781 2.781 0 0 1 1.036-.674 4.962 4.962 0 0 1 1.673-.31c.95-.044 1.234-.053 3.64-.053m0-1.623c-2.447 0-2.753.01-3.714.054a6.606 6.606 0 0 0-2.187.419 4.41 4.41 0 0 0-1.595 1.038 4.416 4.416 0 0 0-1.039 1.6 6.6 6.6 0 0 0-.419 2.186c-.044.961-.054 1.268-.054 3.714s.011 2.753.054 3.713a6.6 6.6 0 0 0 .419 2.186 4.414 4.414 0 0 0 1.039 1.6 4.406 4.406 0 0 0 1.595 1.039 6.61 6.61 0 0 0 2.187.418c.961.043 1.267.054 3.714.054s2.753-.011 3.714-.054a6.61 6.61 0 0 0 2.186-.418 4.414 4.414 0 0 0 1.6-1.039 4.411 4.411 0 0 0 1.039-1.6 6.609 6.609 0 0 0 .418-2.186c.044-.961.055-1.268.055-3.713s-.011-2.754-.055-3.714a6.61 6.61 0 0 0-.418-2.186 4.414 4.414 0 0 0-1.039-1.6 4.417 4.417 0 0 0-1.6-1.038 6.607 6.607 0 0 0-2.186-.419c-.961-.044-1.267-.054-3.714-.054" class="cls-1" transform="translate(335.876 -450.994)"/>
        <path id="패스_106" d="M-315.354 466.954a4.561 4.561 0 0 0-4.561 4.561 4.561 4.561 0 0 0 4.561 4.561 4.561 4.561 0 0 0 4.561-4.561 4.561 4.561 0 0 0-4.561-4.561m0 7.522a2.961 2.961 0 0 1-2.961-2.96 2.961 2.961 0 0 1 2.961-2.96 2.96 2.96 0 0 1 2.96 2.96 2.96 2.96 0 0 1-2.96 2.96" class="cls-1" transform="translate(324.361 -462.508)"/>
        <path id="패스_107" d="M-287.3 463.449a1.1 1.1 0 0 1-1.1 1.1 1.1 1.1 0 0 1-1.1-1.1 1.1 1.1 0 0 1 1.1-1.1 1.1 1.1 0 0 1 1.1 1.1" class="cls-1" transform="translate(302.202 -459.24)"/>
    </g>
</svg>
