<svg xmlns="http://www.w3.org/2000/svg" id="구성_요소_34_43" width="31" height="31" viewBox="0 0 31 31">
    <defs>
        <style>
            .cls-2{fill:#fff}
        </style>
    </defs>
    <circle id="타원_610" cx="15.5" cy="15.5" r="15.5" fill="#414550"/>
    <g id="그룹_1362" transform="translate(5.998 6)">
        <path id="패스_1218" d="M-326.588 452.667c2.48 0 2.773.01 3.753.055a5.116 5.116 0 0 1 1.725.32 2.869 2.869 0 0 1 1.068.695 2.878 2.878 0 0 1 .7 1.068 5.149 5.149 0 0 1 .32 1.724c.045.979.054 1.273.054 3.754s-.009 2.774-.054 3.753a5.152 5.152 0 0 1-.32 1.725 2.881 2.881 0 0 1-.7 1.068 2.876 2.876 0 0 1-1.068.695 5.128 5.128 0 0 1-1.725.32c-.979.044-1.273.054-3.753.054s-2.774-.01-3.753-.054a5.131 5.131 0 0 1-1.725-.32 2.879 2.879 0 0 1-1.068-.695 2.882 2.882 0 0 1-.695-1.068 5.149 5.149 0 0 1-.32-1.725c-.045-.979-.054-1.273-.054-3.753s.009-2.774.054-3.754a5.146 5.146 0 0 1 .32-1.724 2.879 2.879 0 0 1 .695-1.068 2.871 2.871 0 0 1 1.068-.695 5.118 5.118 0 0 1 1.725-.32c.979-.045 1.273-.055 3.753-.055m0-1.673c-2.523 0-2.839.011-3.83.056a6.813 6.813 0 0 0-2.254.432 4.549 4.549 0 0 0-1.645 1.071 4.554 4.554 0 0 0-1.071 1.645 6.8 6.8 0 0 0-.432 2.254c-.045.991-.056 1.307-.056 3.83s.011 2.838.056 3.829a6.8 6.8 0 0 0 .432 2.254 4.55 4.55 0 0 0 1.071 1.645 4.549 4.549 0 0 0 1.645 1.072 6.823 6.823 0 0 0 2.254.431c.991.045 1.307.056 3.83.056s2.838-.011 3.829-.056a6.822 6.822 0 0 0 2.254-.431 4.555 4.555 0 0 0 1.645-1.072 4.547 4.547 0 0 0 1.072-1.645 6.814 6.814 0 0 0 .431-2.254c.045-.99.056-1.307.056-3.829s-.011-2.839-.056-3.83a6.817 6.817 0 0 0-.431-2.254 4.551 4.551 0 0 0-1.072-1.645 4.554 4.554 0 0 0-1.645-1.071 6.812 6.812 0 0 0-2.254-.432c-.991-.045-1.307-.056-3.829-.056" class="cls-2" transform="translate(335.877 -450.994)"/>
        <path id="패스_1220" d="M-315.072 466.954a4.843 4.843 0 0 0-4.843 4.844 4.843 4.843 0 0 0 4.843 4.844 4.844 4.844 0 0 0 4.843-4.844 4.844 4.844 0 0 0-4.843-4.844m0 7.987a3.144 3.144 0 0 1-3.144-3.144 3.144 3.144 0 0 1 3.144-3.144 3.143 3.143 0 0 1 3.143 3.144 3.144 3.144 0 0 1-3.143 3.144" class="cls-2" transform="translate(324.361 -462.51)"/>
        <path id="패스_1219" d="M-287.3 463.449a1.1 1.1 0 0 1-1.1 1.1 1.1 1.1 0 0 1-1.1-1.1 1.1 1.1 0 0 1 1.1-1.1 1.1 1.1 0 0 1 1.1 1.1" class="cls-2" transform="translate(302.655 -459.129)"/>
    </g>
</svg>
