<svg xmlns="http://www.w3.org/2000/svg" width="116" height="118" viewBox="0 0 116 118">
    <defs>
        <style>
            .cls-2,.cls-4{fill:#a4aab4;stroke:#282e3d;stroke-miterlimit:10;stroke-width:1.3px}.cls-4{fill:none;stroke:#0933b3;stroke-linecap:round}
        </style>
    </defs>
    <g id="그룹_1669" transform="translate(-392 -932)">
        <g id="그룹_1656" transform="translate(0 3)">
            <g id="그룹_1589" transform="translate(-318.948 -102.184)">
                <path id="사각형_1545" fill="#0933b3" d="M0 0H3.738V5.887H0z" transform="translate(767.078 1088.425)"/>
                <path id="사각형_2196" d="M0 0H60.679V7.513H0z" class="cls-2" transform="translate(738.607 1044.992)"/>
                <path id="사각형_1543" d="M754.525 1052.5h28.843v15.422a3.838 3.838 0 0 1-2.321 3.526l-6.633 2.857h-10.935l-6.633-2.857a3.84 3.84 0 0 1-2.321-3.526z" class="cls-2"/>
                <g id="그룹_1588">
                    <path id="패스_2309" fill="none" stroke="#0933b3" stroke-linecap="round" stroke-linejoin="round" stroke-width="1.3px" d="M768.947 1114.222l12.553-4.257-12.553 4.257v15.631l12.553-4.723v-15.165l-12.553-3.857-12.554 3.857v15.165l12.554 4.723 12.553-4.723v-15.165l-12.553 4.257"/>
                </g>
                <path id="선_992" d="M0 0L0 10.193" class="cls-4" transform="translate(768.947 1095.915)"/>
                <path id="사각형_1544" fill="#c6c7cc" stroke="#282e3d" stroke-miterlimit="10" stroke-width="1.3px" d="M763.48 1074.31h10.934v12.453a1.658 1.658 0 0 1-1.658 1.658h-7.618a1.658 1.658 0 0 1-1.658-1.658z"/>
            </g>
            <path id="선_994" d="M0 0L87.846 0" class="cls-4" transform="translate(406.077 1031.91)"/>
        </g>
        <path id="사각형_2262" fill="none" d="M0 0H116V118H0z" transform="translate(392 932)"/>
    </g>
</svg>
