<svg xmlns="http://www.w3.org/2000/svg" width="116" height="118" viewBox="0 0 116 118">
    <defs>
        <style>
            .cls-2{stroke:#282c36;stroke-miterlimit:10;stroke-width:1.3px;fill:#0933b3}.cls-3{fill:none;stroke:#0933b3;stroke-linecap:round;stroke-linejoin:round;stroke-width:1.5px}
        </style>
    </defs>
    <g id="그룹_1691" transform="translate(-596 -932)">
        <g id="그룹_1690">
            <path id="패스_2278" fill="#c6c7cc" stroke="#282c36" stroke-miterlimit="10" stroke-width="1.3px" d="M994.122 560.064V530.5h-31.43v45.129h73.9v-15.565z" transform="translate(-343.691 452.658)"/>
            <path id="패스_589" d="M1008.271 478.333h-7.179v12.112a.448.448 0 0 0 .453.443.44.44 0 0 0 .3-.124l6.282-5.742a.436.436 0 0 0 .146-.323z" class="cls-2" transform="translate(-350.654 462.117)"/>
            <path id="패스_592" d="M1001.543 562.375h6.282a.446.446 0 0 0 .447-.445V543.7a.447.447 0 0 0-.747-.323l-6.282 5.741a.462.462 0 0 0-.147.326v12.482a.451.451 0 0 0 .447.449z" class="cls-2" transform="translate(-350.654 450.344)"/>
            <g id="그룹_1595" transform="translate(256.859 162.84)">
                <path id="패스_2313" d="M374.794 815.839l6.515-.571-3.75-5.356 3.75 5.356c-5.064-1.674-8.263-4.136-8.263-6.881 0-5.042 10.8-9.132 24.119-9.132" class="cls-3"/>
                <path id="패스_2314" d="M404.341 799.905l-6.59.531 3.516 5.4-3.516-5.4c4.83 1.671 7.858 4.073 7.858 6.744 0 5.044-10.8 9.132-24.119 9.132" class="cls-3" transform="translate(15.675 1.207)"/>
            </g>
            <path id="패스_590" d="M1001.838 513.529l6.282-5.744a.435.435 0 0 0 .146-.324v-11.912a.449.449 0 0 0-.747-.326l-6.283 5.745a.458.458 0 0 0-.146.324v11.915a.45.45 0 0 0 .748.324z" class="cls-2" transform="translate(-350.654 459.076)"/>
            <path id="패스_591" d="M1001.838 537.6l6.282-5.741a.439.439 0 0 0 .146-.326v-11.918a.447.447 0 0 0-.452-.443.459.459 0 0 0-.3.125l-6.282 5.742a.459.459 0 0 0-.146.325v11.913a.449.449 0 0 0 .447.45.444.444 0 0 0 .305-.127z" class="cls-2" transform="translate(-350.652 454.713)"/>
        </g>
        <path id="사각형_2263" fill="none" d="M0 0H116V118H0z" transform="translate(596 932)"/>
    </g>
</svg>
