<svg xmlns="http://www.w3.org/2000/svg" width="116.725" height="118" viewBox="0 0 116.725 118">
    <defs>
        <style>
            .cls-1{fill:#a4aab4;stroke-miterlimit:10;stroke:#282e3d;stroke-width:1.3px}
        </style>
    </defs>
    <g id="그룹_1665" transform="translate(-1207.275 -932)">
        <g id="그룹_1663" transform="translate(0 3)">
            <g id="그룹_1661" transform="rotate(22 3374.212 -2493.977)">
                <path id="패스_2317" d="M2706.512 1532.152a13.477 13.477 0 1 0 13.477 13.477 13.477 13.477 0 0 0-13.477-13.477zm0 24.419a10.942 10.942 0 1 1 10.942-10.943 10.943 10.943 0 0 1-10.942 10.943z" class="cls-1" transform="translate(-2.503 -2.501)"/>
                <path id="패스_2277" d="M2724.317 1538.385a20.708 20.708 0 0 0-2.58-6.237l2.2-4.236-4.7-4.7-4.227 2.2a20.736 20.736 0 0 0-6.23-2.583l-1.444-4.549h-6.651l-1.43 4.547a20.763 20.763 0 0 0-6.23 2.578l-4.237-2.2-4.7 4.7 2.2 4.227a20.766 20.766 0 0 0-2.583 6.23l-4.55 1.443v6.651l4.547 1.431a20.738 20.738 0 0 0 2.578 6.23l-2.2 4.236 4.7 4.7 4.227-2.2a20.827 20.827 0 0 0 6.23 2.577l1.445 4.555h6.65l1.433-4.552a20.775 20.775 0 0 0 6.23-2.574l4.237 2.2 4.7-4.7-2.2-4.227a20.693 20.693 0 0 0 2.582-6.23l4.55-1.444v-6.65zm-20.311 18.109a13.35 13.35 0 0 1-13.351-13.35 13.352 13.352 0 0 1 13.351-13.351 13.351 13.351 0 0 1 13.351 13.351 13.35 13.35 0 0 1-13.351 13.35z" class="cls-1"/>
            </g>
            <path id="패스_2322" d="M2286.1 422.333h-12.11l2-51.433h8.111z" class="cls-1" transform="translate(-981.214 589.413)"/>
            <path id="패스_2323" d="M2281.857 367.391l-3.857 7.987-23.946-13.189 2.583-5.35z" class="cls-1" transform="translate(-981.214 589.413)"/>
            <circle id="타원_647" cx="6.483" cy="6.483" r="6.483" class="cls-1" transform="translate(1292.35 953.831)"/>
            <path id="사각형_2260" d="M0 0H30.886V10.412H0z" class="cls-1" transform="translate(1283.389 1010.747)"/>
            <circle id="타원_648" cx="5.927" cy="5.927" r="5.927" class="cls-1" transform="translate(1264.934 940.947)"/>
            <path id="패스_2324" fill="none" stroke="#282e3d" stroke-linecap="round" stroke-linejoin="round" stroke-width="1.3px" d="M2251.711 363.388v8.357a5.4 5.4 0 1 1-5.4 5.4" transform="translate(-981.214 589.413)"/>
        </g>
        <path id="사각형_2266" fill="none" d="M0 0H116V118H0z" transform="translate(1208 932)"/>
    </g>
</svg>
