<svg xmlns="http://www.w3.org/2000/svg" width="120.026" height="118" viewBox="0 0 120.026 118">
    <defs>
        <style>
            .cls-1{fill:#a4aab4;stroke:#282e3d;stroke-miterlimit:10;stroke-width:1.3px}
        </style>
    </defs>
    <g id="그룹_1664" transform="translate(-1413 -932)">
        <g id="그룹_1657" transform="translate(1416.531 958.581)">
            <path id="패스_2317" d="M2708.619 1532.152a15.583 15.583 0 1 0 15.584 15.583 15.583 15.583 0 0 0-15.584-15.583zm0 28.236a12.653 12.653 0 1 1 12.652-12.653 12.653 12.653 0 0 1-12.652 12.653z" class="cls-1" transform="translate(-2679.875 -1519.002)"/>
            <path id="패스_2277" d="M2731.376 1541.527a23.943 23.943 0 0 0-2.983-7.211l2.54-4.9-5.438-5.439-4.887 2.548a23.978 23.978 0 0 0-7.2-2.987l-1.669-5.261h-7.69l-1.654 5.258a24 24 0 0 0-7.2 2.981l-4.9-2.539-5.438 5.439 2.548 4.887a24.006 24.006 0 0 0-2.987 7.2l-5.261 1.668v7.69l5.258 1.655a23.98 23.98 0 0 0 2.981 7.2l-2.539 4.9 5.438 5.439 4.887-2.547a24.081 24.081 0 0 0 7.2 2.98l1.671 5.267h7.69l1.657-5.264a24.025 24.025 0 0 0 7.2-2.976l4.9 2.54 5.438-5.438-2.547-4.887a23.917 23.917 0 0 0 2.986-7.2l5.261-1.669v-7.69zm-23.485 20.94a15.437 15.437 0 0 1-15.438-15.437 15.439 15.439 0 0 1 15.438-15.438 15.438 15.438 0 0 1 15.438 15.438 15.437 15.437 0 0 1-15.438 15.437z" class="cls-1" transform="translate(-2679.151 -1518.279)"/>
        </g>
        <g id="그룹_1658" transform="rotate(22 -1716.528 4307.124)">
            <path id="패스_2317-2" d="M12.775 0A12.774 12.774 0 1 0 25.55 12.774 12.774 12.774 0 0 0 12.775 0zm0 23.146a10.372 10.372 0 1 1 10.371-10.372 10.372 10.372 0 0 1-10.371 10.372z" class="cls-1" transform="translate(10.788 10.779)"/>
            <path id="패스_2277-2" d="M42.812 19.057a19.637 19.637 0 0 0-2.445-5.911l2.081-4.016-4.457-4.458-4.007 2.089a19.652 19.652 0 0 0-5.9-2.448L26.711 0h-6.3l-1.359 4.31a19.678 19.678 0 0 0-5.905 2.444L9.13 4.672 4.672 9.13l2.089 4.006a19.686 19.686 0 0 0-2.449 5.905L0 20.409v6.3l4.31 1.361a19.656 19.656 0 0 0 2.444 5.905L4.672 37.99l4.458 4.459 4.006-2.088a19.742 19.742 0 0 0 5.905 2.439l1.37 4.318h6.3l1.358-4.315a19.694 19.694 0 0 0 5.905-2.44l4.016 2.082 4.458-4.458-2.088-4.006a19.617 19.617 0 0 0 2.448-5.905l4.312-1.368v-6.3zM23.56 36.223A12.654 12.654 0 0 1 10.9 23.569a12.656 12.656 0 0 1 12.66-12.655 12.655 12.655 0 0 1 12.655 12.655A12.654 12.654 0 0 1 23.56 36.223z" class="cls-1"/>
        </g>
        <path id="사각형_2267" fill="none" d="M0 0H116V118H0z" transform="translate(1413 932)"/>
    </g>
</svg>
