<svg xmlns="http://www.w3.org/2000/svg" width="120" height="19" viewBox="0 0 120 19">
    <defs>
        <style>
            .cls-1{fill:#0a2165}
        </style>
    </defs>
    <g id="그룹_1413" transform="translate(-360 -20)">
        <g id="그룹_1412">
            <g id="그룹_70673" transform="translate(360 20)">
                <g id="그룹_6" transform="translate(0 .021)">
                    <path id="패스_1" d="M-489.286 292.64c0 3.182-2.554 5.26-5.714 5.26h-7.433v-17.962h6.928c3.084 0 5.587 2.027 5.587 5.13a4.526 4.526 0 0 1-1.542 3.516 4.655 4.655 0 0 1 2.174 4.056zm-9.1-8.852v3.182h2.882a1.482 1.482 0 0 0 1.115-.452 1.528 1.528 0 0 0 .427-1.139 1.514 1.514 0 0 0-.422-1.144 1.468 1.468 0 0 0-1.12-.447zm5.055 8.545a1.636 1.636 0 0 0-.457-1.237 1.586 1.586 0 0 0-1.211-.482h-3.388v3.438H-495a1.586 1.586 0 0 0 1.212-.482 1.636 1.636 0 0 0 .457-1.238z" class="cls-1" transform="translate(502.433 -279.579)"/>
                    <path id="패스_2" d="M-354.321 293.948v3.952h-10.366v-17.962h4.046v14.01z" class="cls-1" transform="translate(399.782 -279.579)"/>
                    <path id="패스_3" d="M-315.813 283.89h-4.551v14.01h-4.046v-14.01h-4.551v-3.952h13.147z" class="cls-1" transform="translate(373.157 -279.579)"/>
                    <path id="패스_4" d="M-265.883 297.522l-1.568-1.718a7.78 7.78 0 0 1-4.576 1.407c-3.64 0-6.32-2.025-6.32-5.41a6.1 6.1 0 0 1 2.832-5.153 5.509 5.509 0 0 1-.733-2.845c0-3.025 2.3-5.256 5.689-5.256a6.011 6.011 0 0 1 5.815 3.92l-3.464 2.025c-.455-1.206-1.163-1.949-2.3-1.949a1.521 1.521 0 0 0-1.172.378 1.566 1.566 0 0 0-.522 1.129 3.858 3.858 0 0 0 1.388 2.538l3.262 3.667a13.714 13.714 0 0 0 .835-2.82l3.388 1.949a13.254 13.254 0 0 1-1.618 3.769l2.225 2.513zm-4.046-4.462l-3.236-3.538-.152-.154a2.543 2.543 0 0 0-.936 2c0 1.206.758 2.1 2.553 2.1a3.68 3.68 0 0 0 1.771-.411z" class="cls-1" transform="translate(335.44 -278.544)"/>
                    <path id="패스_5" d="M-195.172 279.938V297.9h-3.034l-6.831-9.752v9.75h-4.046v-17.96h3.034l6.826 9.751v-9.751z" class="cls-1" transform="translate(283.818 -279.579)"/>
                    <path id="패스_6" d="M-69.893 283.89h-4.551v14.01h-4.046v-14.01h-4.55v-3.952h13.147z" class="cls-1" transform="translate(189.893 -279.579)"/>
                    <g id="그룹_1" transform="translate(91.489 .49)">
                        <path id="패스_7" d="M-137.743 294.349a2.331 2.331 0 0 1-1.4-2.138v-11.758h-4.2v12.177a5.884 5.884 0 0 0 5.6 5.9z" class="cls-1" transform="translate(143.344 -280.453)"/>
                        <path id="패스_8" d="M-109.715 280.453v11.757a2.325 2.325 0 0 1-1.654 2.229v4.092a5.884 5.884 0 0 0 5.6-5.9v-12.178z" class="cls-1" transform="translate(119.515 -280.453)"/>
                    </g>
                </g>
                <g id="그룹_7" transform="translate(14.345)">
                    <path id="패스_9" d="M-434.336 304.779a5.19 5.19 0 0 1-2.61.7 5.218 5.218 0 0 1-5.218-5.218 5.19 5.19 0 0 1 .455-2.125l-3.017-2.717a9.119 9.119 0 0 0-1.388 4.842 9.164 9.164 0 0 0 9.164 9.164 9.118 9.118 0 0 0 5.627-1.934z" class="cls-1" transform="translate(446.113 -290.834)"/>
                    <path id="패스_10" d="M-430.3 283.289a5.194 5.194 0 0 1 2.914-.892 5.218 5.218 0 0 1 5.218 5.218 5.193 5.193 0 0 1-.609 2.444l2.984 2.687a9.118 9.118 0 0 0 1.571-5.131 9.164 9.164 0 0 0-9.164-9.164 9.126 9.126 0 0 0-5.9 2.15z" class="cls-1" transform="translate(436.552 -278.451)"/>
                </g>
            </g>
        </g>
    </g>
</svg>
