<svg xmlns="http://www.w3.org/2000/svg" width="285.455" height="207.745" viewBox="0 0 285.455 207.745">
    <defs>
        <filter id="패스_2878" width="68.186" height="18.746" x="217.269" y="67.333" filterUnits="userSpaceOnUse">
            <feOffset dy="1"/>
            <feGaussianBlur result="blur" stdDeviation="1.5"/>
            <feFlood flood-color="#0a0a0a" flood-opacity=".302"/>
            <feComposite in2="blur" operator="in"/>
            <feComposite in="SourceGraphic"/>
        </filter>
        <filter id="패스_2869" width="68.186" height="18.746" x="217.269" y="81.833" filterUnits="userSpaceOnUse">
            <feOffset dy="1"/>
            <feGaussianBlur result="blur-2" stdDeviation="1.5"/>
            <feFlood flood-color="#0a0a0a" flood-opacity=".302"/>
            <feComposite in2="blur-2" operator="in"/>
            <feComposite in="SourceGraphic"/>
        </filter>
        <style>
            .cls-1,.cls-22{fill:#fff}.cls-11,.cls-13,.cls-15,.cls-16,.cls-17,.cls-2{fill:none}.cls-2{stroke:#c6c7cc;stroke-width:.2px}.cls-3{fill:#f6f6f6}.cls-5{fill:#0933b3}.cls-6{fill:#282c36}.cls-7{fill:#86888c}.cls-22{stroke:#e1e2e4}.cls-11,.cls-15{stroke-width:.5px}.cls-15{stroke:#86888c}.cls-11,.cls-16{stroke-linecap:round}.cls-16{stroke-linejoin:round}.cls-11{stroke:#707070}.cls-16,.cls-17{stroke:#767676}.cls-16,.cls-17,.cls-22{stroke-width:.3px}.cls-17{stroke-miterlimit:10}.cls-19{fill:#0a2165}.cls-21{fill:#999}.cls-23{stroke:none}
        </style>
    </defs>
    <g id="그룹_2411" transform="translate(4883 7816)">
        <path id="패스_2853" d="M2.377 0h280.48a2.377 2.377 0 0 1 2.377 2.377v202.991a2.377 2.377 0 0 1-2.377 2.377H2.377A2.377 2.377 0 0 1 0 205.368V2.377A2.377 2.377 0 0 1 2.377 0z" class="cls-1" transform="translate(-4883 -7816)"/>
        <path id="패스_2854" d="M0 0h217.491" class="cls-2" transform="translate(-4883 -7643.196)"/>
        <path id="패스_2856" d="M.713 0H203.7a.713.713 0 0 1 .713.713v18.065a.713.713 0 0 1-.713.713H.713A.713.713 0 0 1 0 18.778V.713A.713.713 0 0 1 .713 0z" class="cls-3" transform="translate(-4876.582 -7636.064)"/>
        <path id="패스_2861" fill="#a4aab4" d="M2.536 8.639h-.667V6.906h.667zm.9-1.074h-.489V6.556H1.458V8.99h1.489V7.925h.488v1.887h.411V6.2h-.411zm.774-1.433v3.859h.419V6.132zm2.2.355h-.43v.7a1.933 1.933 0 0 1-.813 1.677l.27.334A1.862 1.862 0 0 0 6.2 8.087a1.762 1.762 0 0 0 .713 1.023l.248-.342a1.868 1.868 0 0 1-.753-1.6zm.907 1h-.571v.359h.569v1.97h.415V6.2h-.415zM8.1 6.132V10h.419V6.132zm2.439.749h.86v-.364H9.236v.364h.86v.368a1.889 1.889 0 0 1-1 1.66l.252.351a1.993 1.993 0 0 0 .971-1.215 1.894 1.894 0 0 0 .981 1.116l.244-.347a1.743 1.743 0 0 1-1-1.566zm1.309-.749V10h.452V6.132zm3.782.659h-2.175v.869h2.683v-.309h-2.25v-.273h2.182v-.852h-2.624v.3h2.186zm-1.773 2.563h2.225v-.865h-2.67v.3h2.233v.274h-2.224v.886H16.2v-.3h-2.34zM13.006 7.9v.325h3.5V7.9zm7.56-1.771v2.078h.441V6.132zm-2.084 2.258v1.561h2.524V8.387h-.436v.428h-1.651v-.428zm.436.77h1.652v.436h-1.651zm0-2.849a.906.906 0 1 0 1.023.9.934.934 0 0 0-1.018-.901zm0 .364a.538.538 0 1 1-.595.535.541.541 0 0 1 .6-.536zm4.8 1.249a7.681 7.681 0 0 1-1.42.09v-.5h1.236V6.354h-1.672v.356H23.1v.462h-1.229v1.2h.282a8.784 8.784 0 0 0 1.617-.094zM22.3 9.063h2.173V10h.441V8.7H22.3zm2.173-2.931v.556h-.693v.355h.693V7.5h-.693v.355h.693v.659h.441V6.132zM26.735 8.8a.539.539 0 1 1 .539-.539.514.514 0 0 1-.539.539zm0-1.442a.9.9 0 1 0 .958.9.9.9 0 0 0-.958-.898zm.214-1.172h-.441v.539h-.92v.359h2.263v-.357h-.9zm2.255 1.5h-.595V6.132h-.445V10h.445V8.053h.591zm1.485-1.2h-.428v.7a1.933 1.933 0 0 1-.813 1.677l.27.334a1.862 1.862 0 0 0 .762-1.108 1.762 1.762 0 0 0 .715 1.023l.248-.342a1.868 1.868 0 0 1-.753-1.6zm.907 1h-.569v.359h.573v1.971h.415V6.2H31.6zm.787-1.352V10h.417V6.132zm2.272 2.191a2.215 2.215 0 0 0 .488.051 1.981 1.981 0 0 0 .488-.056v.843h-.976zm.488-1.625c.582 0 .988.257.988.663s-.406.667-.988.667-.993-.257-.993-.667.407-.663.993-.663zm.928 2.46V8.156a.893.893 0 0 0 .492-.792c0-.616-.6-1.01-1.42-1.01s-1.42.394-1.42 1.01a.888.888 0 0 0 .492.792v1.005H33.4v.359h3.5v-.359zm1.639.56a.327.327 0 0 0 .329-.342.33.33 0 1 0-.659 0 .327.327 0 0 0 .33.344z" transform="translate(-4871.989 -7634.084)"/>
        <path id="패스_2857" d="M.475 0h15.45a.475.475 0 0 1 .475.475v8.082a.475.475 0 0 1-.475.475H.475A.475.475 0 0 1 0 8.557V.475A.475.475 0 0 1 .475 0z" class="cls-5" transform="translate(-4694.033 -7630.836)"/>
        <path id="패스_2858" d="M2.633-12.283v.323h.624v1.27h.392v-2.51h-.392v.917zm.213.8a1.129 1.129 0 0 1-.806-1.031v-.118h.715v-.316H.918v.316h.726v.118a1.2 1.2 0 0 1-.844 1.1l.2.314a1.4 1.4 0 0 0 .848-.814 1.321 1.321 0 0 0 .8.738zm-1.031 1.329v-.753h-.391v1.072h2.312v-.319zm5.374-1.962c-.688-.091-1.175-.472-1.175-.9v-.129h-.4v.129c0 .426-.494.81-1.175.9l.145.308a1.686 1.686 0 0 0 1.228-.711 1.717 1.717 0 0 0 1.232.711zm-1.38 2.046c-.506 0-.783-.1-.783-.3s.278-.3.783-.3.787.106.787.3-.281.3-.787.3zm0-.9c-.738 0-1.183.217-1.183.6s.445.6 1.183.6 1.183-.217 1.183-.6-.442-.601-1.183-.601zm.2-.559V-12h-.394v.468H4.261v.316h3.107v-.316z" class="cls-1" transform="translate(-4689.889 -7614.593)"/>
        <path id="패스_2855" d="M0 0v207.745" class="cls-2" transform="translate(-4665.509 -7816)"/>
        <path id="패스_2886" d="M1.94-12.978h2.444v-1.013H1.446v.366H3.9v.3H1.455v1.055h3.052v-.376H1.94zm.033-2.762h1.912v.342H1.974zm1.193 1.065v-.352h1.2v-1.431h-.481v.357H1.974v-.357h-.485v1.431h1.188v.352H.98v.395h3.893v-.395zm5.534.423H6.224v-.589h2.348v-.385H6.224v-.551h2.443v-.395H5.724v2.315H8.7zm-3.456 1.1v.4h3.894v-.4zm6.974-1.73h.447v1.582h.466v-3.214h-.466v1.227h-.447v-1.15h-.461v2.985h.461zm-2.248-.25c0-.39.228-.642.532-.642a.569.569 0 0 1 .542.642.569.569 0 0 1-.542.642c-.302 0-.532-.252-.532-.642zm1.516 0a.986.986 0 0 0-.984-1.06.981.981 0 0 0-.975 1.06.981.981 0 0 0 .975 1.06.986.986 0 0 0 .984-1.06zm-.7 2.424v-1.017h-.494v1.417h2.958v-.4zm3.68-3.342h-.485v2.8h.342a10.046 10.046 0 0 0 1.977-.17l-.057-.4a9.411 9.411 0 0 1-1.773.171zm2.363-.471v1.379h-1.245v.4h1.246v2.524h.49v-4.3zm4.635 2.268h-2.476v-.589h2.348v-.385h-2.348v-.551h2.444v-.395h-2.943v2.315h2.976zm-3.456 1.1v.4H21.9v-.4z" class="cls-6" transform="translate(-4643.2 -7748.023)"/>
        <path id="패스_2882" d="M1.864-10.235c.616 0 1.018-.548 1.018-1.643S2.48-13.5 1.864-13.5s-1.018.531-1.018 1.622.398 1.643 1.018 1.643zm0-.389c-.321 0-.548-.342-.548-1.254s.227-1.232.548-1.232.548.329.548 1.232-.227 1.253-.548 1.253zm1.3.334H5.2v-.419h-.79c-.154 0-.351.013-.513.03a2.974 2.974 0 0 0 1.151-1.874.89.89 0 0 0-.948-.947 1.236 1.236 0 0 0-.958.471l.278.274a.854.854 0 0 1 .62-.351.513.513 0 0 1 .535.578c0 .518-.479 1.13-1.408 1.951zm3.2-1.027h1.13v-.364H6.365zm3.226-.513c-.329 0-.509-.231-.509-.633s.214-.655.483-.655c.342 0 .578.282.625.9a.755.755 0 0 1-.598.387zm-.916 1.262a1.081 1.081 0 0 0 .8.334c.608 0 1.172-.5 1.172-1.737 0-1.04-.488-1.527-1.091-1.527a.963.963 0 0 0-.937 1.035c0 .659.355.988.881.988a.947.947 0 0 0 .693-.368c-.03.9-.359 1.207-.74 1.207a.7.7 0 0 1-.518-.235zm2.285.278h2.032v-.419h-.787c-.154 0-.351.013-.513.03a2.974 2.974 0 0 0 1.151-1.874.89.89 0 0 0-.95-.946 1.236 1.236 0 0 0-.958.471l.278.274a.854.854 0 0 1 .62-.351.513.513 0 0 1 .535.578c0 .518-.479 1.13-1.408 1.951zm3.453-.321c-.338 0-.565-.3-.616-.92a.733.733 0 0 1 .586-.368c.338 0 .518.227.518.633s-.213.654-.487.654zm.894-2.55a1.058 1.058 0 0 0-.787-.338c-.62 0-1.189.483-1.189 1.694 0 1.07.488 1.57 1.087 1.57a.96.96 0 0 0 .941-1.031c0-.667-.355-.993-.886-.993a.947.947 0 0 0-.685.364c.021-.9.355-1.2.757-1.2a.677.677 0 0 1 .492.235zm1.185 1.844h1.13v-.364h-1.13zm3.384.706c-.338 0-.565-.3-.616-.92a.733.733 0 0 1 .586-.368c.338 0 .518.227.518.633s-.212.654-.486.654zm.894-2.55a1.058 1.058 0 0 0-.787-.338c-.62 0-1.189.483-1.189 1.694 0 1.07.488 1.57 1.087 1.57a.96.96 0 0 0 .941-1.031c0-.667-.355-.993-.886-.993a.947.947 0 0 0-.685.364c.021-.9.355-1.2.757-1.2a.677.677 0 0 1 .492.235zm1.438 2.55c-.338 0-.565-.3-.616-.92a.733.733 0 0 1 .586-.368c.338 0 .518.227.518.633s-.213.654-.486.654zm.894-2.55a1.057 1.057 0 0 0-.787-.338c-.62 0-1.189.483-1.189 1.694 0 1.07.488 1.57 1.087 1.57a.96.96 0 0 0 .941-1.031c0-.667-.355-.993-.886-.993a.947.947 0 0 0-.685.364c.021-.9.355-1.2.757-1.2a.677.677 0 0 1 .492.235zm1.275 2.927a.944.944 0 0 0 1.053-.9.8.8 0 0 0-.65-.787v-.021a.761.761 0 0 0 .543-.74c0-.522-.4-.813-.963-.813a1.327 1.327 0 0 0-.9.381l.257.308a.922.922 0 0 1 .629-.3.441.441 0 0 1 .483.458c0 .317-.205.552-.826.552v.364c.71 0 .933.227.933.578a.529.529 0 0 1-.6.522 1.018 1.018 0 0 1-.744-.347l-.24.317a1.307 1.307 0 0 0 1.027.427zm2.011-.056h.5a4.114 4.114 0 0 1 .907-2.849v-.3h-2.021v.415h1.48a4.547 4.547 0 0 0-.864 2.733z" class="cls-7" transform="translate(-4645.95 -7742.481)"/>
        <g id="그룹_2406" transform="translate(-4647.969 -7800.605)">
            <g id="타원_870" fill="#fff" stroke="#e1e2e4" stroke-width="0.5px">
                <circle cx="15.908" cy="15.908" r="15.908" class="cls-23"/>
                <circle cx="15.908" cy="15.908" r="15.658" class="cls-13"/>
            </g>
        </g>
        <g filter="url(#패스_2878)" transform="translate(-4883 -7816)">
            <path id="패스_2878-2" d="M4.873 0h49.44a4.873 4.873 0 0 1 0 9.745H4.873a4.873 4.873 0 0 1 0-9.745z" class="cls-1" transform="translate(221.77 70.83)"/>
        </g>
        <g filter="url(#패스_2869)" transform="translate(-4883 -7816)">
            <g id="패스_2869-2" fill="#fff">
                <path d="M54.313 9.595H4.873C2.269 9.595.15 7.477.15 4.873.15 2.269 2.269.15 4.873.15h49.44c2.604 0 4.723 2.119 4.723 4.723 0 2.604-2.119 4.722-4.723 4.722z" class="cls-23" transform="translate(221.77 85.33)"/>
                <path fill="#0933b3" d="M4.873.3C2.35.3.3 2.351.3 4.873c0 2.521 2.051 4.572 4.573 4.572h49.44c2.522 0 4.573-2.05 4.573-4.572C58.886 2.35 56.835.3 54.313.3H4.873m0-.3h49.44c2.691 0 4.873 2.182 4.873 4.873 0 2.69-2.182 4.872-4.873 4.872H4.873C2.182 9.745 0 7.564 0 4.873S2.182 0 4.873 0z" transform="translate(221.77 85.33)"/>
            </g>
        </g>
        <path id="패스_2879" d="M3.091-12.9H2.2v-1.262h.89zm-1.331 0H1.2v.359h2.887v-.359h-.56v-1.262H4.1v-.355H1.191v.355h.569zM.9-11.857v.364h3.508v-.364zm5.8.021v-.659h1.2v-.355H5.589v-.539h2.229v-1.224H5.149v.355h2.233v.518H5.157v1.245h1.1v.659H4.734v.364h3.5v-.364zm3.461-2.071v.364h.509v.993h.411v-2.25h-.411v.894zm.3.9a1.128 1.128 0 0 1-.723-1.053v-.167h.616v-.355h-1.71v.355h.663v.167a1.224 1.224 0 0 1-.762 1.134l.231.338a1.38 1.38 0 0 0 .753-.783 1.285 1.285 0 0 0 .71.7zm-1.249 1h2.178v.993h.441v-1.348H9.213zm2.2-2.871v2.357h.419v-2.357zm4.09 2.041h-2.229v-.531h2.114v-.347h-2.114v-.5h2.2v-.355h-2.649v2.084H15.5zm-3.11.988v.359h3.5v-.359zm6.217-.432h-.959v-.946h.958zm0-1.3h-.959v-.984h-.44v2.636h1.835v-2.636h-.436zm2.062.184h-.6v-1.485h-.441v3.868h.441v-2.015h.6zm2.2 1.562v-.659h1.207v-.355h-2.316v-.539h2.229v-1.224h-2.67v.355h2.233v.518H21.33v1.245h1.1v.659h-1.524v.364h3.5v-.364zm2.054-2.64v.359h1.352a2.539 2.539 0 0 1-1.545 2.054l.244.338a2.907 2.907 0 0 0 1.741-2.751zm3.389 1.117h-.586v-1.527h-.441v3.863h.441v-1.968h.586zm.471-1.117v.359h1.378a2.434 2.434 0 0 1-1.57 2.058l.235.351a2.855 2.855 0 0 0 1.788-2.768zm2.529-.406v3.863h.441v-3.863z" class="cls-7" transform="translate(-4648.605 -7727.163)"/>
        <path id="패스_2873" d="M4.311-14.941v3.876h.445v-3.876zm-2.529.321v2.636h1.857v-2.636H3.2v.984h-.98v-.984zm.436 1.335H3.2v.946h-.98zm6.14-.116a3.659 3.659 0 0 0 .107-1.027v-.325H5.812v.355h2.217a3.446 3.446 0 0 1-.1.95zm-1.219 1.99c-.573 0-.924-.141-.924-.385s.351-.381.924-.381.911.141.911.381-.342.385-.911.385zm0-1.1c-.834 0-1.361.274-1.361.719s.526.723 1.361.723 1.352-.274 1.352-.723-.531-.723-1.352-.723zm.086-.655v-.71h-.446v.71H5.41v.355h3.483v-.355zm2.152-1.279v.359h1.082a2.263 2.263 0 0 1-1.245 1.9l.257.312a2.715 2.715 0 0 0 1.429-2.575zm2.725-.488v1.51h-.441v-1.408h-.415v3.581h.415v-1.814h.439v1.994h.419v-3.863zm3.17.749h.817v-.364h-2.1v.364h.843v.372a1.919 1.919 0 0 1-.984 1.656l.252.351a2.013 2.013 0 0 0 .958-1.219A1.952 1.952 0 0 0 16-11.907l.244-.347a1.81 1.81 0 0 1-.967-1.562zm2.242.774h-.6v-1.523h-.444v3.863h.441v-1.98h.6zm1.609.856h.792v.667h-.792zm1.228.667v-.667h.569v-.355h-2.315v-.535h2.229v-1.219h-2.67v.355H20.4v.513h-2.227v1.241h.513v.667h-.937v.364h3.5v-.364zm3.342-.856a2.215 2.215 0 0 0 .488.051 1.981 1.981 0 0 0 .488-.056v.843h-.976zm.488-1.622c.582 0 .988.257.988.663s-.406.667-.988.667-.993-.257-.993-.667.406-.666.992-.666zm.928 2.46v-1.005a.893.893 0 0 0 .491-.79c0-.616-.6-1.01-1.42-1.01s-1.42.394-1.42 1.01a.888.888 0 0 0 .492.792v1.005h-.817v.359h3.5v-.359zm3.217-1.964v.364h.7v.907h.441v-2.34h-.441v1.07zm.24.787a1.158 1.158 0 0 1-.941-1.031v-.034h.813v-.353h-.809v-.458h-.445v.458h-.813v.351h.813v.034a1.209 1.209 0 0 1-.928 1.125l.214.342a1.5 1.5 0 0 0 .95-.83 1.487 1.487 0 0 0 .941.732zm-.389 1.669c-.548 0-.86-.137-.86-.381s.312-.377.86-.377.864.133.864.377-.313.379-.865.379zm0-1.1c-.809 0-1.3.265-1.3.719s.492.723 1.3.723 1.3-.27 1.3-.723-.492-.721-1.301-.721zm3.042.248a.514.514 0 0 1-.539-.539.514.514 0 0 1 .539-.539.514.514 0 0 1 .539.539.514.514 0 0 1-.54.537zm0-1.442a.9.9 0 0 0-.958.9.9.9 0 0 0 .958.9.9.9 0 0 0 .958-.9.9.9 0 0 0-.959-.902zm.214-1.172h-.441v.539h-.92v.359h2.263v-.359h-.9zm2.255 1.5h-.595v-1.553h-.445v3.868h.445v-1.947h.595zm.454-1.147v.359h1.378a2.434 2.434 0 0 1-1.57 2.058l.235.351a2.855 2.855 0 0 0 1.788-2.768zm2.529-.406v3.863h.441v-3.863z" class="cls-5" transform="translate(-4651.18 -7712.61)"/>
        <path id="패스_2852" fill="none" stroke="#86888c" stroke-linecap="round" stroke-linejoin="round" stroke-width="0.5px" d="M0 0l1.559 1.559L3.117 0" transform="rotate(-90 -6174.188 -1564.482)"/>
        <path id="패스_2894" d="M2.615 0A2.615 2.615 0 1 1 0 2.615 2.615 2.615 0 0 1 2.615 0z" class="cls-3" transform="translate(-4606.323 -7812.197)"/>
        <g id="그룹_2410" transform="rotate(-45 -11729.863 1654.81)">
            <g id="그룹_1818">
                <path id="선_1056" d="M0 0L2.852 0" class="cls-11" transform="rotate(90 .713 .713)"/>
                <path id="선_1057" d="M0 0L2.852 0" class="cls-11" transform="translate(0 1.426)"/>
            </g>
        </g>
        <g id="그룹_2403" transform="translate(-4708.523 -7808.815)">
            <path id="합치기_45" fill="none" stroke="#86888c" stroke-linecap="square" stroke-linejoin="round" stroke-width="0.5px" d="M3.611 3.611l1.52 1.521zM0 2.091a2.091 2.091 0 1 1 2.091 2.09A2.091 2.091 0 0 1 0 2.091z" transform="translate(2.053 2.053)"/>
            <path id="사각형_3075" d="M0 0H8.211V8.211H0z" class="cls-13"/>
        </g>
        <g id="그룹_2404" transform="translate(-4696.207 -7808.815)">
            <g id="타원_869" fill="#fff" stroke="#86888c" stroke-width="0.5px" transform="translate(1.161 1.426)">
                <circle cx="2.707" cy="2.707" r="2.707" class="cls-23"/>
                <circle cx="2.707" cy="2.707" r="2.457" class="cls-13"/>
            </g>
            <path id="선_1309" d="M0 0L3.565 3.565" class="cls-15" transform="translate(2.086 2.439)"/>
            <path id="사각형_3076" d="M0 0H8.211V8.211H0z" class="cls-13"/>
        </g>
        <g id="그룹_2405" transform="translate(-4683.891 -7808.815)">
            <path id="Icon" d="M5.639 2.027a.2.2 0 0 0-.2-.144H3.591L3.013.142A.2.2 0 0 0 2.816 0a.2.2 0 0 0-.194.145l-.546 1.734H.206a.2.2 0 0 0-.2.143.207.207 0 0 0 .073.233l1.469 1.1-.574 1.839a.207.207 0 0 0 .075.232.205.205 0 0 0 .121.041.2.2 0 0 0 .119-.04l1.543-1.1 1.528 1.1a.2.2 0 0 0 .241 0 .207.207 0 0 0 .076-.232L4.1 3.355l1.465-1.094a.207.207 0 0 0 .074-.233" class="cls-15" transform="translate(.555 1.373)"/>
            <path id="사각형_3077" d="M0 0H7.184V8.211H0z" class="cls-13"/>
        </g>
        <g id="그룹_2407" transform="translate(-4722.892 -7629.207)">
            <g id="그룹_2038" transform="translate(1.762 .828)">
                <path id="패스_2648" d="M978.071 429.811l2.265 2.265a.673.673 0 0 0 .95 0l.026-.026a.673.673 0 0 0 0-.95l-2.265-2.265 2.048 2.048-2.235-2.235a1.05 1.05 0 0 0-1.481 0 1.051 1.051 0 0 0 0 1.481l2.235 2.235" class="cls-16" transform="translate(-977.074 -428.342)"/>
                <path id="패스_2649" d="M981.838 433.523l-1.34-1.34a.346.346 0 0 1 0-.488.346.346 0 0 1 .488 0l1.34 1.34" class="cls-16" transform="translate(-979.607 -430.822)"/>
            </g>
            <path id="사각형_3078" d="M0 0H8.211V6.158H0z" class="cls-13"/>
        </g>
        <g id="그룹_2408" transform="translate(-4713.655 -7629.207)">
            <path id="패스_2620" d="M730.78 375.669h-1.32l-.182-.511a.238.238 0 0 0-.224-.158h-1.5a.238.238 0 0 0-.238.238v.431h-1.321a.238.238 0 0 0-.238.238v3.293a.238.238 0 0 0 .238.238h4.789a.238.238 0 0 0 .238-.238v-3.293a.238.238 0 0 0-.242-.238z" class="cls-16" transform="translate(-724.671 -374.728)"/>
            <circle id="타원_872" cx="1.07" cy="1.07" r="1.07" class="cls-17" transform="translate(2.658 1.769)"/>
            <path id="사각형_3079" d="M0 0H7.184V6.158H0z" class="cls-13"/>
        </g>
        <g id="그룹_2409" transform="translate(-4704.418 -7629.207)">
            <circle id="타원_873" cx="2.043" cy="2.043" r="2.043" class="cls-17" transform="translate(1.402 .623)"/>
            <path id="패스_2621" fill="none" stroke="#767676" stroke-linecap="round" stroke-miterlimit="10" stroke-width="0.3px" d="M810.519 388.237a.955.955 0 0 1-1.639 0" transform="translate(-806.254 -384.955)"/>
            <path id="사각형_3080" d="M0 0H7.184V6.158H0z" class="cls-13"/>
        </g>
        <path id="패스_2884" d="M2.377 0h64.178a2.377 2.377 0 0 1 2.377 2.377v10.7H2.377A2.377 2.377 0 0 1 0 10.7V2.377A2.377 2.377 0 0 1 2.377 0z" class="cls-5" transform="translate(-4740.383 -7766.797)"/>
        <path id="패스_2862" d="M2.377 0H65.6a2.377 2.377 0 0 1 2.377 2.377v10.7h-65.6A2.377 2.377 0 0 1 0 10.7V2.377A2.377 2.377 0 0 1 2.377 0z" class="cls-5" transform="translate(-4739.195 -7701.906)"/>
        <path id="패스_2859" d="M2.377 0h142.142a2.377 2.377 0 0 1 2.381 2.377V20.2H2.377A2.377 2.377 0 0 1 0 17.827V2.377A2.377 2.377 0 0 1 2.377 0z" class="cls-5" transform="translate(-4818.109 -7669.817)"/>
        <path id="패스_2863" d="M0 0h84.382" class="cls-2" transform="translate(-4749.891 -7679.325)"/>
        <path id="패스_2885" d="M2.056-14.492H1.62v2.52h.261a6.675 6.675 0 0 0 1.386-.12l-.056-.368a6.8 6.8 0 0 1-1.155.111zm1.459.873h-.821v.359h.821v2.06h.411v-3.6h-.411zm.817-1.266v3.868h.424v-3.868zm2.285 1.228a.565.565 0 0 1 .595-.582.569.569 0 0 1 .6.582.569.569 0 0 1-.6.586.566.566 0 0 1-.595-.587zm1.626 0a.968.968 0 0 0-1.031-.963.967.967 0 0 0-1.027.963.97.97 0 0 0 1.027.967.972.972 0 0 0 1.031-.968zM7.152-12.34h-.445v1.249h2.6v-.359H7.152zm2-1.395v-1.147h-.438v2.832h.441v-1.322H9.7v-.364zm3.573 1.2h.441v-2.349h-.441v.406h-1.012v.338h1.014v.334h-1.014v.342h1.014zm-.56-.706a7.967 7.967 0 0 1-1.532.128v-1.553h-.441v1.912h.3a8.137 8.137 0 0 0 1.724-.133zm-.287 1.878c-.548 0-.86-.141-.86-.394s.312-.389.86-.389.864.137.864.389-.314.396-.862.396zm0-1.134c-.8 0-1.3.274-1.3.74s.5.74 1.3.74 1.3-.274 1.3-.74-.489-.737-1.298-.737zm3.042.282a.514.514 0 0 1-.539-.539.514.514 0 0 1 .539-.539.514.514 0 0 1 .539.539.514.514 0 0 1-.537.542zm0-1.442a.9.9 0 0 0-.958.9.9.9 0 0 0 .958.9.9.9 0 0 0 .958-.9.9.9 0 0 0-.956-.897zm.214-1.172H14.7v.539h-.92v.359h2.263v-.359h-.9zm2.255 1.5H16.8v-1.553h-.445v3.868h.445v-1.947h.595zm1.42-1.2h-.428v.7a1.933 1.933 0 0 1-.813 1.677l.27.334a1.862 1.862 0 0 0 .762-1.108 1.762 1.762 0 0 0 .715 1.023l.248-.342a1.868 1.868 0 0 1-.753-1.6zm.907 1h-.569v.359h.569v1.97h.415v-3.611h-.415zm.787-1.352v3.863h.419v-3.863zm2.208 2.191a2.215 2.215 0 0 0 .488.051 1.981 1.981 0 0 0 .488-.056v.843h-.975zm.488-1.622c.582 0 .988.257.988.663s-.406.667-.988.667-.993-.257-.993-.667.409-.664.994-.664zm.928 2.46v-1.005a.893.893 0 0 0 .492-.792c0-.616-.6-1.01-1.42-1.01s-1.42.394-1.42 1.01a.888.888 0 0 0 .492.792v1.005h-.817v.359h3.5v-.359zm4.771-1.9v.509h-.95v.359h.95v.869h.441v-2.867H28.9v.77h-.774a2.088 2.088 0 0 0 .051-.471H26.4v.355h1.3a1.919 1.919 0 0 1-1.506 1.42l.188.355a2.547 2.547 0 0 0 1.622-1.3zm-1.6 2.3v-.848h-.441v1.207h2.576v-.359zm4.963-1.6a1.271 1.271 0 0 1-.907-1.164v-.073h.8v-.355H30.1v.355h.817v.077a1.336 1.336 0 0 1-.95 1.236l.227.347a1.578 1.578 0 0 0 .954-.907 1.529 1.529 0 0 0 .9.826zm-1.7 1.023h2.165v1.01h.441v-1.365h-2.603zm2.165-2.858v.971h-.676v.364h.676v.976h.441v-2.31zm4.54 1.219h-1.739v-.693h1.741zm.432-1.044H35.1v1.395h2.6zm-2.182 2.5h-.441v1.117h2.687v-.359h-2.243zm-.869-.727v.355h1.566v.723h.441v-.723h1.5v-.355zm5.079-1.677a.958.958 0 0 0-1.048.928.958.958 0 0 0 1.048.928.961.961 0 0 0 1.053-.928.961.961 0 0 0-1.05-.924zm0 .377a.559.559 0 0 1 .62.552.562.562 0 0 1-.62.552.56.56 0 0 1-.616-.552.558.558 0 0 1 .619-.549zm1.489-.65v3.872h.445v-3.872zm-2.661 3.055A13.449 13.449 0 0 0 41.017-12l-.03-.321a17.663 17.663 0 0 1-2.486.128zm6.863-1.228h-2.236v-1.125h2.208v-.359h-2.648v1.84h2.678zm-3.106 1.181v.364h3.5v-.364zm6.17-1.416a9.679 9.679 0 0 1-1.707.116v-.428H48.1v-1.1h-1.77v.359h1.335v.4h-1.326v1.121h.325a10.986 10.986 0 0 0 1.87-.116zm.406 1.874h-1.654v-.4h1.656zm0-.749h-1.654v-.4h-.441v1.5h2.533v-1.5h-.436zm0-2.713v2.135h.441v-2.135zm1.75.377H50.2v2.511h.329a9.228 9.228 0 0 0 1.887-.184l-.047-.368a8.948 8.948 0 0 1-1.733.175zm2.088-.377v3.863h.441v-3.863zm1.673.723h1.356v-.359h-1.8v2.554h.317a9.536 9.536 0 0 0 1.806-.128l-.047-.364a9.328 9.328 0 0 1-1.634.124zm3 .762h-.6v-1.489h-.441v3.872h.441v-2.019h.6zm.655 2.105a.327.327 0 0 0 .329-.342.335.335 0 0 0-.329-.351.335.335 0 0 0-.329.351.327.327 0 0 0 .325.345z" class="cls-1" transform="translate(-4735.913 -7747.129)"/>
        <path id="패스_2864" d="M2.079-14.533h-.441v2.443h.257a7.423 7.423 0 0 0 1.365-.116l-.047-.377a7.17 7.17 0 0 1-1.134.116zm2.255-.445v1.536h-.458V-14.9h-.415v3.594h.415v-1.771h.458v1.964h.419v-3.863zm4.146 0h-.441v1.964h.441zm-2.683 1a.525.525 0 0 1 .582-.509.531.531 0 0 1 .59.509.531.531 0 0 1-.59.509.525.525 0 0 1-.579-.512zm1.6 0a.922.922 0 0 0-1.018-.873.917.917 0 0 0-1.01.873.914.914 0 0 0 1.01.869.919.919 0 0 0 1.021-.872zm-1.01 2.473v-.342h2.092v-.993H5.946v.347h2.1v.321H5.955v1.014h2.64v-.347zm5.866-3.145h-.877v-.359h-.445v.359h-.886v.321h2.208zm-1.609 1.018c0-.175.2-.282.5-.282s.5.107.5.282-.2.274-.5.274-.5-.105-.5-.276zm1.716.71c-.312.047-.65.068-.984.086v-.24c.428-.051.693-.252.693-.556 0-.359-.364-.578-.92-.578s-.92.218-.92.578c0 .3.265.509.7.556v.257c-.355.009-.693.009-.984.009l.051.351a14.567 14.567 0 0 0 2.4-.154zm-1.934 1.082h2.139v.732h.441v-1.082h-2.58zm3.11-1.994h-.531v-1.138h-.441v2.61h.441v-1.108h.531zm3.457-1.142h-.441v2.807h.441zm-2.678 1.224a.564.564 0 0 1 .595-.586.566.566 0 0 1 .595.586.568.568 0 0 1-.595.586.566.566 0 0 1-.595-.588zm1.617 0a.967.967 0 0 0-1.023-.967.97.97 0 0 0-1.027.967.973.973 0 0 0 1.027.967.969.969 0 0 0 1.023-.969zm-1.018 2.208v-.907h-.445v1.266H17.1v-.359zm3.667-.8c-.261 0-.445-.21-.445-.531s.184-.535.445-.535.445.214.445.535-.184.529-.445.529zm0-1.429a.833.833 0 0 0-.839.9.835.835 0 0 0 .839.9.835.835 0 0 0 .839-.9.833.833 0 0 0-.839-.903zm.218-1.091h-.436v.518h-.732v.355h1.891v-.355H18.8zm1.711-.111v1.6h-.41V-14.9h-.411v3.6h.411v-1.72h.411v1.9h.419v-3.863zm2.357.312h-.445v.637a1.981 1.981 0 0 1-.98 1.763l.278.351a2 2 0 0 0 .928-1.224 1.9 1.9 0 0 0 .916 1.159l.261-.355a1.859 1.859 0 0 1-.958-1.694zm1.365-.321v1.271h-.826v.359h.826v2.246h.445v-3.876zm2.751 1.271h1.831v.633h-1.83zm1.134 1.767v-.779h1.134v-1.994h-.436v.65h-1.831v-.65h-.436v1.994h1.13v.779h-1.524v.364h3.5v-.364zm2.477-2.584h-.441v2.443h.257a7.423 7.423 0 0 0 1.365-.116l-.047-.377a7.17 7.17 0 0 1-1.134.116zm2.255-.445v1.536h-.458V-14.9h-.415v3.594h.415v-1.771h.458v1.964h.419v-3.863zm4.069 1.823h-2.237v-1.128h2.208v-.359H34.24v1.84h2.678zm-3.106 1.181v.364h3.5v-.364zM38.3-13.2h1.348v-1.433h-1.8v.359h1.356v.719H37.86v1.532h.329a10.64 10.64 0 0 0 1.921-.137l-.047-.359a11.062 11.062 0 0 1-1.758.133zm2.079-1.784v3.881h.445v-3.881zm4.356.009h-.415v2.212h.419zm-3.029 2.306a2.4 2.4 0 0 0 1.151-.894h.685v.749h.415V-14.9h-.415v.971h-.509a2.211 2.211 0 0 0 .128-.774h-1.489v.355h1.035A1.687 1.687 0 0 1 41.492-13zm2.559.034h-.432v.218a1.111 1.111 0 0 1-.5.894 1.057 1.057 0 0 1-.483-.894v-.218h-.428v.218a1.067 1.067 0 0 1-.753.963l.218.321a1.31 1.31 0 0 0 .744-.685 1.213 1.213 0 0 0 .71.719 1.272 1.272 0 0 0 .7-.736 1.259 1.259 0 0 0 .757.7l.214-.321a1.021 1.021 0 0 1-.749-.963zm4.338-1.185c-.766-.1-1.335-.522-1.335-.967v-.15h-.454v.15c0 .449-.56.869-1.335.967l.163.342a1.925 1.925 0 0 0 1.4-.779 1.943 1.943 0 0 0 1.4.779zm-.7 2.31h-1.739v-.415h1.741zm0-.753h-1.739v-.394h-.436v1.5h2.618v-1.5h-.441zm-2.61-.984v.351h3.5v-.351zm4.5-1.352h-.436v2.511h.329a9.228 9.228 0 0 0 1.887-.184l-.047-.368a8.949 8.949 0 0 1-1.733.175zm2.088-.377v3.863h.441v-3.863zm1.673.723h1.356v-.359h-1.8v2.554h.317a9.536 9.536 0 0 0 1.806-.128l-.047-.364a9.328 9.328 0 0 1-1.634.124zm3 .762h-.6v-1.489h-.441v3.872h.441v-2.019h.6zm.655 2.105a.327.327 0 0 0 .329-.342.335.335 0 0 0-.329-.351.335.335 0 0 0-.329.351.327.327 0 0 0 .327.34z" class="cls-1" transform="translate(-4734.739 -7682.143)"/>
        <path id="패스_2860" d="M2.882-11.926v-.911h1.142v-.355H1.787v-1.125h2.2v-.355H1.346v1.835h1.1v.911H.918v.364h3.5v-.364zm3.393-1.219h-.929v-1.147h.928zm1.232-.813v.471H6.7v-.471zm-.8.826h.8v.988h.441v-2.82h-.441v.646H6.7v-.325H4.914v1.848H6.7zm-.826 1.6v-.868h-.449v1.228h2.605v-.359zm3.568-.8c-.265 0-.428-.347-.428-.958s.163-.954.428-.954.428.342.428.954-.167.953-.432.953zm1.233-1.168h-.415c-.047-.723-.359-1.164-.821-1.164-.5 0-.83.522-.83 1.369s.329 1.373.83 1.373c.471 0 .787-.462.826-1.215h.411v1.853h.411v-3.607h-.411zm.774-1.463v3.863h.419v-3.859zm3.264 1.005h.839v-.355h-.839v-.573h-.44v.573h-.856v.355h.856v.222a1.735 1.735 0 0 1-.98 1.566l.244.338a1.87 1.87 0 0 0 .958-1.138 1.829 1.829 0 0 0 .954 1.074l.235-.342a1.67 1.67 0 0 1-.976-1.5zm1.28-1.01v3.868h.445v-3.863zm4.433 1.429c-.779-.111-1.361-.595-1.361-1.1v-.205h-.466v.205c0 .509-.573.984-1.361 1.1l.171.355a1.943 1.943 0 0 0 1.425-.873 1.955 1.955 0 0 0 1.42.873zm.15.719h-3.492v.359h1.515v1.361h.441v-1.365h1.536zm.526-1.737v.359h1.351a2.539 2.539 0 0 1-1.545 2.054l.244.338a2.907 2.907 0 0 0 1.741-2.752zm3.391 1.116h-.586v-1.527h-.444v3.868h.441v-1.968h.589zm2.469.7h.762v.83h-.762zm-.069-1.534h.89v1.181h-.89zm1.262 2.366v-.83h.62v-.355h-.556v-1.181h.574v-.355h-2.908v.355h.569v1.181H25.9v.355h.62v.83h-.92v.364h3.5v-.364zm2.7-2.734h-.441v.633a1.943 1.943 0 0 1-1.021 1.763l.261.368a2.008 2.008 0 0 0 .984-1.245 1.929 1.929 0 0 0 .958 1.159l.257-.351a1.871 1.871 0 0 1-1-1.694zm1.309-.325v3.876h.445v-3.876zm2.588 1.981h.787v-.355h-1.555v-.911h1.536v-.359H33.55v1.626h.766v.715c-.364.009-.715.013-1.035.013l.056.364a15.509 15.509 0 0 0 2.46-.141l-.034-.325c-.321.039-.663.06-1.005.073zM36-14.973v3.881h.445v-3.881zm2.52.757h.86v-.364h-2.167v.364h.86v.368a1.889 1.889 0 0 1-1 1.66l.252.351a1.993 1.993 0 0 0 .971-1.215 1.894 1.894 0 0 0 .976 1.117l.244-.347a1.743 1.743 0 0 1-1-1.566zm1.309-.749v3.865h.445v-3.863zm2.426 1.1a.544.544 0 0 1 .586-.539.544.544 0 0 1 .586.539.543.543 0 0 1-.586.535.543.543 0 0 1-.588-.53zm1.6 0a.93.93 0 0 0-1.014-.9.93.93 0 0 0-1.014.9.932.932 0 0 0 1.014.9.932.932 0 0 0 1.012-.895zm-1.275 1.207h-.43v1.458h.2a2.992 2.992 0 0 0 1-.137l-.073-.351a2.722 2.722 0 0 1-.7.124zm1.6 1.249c-.2 0-.342-.09-.342-.24s.145-.24.342-.24.338.086.338.24-.147.249-.34.249zm0-.787c-.428 0-.732.214-.732.548s.3.548.732.548.727-.214.727-.548-.307-.544-.729-.544zm.214-.757h-.428v.317h-.757v.321h1.938v-.321h-.753zm.4-1.177v-.839h-.441v1.912h.441v-.71h.548v-.364zm2.559-.364c.565 0 .92.158.92.428s-.355.432-.92.432-.924-.158-.924-.432.355-.423.924-.423zm0 1.215c.834 0 1.378-.3 1.378-.787s-.543-.783-1.378-.783-1.378.3-1.378.783.543.792 1.378.792zm-.864.976h-.445v1.125h2.666v-.359h-2.222zm-.886-.663v.359h3.5v-.359zm6.041-1.681H51.2v.633a1.956 1.956 0 0 1-.98 1.741l.27.355a2 2 0 0 0 .933-1.211 1.924 1.924 0 0 0 .89 1.138l.27-.351a1.875 1.875 0 0 1-.941-1.673zm2.242 1.211h-.6v-1.532h-.441v3.868h.441v-1.968h.6zm2.52-1.125h-.92v-.436h-.441v.436h-.92v.351h2.28zm-1.656 1.2c0-.227.205-.364.513-.364s.518.137.518.364-.21.359-.518.359-.513-.135-.513-.353zm1.45 0c0-.419-.377-.689-.937-.689s-.937.27-.937.689.381.685.937.685.937-.264.937-.679zm-.3 1.917c-.531 0-.839-.116-.839-.342s.308-.338.839-.338.839.116.839.338-.303.347-.834.347zm0-1.018c-.787 0-1.275.252-1.275.676s.488.68 1.275.68 1.275-.252 1.275-.68-.482-.671-1.27-.671zm1.232-1.472v-1.035H56.7v2.469h.441v-1.07h.548v-.364zm3.9-.094h-2.2v-.483H61v-.355h-2.6v1.194h2.636zm-2.229 2.216h2.2v-.958h-2.642v.338h2.212v.3h-2.2v.988h2.747v-.342h-2.31zm-.851-1.6v.355h3.5v-.343zm6.559-1.566v3.876h.445v-3.876zm-1.613.287c-.573 0-.993.531-.993 1.361s.419 1.365.993 1.365 1-.526 1-1.365-.42-1.352-.998-1.352zm0 .4c.338 0 .573.364.573.963s-.235.971-.573.971-.569-.364-.569-.971.238-.956.571-.956zm6.747-.676h-.441v2.195h.441zm-2.084.573a.548.548 0 0 1 .595.548.546.546 0 0 1-.595.548.546.546 0 0 1-.595-.548.548.548 0 0 1 .598-.54zm0 1.459a.934.934 0 0 0 1.023-.911.934.934 0 0 0-1.023-.911.938.938 0 0 0-1.027.911.938.938 0 0 0 1.03.919zm1.673.329h-.432v.171a1.114 1.114 0 0 1-.5.886 1.038 1.038 0 0 1-.488-.886v-.165h-.428v.171a1.044 1.044 0 0 1-.749.95l.214.325a1.3 1.3 0 0 0 .749-.685 1.212 1.212 0 0 0 .71.719 1.3 1.3 0 0 0 .706-.727 1.247 1.247 0 0 0 .757.693l.218-.325a1 1 0 0 1-.753-.95zm4.166-1.25h-2.216v-.971h-.441v1.327H73.4zm-2.238 1.532h-.441v1.138h2.7v-.355h-2.263zm-.869-.71v.355H73.8v-.355zm4.4-1.117h1.027v-.359h-1.468V-12h.261a6.782 6.782 0 0 0 1.4-.107l-.039-.364a5.557 5.557 0 0 1-1.189.107zm1.523.633h-.766v.359h.762v1.874h.415v-3.6h-.415zm.784-1.45v3.868h.424v-3.863zm2.383.381h-.441v2.524h.321a9.37 9.37 0 0 0 1.835-.171l-.051-.364a8.6 8.6 0 0 1-1.664.167zm3 1.13H81.8v-1.506h-.441v3.863h.441v-1.994h.586zm1.6-1.185h-.441v.633a1.956 1.956 0 0 1-.98 1.741l.27.355a2 2 0 0 0 .933-1.211 1.924 1.924 0 0 0 .89 1.138l.27-.351a1.875 1.875 0 0 1-.941-1.673zm2.242 1.211h-.6v-1.532h-.441v3.863h.441v-1.968h.6zm2.862-.047h-1.76v-.492h1.767zm.441-1.335h-.441v.488h-1.76v-.488h-.441v1.69h2.648zm.432 2.109h-3.5v.355h1.519v1.249h.441v-1.25h1.545zm2.041.916h2.2v-.924h-2.639v.329h2.212v.282h-2.2v.963h2.747v-.338h-2.31zm1.112-1.545v-.317h1.117V-14h-2.2v-.471h2.17v-.355h-2.6v1.177h1.074v.317h-1.531v.351h3.5v-.351zm2.152-.09a1.965 1.965 0 0 0 1.45-.56 1.988 1.988 0 0 0 1.459.56l.12-.329c-.753-.043-1.232-.257-1.318-.56h1.142v-.329h-1.173v-.338H96.5v.338h-1.172v.329h1.138c-.086.3-.56.518-1.322.56zm3.2.471v-.329h-3.48v.329H96.5v.3h-1.108v.325H97.6v.27h-2.2v.924h2.747v-.329h-2.31v-.291h2.2v-.9h-1.092v-.3zm2.965-.526h-1.76v-.492h1.767zm.441-1.335h-.441v.488h-1.76v-.488h-.44v1.69h2.648zm.432 2.109h-3.5v.355h1.519v1.249h.441v-1.25h1.545zm1.574-1.99a.958.958 0 0 0-1.048.928.958.958 0 0 0 1.048.928.961.961 0 0 0 1.053-.928.961.961 0 0 0-1.045-.929zm0 .377a.559.559 0 0 1 .62.552.562.562 0 0 1-.62.552.56.56 0 0 1-.616-.552.558.558 0 0 1 .624-.553zm1.489-.65v3.867h.445v-3.872zm-2.661 3.055a13.449 13.449 0 0 0 2.46-.171l-.03-.321a17.664 17.664 0 0 1-2.486.128zm5.305-2.268h.475c.458 0 .706.133.706.513s-.248.569-.706.569h-.475zm1.79 2.75l-.77-1.335a.877.877 0 0 0 .659-.9c0-.68-.488-.911-1.138-.911h-1.031v3.149h.5V-12.7h.509l.715 1.271zm.389-3.316v.355h1.3c-.064.552-.56 1-1.485 1.211l.163.355c1.151-.27 1.81-.92 1.81-1.921zm1.181 3.252h-.543v-.419h.543zm1.459-1.215h-.419v.308a1.051 1.051 0 0 1-.637.95v-1.215h-.4v.419h-.543v-.419h-.406v1.515h1.352v-.282l.218.321a1.219 1.219 0 0 0 .625-.642 1.2 1.2 0 0 0 .625.642l.235-.334a1.027 1.027 0 0 1-.646-.963zm.205-1.4v-.851h-.434v2.1h.441v-.886h.548v-.364zm2.559-.377c.565 0 .92.158.92.428s-.355.432-.92.432-.924-.158-.924-.432.357-.431.926-.431zm0 1.215c.834 0 1.378-.3 1.378-.787s-.543-.783-1.378-.783-1.378.3-1.378.783.546.784 1.38.784zm-.864.976h-.445v1.125h2.666v-.359h-2.221zm-.886-.663v.359h3.5v-.359zm5.3 1.532h.5a4.114 4.114 0 0 1 .907-2.849v-.3h-2.028v.415h1.48a4.547 4.547 0 0 0-.86 2.73zm4.467-3.534v2.075h.441v-2.075zm-2.084 2.255v1.562h2.524v-1.562h-.436v.428h-1.651v-.428zm.436.77h1.651v.436h-1.651zm0-2.849a.934.934 0 0 0-1.027.9.934.934 0 0 0 1.027.9.93.93 0 0 0 1.023-.9.93.93 0 0 0-1.019-.905zm0 .364a.541.541 0 0 1 .595.535.539.539 0 0 1-.595.535.536.536 0 0 1-.595-.535.539.539 0 0 1 .599-.54zm3.393-.163h-.436v2.511h.329a9.228 9.228 0 0 0 1.887-.184l-.047-.368a8.948 8.948 0 0 1-1.733.175zm2.088-.377v3.86h.441v-3.863zm1.673.723h1.356v-.363h-1.8v2.554H129a9.536 9.536 0 0 0 1.806-.128l-.047-.364a9.328 9.328 0 0 1-1.634.124zm3 .762h-.6v-1.489h-.441v3.864h.441v-2.019h.6zm.655 2.105a.327.327 0 0 0 .329-.342.335.335 0 0 0-.329-.351.335.335 0 0 0-.329.351.327.327 0 0 0 .331.338zM3.524-7.033a8.708 8.708 0 0 1-.15 1.833l.445.047a9.58 9.58 0 0 0 .145-1.878v-.415H1.29v.355h2.234zM.918-4.872v.364h3.5v-.364zM5.41-6.058h1.348v-1.433h-1.8v.359h1.355v.719H4.965v1.532h.329a10.64 10.64 0 0 0 1.921-.137l-.047-.359a11.062 11.062 0 0 1-1.758.133zm2.08-1.784v3.881h.445v-3.881zm3.757.749a8.316 8.316 0 0 1-.15 1.767l.445.047a8.846 8.846 0 0 0 .15-1.814v-.381H8.94v.359h2.306zm-.924 2.255V-6.2h-.446v1.361h-1.3v.364h3.491v-.364zm6.242-2.683H15.23v-.359h-.445v.359h-1.352v.338h3.132zm-2.927 2.815h2.225v.74h.445v-1.082h-2.67zm.552-1.784c0-.171.274-.257.817-.257s.813.086.813.257-.274.257-.813.257-.817-.086-.817-.257zm1.04.83v-.274c.663-.034 1.044-.227 1.044-.556 0-.368-.462-.565-1.266-.565s-1.271.2-1.271.565c0 .329.381.522 1.048.556v.274h-1.528v.347h3.5v-.347zm3.286-1.853h-.441v.633a1.943 1.943 0 0 1-1.018 1.763l.261.368a2.008 2.008 0 0 0 .982-1.244 1.929 1.929 0 0 0 .958 1.159l.257-.351a1.871 1.871 0 0 1-1-1.694zm1.309-.325v3.876h.445v-3.875zm3.046 3.594a.98.98 0 0 0 1.108-.916.879.879 0 0 0-.642-.851l-.432-.184c-.257-.1-.509-.205-.509-.475 0-.252.21-.406.531-.406a1 1 0 0 1 .693.282l.261-.317a1.349 1.349 0 0 0-.954-.4.936.936 0 0 0-1.035.869.906.906 0 0 0 .642.826l.436.188c.291.128.5.218.5.5 0 .265-.214.445-.595.445a1.221 1.221 0 0 1-.839-.372l-.291.342a1.571 1.571 0 0 0 1.126.469zm2.824 0a1.243 1.243 0 0 0 .98-.454l-.265-.312a.918.918 0 0 1-.7.334c-.556 0-.907-.458-.907-1.207s.377-1.194.92-1.194a.838.838 0 0 1 .616.282l.27-.317a1.214 1.214 0 0 0-.894-.4A1.467 1.467 0 0 0 24.3-5.865a1.433 1.433 0 0 0 1.395 1.621zm1.429-.056h.445v-1.557c0-.282-.039-.689-.06-.976h.017l.248.727.552 1.5h.308l.548-1.5.252-.727h.017c-.026.287-.064.693-.064.976V-4.3h.462v-3.148h-.573l-.569 1.592c-.073.21-.133.424-.205.637h-.022c-.073-.214-.137-.428-.21-.637l-.578-1.592h-.569zm4.467-1.228l.62-.95c.09-.163.175-.325.252-.483h.017c-.009.171-.026.436-.026.608v.826zm1.729 0h-.4v-1.92h-.569l-1.257 1.972v.329h1.361v.847h.462v-.847h.4zm.6 0l.62-.95c.09-.163.175-.325.252-.483h.017c-.009.171-.026.436-.026.608v.826zm1.729 0h-.4v-1.92h-.569l-1.254 1.972v.329h1.361v.847h.462v-.847h.4zm1.241 1.284c.616 0 1.018-.548 1.018-1.643s-.4-1.622-1.018-1.622-1.018.531-1.018 1.622.399 1.643 1.02 1.643zm0-.389c-.321 0-.548-.342-.548-1.254s.227-1.232.548-1.232.548.329.548 1.232-.225 1.254-.546 1.254zm3.076-2.982c-.809 0-1.42.436-1.42 1.091s.612 1.091 1.42 1.091 1.42-.432 1.42-1.091-.614-1.091-1.418-1.091zm0 .364c.569 0 .993.282.993.727s-.424.727-.993.727-.993-.282-.993-.727.422-.727.995-.727zm-1.746 2.43v.364h3.5v-.364zm5.793.034v-.659h1.207V-5.8h-2.313v-.54h2.229v-1.224h-2.67v.355H44.7v.518h-2.225v1.245h1.1v.659h-1.523v.364h3.5v-.364zm3.896-2.263h.637v-.364H46.8v.364h.68v.278a2 2 0 0 1-.8 1.729l.265.325a1.915 1.915 0 0 0 .755-1.139 1.758 1.758 0 0 0 .74 1.044l.257-.321a1.85 1.85 0 0 1-.787-1.639zm.924.573h-.569v.359h.569v1.96h.415v-3.6h-.415zm.779-1.361v3.863h.419v-3.862zM52.838-6a1.247 1.247 0 0 1-.916-1.159v-.068h.809v-.359h-2.075v.359h.821v.068a1.3 1.3 0 0 1-.95 1.228l.231.347a1.558 1.558 0 0 0 .946-.881 1.481 1.481 0 0 0 .907.8zm-1.8 1.035h2.1v.993h.441v-1.345h-2.538zm3.092-1.884h-.548v-.988h-.441v2.332h.441v-.98h.548zm2.721.406h.394v1h.419v-2.386h-.419V-6.8h-.394v-.975h-.415V-5.5h.415zm-.551-.975h-.744v-.394h-.432v.394h-.749v.347H56.3zm-.958.826c.261 0 .436.133.436.342s-.175.347-.436.347-.432-.133-.432-.347.17-.342.431-.342zm0 1.01c.488 0 .83-.265.83-.667s-.342-.663-.83-.663-.826.27-.826.663.341.666.825.666zm1.878.257h-.432v.107a1.029 1.029 0 0 1-.5.826.968.968 0 0 1-.479-.826v-.107h-.428v.107a.978.978 0 0 1-.749.877l.21.325a1.281 1.281 0 0 0 .749-.65 1.194 1.194 0 0 0 .706.689A1.269 1.269 0 0 0 57-4.684a1.2 1.2 0 0 0 .762.667l.21-.325a.942.942 0 0 1-.749-.877zm2.75-2.119c.6 0 .92.116.92.338s-.321.334-.92.334-.92-.116-.92-.334.321-.338.92-.338zm0 1c.864 0 1.378-.235 1.378-.663s-.513-.667-1.378-.667-1.378.235-1.378.667.508.664 1.378.664zm-.89 1.78h2.2v-.924h-2.645v.334h2.212v.278h-2.2V-4h2.743v-.338h-2.31zm-.86-1.553v.351h3.5v-.351zM63.4-7h.419v-.355H63v2.417h.158a3.262 3.262 0 0 0 .719-.068l-.039-.364a2.523 2.523 0 0 1-.436.06zm.976 0h.445v-.355h-.843v2.417h.167a3.142 3.142 0 0 0 .779-.077l-.034-.364a2.687 2.687 0 0 1-.513.073zm1.463-.83v1.54h-.381v-1.47h-.406v3.607h.406v-1.78h.381v1.963h.415v-3.863zm3.14.744h.839v-.359H67.7v.359h.834v.312a1.952 1.952 0 0 1-.984 1.72l.261.351a2.068 2.068 0 0 0 .954-1.249 1.946 1.946 0 0 0 .941 1.168l.257-.347a1.861 1.861 0 0 1-.984-1.643zm1.378-.749v1.382H69.6v.364h.762v2.126h.438v-3.874zm3.5.5h-.946v-.458h-.441v.458h-.95v.351h2.336zm-.645 1.265c0 .24-.21.389-.518.389s-.518-.15-.518-.389.21-.389.518-.389.518.145.518.389zm-1.45 0c0 .436.381.727.933.727s.933-.291.933-.727-.381-.727-.933-.727-.933.29-.933.727zM71.5-4.684a14.111 14.111 0 0 0 2.469-.15l-.034-.325a20.247 20.247 0 0 1-2.49.111zm2.657-3.149v3.868h.443v-3.868zm1.284.406v.359h1.352a2.539 2.539 0 0 1-1.545 2.054l.244.338a2.907 2.907 0 0 0 1.741-2.751zM78.83-6.31h-.586v-1.527H77.8v3.863h.441v-1.968h.586zm3.11.744v.308h.76v.358h.441v-2.937H82.7v2.272zm-.77-1.8c.317 0 .535.137.535.355s-.218.355-.535.355-.539-.137-.539-.355.218-.352.539-.352zm0 1.035c.565 0 .954-.27.954-.68s-.389-.68-.954-.68-.958.27-.958.68.388.684.958.684zm-.175 1.3h.441v-.744a8.591 8.591 0 0 0 .993-.111l-.034-.317a21.961 21.961 0 0 1-2.477.116l.056.359c.3 0 .655 0 1.023-.021zm-.116.62v-.783h-.441v1.142h2.79V-4.4zm4.013-.762a.514.514 0 0 1-.539-.539.514.514 0 0 1 .539-.539.514.514 0 0 1 .539.539.514.514 0 0 1-.539.549zm0-1.442a.9.9 0 0 0-.958.9.9.9 0 0 0 .958.9.9.9 0 0 0 .958-.9.9.9 0 0 0-.958-.89zm.214-1.172h-.441v.539h-.92v.359h2.263v-.359h-.9zm2.255 1.5h-.595v-1.546h-.445v3.868h.445v-1.947h.595zm3.339-.438h-2.214V-7.7h-.441v1.331H90.7zm-2.239 1.532h-.441v1.138h2.7v-.355h-2.259zm-.869-.71v.355H91.1V-5.9zm4.848-1.66v.363h1.326c-.077.6-.6 1.087-1.5 1.343l.18.351a2.146 2.146 0 0 0 1.8-2.054zm1.626 3.247c-.513 0-.839-.154-.839-.419s.325-.424.839-.424.839.154.839.424-.322.419-.84.419zm0-1.194c-.77 0-1.275.3-1.275.774s.5.766 1.275.766 1.275-.291 1.275-.766-.501-.774-1.276-.774zM95.3-6.879v-.954h-.441v2.272h.441v-.954h.548v-.364zm3.57 1.322h.441v-2.28h-.441v.774h-.783v.363h.783zm-.466-.5a1.256 1.256 0 0 1-.904-1.211v-.359h-.445v.381a1.352 1.352 0 0 1-.958 1.3l.231.355a1.6 1.6 0 0 0 .963-.933 1.5 1.5 0 0 0 .881.817zm-.381 1.741c-.548 0-.86-.141-.86-.394s.312-.394.86-.394.864.141.864.394-.316.394-.864.394zm0-1.134c-.8 0-1.3.274-1.3.74s.5.74 1.3.74 1.3-.274 1.3-.74-.491-.74-1.3-.74zm3.662-1.994c.6 0 .92.116.92.338s-.321.334-.92.334-.92-.116-.92-.334.321-.338.92-.338zm0 1c.864 0 1.378-.235 1.378-.663s-.513-.667-1.378-.667-1.378.235-1.378.667.51.664 1.378.664zm-.89 1.78h2.2v-.924h-2.644v.334h2.212v.278h-2.2V-4h2.747v-.338h-2.31zm-.86-1.553v.351h3.5v-.351zm4.878-1.211v.359h1.352a2.539 2.539 0 0 1-1.545 2.054l.244.338a2.907 2.907 0 0 0 1.741-2.751zM108.2-6.31h-.586v-1.527h-.441v3.863h.441v-1.968h.586zm3.436-1.523h-.445v1.994h.445zm-.8 1.6a1.175 1.175 0 0 1-.941-1.04h.826v-.355H108.6v.355h.839a1.237 1.237 0 0 1-.958 1.117l.21.347a1.551 1.551 0 0 0 .98-.856 1.5 1.5 0 0 0 .963.77zm-1.288 1.891v-.342h2.092v-.975h-2.54v.334h2.1V-5h-2.088v1h2.64v-.342zm6.935-2.062C115.7-6.52 115.12-7 115.12-7.5v-.205h-.466v.205c0 .509-.573.984-1.361 1.1l.171.355a1.943 1.943 0 0 0 1.425-.873 1.955 1.955 0 0 0 1.42.873zm.15.719h-3.491v.359h1.515v1.365h.441V-5.33h1.536zm4.377-2.139h-.441v2.195h.441zm-2.084.573a.548.548 0 0 1 .595.548.546.546 0 0 1-.595.548.546.546 0 0 1-.595-.548.548.548 0 0 1 .593-.553zm0 1.459a.934.934 0 0 0 1.023-.911.934.934 0 0 0-1.023-.911.938.938 0 0 0-1.027.911.938.938 0 0 0 1.025.903zm1.673.329h-.432v.163a1.114 1.114 0 0 1-.5.886 1.038 1.038 0 0 1-.488-.886v-.171h-.428v.171a1.044 1.044 0 0 1-.749.95l.214.325a1.3 1.3 0 0 0 .749-.685 1.212 1.212 0 0 0 .71.719 1.3 1.3 0 0 0 .706-.727 1.247 1.247 0 0 0 .757.693l.218-.325a1 1 0 0 1-.753-.95zm2.8-1.977c.6 0 .92.116.92.338s-.321.334-.92.334-.92-.116-.92-.334.321-.342.921-.342zm0 1c.864 0 1.378-.235 1.378-.663s-.513-.667-1.378-.667-1.378.235-1.378.667.509.66 1.379.66zm-.89 1.78h2.2v-.924h-2.644v.334h2.212v.278h-2.2V-4h2.747v-.338h-2.31zm-.86-1.553v.351h3.5v-.351zm3.936-1.211v.364h.629a2.916 2.916 0 0 1-.779 2l.351.244a3.569 3.569 0 0 0 .843-2.61zm1.177 0v.364h.513a3.508 3.508 0 0 1-.744 2.255l.355.248a4.3 4.3 0 0 0 .8-2.867zm2.319 1.151h-.548v-1.56h-.441v3.859h.441v-1.938h.548zm1.489.633a2.215 2.215 0 0 0 .488.051 1.981 1.981 0 0 0 .488-.056v.845h-.975zm.488-1.622c.582 0 .988.257.988.663s-.406.667-.988.667-.993-.257-.993-.667.406-.665.992-.665zm.928 2.46v-1.007a.893.893 0 0 0 .492-.792c0-.616-.6-1.01-1.42-1.01s-1.42.394-1.42 1.01a.888.888 0 0 0 .492.792V-4.8h-.817v.359h3.5V-4.8zm1.7-.5h.432c-.073-.637.689-.869.689-1.493a.758.758 0 0 0-.843-.783 1.119 1.119 0 0 0-.851.411l.278.252a.7.7 0 0 1 .518-.261.392.392 0 0 1 .419.415c-.002.461-.746.738-.644 1.461zm.222 1.061a.327.327 0 0 0 .329-.342.335.335 0 0 0-.329-.351.332.332 0 0 0-.329.351.325.325 0 0 0 .328.339z" class="cls-1" transform="translate(-4813.104 -7650.068)"/>
        <g id="그룹_70673" transform="translate(-4643.265 -7786.414)">
            <g id="그룹_6" transform="translate(0 .004)">
                <path id="패스_1" d="M-499.885 282.4a1.032 1.032 0 0 1-1.107 1.019h-1.441v-3.481h1.343a1.009 1.009 0 0 1 1.083.994.877.877 0 0 1-.3.681.9.9 0 0 1 .422.787zm-1.764-1.715v.617h.559a.287.287 0 0 0 .216-.088.3.3 0 0 0 .083-.221.294.294 0 0 0-.082-.222.284.284 0 0 0-.217-.087zm.98 1.656a.317.317 0 0 0-.088-.24.308.308 0 0 0-.235-.093h-.656v.666h.656a.307.307 0 0 0 .235-.093.317.317 0 0 0 .089-.24z" class="cls-19" transform="translate(502.433 -279.868)"/>
                <path id="패스_2" d="M-362.678 282.653v.766h-2.009v-3.481h.784v2.715z" class="cls-19" transform="translate(371.488 -279.868)"/>
                <path id="패스_3" d="M-326.413 280.7h-.882v2.715h-.784V280.7h-.882v-.766h2.548z" class="cls-19" transform="translate(337.526 -279.868)"/>
                <path id="패스_4" d="M-275.932 282.222l-.3-.333a1.507 1.507 0 0 1-.887.273 1.083 1.083 0 0 1-1.225-1.048 1.181 1.181 0 0 1 .549-1 1.068 1.068 0 0 1-.142-.551 1.02 1.02 0 0 1 1.1-1.019 1.165 1.165 0 0 1 1.127.76l-.671.392c-.088-.234-.225-.378-.446-.378a.3.3 0 0 0-.227.073.3.3 0 0 0-.1.219.748.748 0 0 0 .269.492l.632.711a2.655 2.655 0 0 0 .162-.547l.656.378a2.568 2.568 0 0 1-.314.73l.431.487zm-.784-.865l-.627-.686-.029-.03a.493.493 0 0 0-.181.388c0 .234.147.407.495.407a.713.713 0 0 0 .343-.08z" class="cls-19" transform="translate(289.411 -278.544)"/>
                <path id="패스_5" d="M-206.386 279.938v3.481h-.588l-1.324-1.89v1.889h-.784v-3.481h.588l1.323 1.89v-1.89z" class="cls-19" transform="translate(223.565 -279.868)"/>
                <path id="패스_6" d="M-80.492 280.7h-.882v2.715h-.784V280.7h-.882v-.766h2.548z" class="cls-19" transform="translate(103.747 -279.868)"/>
                <g id="그룹_1" transform="translate(17.73 .095)">
                    <path id="패스_7" d="M-142.259 283.146a.452.452 0 0 1-.271-.414v-2.279h-.814v2.36a1.14 1.14 0 0 0 1.085 1.143z" class="cls-19" transform="translate(143.344 -280.453)"/>
                    <path id="패스_8" d="M-111.048 280.453v2.278a.451.451 0 0 1-.321.432v.793a1.14 1.14 0 0 0 1.085-1.143v-2.36z" class="cls-19" transform="translate(112.948 -280.453)"/>
                </g>
            </g>
            <g id="그룹_7" transform="translate(2.78)">
                <path id="패스_9" d="M-443.831 297.236a1.006 1.006 0 0 1-.506.136 1.011 1.011 0 0 1-1.011-1.011 1.006 1.006 0 0 1 .088-.412l-.585-.527a1.767 1.767 0 0 0-.269.938 1.776 1.776 0 0 0 1.776 1.776 1.767 1.767 0 0 0 1.09-.375z" class="cls-19" transform="translate(446.113 -294.534)"/>
                <path id="패스_10" d="M-432.7 279.388a1.006 1.006 0 0 1 .565-.173 1.011 1.011 0 0 1 1.011 1.011 1.007 1.007 0 0 1-.118.474l.578.521a1.767 1.767 0 0 0 .3-.994 1.776 1.776 0 0 0-1.776-1.776 1.768 1.768 0 0 0-1.142.417z" class="cls-19" transform="translate(433.914 -278.451)"/>
            </g>
        </g>
        <path id="패스_2893" d="M2.327-15.689H5.2v-1.335H1.574v.553h2.887v.262H1.58v1.363h3.759v-.554H2.327zm.057-3.394h2.048v.308H2.384zm1.386 1.2v-.337h1.409v-1.757h-.747v.348H2.384v-.348h-.747v1.757h1.38v.337H1.032v.588h4.752v-.588zm6.617.536H7.461v-.588h2.767v-.582H7.461v-.553h2.887v-.6H6.7v2.921h3.691zm-4.25 1.329v.61H10.9v-.61zm8.471-1.957h.4v1.831h.713v-3.913h-.713v1.478h-.4v-1.381h-.7v3.645h.7zm-2.67-.371c0-.434.217-.679.525-.679s.525.245.525.679-.222.679-.525.679-.524-.246-.524-.68zm1.723 0a1.219 1.219 0 0 0-1.2-1.329 1.224 1.224 0 0 0-1.2 1.329 1.224 1.224 0 0 0 1.2 1.329 1.219 1.219 0 0 0 1.201-1.33zm-.724 2.852v-1.147h-.753v1.741h3.668v-.6zm4.427-4h-.747v3.474h.445a12.075 12.075 0 0 0 2.424-.217l-.086-.616a11.628 11.628 0 0 1-2.037.205zm2.641-.565v1.626h-1.414v.61h1.415v3.041h.753v-5.277zm5.7 2.715h-2.927v-.588h2.767v-.582h-2.767v-.553h2.887v-.6h-3.651v2.921H25.7zm-4.25 1.329v.61h4.758v-.61z" class="cls-6" transform="translate(-4877.844 -7788.108)"/>
        <path id="패스_2889" d="M2.377 0h66.555a2.377 2.377 0 0 1 2.377 2.377V10.7a2.377 2.377 0 0 1-2.377 2.377H0v-10.7A2.377 2.377 0 0 1 2.377 0z" class="cls-3" transform="translate(-4863.747 -7790.329)"/>
        <path id="패스_2890" d="M4.311-14.941v3.876h.445v-3.876zm-2.529.321v2.636h1.857v-2.636H3.2v.984h-.98v-.984zm.436 1.335H3.2v.946h-.98zm6.14-.116a3.659 3.659 0 0 0 .107-1.027v-.325H5.812v.355h2.217a3.446 3.446 0 0 1-.1.95zm-1.219 1.99c-.573 0-.924-.141-.924-.385s.351-.381.924-.381.911.141.911.381-.342.385-.911.385zm0-1.1c-.834 0-1.361.274-1.361.719s.526.723 1.361.723 1.352-.274 1.352-.723-.531-.723-1.352-.723zm.086-.655v-.71h-.446v.71H5.41v.355h3.483v-.355zm2.152-1.279v.359h1.082a2.263 2.263 0 0 1-1.245 1.9l.257.312a2.715 2.715 0 0 0 1.429-2.575zm2.725-.488v1.51h-.441v-1.408h-.415v3.581h.415v-1.814h.439v1.994h.419v-3.863zm3.17.749h.817v-.364h-2.1v.364h.843v.372a1.919 1.919 0 0 1-.984 1.656l.252.351a2.013 2.013 0 0 0 .958-1.219A1.952 1.952 0 0 0 16-11.907l.244-.347a1.81 1.81 0 0 1-.967-1.562zm2.242.774h-.6v-1.523h-.444v3.863h.441v-1.98h.6zm1.609.856h.792v.667h-.792zm1.228.667v-.667h.569v-.355h-2.315v-.535h2.229v-1.219h-2.67v.355H20.4v.513h-2.227v1.241h.513v.667h-.937v.364h3.5v-.364zm1.981-1.784c0-.419.415-.685.993-.685s.988.265.988.685-.415.685-.988.685-.993-.269-.993-.688zm1.211 1.767v-.736c.706-.064 1.2-.458 1.2-1.031 0-.629-.6-1.035-1.42-1.035s-1.42.406-1.42 1.035c0 .573.492.963 1.2 1.027v.74h-1.524v.359h3.5v-.359zm4.052-1.72H26.7v-.776h.89zm-1.331 0h-.526v.355h2.82v-.355h-.522v-.776h.543v-.355h-2.863v.355h.548zm.026 1.386h-.445v1.1h2.665v-.359h-2.221zm-.886-.667v.359h3.5v-.359zm6.568-2.032v3.876h.445v-3.876zm-1.613.287c-.573 0-.993.531-.993 1.361s.419 1.365.993 1.365 1-.526 1-1.365-.423-1.365-1.001-1.365zm0 .4c.338 0 .573.364.573.963s-.235.971-.573.971-.569-.364-.569-.971.234-.969.568-.969zm4.822 1.51a2.215 2.215 0 0 0 .488.051 1.981 1.981 0 0 0 .488-.056v.843h-.977zm.488-1.622c.582 0 .988.257.988.663s-.406.667-.988.667-.993-.257-.993-.667.406-.669.992-.669zm.928 2.46v-1.005a.893.893 0 0 0 .492-.792c0-.616-.6-1.01-1.42-1.01s-1.42.394-1.42 1.01a.888.888 0 0 0 .492.792v1.005h-.817v.359h3.5v-.359zm3.217-1.964v.364h.7v.907h.441v-2.34h-.441v1.07zm.24.787a1.158 1.158 0 0 1-.941-1.031v-.034h.813v-.356h-.809v-.458h-.445v.458h-.813v.351h.813v.034a1.209 1.209 0 0 1-.928 1.125l.214.342a1.5 1.5 0 0 0 .95-.83 1.487 1.487 0 0 0 .941.732zm-.389 1.669c-.548 0-.86-.137-.86-.381s.312-.377.86-.377.864.133.864.377-.313.376-.865.376zm0-1.1c-.809 0-1.3.265-1.3.719s.492.723 1.3.723 1.3-.27 1.3-.723-.492-.724-1.301-.724zm3.41-.445h.787v-.355h-1.554v-.911h1.536v-.359h-1.977v1.626h.766v.715c-.364.009-.715.013-1.035.013l.056.364a15.509 15.509 0 0 0 2.46-.141l-.034-.325c-.321.039-.663.06-1.005.073zm1.241-1.985v3.881h.445v-3.881zm2.156.582a.542.542 0 0 1 .578.552.541.541 0 0 1-.578.548.546.546 0 0 1-.586-.548.547.547 0 0 1 .585-.557zm1.7.727v.886h.441v-2.186h-.443V-14h-.719a.944.944 0 0 0-.98-.727.93.93 0 0 0-1.005.916.929.929 0 0 0 1.005.911.941.941 0 0 0 .98-.736zm.047 1.035h-.432v.188a1.118 1.118 0 0 1-.5.9 1.049 1.049 0 0 1-.488-.9v-.192h-.428v.188a1.058 1.058 0 0 1-.753.967l.218.325a1.316 1.316 0 0 0 .744-.689 1.231 1.231 0 0 0 .71.723 1.305 1.305 0 0 0 .706-.736 1.259 1.259 0 0 0 .757.7l.218-.325a1.012 1.012 0 0 1-.753-.967zm4.33-1.181c-.766-.1-1.335-.522-1.335-.967v-.15h-.454v.15c0 .449-.56.869-1.335.967l.163.342a1.925 1.925 0 0 0 1.4-.779 1.943 1.943 0 0 0 1.4.779zm-.7 2.31H50.1v-.415h1.741zm0-.753H50.1v-.394h-.436v1.5h2.618v-1.5h-.441zm-2.61-.984v.351h3.5v-.351zm4.5-1.352H53.3v2.511h.329a9.228 9.228 0 0 0 1.887-.184l-.047-.368a8.948 8.948 0 0 1-1.733.175zm2.088-.377v3.863h.441v-3.863zm1.673.723h1.356v-.359h-1.8v2.554h.317a9.536 9.536 0 0 0 1.806-.128l-.047-.364a9.328 9.328 0 0 1-1.634.124zm3 .762h-.6v-1.489h-.441v3.872h.441v-2.019h.6zm.655 2.105a.327.327 0 0 0 .329-.342.335.335 0 0 0-.329-.351.335.335 0 0 0-.329.351.327.327 0 0 0 .32.338z" class="cls-6" transform="translate(-4859.4 -7770.607)"/>
        <path id="패스_2895" fill="#15be09" d="M.951 0A.951.951 0 1 1 0 .951.951.951 0 0 1 .951 0z" transform="translate(-4849.96 -7810.058)"/>
        <path id="패스_2874" d="M2.377 0h66.555a2.377 2.377 0 0 1 2.377 2.377V10.7a2.377 2.377 0 0 1-2.377 2.377H0v-10.7A2.377 2.377 0 0 1 2.377 0z" class="cls-3" transform="translate(-4863.034 -7743.266)"/>
        <path id="패스_2865" d="M2.377 0H101.5a2.377 2.377 0 0 1 2.377 2.377V10.7a2.377 2.377 0 0 1-2.377 2.377H0v-10.7A2.377 2.377 0 0 1 2.377 0z" class="cls-3" transform="translate(-4863.034 -7725.438)"/>
        <path id="패스_2876" d="M0 0h85.095" class="cls-2" transform="translate(-4883 -7679.325)"/>
        <path id="패스_2892" d="M0 0h217.491" class="cls-2" transform="translate(-4883 -7796.271)"/>
        <path id="패스_2880" d="M1.191-7.961a.734.734 0 0 0 .819-.7.62.62 0 0 0-.51-.614v-.017a.592.592 0 0 0 .423-.576c0-.406-.309-.632-.749-.632a1.032 1.032 0 0 0-.7.3l.2.24a.717.717 0 0 1 .489-.233.343.343 0 0 1 .376.356c0 .246-.16.429-.642.429v.283c.552 0 .725.176.725.449a.411.411 0 0 1-.466.406.791.791 0 0 1-.579-.27l-.185.24a1.017 1.017 0 0 0 .799.339zm1.467-1.308a.257.257 0 0 0 .256-.266.26.26 0 0 0-.256-.273.26.26 0 0 0-.256.273.257.257 0 0 0 .256.266zm0 1.308a.255.255 0 0 0 .256-.266.26.26 0 0 0-.256-.273.26.26 0 0 0-.256.273.255.255 0 0 0 .256.266zm1.354 0a.734.734 0 0 0 .819-.7.62.62 0 0 0-.506-.612v-.017a.592.592 0 0 0 .423-.576c0-.406-.309-.632-.749-.632a1.032 1.032 0 0 0-.7.3l.2.24a.717.717 0 0 1 .489-.233.343.343 0 0 1 .376.356c0 .246-.16.429-.642.429v.283c.552 0 .725.176.725.449a.411.411 0 0 1-.466.406.791.791 0 0 1-.579-.27l-.188.238a1.017 1.017 0 0 0 .799.339zm1.864 0A.808.808 0 0 0 6.7-8.81a.7.7 0 0 0-.745-.779.69.69 0 0 0-.335.089l.057-.629h.908v-.323H5.344l-.074 1.16.186.123a.644.644 0 0 1 .393-.14.454.454 0 0 1 .466.512.479.479 0 0 1-.486.522.784.784 0 0 1-.572-.263l-.183.25a1.084 1.084 0 0 0 .802.327zM7.886-8h.386v-.928h.369c.532 0 .922-.246.922-.782 0-.552-.389-.739-.935-.739h-.742zm.386-1.238v-.9h.319c.389 0 .592.106.592.429S9-9.242 8.6-9.242zM10.006-8h.346v-1.215c0-.22-.03-.536-.047-.759h.013l.193.566.429 1.168h.24l.426-1.168.2-.566h.013c-.02.223-.05.539-.05.759V-8h.359v-2.449h-.448l-.443 1.238c-.057.163-.1.329-.16.5h-.017c-.057-.166-.106-.333-.163-.5l-.449-1.238h-.443z" class="cls-21" transform="translate(-4832.907 -7642.561)"/>
        <path id="패스_2881" d="M1.285-10.752a.414.414 0 0 1 .456-.4.414.414 0 0 1 .456.4.414.414 0 0 1-.456.4.414.414 0 0 1-.456-.4zm1.245 0a.717.717 0 0 0-.789-.682.715.715 0 0 0-.789.682.713.713 0 0 0 .789.682.715.715 0 0 0 .788-.682zm-.939 1.631h.676v-.739H1.251v.26h.682v.236h-.675v.764h.19a5.529 5.529 0 0 0 1.042-.063l-.033-.26a4.716 4.716 0 0 1-.865.063zm.8-.463h.639v1.012h.343V-9.86H2.39zm.636-1.98v1.577h.346v-1.577zm2.256.063c-.656 0-1.072.216-1.072.576s.416.576 1.072.576 1.072-.22 1.072-.576-.418-.575-1.074-.575zm0 .266c.446 0 .715.11.715.309s-.27.306-.715.306-.719-.11-.719-.306.271-.309.717-.309zM4.246-9.6v1H6.31v-1zm1.727.273v.459H4.586v-.459zm-2.053-.8v.273h2.719v-.273z" class="cls-21" transform="translate(-4827.392 -7646.503)"/>
        <path id="패스_2877" d="M4.207-14.707H2.872v-.359h-.445v.359H1.075v.338h3.132zm-2.926 2.816h2.225v.74h.445v-1.082h-2.67zm.552-1.784c0-.171.274-.257.817-.257s.813.086.813.257-.274.257-.813.257-.817-.082-.817-.257zm1.04.83v-.274c.663-.034 1.044-.227 1.044-.556 0-.368-.462-.565-1.266-.565s-1.271.2-1.271.565c0 .329.381.522 1.048.556v.274H.9v.347h3.5v-.347zM6.158-14.7h-.44v.633A1.943 1.943 0 0 1 4.7-12.3l.261.368a2.008 2.008 0 0 0 .984-1.245A1.929 1.929 0 0 0 6.9-12.02l.257-.351a1.871 1.871 0 0 1-1-1.694zm1.309-.325v3.876h.445v-3.876zm3.915 3.042v-.911h1.142v-.355h-2.237v-1.125h2.2v-.355H9.846v1.835h1.1v.911H9.419v.364h3.5v-.364zm3.393-1.217h-.928v-1.147h.928zm1.232-.813v.471h-.8v-.471zm-.8.826h.8v.988h.441v-2.82h-.441v.646h-.8v-.327h-1.792v1.848H15.2zm-.826 1.6v-.869h-.445v1.228h2.606v-.359zm4.411-2.687h.526v1.8c-.175.009-.355.017-.526.021zm.954 0h.377v-.355h-2.139v.355h.377v1.831h-.475l.047.364a15.039 15.039 0 0 0 2.366-.145l-.026-.325c-.171.021-.351.039-.531.056zm1.784.766h-.6v-1.51h-.441v3.868h.441v-1.994h.6zm3.419-1.515H24.5v1.964h.441zm-2.683 1a.525.525 0 0 1 .582-.509.531.531 0 0 1 .59.509.531.531 0 0 1-.59.509.525.525 0 0 1-.585-.508zm1.6 0a.922.922 0 0 0-1.018-.873.917.917 0 0 0-1.01.873.914.914 0 0 0 1.01.869.919.919 0 0 0 1.015-.868zm-1.01 2.473v-.342h2.092v-.993h-2.536v.347h2.1v.321h-2.091v1.017h2.64v-.347zm4.424-2.208h1.831v.633h-1.834zm1.134 1.767v-.779h1.134v-1.994h-.436v.65h-1.835v-.65h-.436v1.994h1.13v.779h-1.524v.364h3.5v-.364zm2.477-2.584h-.441v2.443h.25a7.423 7.423 0 0 0 1.365-.116l-.047-.377a7.17 7.17 0 0 1-1.134.116zm2.255-.445v1.536h-.458v-1.459h-.418v3.594h.415v-1.771h.458v1.964h.419v-3.863zm1.314 1.891a1.872 1.872 0 0 0 1.395-.839 1.881 1.881 0 0 0 1.4.839l.158-.347c-.736-.1-1.279-.522-1.3-.971h1.168v-.353h-2.855v.355H35.6c-.026.449-.569.873-1.3.971zm3.145.282h-3.5v.355h1.515v1.339h.441v-1.337H37.6zm3.517-2.173h-.445v1.981h.445zm-.834 1.549a1.24 1.24 0 0 1-.941-1.155v-.291h-.449v.291a1.309 1.309 0 0 1-.958 1.224l.218.351a1.577 1.577 0 0 0 .971-.894 1.541 1.541 0 0 0 .946.821zm-1.258 1.934v-.338h2.092v-.98h-2.537v.342h2.1v.317h-2.091v1.005h2.64v-.347zm6.935-2.058c-.779-.111-1.361-.595-1.361-1.1v-.205h-.466v.205c0 .509-.573.984-1.361 1.1l.171.355a1.943 1.943 0 0 0 1.425-.873 1.955 1.955 0 0 0 1.42.873zm.15.719H42.62v.359h1.515v1.365h.441v-1.365h1.536zm4.377-2.139h-.441v2.195h.441zm-2.084.573a.548.548 0 0 1 .595.548.546.546 0 0 1-.595.548.546.546 0 0 1-.595-.548.548.548 0 0 1 .587-.547zm0 1.459a.934.934 0 0 0 1.023-.911.934.934 0 0 0-1.023-.911.938.938 0 0 0-1.027.911.938.938 0 0 0 1.019.912zm1.673.329h-.432v.171a1.114 1.114 0 0 1-.5.886 1.038 1.038 0 0 1-.488-.886v-.171h-.428v.171a1.044 1.044 0 0 1-.749.95l.214.325a1.3 1.3 0 0 0 .749-.685 1.212 1.212 0 0 0 .71.719 1.3 1.3 0 0 0 .706-.727 1.247 1.247 0 0 0 .757.693l.218-.325a1 1 0 0 1-.753-.95zm1.63-1.99h-.441v2.524h.321a9.37 9.37 0 0 0 1.835-.171l-.051-.364a8.6 8.6 0 0 1-1.664.167zm3 1.13h-.586v-1.506h-.441v3.863h.441v-1.994h.586zm1.51.685a2.215 2.215 0 0 0 .488.051 1.981 1.981 0 0 0 .488-.056v.843h-.975zm.488-1.622c.582 0 .988.257.988.663s-.406.667-.988.667-.993-.257-.993-.667.407-.662.993-.662zm.928 2.46V-13a.893.893 0 0 0 .492-.792c0-.616-.6-1.01-1.42-1.01s-1.42.394-1.42 1.01a.888.888 0 0 0 .491.792v1.005h-.817v.359h3.5v-.359zm1.7-.5h.432c-.073-.637.689-.869.689-1.493a.758.758 0 0 0-.843-.783 1.12 1.12 0 0 0-.851.411l.278.252a.7.7 0 0 1 .518-.261.392.392 0 0 1 .419.415c-.001.467-.746.741-.643 1.46zm.222 1.061a.327.327 0 0 0 .329-.342.335.335 0 0 0-.329-.351.332.332 0 0 0-.329.351.325.325 0 0 0 .328.343z" class="cls-6" transform="translate(-4858.015 -7723.461)"/>
        <path id="패스_2870" d="M2.882-11.94v-.911h1.142v-.355H1.787v-1.125h2.2v-.355H1.346v1.835h1.1v.911H.918v.364h3.5v-.364zm3.393-1.219h-.929v-1.147h.928zm1.232-.813v.471H6.7v-.471zm-.8.826h.8v.988h.441v-2.82h-.441v.646H6.7v-.325H4.914v1.848H6.7zm-.826 1.6v-.869h-.449v1.228h2.605v-.359zm4.445-3.042c.6 0 .92.116.92.338s-.321.334-.92.334-.92-.116-.92-.334.317-.338.916-.338zm0 1c.864 0 1.378-.235 1.378-.663s-.513-.667-1.378-.667-1.378.235-1.378.667.506.664 1.374.664zm-.89 1.78h2.2v-.924H8.987v.334H11.2v.278H9v.971h2.747v-.338H9.432zm-.86-1.553v.351h3.5v-.351zm5.519-.355h1.831v.633h-1.834zm1.134 1.767v-.779h1.134v-1.994h-.436v.65h-1.835v-.65h-.436v1.994h1.13v.779h-1.525v.364h3.5v-.364zm3.393-1.211h-.932v-1.147h.928zm1.232-.813v.471h-.8v-.471zm-.8.826h.8v.988h.441v-2.82h-.445v.646h-.8v-.325h-1.792v1.848h1.788zm-.826 1.6v-.869h-.445v1.228h2.606v-.359zm3.881-1.153a1.979 1.979 0 0 0 1.412-.984 2 2 0 0 0 1.433.971l.18-.351c-.766-.12-1.382-.642-1.382-1.224v-.012h1.228v-.355h-2.918v.355h1.228v.009c0 .582-.612 1.117-1.365 1.236zm1.639.753v-.9H23.3v.9h-1.524v.359h3.5v-.359zm2.713-.257h1.776v.693h-1.776zm-.432 1.044h2.64v-1.395h-2.64zm2.541-2.221a4.865 4.865 0 0 0 .1-1.108v-.3h-2.624v.359h2.191a4.394 4.394 0 0 1-.107 1.048H25.6v.359h3.5v-.359zm2.349-.881h1.314v-.359h-1.755v2.571h.3a8.558 8.558 0 0 0 1.724-.128l-.043-.355a8.354 8.354 0 0 1-1.545.116zm2.139-.719v1.373h-1.035v.364h1.035v2.139h.442v-3.876zm3.992.976v.359h.685v.971h.441v-2.3h-.441v.971zm.222.86a1.267 1.267 0 0 1-.907-1.164v-.051h.8v-.355H35.1v.355h.817v.056a1.357 1.357 0 0 1-.946 1.258l.227.351a1.6 1.6 0 0 0 .954-.928 1.509 1.509 0 0 0 .9.826zm-.381 1.694c-.552 0-.864-.137-.864-.389s.312-.389.864-.389.86.137.86.389-.316.388-.859.388zm0-1.121c-.809 0-1.3.274-1.3.732s.5.732 1.3.732 1.3-.27 1.3-.732-.491-.733-1.299-.733zm4.184-2.079H40.2v-.359h-.445v.359h-.886v.321h2.208zm-1.609 1.018c0-.175.2-.282.5-.282s.5.107.5.282-.2.274-.5.274-.499-.104-.499-.275zm1.716.71c-.312.047-.65.068-.984.086v-.24c.428-.051.693-.252.693-.556 0-.359-.364-.578-.92-.578s-.92.218-.92.578c0 .3.265.509.7.556v.257c-.355.009-.693.009-.984.009l.051.351a14.567 14.567 0 0 0 2.4-.154zm-1.934 1.082h2.139v.732h.441v-1.082h-2.58zm3.11-1.994h-.531v-1.138h-.441v2.61h.441v-1.108h.531zm2.559-.7H44v-.445h-.441v.445h-.92v.351h2.28zm-1.656 1.262c0-.244.21-.389.513-.389s.518.145.518.389-.21.389-.518.389-.512-.147-.512-.391zm1.45 0c0-.436-.381-.732-.937-.732s-.937.3-.937.732.385.732.937.732.939-.293.939-.734zm-1.065.971H43.2v1.117h2.6v-.359h-2.153zm2-1.442v-1.232h-.441v2.9h.441v-1.3h.554v-.364zm4.428-.1v.509h-.95v.359h.95v.869h.441v-2.867h-.441v.77H49.3a2.088 2.088 0 0 0 .051-.471h-1.78v.355h1.3a1.919 1.919 0 0 1-1.506 1.42l.188.355a2.547 2.547 0 0 0 1.622-1.3zm-1.6 2.3v-.847h-.441v1.207h2.576v-.359zm4.963-1.6a1.271 1.271 0 0 1-.907-1.164v-.073h.8v-.355h-2.054v.355h.817v.077a1.336 1.336 0 0 1-.95 1.236l.227.347a1.578 1.578 0 0 0 .954-.907 1.529 1.529 0 0 0 .9.826zm-1.7 1.023h2.165v1.01h.441v-1.365h-2.601zm2.165-2.858v.971h-.676v.364h.676v.976h.441v-2.31zm2.815.394c.6 0 .92.116.92.338s-.321.334-.92.334-.92-.116-.92-.334.327-.341.926-.341zm0 1c.864 0 1.378-.235 1.378-.663s-.513-.667-1.378-.667-1.378.235-1.378.667.515.661 1.384.661zm-.89 1.78h2.2v-.924h-2.639v.334H57.6v.278h-2.2v.971h2.747v-.338h-2.31zm-.86-1.553v.351h3.5v-.351zm5.3-1.172h-.441v2.443h.257a7.423 7.423 0 0 0 1.365-.116l-.047-.377a7.17 7.17 0 0 1-1.134.116zm2.255-.445v1.536h-.458V-14.9h-.415v3.594h.415v-1.771h.458v1.964h.419v-3.863zm4.078 1.82h-2.24v-1.125h2.208v-.359h-2.649v1.84H66.6zm-3.106 1.181v.364H67v-.364zm7.012-3h-.441v2.024h.435zm-.843 1.459a10.066 10.066 0 0 1-1.716.107v-.392h1.343v-1H67.5v.338h1.348v.347h-1.339v1.044h.325a11.319 11.319 0 0 0 1.87-.107zm-1.236 2.028v-.342H70.5v-.958h-2.529v.334h2.084v.308h-2.076v1h2.64v-.342zm6.923-2.062c-.779-.111-1.361-.595-1.361-1.1v-.205h-.469v.205c0 .509-.573.984-1.361 1.1l.171.355a1.943 1.943 0 0 0 1.425-.873 1.955 1.955 0 0 0 1.42.873zm.15.719h-3.495v.359h1.515v1.365h.441v-1.365H75.5zm4.377-2.139h-.441v2.195h.441zm-2.087.569a.548.548 0 0 1 .595.548.546.546 0 0 1-.595.548.546.546 0 0 1-.595-.548.548.548 0 0 1 .595-.548zm0 1.459a.934.934 0 0 0 1.023-.911.934.934 0 0 0-1.023-.911.938.938 0 0 0-1.027.911.938.938 0 0 0 1.027.911zm1.673.329h-.432v.171a1.114 1.114 0 0 1-.5.886 1.038 1.038 0 0 1-.488-.886v-.171h-.433v.171a1.044 1.044 0 0 1-.749.95l.214.325a1.3 1.3 0 0 0 .749-.685 1.212 1.212 0 0 0 .71.719 1.3 1.3 0 0 0 .706-.727 1.247 1.247 0 0 0 .757.693l.218-.325a1 1 0 0 1-.753-.95zm4.364-1.211c-.766-.1-1.335-.522-1.335-.967v-.15h-.454v.15c0 .449-.56.869-1.335.967l.163.342a1.925 1.925 0 0 0 1.4-.779 1.943 1.943 0 0 0 1.4.779zm-.7 2.31h-1.743v-.415h1.741zm0-.753h-1.743v-.394h-.436v1.5h2.618v-1.5h-.441zm-2.61-.984v.351h3.5v-.351zm4.5-1.352h-.436v2.511h.329a9.228 9.228 0 0 0 1.887-.184l-.047-.368a8.949 8.949 0 0 1-1.733.175zm2.088-.377v3.863h.441v-3.863zm1.673.723h1.356v-.359h-1.8v2.554h.317a9.536 9.536 0 0 0 1.806-.128l-.047-.364a9.328 9.328 0 0 1-1.634.124zm3 .762h-.6v-1.489h-.441v3.872h.441v-2.019h.6zm.655 2.105a.327.327 0 0 0 .329-.342.335.335 0 0 0-.329-.351.335.335 0 0 0-.329.351.327.327 0 0 0 .323.343z" class="cls-6" transform="translate(-4858.029 -7705.675)"/>
        <g id="그룹_2401" transform="translate(-4876.842 -7788.289)">
            <g id="타원_951" class="cls-22">
                <circle cx="4.105" cy="4.105" r="4.105" class="cls-23"/>
                <circle cx="4.105" cy="4.105" r="3.955" class="cls-13"/>
            </g>
            <path id="패스_1-2" d="M-500.449 281.855a.8.8 0 0 1-.862.794h-1.122v-2.71h1.045a.786.786 0 0 1 .843.774.683.683 0 0 1-.233.531.7.7 0 0 1 .329.611zm-1.373-1.336V281h.435a.223.223 0 0 0 .168-.068.23.23 0 0 0 .064-.172.228.228 0 0 0-.064-.173.222.222 0 0 0-.169-.068zm.763 1.29a.247.247 0 0 0-.069-.187.239.239 0 0 0-.183-.073h-.511v.519h.511a.239.239 0 0 0 .183-.073.247.247 0 0 0 .069-.187z" class="cls-19" transform="translate(505.742 -277.154)"/>
        </g>
        <g id="그룹_2402" transform="translate(-4876.842 -7722.604)">
            <g id="타원_951-2" class="cls-22">
                <circle cx="4.105" cy="4.105" r="4.105" class="cls-23"/>
                <circle cx="4.105" cy="4.105" r="3.955" class="cls-13"/>
            </g>
            <path id="패스_1-3" d="M-500.449 281.855a.8.8 0 0 1-.862.794h-1.122v-2.71h1.045a.786.786 0 0 1 .843.774.683.683 0 0 1-.233.531.7.7 0 0 1 .329.611zm-1.373-1.336V281h.435a.223.223 0 0 0 .168-.068.23.23 0 0 0 .064-.172.228.228 0 0 0-.064-.173.222.222 0 0 0-.169-.068zm.763 1.29a.247.247 0 0 0-.069-.187.239.239 0 0 0-.183-.073h-.511v.519h.511a.239.239 0 0 0 .183-.073.247.247 0 0 0 .069-.187z" class="cls-19" transform="translate(505.742 -277.473)"/>
        </g>
        <path id="패스_2891" d="M1.285-10.752a.414.414 0 0 1 .456-.4.414.414 0 0 1 .456.4.414.414 0 0 1-.456.4.414.414 0 0 1-.456-.4zm1.245 0a.717.717 0 0 0-.789-.682.715.715 0 0 0-.789.682.713.713 0 0 0 .789.682.715.715 0 0 0 .788-.682zm-.939 1.631h.676v-.739H1.251v.26h.682v.236h-.675v.764h.19a5.529 5.529 0 0 0 1.042-.063l-.033-.26a4.716 4.716 0 0 1-.865.063zm.8-.463h.639v1.012h.343V-9.86H2.39zm.636-1.98v1.577h.346v-1.577zm2.256.063c-.656 0-1.072.216-1.072.576s.416.576 1.072.576 1.072-.22 1.072-.576-.418-.575-1.074-.575zm0 .266c.446 0 .715.11.715.309s-.27.306-.715.306-.719-.11-.719-.306.271-.309.717-.309zM4.246-9.6v1H6.31v-1zm1.727.273v.459H4.586v-.459zm-2.053-.8v.273h2.719v-.273z" class="cls-21" transform="translate(-4788.648 -7773.908)"/>
        <path id="패스_2888" d="M1.191-7.961a.734.734 0 0 0 .819-.7.62.62 0 0 0-.51-.614v-.017a.592.592 0 0 0 .423-.576c0-.406-.309-.632-.749-.632a1.032 1.032 0 0 0-.7.3l.2.24a.717.717 0 0 1 .489-.233.343.343 0 0 1 .376.356c0 .246-.16.429-.642.429v.283c.552 0 .725.176.725.449a.411.411 0 0 1-.466.406.791.791 0 0 1-.579-.27l-.185.24a1.017 1.017 0 0 0 .799.339zm1.467-1.308a.257.257 0 0 0 .256-.266.26.26 0 0 0-.256-.273.26.26 0 0 0-.256.273.257.257 0 0 0 .256.266zm0 1.308a.255.255 0 0 0 .256-.266.26.26 0 0 0-.256-.273.26.26 0 0 0-.256.273.255.255 0 0 0 .256.266zm1.354 0a.734.734 0 0 0 .819-.7.62.62 0 0 0-.506-.612v-.017a.592.592 0 0 0 .423-.576c0-.406-.309-.632-.749-.632a1.032 1.032 0 0 0-.7.3l.2.24a.717.717 0 0 1 .489-.233.343.343 0 0 1 .376.356c0 .246-.16.429-.642.429v.283c.552 0 .725.176.725.449a.411.411 0 0 1-.466.406.791.791 0 0 1-.579-.27l-.188.238a1.017 1.017 0 0 0 .799.339zm1.92 0c.479 0 .792-.426.792-1.278S6.412-10.5 5.933-10.5s-.792.413-.792 1.261.309 1.278.792 1.278zm0-.3c-.25 0-.426-.266-.426-.975s.176-.958.426-.958.426.256.426.958-.176.972-.425.972zM7.886-8h.386v-.928h.369c.532 0 .922-.246.922-.782 0-.552-.389-.739-.935-.739h-.742zm.386-1.238v-.9h.319c.389 0 .592.106.592.429S9-9.242 8.6-9.242zM10.006-8h.346v-1.215c0-.22-.03-.536-.047-.759h.013l.193.566.429 1.168h.24l.426-1.168.2-.566h.013c-.02.223-.05.539-.05.759V-8h.359v-2.449h-.448l-.443 1.238c-.057.163-.1.329-.16.5h-.017c-.057-.166-.106-.333-.163-.5l-.449-1.238h-.443z" class="cls-21" transform="translate(-4788.221 -7769.964)"/>
        <path id="패스_2871" d="M.631-9.148h1.806v-.372h-.7c-.137 0-.312.011-.456.027A2.644 2.644 0 0 0 2.3-11.16a.792.792 0 0 0-.84-.84 1.1 1.1 0 0 0-.852.418l.247.243a.759.759 0 0 1 .551-.312.456.456 0 0 1 .475.513c0 .46-.426 1-1.251 1.734zm3.046.048c.548 0 .905-.487.905-1.46S4.225-12 3.677-12s-.905.472-.905 1.441.354 1.459.905 1.459zm0-.346c-.285 0-.487-.3-.487-1.114s.2-1.1.487-1.1.487.293.487 1.1-.202 1.116-.487 1.116zm1.213.3H6.7v-.374H6c-.137 0-.312.011-.456.027a2.644 2.644 0 0 0 1.02-1.667.792.792 0 0 0-.845-.84 1.1 1.1 0 0 0-.852.418l.247.243a.759.759 0 0 1 .551-.312.456.456 0 0 1 .475.513c0 .46-.426 1-1.251 1.734zm2.289 0h1.6v-.361h-.55v-2.438H7.9a1.719 1.719 0 0 1-.608.213v.278h.5v1.947H7.18zm2.37.046a.291.291 0 0 0 .293-.3.3.3 0 0 0-.293-.312.3.3 0 0 0-.293.312.291.291 0 0 0 .293.3zm2.43 0c.548 0 .905-.487.905-1.46S12.527-12 11.979-12s-.905.472-.905 1.441.354 1.459.905 1.459zm0-.346c-.285 0-.487-.3-.487-1.114s.2-1.1.487-1.1.487.293.487 1.1-.201 1.116-.487 1.116zm1.563-.795l.551-.844c.08-.145.156-.289.224-.43h.015c-.008.152-.023.388-.023.54v.734zm1.536 0h-.357v-1.708h-.506L13.1-10.194v.294h1.209v.753h.411V-9.9h.357zm.644 1.141a.291.291 0 0 0 .293-.3.3.3 0 0 0-.293-.312.3.3 0 0 0-.293.312.291.291 0 0 0 .293.3zm1.673-.049h1.6v-.361h-.548v-2.438h-.331a1.719 1.719 0 0 1-.609.213v.278h.5v1.947h-.612zm2.822.049a.839.839 0 0 0 .936-.8.709.709 0 0 0-.578-.7v-.019a.677.677 0 0 0 .483-.658c0-.464-.354-.723-.856-.723a1.18 1.18 0 0 0-.8.338l.228.274a.82.82 0 0 1 .559-.266.392.392 0 0 1 .43.407c0 .281-.183.491-.734.491v.323c.631 0 .829.2.829.513a.47.47 0 0 1-.532.464.9.9 0 0 1-.662-.308l-.213.281a1.162 1.162 0 0 0 .91.383z" class="cls-21" transform="translate(-4787.673 -7668.514)"/>
        <path id="패스_2866" d="M1.191-7.961a.734.734 0 0 0 .819-.7.62.62 0 0 0-.51-.614v-.017a.592.592 0 0 0 .423-.576c0-.406-.309-.632-.749-.632a1.032 1.032 0 0 0-.7.3l.2.24a.717.717 0 0 1 .489-.233.343.343 0 0 1 .376.356c0 .246-.16.429-.642.429v.283c.552 0 .725.176.725.449a.411.411 0 0 1-.466.406.791.791 0 0 1-.579-.27l-.185.24a1.017 1.017 0 0 0 .799.339zm1.467-1.308a.257.257 0 0 0 .256-.266.26.26 0 0 0-.256-.273.26.26 0 0 0-.256.273.257.257 0 0 0 .256.266zm0 1.308a.255.255 0 0 0 .256-.266.26.26 0 0 0-.256-.273.26.26 0 0 0-.256.273.255.255 0 0 0 .256.266zm1.354 0a.734.734 0 0 0 .819-.7.62.62 0 0 0-.506-.612v-.017a.592.592 0 0 0 .423-.576c0-.406-.309-.632-.749-.632a1.032 1.032 0 0 0-.7.3l.2.24a.717.717 0 0 1 .489-.233.343.343 0 0 1 .376.356c0 .246-.16.429-.642.429v.283c.552 0 .725.176.725.449a.411.411 0 0 1-.466.406.791.791 0 0 1-.579-.27l-.188.238a1.017 1.017 0 0 0 .799.339zM5.27-8h1.4v-.32h-.481v-2.133H5.9a1.5 1.5 0 0 1-.532.186v.243h.439v1.7H5.27zm2.616 0h.386v-.928h.369c.532 0 .922-.246.922-.782 0-.552-.389-.739-.935-.739h-.742zm.386-1.238v-.9h.319c.389 0 .592.106.592.429S9-9.242 8.6-9.242zM10.006-8h.346v-1.215c0-.22-.03-.536-.047-.759h.013l.193.566.429 1.168h.24l.426-1.168.2-.566h.013c-.02.223-.05.539-.05.759V-8h.359v-2.449h-.448l-.443 1.238c-.057.163-.1.329-.16.5h-.017c-.057-.166-.106-.333-.163-.5l-.449-1.238h-.443z" class="cls-21" transform="translate(-4757.083 -7705.074)"/>
        <path id="패스_2867" d="M1.191-7.961a.734.734 0 0 0 .819-.7.62.62 0 0 0-.51-.614v-.017a.592.592 0 0 0 .423-.576c0-.406-.309-.632-.749-.632a1.032 1.032 0 0 0-.7.3l.2.24a.717.717 0 0 1 .489-.233.343.343 0 0 1 .376.356c0 .246-.16.429-.642.429v.283c.552 0 .725.176.725.449a.411.411 0 0 1-.466.406.791.791 0 0 1-.579-.27l-.185.24a1.017 1.017 0 0 0 .799.339zm1.467-1.308a.257.257 0 0 0 .256-.266.26.26 0 0 0-.256-.273.26.26 0 0 0-.256.273.257.257 0 0 0 .256.266zm0 1.308a.255.255 0 0 0 .256-.266.26.26 0 0 0-.256-.273.26.26 0 0 0-.256.273.255.255 0 0 0 .256.266zm1.354 0a.734.734 0 0 0 .819-.7.62.62 0 0 0-.506-.612v-.017a.592.592 0 0 0 .423-.576c0-.406-.309-.632-.749-.632a1.032 1.032 0 0 0-.7.3l.2.24a.717.717 0 0 1 .489-.233.343.343 0 0 1 .376.356c0 .246-.16.429-.642.429v.283c.552 0 .725.176.725.449a.411.411 0 0 1-.466.406.791.791 0 0 1-.579-.27l-.188.238a1.017 1.017 0 0 0 .799.339zm1.864 0A.808.808 0 0 0 6.7-8.81a.7.7 0 0 0-.745-.779.69.69 0 0 0-.335.089l.057-.629h.908v-.323H5.344l-.074 1.16.186.123a.644.644 0 0 1 .393-.14.454.454 0 0 1 .466.512.479.479 0 0 1-.486.522.784.784 0 0 1-.572-.263l-.183.25a1.084 1.084 0 0 0 .802.327zM7.886-8h.386v-.928h.369c.532 0 .922-.246.922-.782 0-.552-.389-.739-.935-.739h-.742zm.386-1.238v-.9h.319c.389 0 .592.106.592.429S9-9.242 8.6-9.242zM10.006-8h.346v-1.215c0-.22-.03-.536-.047-.759h.013l.193.566.429 1.168h.24l.426-1.168.2-.566h.013c-.02.223-.05.539-.05.759V-8h.359v-2.449h-.448l-.443 1.238c-.057.163-.1.329-.16.5h-.017c-.057-.166-.106-.333-.163-.5l-.449-1.238h-.443z" class="cls-21" transform="translate(-4754.468 -7681.542)"/>
        <path id="패스_2868" d="M1.285-10.752a.414.414 0 0 1 .456-.4.414.414 0 0 1 .456.4.414.414 0 0 1-.456.4.414.414 0 0 1-.456-.4zm1.245 0a.717.717 0 0 0-.789-.682.715.715 0 0 0-.789.682.713.713 0 0 0 .789.682.715.715 0 0 0 .788-.682zm-.939 1.631h.676v-.739H1.251v.26h.682v.236h-.675v.764h.19a5.529 5.529 0 0 0 1.042-.063l-.033-.26a4.716 4.716 0 0 1-.865.063zm.8-.463h.639v1.012h.343V-9.86H2.39zm.636-1.98v1.577h.346v-1.577zm2.256.063c-.656 0-1.072.216-1.072.576s.416.576 1.072.576 1.072-.22 1.072-.576-.418-.575-1.074-.575zm0 .266c.446 0 .715.11.715.309s-.27.306-.715.306-.719-.11-.719-.306.271-.309.717-.309zM4.246-9.6v1H6.31v-1zm1.727.273v.459H4.586v-.459zm-2.053-.8v.273h2.719v-.273z" class="cls-21" transform="translate(-4749.19 -7685.485)"/>
        <path id="패스_2872" d="M1.285-10.752a.414.414 0 0 1 .456-.4.414.414 0 0 1 .456.4.414.414 0 0 1-.456.4.414.414 0 0 1-.456-.4zm1.245 0a.717.717 0 0 0-.789-.682.715.715 0 0 0-.789.682.713.713 0 0 0 .789.682.715.715 0 0 0 .788-.682zm-.939 1.631h.676v-.739H1.251v.26h.682v.236h-.675v.764h.19a5.529 5.529 0 0 0 1.042-.063l-.033-.26a4.716 4.716 0 0 1-.865.063zm.8-.463h.639v1.012h.343V-9.86H2.39zm.636-1.98v1.577h.346v-1.577zm2.256.063c-.656 0-1.072.216-1.072.576s.416.576 1.072.576 1.072-.22 1.072-.576-.418-.575-1.074-.575zm0 .266c.446 0 .715.11.715.309s-.27.306-.715.306-.719-.11-.719-.306.271-.309.717-.309zM4.246-9.6v1H6.31v-1zm1.727.273v.459H4.586v-.459zm-2.053-.8v.273h2.719v-.273z" class="cls-21" transform="translate(-4757.51 -7709.017)"/>
        <path id="패스_2875" d="M1.285-10.752a.414.414 0 0 1 .456-.4.414.414 0 0 1 .456.4.414.414 0 0 1-.456.4.414.414 0 0 1-.456-.4zm1.245 0a.717.717 0 0 0-.789-.682.715.715 0 0 0-.789.682.713.713 0 0 0 .789.682.715.715 0 0 0 .788-.682zm-.939 1.631h.676v-.739H1.251v.26h.682v.236h-.675v.764h.19a5.529 5.529 0 0 0 1.042-.063l-.033-.26a4.716 4.716 0 0 1-.865.063zm.8-.463h.639v1.012h.343V-9.86H2.39zm.636-1.98v1.577h.346v-1.577zm2.256.063c-.656 0-1.072.216-1.072.576s.416.576 1.072.576 1.072-.22 1.072-.576-.418-.575-1.074-.575zm0 .266c.446 0 .715.11.715.309s-.27.306-.715.306-.719-.11-.719-.306.271-.309.717-.309zM4.246-9.6v1H6.31v-1zm1.727.273v.459H4.586v-.459zm-2.053-.8v.273h2.719v-.273z" class="cls-21" transform="translate(-4790.312 -7722.09)"/>
        <path id="패스_2887" d="M1.285-10.752a.414.414 0 0 1 .456-.4.414.414 0 0 1 .456.4.414.414 0 0 1-.456.4.414.414 0 0 1-.456-.4zm1.245 0a.717.717 0 0 0-.789-.682.715.715 0 0 0-.789.682.713.713 0 0 0 .789.682.715.715 0 0 0 .788-.682zm-.939 1.631h.676v-.739H1.251v.26h.682v.236h-.675v.764h.19a5.529 5.529 0 0 0 1.042-.063l-.033-.26a4.716 4.716 0 0 1-.865.063zm.8-.463h.639v1.012h.343V-9.86H2.39zm.636-1.98v1.577h.346v-1.577zm2.256.063c-.656 0-1.072.216-1.072.576s.416.576 1.072.576 1.072-.22 1.072-.576-.418-.575-1.074-.575zm0 .266c.446 0 .715.11.715.309s-.27.306-.715.306-.719-.11-.719-.306.271-.309.717-.309zM4.246-9.6v1H6.31v-1zm1.727.273v.459H4.586v-.459zm-2.053-.8v.273h2.719v-.273z" class="cls-21" transform="translate(-4750.379 -7750.375)"/>
        <path id="패스_2883" d="M1.191-7.961a.734.734 0 0 0 .819-.7.62.62 0 0 0-.51-.614v-.017a.592.592 0 0 0 .423-.576c0-.406-.309-.632-.749-.632a1.032 1.032 0 0 0-.7.3l.2.24a.717.717 0 0 1 .489-.233.343.343 0 0 1 .376.356c0 .246-.16.429-.642.429v.283c.552 0 .725.176.725.449a.411.411 0 0 1-.466.406.791.791 0 0 1-.579-.27l-.185.24a1.017 1.017 0 0 0 .799.339zm1.467-1.308a.257.257 0 0 0 .256-.266.26.26 0 0 0-.256-.273.26.26 0 0 0-.256.273.257.257 0 0 0 .256.266zm0 1.308a.255.255 0 0 0 .256-.266.26.26 0 0 0-.256-.273.26.26 0 0 0-.256.273.255.255 0 0 0 .256.266zm1.354 0a.734.734 0 0 0 .819-.7.62.62 0 0 0-.506-.612v-.017a.592.592 0 0 0 .423-.576c0-.406-.309-.632-.749-.632a1.032 1.032 0 0 0-.7.3l.2.24a.717.717 0 0 1 .489-.233.343.343 0 0 1 .376.356c0 .246-.16.429-.642.429v.283c.552 0 .725.176.725.449a.411.411 0 0 1-.466.406.791.791 0 0 1-.579-.27l-.188.238a1.017 1.017 0 0 0 .799.339zM5.27-8h1.4v-.32h-.481v-2.133H5.9a1.5 1.5 0 0 1-.532.186v.243h.439v1.7H5.27zm2.616 0h.386v-.928h.369c.532 0 .922-.246.922-.782 0-.552-.389-.739-.935-.739h-.742zm.386-1.238v-.9h.319c.389 0 .592.106.592.429S9-9.242 8.6-9.242zM10.006-8h.346v-1.215c0-.22-.03-.536-.047-.759h.013l.193.566.429 1.168h.24l.426-1.168.2-.566h.013c-.02.223-.05.539-.05.759V-8h.359v-2.449h-.448l-.443 1.238c-.057.163-.1.329-.16.5h-.017c-.057-.166-.106-.333-.163-.5l-.449-1.238h-.443z" class="cls-21" transform="translate(-4755.657 -7746.433)"/>
    </g>
</svg>
