<svg xmlns="http://www.w3.org/2000/svg" width="340" height="445" viewBox="0 0 340 445">
    <defs>
        <filter id="패스_2755" width="340" height="445" x="0" y="0" filterUnits="userSpaceOnUse">
            <feOffset dy="3"/>
            <feGaussianBlur result="blur" stdDeviation="3"/>
            <feFlood flood-opacity=".161"/>
            <feComposite in2="blur" operator="in"/>
            <feComposite in="SourceGraphic"/>
        </filter>
        <style>
            .cls-1{fill:#fff}.cls-2,.cls-6{fill:#282c36}.cls-2{stroke:transparent}.cls-4{fill:#999}.cls-5{fill:#f6f6f6}.cls-7{fill:#0933b3}.cls-8{fill:#86888c}.cls-10,.cls-9{fill:none}.cls-9{stroke:#fff;stroke-linecap:round;stroke-linejoin:round;stroke-width:.5px}.cls-11{fill:#767676}.cls-12{fill:#e1e2e4}
        </style>
    </defs>
    <g id="그룹_2388" transform="translate(-18 -3133)">
        <g filter="url(#패스_2755)" transform="translate(18 3133)">
            <path id="패스_2755-2" d="M1.257 0h319.486A1.257 1.257 0 0 1 322 1.257v424.486a1.257 1.257 0 0 1-1.257 1.257H1.257A1.257 1.257 0 0 1 0 425.743V1.257A1.257 1.257 0 0 1 1.257 0z" class="cls-1" transform="translate(9 6)"/>
        </g>
        <path id="패스_2756" d="M4.086-17.292H2.958v-1.656h1.128zm-1.914 0h-.72v.63H5.6v-.63h-.728v-1.656h.75v-.63h-4.2v.63h.75zm-1.14 1.476v.642h5v-.642zm8.262.03v-.822h1.674v-.636h-3.2v-.618h3.078V-19.7H6.972v.63h3.09v.594H6.978v1.872H8.5v.822H6.4v.648h5v-.648zm4.764-2.91v.642h.588v1.338h.738v-3.24h-.738v1.26zm.432 1.254a1.469 1.469 0 0 1-.978-1.44v-.15h.8v-.63h-2.438v.63h.87v.15A1.586 1.586 0 0 1 11.7-17.34l.4.606a1.841 1.841 0 0 0 1.032-.99 1.713 1.713 0 0 0 .966.894zm-1.812 1.584h3.012v1.332h.792v-1.956h-3.8zm3.054-4.2v3.366h.75v-3.366zm5.88 2.85h-3.078v-.618h2.91v-.612h-2.91v-.582h3.036v-.636h-3.84v3.072h3.882zm-4.47 1.4v.642h5v-.642zm8.334-3.054h.8v-.642H23.82v.642h.888v.27a2.794 2.794 0 0 1-1.092 2.448l.468.582a2.565 2.565 0 0 0 1.016-1.484 2.266 2.266 0 0 0 .984 1.35l.462-.576a2.549 2.549 0 0 1-1.068-2.322zm1.122.69h-.7v.642h.7v2.748h.738v-5.184H26.6zm1.116-1.89v5.526h.75v-5.526zm1.932 4.35h3.048v1.188h.792v-1.818h-3.84zm.84-3.51h2.19v.714h-2.19zm1.494 1.852v-.516h1.476v-1.956h-3.75v1.956h1.482v.516h-2.094v.63h4.992v-.63z" class="cls-2" transform="translate(37.226 3170.798)"/>
        <g id="패스_2757" fill="#fff" stroke="none">
            <path d="M298.75 13.5H1.25c-.551 0-1-.449-1-1V1.25c0-.551.449-1 1-1h297.5c.551 0 1 .449 1 1V12.5c0 .551-.449 1-1 1z" transform="translate(38 3161.75)"/>
            <path fill="#e1e2e4" d="M1.25.5C.836.5.5.836.5 1.25V12.5c0 .414.336.75.75.75h297.5c.414 0 .75-.336.75-.75V1.25c0-.414-.336-.75-.75-.75H1.25m0-.5h297.5c.69 0 1.25.56 1.25 1.25V12.5c0 .69-.56 1.25-1.25 1.25H1.25C.56 13.75 0 13.19 0 12.5V1.25C0 .56.56 0 1.25 0z" transform="translate(38 3161.75)"/>
        </g>
        <path id="패스_2758" d="M3.276 8.279h-1v-1.4h1zm-1.373 0h-.616v.3h2.975v-.3h-.617v-1.4h.625v-.3H1.278v.3H1.9zM.954 9.386v.306h3.659v-.306zm6.039.022v-.76h1.292v-.3H5.8V7.7h2.39V6.469H5.427v.3h2.4V7.4H5.436v1.248H6.62v.76H4.977v.3h3.668v-.3zm3.681-2.2v.3h.608v1.1h.351V6.263h-.351v.95zm.315.954a1.271 1.271 0 0 1-.789-1.134V6.8h.693v-.3H9.1v.3h.742v.23a1.367 1.367 0 0 1-.819 1.229l.193.284a1.535 1.535 0 0 0 .81-.9 1.459 1.459 0 0 0 .774.806zM9.7 9.12h2.344v1.093h.369v-1.39H9.7zm2.36-2.943v2.466h.356V6.177zm4.216 2.174h-2.4v-.64h2.268v-.292h-2.266v-.6h2.358v-.3H13.5v2.129h2.772zm-3.244 1.035v.3h3.663v-.3zm6.111-2.439h.72v-.3h-1.84v.3h.765v.365a2.106 2.106 0 0 1-.877 1.813l.225.275a2.09 2.09 0 0 0 .833-1.278 1.93 1.93 0 0 0 .81 1.179L20 9.03a1.956 1.956 0 0 1-.86-1.719zm1.08.675h-.666v.3h.666V10h.351V6.263h-.351zm.81-1.453V10.2h.356V6.168zm1.359 3.064h2.425v.981h.369V8.936h-2.794zm.423-2.6H24.8v.783h-1.985zM24 8.22v-.513h1.17V6.339h-2.715v1.368h1.175v.513h-1.647v.3h3.654v-.3zm3.838-1.7c.661 0 1.04.153 1.04.423s-.378.423-1.04.423-1.038-.154-1.038-.424.376-.423 1.037-.423zm0 1.12c.886 0 1.417-.243 1.417-.7s-.531-.7-1.417-.7-1.417.247-1.417.7.53.699 1.416.699zm-1.013 1.827H29.2v-.91h-2.749v.279h2.381V9.2h-2.367v.967h2.853v-.291h-2.493zm-.815-1.553v.3h3.654v-.3zm7.871-1.737v2.165h.369V6.177zM31.649 8.54v1.615h2.6V8.54h-.364v.495h-1.872V8.54zm.365.783h1.872v.535h-1.873zm.067-2.956a.937.937 0 1 0 1.058.927.954.954 0 0 0-1.058-.928zm0 .306a.626.626 0 1 1-.688.621.635.635 0 0 1 .688-.622zm5.017 1.4a9.117 9.117 0 0 1-1.6.095v-.61h1.368V6.415h-1.743v.3H36.5v.558h-1.364v1.2h.288a9.318 9.318 0 0 0 1.71-.1zm-1.512 1.1h2.331v1.04h.369V8.872h-2.7zm2.331-3v.594h-.787v.3h.788v.54h-.788v.3h.788v.747h.369V6.177zm2.074 2.79a.557.557 0 0 1-.535-.616.54.54 0 1 1 1.071 0 .559.559 0 0 1-.535.62zm0-1.535a.859.859 0 0 0-.864.918.866.866 0 1 0 1.728 0 .859.859 0 0 0-.863-.914zm.18-1.143h-.365v.572h-.819v.3h2v-.3h-.819zm1.885-.121v1.709h-.516v-1.61h-.347v3.748h.347V8.175h.517V10.2h.355V6.168zm1.324 1.971a2.04 2.04 0 0 0 1.467-.922 2.031 2.031 0 0 0 1.467.922l.144-.293c-.711-.1-1.408-.567-1.408-1.1v-.021h1.264v-.3h-2.948v.3h1.274v.022c0 .531-.7.995-1.4 1.1zm3.289.338h-3.644v.3h1.629v1.436h.369V8.773h1.652zm1.575-1.917h-.355v.769A2.049 2.049 0 0 1 47 9.066l.229.279a2.067 2.067 0 0 0 .84-1.245 1.973 1.973 0 0 0 .8 1.152l.211-.288a1.963 1.963 0 0 1-.832-1.656zm1.062 1.067h-.666v.306h.666v2.084h.347v-3.75h-.347zm.819-1.449v4.036h.351V6.173zm2.214 2.264a2.406 2.406 0 0 0 .561.062 2.486 2.486 0 0 0 .567-.063v.949h-1.128zm.561-1.721c.648 0 1.116.3 1.116.747s-.468.747-1.116.747-1.111-.3-1.111-.747.461-.747 1.111-.747zm.936 2.669V8.292a.915.915 0 0 0 .531-.828c0-.63-.607-1.035-1.467-1.035s-1.467.4-1.467 1.035a.922.922 0 0 0 .54.833v1.089h-.9v.306h3.668v-.306zm1.656.549a.3.3 0 0 0 .3-.311.3.3 0 1 0-.594 0 .3.3 0 0 0 .292.31z" class="cls-4" transform="translate(41.284 3160.624)"/>
        <path id="패스_2776" d="M1.25 0h297.5A1.25 1.25 0 0 1 300 1.25v74.5a1.25 1.25 0 0 1-1.25 1.25H1.25A1.25 1.25 0 0 1 0 75.75V1.25A1.25 1.25 0 0 1 1.25 0z" class="cls-5" transform="translate(38 3445.5)"/>
        <path id="패스_2774" d="M4.212-17.6a1.5 1.5 0 0 1-1.278-1.326h1.092v-.624H2.934v-.564h-.792v.564h-1.08v.624h1.08A1.549 1.549 0 0 1 .864-17.5l.366.612a2.015 2.015 0 0 0 1.32-1.044 2.011 2.011 0 0 0 1.3.948zm-1.77 1.59h2.04v.756h-2.04zm-.78 1.374h3.594v-1.992H1.662zM5.988-18.8h-.732v-1.3h-.792v3.234h.792v-1.29h.732zm4.59 2.352a12.787 12.787 0 0 0 .222-2.646v-.528H6.786v.63h3.222a11.546 11.546 0 0 1-.222 2.454zm-1.74.576v-1.9h-.792v1.9H6.282v.636h5v-.636zm4.122-3.078h.57v2.436l-.57.018zm1.332 0h.474v-.636h-3.048v.636h.474v2.472h-.618l.084.648a19.864 19.864 0 0 0 3.318-.222l-.048-.576c-.2.03-.42.042-.636.06zm2.484.942h-.8v-2.082h-.796v5.526h.792v-2.79h.8zm4.83-2.088h-.8v2.766h.8zm-3.744 1.422a.638.638 0 0 1 .714-.624.628.628 0 0 1 .7.624.625.625 0 0 1-.7.624.635.635 0 0 1-.714-.622zm2.184 0a1.337 1.337 0 0 0-1.47-1.26 1.345 1.345 0 0 0-1.482 1.26 1.345 1.345 0 0 0 1.482 1.266 1.338 1.338 0 0 0 1.47-1.264zm-1.332 3.426v-.348h2.892V-17.1h-3.684v.606h2.9v.336h-2.894v1.53h3.816v-.618z" class="cls-6" transform="translate(37.352 3454.584)"/>
        <path id="패스_2779" d="M1.25 0h285.5A1.25 1.25 0 0 1 288 1.25V12.5a1.25 1.25 0 0 1-1.25 1.25H1.25A1.25 1.25 0 0 1 0 12.5V1.25A1.25 1.25 0 0 1 1.25 0z" class="cls-1" transform="translate(44 3461.75)"/>
        <path id="패스_2763" d="M1.25 0h297.5A1.25 1.25 0 0 1 300 1.25V151.5a1.25 1.25 0 0 1-1.25 1.25H1.25A1.25 1.25 0 0 1 0 151.5V1.25A1.25 1.25 0 0 1 1.25 0z" class="cls-5" transform="translate(38 3262.25)"/>
        <path id="패스_2764" d="M4.086-17.382H2.958v-1.656h1.128zm-1.914 0h-.72v.63H5.6v-.63h-.728v-1.656h.75v-.63h-4.2v.63h.75zm-1.14 1.476v.642h5v-.642zm8.262.03v-.824h1.674v-.636h-3.2v-.618h3.078v-1.842H6.972v.63h3.09v.594H6.978v1.872H8.5v.822H6.4v.648h5v-.648zm4.764-2.91v.642h.588v1.338h.738v-3.24h-.738v1.26zm.432 1.254a1.469 1.469 0 0 1-.978-1.44v-.15h.8v-.63h-2.438v.63h.87v.15A1.586 1.586 0 0 1 11.7-17.43l.4.606a1.841 1.841 0 0 0 1.032-.99 1.713 1.713 0 0 0 .966.894zm-1.812 1.584h3.012v1.332h.792v-1.956h-3.8zm3.054-4.2v3.366h.75v-3.366zm5.88 2.85h-3.078v-.618h2.91v-.612h-2.91v-.582h3.036v-.636h-3.84v3.072h3.882zm-4.47 1.4v.642h5v-.644zm10.41-1.44h.792v-2.808h-.792v.81h-1.008v.63h1.008zm-.528-.672a1.606 1.606 0 0 1-1.242-1.56v-.4h-.8v.4a1.678 1.678 0 0 1-1.3 1.656l.408.618a2.1 2.1 0 0 0 1.31-1.124 2.016 2.016 0 0 0 1.224 1.014zm-1.536 2.71v-.324h2.856v-1.482H24.7v.606h2.862v.306h-2.854v1.512H28.5v-.618zm5.664-2.532H30.1v-1.29h1.05zm1.77-.888v.474h-1v-.474zm-1 1.1h1v.708h.792v-3.24h-.792v.8h-1v-.4h-2.6v2.544h2.6zm-.084 2.388c-.72 0-1.1-.15-1.1-.468s.378-.468 1.1-.468 1.1.15 1.1.468-.37.472-1.096.472zm0-1.542c-1.17 0-1.89.4-1.89 1.074s.72 1.074 1.89 1.074 1.9-.4 1.9-1.074-.72-1.07-1.896-1.07zm8.418-3.372h-.792v3.132h.792zM37.86-18.1h-1.128v-1.1h1.128zm.774-1.722h-2.682v2.34h2.682zm1.716 3.69v-.588h-1.542v-.45H38v.45h-1.544v.588h1.53c-.078.384-.636.8-1.74.9l.246.588a2.663 2.663 0 0 0 1.914-.828 2.664 2.664 0 0 0 1.9.828l.252-.588c-1.092-.09-1.644-.534-1.728-.9zm3.8-.834a3.252 3.252 0 0 0 .606.054 3.318 3.318 0 0 0 .612-.054v1.056h-1.22zm.606-2.292c.768 0 1.284.312 1.284.864s-.516.864-1.284.864-1.278-.318-1.278-.864.508-.86 1.276-.86zm1.4 3.348v-1.35a1.316 1.316 0 0 0 .666-1.134c0-.906-.87-1.488-2.064-1.488S42.7-19.3 42.7-18.39a1.291 1.291 0 0 0 .666 1.134v1.35h-1.1v.642h5v-.642zm4.444-2.762v.636h.858v1.224h.792v-3.336h-.792v1.476zm.348 1.08a1.5 1.5 0 0 1-1.29-1.362h1.092v-.624h-1.094v-.588h-.792v.588h-1.08v.624h1.08a1.588 1.588 0 0 1-1.272 1.494l.372.612a2.041 2.041 0 0 0 1.32-1.08 2.04 2.04 0 0 0 1.3.942zm-.564 2.364c-.732 0-1.1-.138-1.1-.438s.372-.444 1.1-.444 1.1.144 1.1.444-.384.438-1.102.438zm0-1.488c-1.176 0-1.9.384-1.9 1.05s.72 1.044 1.9 1.044 1.89-.384 1.89-1.044-.722-1.05-1.892-1.05zm4.65-3.006h-.8v.8a2.687 2.687 0 0 1-1.35 2.52l.474.642a2.635 2.635 0 0 0 1.278-1.59 2.516 2.516 0 0 0 1.194 1.488l.48-.624a2.608 2.608 0 0 1-1.278-2.436zm3.1 1.7h-.8v-2.124h-.792v5.526h.792v-2.742h.8zm3.492-1.6H60.39v-.564h-.8v.564h-1.222V-19h3.252zM59.4-17.834c0-.27.246-.414.6-.414s.6.144.6.414-.246.414-.6.414-.606-.142-.606-.412zm1.956 0c0-.588-.558-.99-1.356-.99s-1.356.4-1.356.99.558.984 1.356.984 1.35-.394 1.35-.982zm-.432 2.622c-.7 0-1.068-.126-1.068-.39s.372-.39 1.068-.39 1.068.12 1.068.39-.378.392-1.074.392zm0-1.374c-1.14 0-1.854.366-1.854.984s.714.978 1.854.978 1.854-.366 1.854-.978-.72-.982-1.86-.982zm1.8-2.154v-1.4h-.792v3.5h.792v-1.45h.732v-.648z" class="cls-6" transform="translate(37.226 3271.389)"/>
        <path id="패스_2765" d="M1.25 0h285.5A1.25 1.25 0 0 1 288 1.25V54.5a1.25 1.25 0 0 1-1.25 1.25H1.25A1.25 1.25 0 0 1 0 54.5V1.25A1.25 1.25 0 0 1 1.25 0z" class="cls-1" transform="translate(44 3278.5)"/>
        <path id="패스_2771" d="M1.25 0h285.5A1.25 1.25 0 0 1 288 1.25v54.5a1.25 1.25 0 0 1-1.25 1.25H1.25A1.25 1.25 0 0 1 0 55.75V1.25A1.25 1.25 0 0 1 1.25 0z" class="cls-1" transform="translate(44 3350.5)"/>
        <path id="패스_2766" d="M4.485-14.725a4.276 4.276 0 0 0 .125-1.2v-.38h-3.1v.415H4.1a4.027 4.027 0 0 1-.12 1.11zM3.06-12.4c-.67 0-1.08-.165-1.08-.45s.41-.445 1.08-.445 1.065.165 1.065.445-.4.45-1.065.45zm0-1.29c-.975 0-1.59.32-1.59.84s.615.845 1.59.845c.96 0 1.58-.32 1.58-.845s-.62-.84-1.58-.84zm.1-.765v-.83h-.52v.83h-1.6v.415h4.07v-.415zm2.515-1.495v.42H6.94a2.645 2.645 0 0 1-1.455 2.215l.3.365a3.173 3.173 0 0 0 1.665-3zm3.185-.57v1.765h-.515V-16.4H7.86v4.185h.485v-2.12h.515v2.33h.49v-4.515zm2.84.52h-.515v2.855h.3a8.674 8.674 0 0 0 1.6-.135l-.055-.44a8.379 8.379 0 0 1-1.325.135zm2.635-.52v1.8H13.8v-1.71h-.485v4.2h.485v-2.07h.535v2.295h.49v-4.515zm3.155 4.12c-.66 0-1.03-.14-1.03-.415s.37-.415 1.03-.415 1.035.145 1.035.415-.375.415-1.035.415zm0-1.225c-.97 0-1.555.295-1.555.81s.585.81 1.555.81 1.555-.29 1.555-.81-.58-.81-1.555-.81zm-.55-1.16a3.827 3.827 0 0 0 .56.04 3.686 3.686 0 0 0 .55-.04v.46h-1.11zm.56-1.26c.67 0 1.075.16 1.075.45s-.405.455-1.075.455-1.08-.165-1.08-.455.405-.45 1.08-.45zm1.065 1.72v-.595a.761.761 0 0 0 .545-.675c0-.53-.625-.85-1.61-.85s-1.61.32-1.61.85a.746.746 0 0 0 .535.67v.6h-.97v.41h4.085v-.41z" class="cls-6" transform="translate(43.22 3286.39)"/>
        <path id="패스_2769" d="M4.935-16.54v4.53h.52v-4.53zm-2.955.375v3.08h2.17v-3.08h-.515v1.15H2.49v-1.15zm.51 1.56h1.145v1.105H2.49zm7.175-.135a4.276 4.276 0 0 0 .125-1.2v-.38h-3.1v.415h2.59a4.027 4.027 0 0 1-.12 1.11zM8.24-12.415c-.67 0-1.08-.165-1.08-.45s.41-.445 1.08-.445 1.065.165 1.065.445-.4.45-1.065.45zm0-1.29c-.975 0-1.59.32-1.59.84s.615.845 1.59.845c.96 0 1.58-.32 1.58-.845s-.62-.84-1.58-.84zm.1-.765v-.83h-.52v.83h-1.6v.415h4.07v-.415zm2.515-1.5v.42h1.265a2.645 2.645 0 0 1-1.455 2.215l.3.365a3.173 3.173 0 0 0 1.665-3zm3.185-.57v1.765h-.515v-1.645h-.485v4.185h.485v-2.12h.515v2.33h.49v-4.515zm2.84.52h-.515v2.855h.3a8.674 8.674 0 0 0 1.595-.135l-.055-.44a8.379 8.379 0 0 1-1.325.135zm2.635-.52v1.8h-.535v-1.7h-.48v4.2h.485v-2.07h.535v2.295h.49v-4.515zm3.155 4.12c-.66 0-1.03-.14-1.03-.415s.37-.415 1.03-.415 1.035.145 1.035.415-.375.42-1.035.42zm0-1.225c-.97 0-1.555.3-1.555.81s.585.81 1.555.81 1.555-.29 1.555-.81-.58-.805-1.555-.805zm-.55-1.16a3.828 3.828 0 0 0 .56.04 3.687 3.687 0 0 0 .55-.04v.46h-1.11zm.56-1.26c.67 0 1.075.16 1.075.45s-.4.455-1.075.455-1.08-.165-1.08-.455.405-.445 1.08-.445zm1.065 1.72v-.6a.761.761 0 0 0 .545-.675c0-.53-.625-.85-1.61-.85s-1.61.32-1.61.85a.746.746 0 0 0 .535.67v.6h-.97v.41h4.085v-.41z" class="cls-6" transform="translate(42.515 3358.405)"/>
        <path id="패스_2767" d="M1.742 6.8h2.065v1.31H1.742zm1.223 2.586V8.4h1.2V6.51H1.386V8.4h1.206v.981H.954v.306h3.659v-.301zm5.216-1.71H5.859v-.964h2.273v-.3H5.481v1.561h2.7zm.459.824H4.982v.3h1.633v1.391h.369V8.8H8.64zm1.283.482c-.324 0-.527-.41-.527-1.071s.2-1.057.527-1.057.522.41.522 1.057-.207 1.07-.522 1.07zm1.363-1.237h-.509c-.045-.761-.369-1.233-.855-1.233-.527 0-.864.54-.864 1.4s.338 1.413.864 1.413c.495 0 .823-.486.855-1.278h.509v1.967h.351V6.263h-.351zm.8-1.571v4.036h.351V6.173zm3.186 1.651h-.7a3.221 3.221 0 0 0 .193-1.139h-1.553v.3H14.4a2.6 2.6 0 0 1-1.363 2.088l.216.265a3.072 3.072 0 0 0 1.188-1.219h.828v1.885h.351V6.281h-.351zm.842-1.651v4.036h.351V6.173zm4.666.549a3.651 3.651 0 0 1-.108 1.026l.36.041a3.743 3.743 0 0 0 .112-1.066v-.345H18.4v.3h2.385zm-1.012 3.2c-.63 0-1.035-.171-1.035-.45s.405-.459 1.035-.459 1.04.171 1.04.459-.408.444-1.039.444zm0-1.192c-.859 0-1.4.274-1.4.742s.545.738 1.4.738 1.408-.279 1.408-.738-.548-.749-1.407-.749zm.059-.671v-.78h-.369v.774h-1.49v.3H21.6v-.3zm2.313-1.366V7h1.21a2.444 2.444 0 0 1-1.363 2.08l.216.266a2.823 2.823 0 0 0 1.512-2.651zm2.916-.522V7.8h-.549V6.281h-.347v3.726h.347V8.1h.549v2.111h.355V6.173zm4.271 0h-.369v2.17h.369zm-.68 1.66c-.351.045-.724.068-1.1.085v-.399h.8V7.23H26.78v-.6h1.52v-.287h-1.9v1.175h.774v.419c-.4.013-.787.018-1.138.018l.049.293A19.261 19.261 0 0 0 28.67 8.1zm-1.611 2.04v-.4h2.291V8.53h-2.664v.288h2.3v.373h-2.291v.972h2.794v-.291zm7.375-2.16c-.734-.108-1.453-.607-1.453-1.17v-.225h-.387v.225c0 .576-.711 1.062-1.444 1.17l.149.3a2.068 2.068 0 0 0 1.489-.945 2.118 2.118 0 0 0 1.494.945zm.176.733h-3.645v.306h1.629v1.463h.369V8.751h1.652zm4.585-2.268H38.8v2.3h.369zM37 6.717a.637.637 0 1 1 0 1.269.637.637 0 1 1 0-1.269zm0 1.575a.946.946 0 1 0-1.048-.94.964.964 0 0 0 1.048.94zm1.719.364h-.36v.216a1.191 1.191 0 0 1-.58.958 1.121 1.121 0 0 1-.558-.958v-.216h-.355v.216a1.146 1.146 0 0 1-.81 1l.184.279a1.417 1.417 0 0 0 .8-.747 1.288 1.288 0 0 0 .752.783 1.4 1.4 0 0 0 .747-.8 1.345 1.345 0 0 0 .81.76l.185-.279a1.1 1.1 0 0 1-.81-1zm4.4-1.269h-2.371V6.321h-.369v1.368h2.745zm-2.4 1.543h-.369v1.18h2.794v-.3h-2.423zm-.837-.7v.3h3.659v-.3zm5.494-1.566h-.369v2.5h.257a7.468 7.468 0 0 0 1.444-.126l-.036-.32a7.017 7.017 0 0 1-1.3.126zm2.5-.49v1.641h-.571V6.263h-.347V10h.347V8.121h.571V10.2h.355V6.173zm2.781 3.748c-.635 0-1.008-.158-1.008-.432s.373-.432 1.008-.432 1.008.157 1.008.432-.374.431-1.004.431zm0-1.152c-.864 0-1.381.257-1.381.72s.517.715 1.381.715 1.381-.252 1.381-.715-.508-.721-1.377-.721zM50.1 7.7a3.51 3.51 0 0 0 1.121 0v.473H50.1zm-.479-.7c0-.293.4-.463 1.04-.463S51.7 6.7 51.7 7s-.4.464-1.04.464-1.039-.18-1.039-.464zm1.967 1.175V7.6a.666.666 0 0 0 .49-.6c0-.473-.54-.751-1.417-.751s-1.417.279-1.417.751a.664.664 0 0 0 .495.607v.567h-.9v.3h3.654v-.3zm3.1-1.652c.661 0 1.039.153 1.039.423s-.378.423-1.039.423-1.04-.153-1.04-.423.379-.427 1.041-.427zm0 1.12c.886 0 1.417-.243 1.417-.7s-.531-.7-1.417-.7-1.418.247-1.418.7.53.696 1.419.696zm-1.012 1.824h2.372v-.91H53.3v.279h2.381V9.2h-2.365v.967h2.853v-.291h-2.493zm-.814-1.553v.3h3.654v-.3zm7.87-1.737v2.165h.368V6.177zM58.5 8.54v1.615h2.6V8.54h-.364v.495h-1.871V8.54zm.364.783h1.872v.535h-1.871zm.068-2.956a.937.937 0 1 0 1.057.927.954.954 0 0 0-1.057-.928zm0 .306a.626.626 0 1 1-.689.621.635.635 0 0 1 .689-.622zm5.018 1.4a9.117 9.117 0 0 1-1.6.095v-.61h1.368V6.415h-1.744v.3h1.382v.558h-1.368v1.2h.288a9.318 9.318 0 0 0 1.71-.1zm-1.512 1.1h2.331v1.04h.369V8.872h-2.7zm2.331-3v.594h-.788v.3h.788v.54h-.788v.3h.788v.747h.369V6.177zm2.074 2.79a.557.557 0 0 1-.535-.616.54.54 0 1 1 1.071 0 .559.559 0 0 1-.536.62zm0-1.535a.859.859 0 0 0-.864.918.866.866 0 1 0 1.728 0 .859.859 0 0 0-.864-.914zm.18-1.143h-.365v.572h-.818v.3h2v-.3h-.819zm1.886-.121v1.709h-.518v-1.61h-.346v3.748h.346V8.175h.518V10.2h.355V6.168zm1.323 1.967a2.04 2.04 0 0 0 1.468-.919 2.031 2.031 0 0 0 1.467.922l.144-.293c-.711-.1-1.409-.567-1.409-1.1v-.02h1.265v-.3h-2.949v.3h1.273v.022c0 .531-.7.995-1.4 1.1zm3.289.338h-3.645v.3h1.629v1.436h.369V8.773h1.651zM75.1 6.555h-.356v.769a2.049 2.049 0 0 1-.887 1.742l.23.279a2.067 2.067 0 0 0 .834-1.245 1.973 1.973 0 0 0 .8 1.152l.212-.288a1.963 1.963 0 0 1-.833-1.653zm1.062 1.067h-.666v.306h.666v2.084h.338V6.263h-.347zm.819-1.449v4.036h.351V6.173zm2.214 2.264a2.406 2.406 0 0 0 .558.063 2.486 2.486 0 0 0 .567-.063v.949h-1.129zm.558-1.719c.648 0 1.116.3 1.116.747s-.468.747-1.116.747-1.112-.3-1.112-.747.459-.748 1.108-.748zm.936 2.669V8.292a.915.915 0 0 0 .531-.828c0-.63-.607-1.035-1.467-1.035s-1.467.4-1.467 1.035a.922.922 0 0 0 .54.833v1.089h-.9v.306h3.664v-.306zm1.656.549a.3.3 0 0 0 .3-.311.3.3 0 1 0-.594 0 .3.3 0 0 0 .29.309z" class="cls-4" transform="translate(47.284 3277.874)"/>
        <path id="패스_2768" d="M1.17 6.771h1.508v-.306H.8v2.651h.319a9.569 9.569 0 0 0 1.908-.144l-.041-.306A9.81 9.81 0 0 1 1.17 8.8zm3.231.9h-.666V6.078h-.369v4.046h.369V7.977H4.4zm2.079-1.5c-.873 0-1.418.284-1.418.765s.544.76 1.418.76S7.9 7.41 7.9 6.933s-.547-.765-1.42-.765zm0 .293c.639 0 1.039.176 1.039.472s-.4.473-1.039.473-1.04-.176-1.04-.473.401-.475 1.04-.475zM5.108 8.733v1.328h2.754V8.733zm2.392.293v.738H5.468v-.738zM4.658 8.04v.3h3.65v-.3zm6.278-1.611h-.365v.725a2.139 2.139 0 0 1-1.04 1.8l.22.3a2.235 2.235 0 0 0 1-1.337 2.226 2.226 0 0 0 .977 1.256l.23-.292a2.038 2.038 0 0 1-1.026-1.728zm2.416 1.287h-.666V6.083h-.369v4.032h.369V8.022h.666zM16 6.533h-1.006v-.491h-.369v.491h-1v.3H16zm-1.8 1.21c0-.261.248-.432.612-.432s.616.171.616.432-.247.436-.616.436-.612-.17-.612-.436zm1.58 0c0-.432-.392-.711-.967-.711s-.963.279-.963.711.387.715.963.715.964-.278.964-.715zm-.3 2.083c-.589 0-.95-.153-.95-.414s.36-.414.95-.414.949.153.949.414-.364.414-.953.414zm0-1.111c-.814 0-1.314.252-1.314.7s.5.7 1.314.7 1.314-.256 1.314-.7-.508-.7-1.318-.7zM16.74 7.2V6.078h-.369v2.6h.369V7.5h.6v-.3zm3.83-1.121v4.046h.369V6.078zm-1.76.311c-.6 0-1.026.549-1.026 1.408s.427 1.409 1.026 1.409 1.026-.549 1.026-1.409-.428-1.409-1.026-1.409zm0 .333c.391 0 .67.423.67 1.076s-.279 1.08-.67 1.08-.675-.423-.675-1.08.279-1.078.675-1.078zm5.413 1.161h-1.115v-1.2h1.116zm1.287-.85v.5h-.927v-.5zm-.927.8h.927v.639h.373v-2.39h-.373v.652h-.927v-.351h-1.84v1.791h1.84zm-.036 1.994c-.6 0-.972-.176-.972-.473s.369-.473.972-.473.981.176.981.473-.368.467-.98.467zm0-1.233c-.828 0-1.341.275-1.341.761s.513.76 1.341.76 1.346-.279 1.346-.76-.513-.767-1.345-.767zm4.437-2.142h-.972v-.4h-.369v.4h-.976v.279h2.317zm-1.75 1.026c0-.212.23-.342.594-.342s.59.131.59.342-.234.346-.59.346-.594-.14-.594-.352zm1.872.774a10.729 10.729 0 0 1-1.094.1v-.286c.464-.049.756-.266.756-.594 0-.369-.378-.6-.94-.6s-.945.23-.945.6c0 .333.293.549.76.594v.293c-.387.013-.756.013-1.075.013l.041.3a15.4 15.4 0 0 0 2.524-.158zm-2.047 1.029h2.286v.832h.369V8.99h-2.655zM30.308 7.3h-.594V6.083h-.369v2.7h.369V7.608h.594zM31.8 8.909a.623.623 0 1 1 .634-.621.605.605 0 0 1-.634.621zm0-1.553a.931.931 0 1 0 .986.932.92.92 0 0 0-.986-.932zm.18-1.228h-.369v.6h-1.02v.3h2.38v-.3h-.994zm2.408 1.611h-.662V6.083h-.369v4.032h.369V8.049h.662zm2.493-.009h-.7a3.221 3.221 0 0 0 .194-1.139h-1.558v.3h1.192a2.6 2.6 0 0 1-1.363 2.088l.216.266a3.072 3.072 0 0 0 1.188-1.22h.828v1.887h.351V6.186h-.351zm.841-1.651v4.037h.351V6.078zm4.19 1.976a1.36 1.36 0 0 1-.981-1.237v-.16h.891v-.3h-2.168v.3h.9v.162a1.429 1.429 0 0 1-1.013 1.31l.194.293a1.7 1.7 0 0 0 1.008-.981 1.631 1.631 0 0 0 .972.9zm-1.84.972h2.259v1.093h.369V8.729h-2.632zm3.223-1.887h-.6V6.083h-.369v2.43h.374V7.446h.6zm3.249 1.328h.373V6.083h-.373v.855h-.877v.3h.877zm-.585-.477a1.384 1.384 0 0 1-.981-1.282v-.4h-.369v.414A1.471 1.471 0 0 1 43.587 8.1l.193.3a1.707 1.707 0 0 0 1.02-1.026 1.652 1.652 0 0 0 .958.9zm-.374 1.827c-.607 0-.976-.176-.976-.468s.369-.473.976-.473.977.176.977.473-.369.468-.977.468zm0-1.229c-.828 0-1.345.275-1.345.761s.517.76 1.345.76 1.341-.279 1.341-.76-.513-.761-1.341-.761zm3.551-.468H50v-.3h-1.7V6.762h1.678v-.306h-2.035v1.665h.823v.8c-.392.014-.774.014-1.12.014l.045.311a17.872 17.872 0 0 0 2.614-.153l-.031-.27c-.36.045-.751.067-1.138.085zm1.4-2.048v4.05h.369V6.074zm2.187 2.8c-.387 0-.657-.423-.657-1.08s.27-1.076.657-1.076.653.423.653 1.076-.267 1.084-.649 1.084zm1.876-2.8v1.544h-.877c-.059-.756-.454-1.229-1-1.229-.59 0-1.008.549-1.008 1.408s.418 1.409 1.008 1.409c.563 0 .963-.5 1-1.287h.878v2.205h.369V6.078zm2.146 2.8c-.391 0-.666-.427-.666-1.084s.274-1.071.666-1.071.662.423.662 1.071-.27 1.088-.657 1.088zm0-2.488c-.594 0-1.017.549-1.017 1.4s.423 1.413 1.017 1.413 1.013-.549 1.013-1.413-.414-1.396-1.008-1.396zM59.423 7.4v-.3h-.643V6.083h-.37v4.032h.369V8.6h.643v-.3h-.643v-.9zm3.33-.275v.3h.8v1.061h.374v-2.4h-.374v1.041zm.225.918A1.39 1.39 0 0 1 62 6.812v-.14h.887v-.3h-2.159v.3h.9v.139a1.488 1.488 0 0 1-1.017 1.345l.194.293a1.747 1.747 0 0 0 1.017-1.026 1.658 1.658 0 0 0 .972.909zm-.387 1.782c-.608 0-.977-.171-.977-.463s.369-.468.977-.468.976.175.976.468-.367.464-.976.464zm0-1.215c-.828 0-1.346.274-1.346.752s.517.751 1.346.751 1.341-.274 1.341-.751-.513-.75-1.341-.75zm4.433-2.165h-.972v-.4h-.369v.4h-.976v.279h2.317zm-1.751 1.028c0-.212.229-.342.594-.342s.589.131.589.342-.234.346-.589.346-.594-.134-.594-.346zm1.872.774a10.73 10.73 0 0 1-1.093.1v-.28c.463-.049.756-.266.756-.594 0-.369-.378-.6-.94-.6s-.945.23-.945.6c0 .333.292.549.76.594v.293c-.387.013-.756.013-1.076.013l.04.3a15.4 15.4 0 0 0 2.525-.158zM65.1 9.282h2.286v.832h.369V8.99H65.1zM68.346 7.3h-.594V6.083h-.369v2.7h.369V7.608h.594zm2.7-.729h-1.008v-.49h-.369v.49h-1v.3h2.381zm-1.8 1.269c0-.279.243-.459.612-.459s.617.18.617.459-.252.464-.617.464-.616-.178-.616-.462zm1.579 0c0-.45-.4-.747-.967-.747s-.963.3-.963.747.392.752.963.752.963-.292.963-.75zm-1.183 1.028h-.369v1.156h2.691v-.3h-2.322zm2.142-1.458V6.083h-.369v3.024h.369V7.721h.6V7.41zm4.743-.2v.61h-1.062v.3h1.062v.963h.373v-3h-.374v.828h-.9a1.933 1.933 0 0 0 .064-.511h-1.84v.3h1.445a2.125 2.125 0 0 1-1.652 1.6l.162.3a2.688 2.688 0 0 0 1.715-1.39zm-1.809 2.513v-.931h-.369v1.233H77v-.3zm5.265-1.674A1.39 1.39 0 0 1 79 6.816v-.162h.886v-.3h-2.153v.3h.9v.162a1.466 1.466 0 0 1-1.017 1.323l.194.293a1.71 1.71 0 0 0 1.012-1.008 1.673 1.673 0 0 0 .977.914zm-1.755.963h2.326v1.107h.369v-1.4h-2.7zm2.326-2.934v1.053h-.787v.3h.787v1.064h.369V6.078zm2.9.347c.661 0 1.039.153 1.039.423s-.378.423-1.039.423-1.04-.153-1.04-.423.377-.423 1.038-.423zm0 1.12c.887 0 1.417-.243 1.417-.7s-.531-.7-1.417-.7-1.418.247-1.418.7.53.7 1.416.7zM82.44 9.372h2.371v-.909h-2.744v.279h2.38V9.1H82.08v.967h2.853v-.286H82.44zm-.815-1.552v.3h3.654v-.3zm6.6.067h-1.141v-.675h1.143zm.36-1.584h-.36v.617h-1.141V6.3h-.365v1.884h1.868zm-1.051 2.655h2.187v-.3h-2.556v1.4h2.628v-.3h-2.259zm2.151-1.908v-.967h-.369V8.44h.369V7.356h.6V7.05zm2.715-.625c.661 0 1.039.153 1.039.423s-.378.423-1.039.423-1.04-.153-1.04-.423.381-.423 1.04-.423zm0 1.12c.886 0 1.418-.243 1.418-.7s-.531-.7-1.418-.7-1.418.247-1.418.7.534.7 1.418.7zm-1.01 1.827h2.372v-.909h-2.745v.279H93.4V9.1h-2.37v.967h2.853v-.286H91.39zm-.814-1.552v.3h3.654v-.3zm5.143-1.31v.306H97.2a2.745 2.745 0 0 1-1.67 2.245l.2.288a3.034 3.034 0 0 0 1.834-2.839zm3.537 1.206h-.648V6.078h-.369v4.037h.369V8.022h.648zm3.51-.513h-2.371V6.164h-.369V7.5h2.74zm-1.413 2.61c-.634 0-1.008-.166-1.008-.446s.374-.45 1.008-.45 1.008.162 1.008.45-.378.446-1.008.446zm0-1.183c-.859 0-1.382.266-1.382.738s.522.734 1.382.734 1.382-.266 1.382-.734-.522-.738-1.382-.738zm-1.818-.662v.3h3.649v-.3zm6.975.5h.374V6.083h-.374v.855h-.878v.3h.878zm-.585-.477a1.384 1.384 0 0 1-.981-1.282v-.4h-.369v.414a1.471 1.471 0 0 1-1.021 1.377l.193.3a1.707 1.707 0 0 0 1.022-1.026 1.652 1.652 0 0 0 .958.9zm-.373 1.827c-.608 0-.977-.176-.977-.468s.369-.473.977-.473.977.176.977.473-.37.468-.977.468zm0-1.229c-.828 0-1.346.275-1.346.761s.518.76 1.346.76 1.341-.279 1.341-.76-.513-.761-1.341-.761zm4.968-2.511v4.046h.369V6.078zm-1.76.311c-.6 0-1.026.549-1.026 1.408s.427 1.409 1.026 1.409 1.026-.549 1.026-1.409-.427-1.408-1.026-1.408zm0 .333c.392 0 .671.423.671 1.076s-.279 1.08-.671 1.08-.675-.423-.675-1.08.279-1.077.675-1.077zm5.135 2.192h.882v.85h-.882zm1.246 0h.617v-.3h-2.844v.3h.617v.85h-.653v.3h2.916v-.3h-.653zm-.621-.995v-.513h1.229v-.3h-2.376v-.94H113v1.24h1.147v.513h-1.638v.3h3.65v-.3zm5.459-.581c-.716-.09-1.427-.535-1.427-1.035v-.18h-.378V6.3c0 .513-.707.945-1.431 1.035l.135.3a2.079 2.079 0 0 0 1.485-.864 2.087 2.087 0 0 0 1.48.864zm-.635 2.426h-1.984v-.513h1.984zm0-.8h-1.984v-.469H117v1.566h2.714V8.495h-.365zm-2.812-1.049v.3h3.654v-.3zm4.653-1.449h-.369v2.6h.333a9.589 9.589 0 0 0 1.98-.189l-.04-.315a9.536 9.536 0 0 1-1.9.189zm2.318-.391v4.035h.369V6.078zm1.629.693h1.507v-.303h-1.877v2.651h.319a9.569 9.569 0 0 0 1.908-.144l-.041-.306a9.81 9.81 0 0 1-1.818.135zm3.231.9h-.663v-1.59h-.369v4.046h.369V7.977h.666zm.644 2.169a.3.3 0 0 0 .3-.311.3.3 0 1 0-.594 0 .3.3 0 0 0 .293.314zM.788 18.282H2.6v-.342h-.665v-2.957H1.62a2.09 2.09 0 0 1-.684.234v.261h.585v2.461H.788zm2.612.058a.3.3 0 0 0 .3-.31.3.3 0 1 0-.594 0 .3.3 0 0 0 .294.31zm1.863-3.33v.306h1.48a2.745 2.745 0 0 1-1.67 2.245l.2.288A3.034 3.034 0 0 0 7.11 15.01zM8.8 16.216h-.646v-1.638h-.369v4.036h.369v-2.092H8.8zm3.1-1.089a3.651 3.651 0 0 1-.108 1.026l.36.04a3.743 3.743 0 0 0 .112-1.066v-.342H9.513v.3H11.9zm-1.012 3.195c-.63 0-1.035-.171-1.035-.45s.405-.459 1.035-.459 1.04.171 1.04.459-.408.45-1.043.45zm0-1.192c-.86 0-1.4.274-1.4.743s.544.738 1.4.738 1.409-.279 1.409-.738-.552-.743-1.412-.743zm.059-.671v-.774h-.369v.774H9.086v.3h3.632v-.3zm4.482-.607h-1v-.846h1zm-1.373 0h-.596v.3h2.93v-.3h-.59v-.846h.612v-.3h-2.966v.3h.607zm1.895 2.412h-2.037v-.67h2.034zm.805-1.435v-.3H13.1v.3h1.642v.471h-1.188v1.26h2.754V17.3h-1.192v-.472zm1.679.81h2.426v.981h.369v-1.279h-2.798zm.423-2.6h1.989v.783h-1.992zm1.184 1.588v-.513h1.17v-1.369H18.5v1.368h1.17v.513h-1.647v.3h3.654v-.3zm4.4-.077a1.39 1.39 0 0 1-.981-1.233v-.162h.887v-.3h-2.163v.3h.9v.162a1.466 1.466 0 0 1-1.017 1.323l.193.292a1.71 1.71 0 0 0 1.013-1.008 1.673 1.673 0 0 0 .976.913zm-1.755.963h2.326v1.107h.369v-1.4h-2.7zm2.326-2.934v1.053h-.787v.3h.787v1.062h.369v-2.416zm5.279 0h-.369V16.9h.369zm-1.571 1.615h-1.172v-1.062h1.165zm.36-1.354h-1.892v1.651h1.885zm1.3 2.614v-.284H29.2v-.391h-.374v.391h-1.187v.283h1.179c0 .4-.648.783-1.337.864l.122.283a2.017 2.017 0 0 0 1.408-.738 1.987 1.987 0 0 0 1.389.738l.126-.283c-.693-.086-1.323-.477-1.327-.864zm2.875-2.524h-.364v.724a2.139 2.139 0 0 1-1.04 1.8l.221.3a2.236 2.236 0 0 0 1-1.336 2.226 2.226 0 0 0 .976 1.256l.23-.293a2.038 2.038 0 0 1-1.026-1.728zm2.417 1.287h-.666v-1.634h-.369v4.032h.369v-2.093h.666zm2.079 2.11c-.635 0-1.008-.157-1.008-.432s.373-.432 1.008-.432 1.008.158 1.008.432-.379.431-1.009.431zm0-1.152c-.864 0-1.382.257-1.382.72s.518.715 1.382.715 1.381-.252 1.381-.715-.514-.721-1.382-.721zm-.559-1.075a3.51 3.51 0 0 0 1.121 0v.472h-1.121zm-.481-.7c0-.292.4-.463 1.04-.463s1.039.171 1.039.463-.4.464-1.039.464-1.041-.174-1.041-.464zm1.966 1.174V16a.666.666 0 0 0 .491-.6c0-.472-.54-.751-1.417-.751s-1.418.279-1.418.751a.664.664 0 0 0 .495.608v.567h-.9v.3h3.654v-.3zm4.572-1.6h-.972v-.41h-.369v.41h-.977v.274h2.318zm-1.75 1.062c0-.216.229-.355.594-.355s.59.14.59.355-.234.36-.59.36-.594-.135-.594-.36zm1.872.8a9.472 9.472 0 0 1-1.093.108v-.288c.463-.05.756-.27.756-.617 0-.382-.378-.616-.941-.616s-.945.234-.945.616c0 .347.3.572.761.617v.306c-.387.014-.761.018-1.076.018l.041.3a15.022 15.022 0 0 0 2.525-.18zm-1.575.7h-.369v.994h2.7v-.3H41.8zm2.183-1.544v-1.414h-.37v3.159h.369v-1.445h.594v-.306zm3.852-.364v.54h-1.059v.3h1.057v.531h.37v-2.416h-.374v.738h-.913a2.315 2.315 0 0 0 .045-.436H45.14v.3h1.422c-.067.7-.666 1.233-1.629 1.521l.148.293a2.5 2.5 0 0 0 1.742-1.373zm-.945 2.687c-.594 0-.972-.184-.972-.49s.378-.486.972-.486.972.185.972.486-.379.484-.973.484zm0-1.269c-.814 0-1.336.292-1.336.779s.522.778 1.336.778 1.337-.293 1.337-.778-.524-.785-1.338-.785zM.59 26.782h2.074v-.356h-.913c-.167 0-.369.018-.54.032A3.256 3.256 0 0 0 2.5 24.4a.9.9 0 0 0-.959-.977 1.262 1.262 0 0 0-.972.486l.238.234a.924.924 0 0 1 .684-.382.58.58 0 0 1 .608.653c0 .567-.477 1.224-1.512 2.128zm2.81.058a.3.3 0 0 0 .3-.311.3.3 0 1 0-.594 0 .3.3 0 0 0 .294.311zm1.863-3.33v.306h1.48a2.745 2.745 0 0 1-1.67 2.246l.2.288a3.034 3.034 0 0 0 1.837-2.84zM8.8 24.716h-.646v-1.638h-.369v4.036h.369v-2.092H8.8zm3.1-1.089a3.651 3.651 0 0 1-.108 1.026l.36.04a3.743 3.743 0 0 0 .112-1.066v-.342H9.513v.3H11.9zm-1.012 3.2c-.63 0-1.035-.171-1.035-.45s.405-.459 1.035-.459 1.04.171 1.04.459-.408.445-1.043.445zm0-1.193c-.86 0-1.4.274-1.4.743s.544.738 1.4.738 1.409-.279 1.409-.738-.552-.747-1.412-.747zm.059-.671v-.774h-.369v.774H9.086v.3h3.632v-.3zm5.882-.274h-2v-.594h2zm.369-1.445h-.369v.554h-2v-.558h-.365v1.746H17.2zm.463 2.232H14v.3h1.638v1.35H16v-1.35h1.656zm2.691-1.121h-1v-.846h1zm-1.372 0h-.594v.3h2.93v-.3h-.594v-.846h.612v-.3h-2.965v.3h.608zm1.894 2.412h-2.037v-.671h2.034zm.806-1.435v-.3h-3.653v.3h1.643v.468h-1.193v1.26h2.754V25.8h-1.192v-.472zm3.33-1.386v.446h-.931v-.446zm-1.3.788h-1.088v-.6h1.089zm.365-.054h.931v.513h.369v-2.11h-.369v.572h-.931v-.383h-.365v.571h-1.088v-.576h-.364v1.759h1.818zm-.927 2.093v-.428h2.228v-.959h-2.6v.293h2.236v.387h-2.228v1h2.745v-.292zm7.052-2.232h-2.377v-.405h2.246v-.279h-2.246v-.383h2.354v-.288h-2.722v1.643H30.2zm-2.817 1.651h2.4v.927h.369V25.9h-2.769zm-.41-.981v.3h3.654v-.3zm6.966-2.133v4.045h.369v-4.045zm-1.759.31c-.6 0-1.026.549-1.026 1.408s.427 1.408 1.026 1.408 1.026-.549 1.026-1.408-.428-1.407-1.026-1.407zm0 .333c.391 0 .67.423.67 1.076s-.279 1.08-.67 1.08-.675-.423-.675-1.08.279-1.075.675-1.075zm5.1-.293h-.364v.725a2.139 2.139 0 0 1-1.039 1.8l.221.3a2.235 2.235 0 0 0 1-1.336 2.226 2.226 0 0 0 .977 1.255l.23-.292a2.038 2.038 0 0 1-1.026-1.728zm2.42 1.288h-.666v-1.633h-.369v4.032h.369v-2.093h.666zm2.651-1.183h-1.009v-.491h-.369v.491h-1v.3h2.377zm-1.8 1.21c0-.261.248-.432.612-.432s.617.171.617.432-.248.437-.617.437-.618-.171-.618-.437zm1.58 0c0-.432-.391-.711-.968-.711s-.963.279-.963.711.387.715.963.715.962-.278.962-.715zm-.3 2.083c-.59 0-.949-.153-.949-.414s.36-.414.949-.414.949.153.949.414-.367.414-.957.414zm0-1.111c-.814 0-1.314.252-1.314.7s.5.7 1.314.7 1.314-.257 1.314-.7-.512-.7-1.322-.7zm1.257-1.515v-1.12h-.369v2.6h.369V24.5h.6v-.3zM1.58 35.34a.96.96 0 0 0 1.057-.94.848.848 0 0 0-.7-.837v-.018a.822.822 0 0 0 .59-.8c0-.531-.405-.828-.959-.828a1.321 1.321 0 0 0-.922.4l.22.261a1.029 1.029 0 0 1 .684-.328.515.515 0 0 1 .558.531c0 .356-.234.63-.913.63v.315c.761 0 1.026.265 1.026.662a.607.607 0 0 1-.67.612 1.091 1.091 0 0 1-.819-.378l-.207.27a1.366 1.366 0 0 0 1.055.448zm1.822 0a.3.3 0 0 0 .3-.311.3.3 0 1 0-.594 0 .3.3 0 0 0 .292.311zm4.469-3.213a3.651 3.651 0 0 1-.108 1.026l.36.041a3.743 3.743 0 0 0 .113-1.067v-.342h-2.75v.3h2.385zm-1.013 3.195c-.63 0-1.035-.171-1.035-.45s.405-.459 1.035-.459 1.039.171 1.039.459-.404.45-1.039.45zm0-1.193c-.86 0-1.4.275-1.4.743s.545.738 1.4.738 1.409-.279 1.409-.738-.55-.743-1.409-.743zm.058-.67v-.774h-.368v.774h-1.49v.3H8.69v-.3zm4.981 1.8H9.914v-.549H11.9zm0-.841H9.914v-.531h-.365v1.67h2.714v-1.67H11.9zm.261-1.2a5.039 5.039 0 0 0 .108-1.17v-.293H9.54v.3h2.36a4.777 4.777 0 0 1-.113 1.161H9.072v.3h3.668v-.3zm2.34-.652h.9v-.3h-.9v-.616h-.368v.625h-.909v.3h.913v.31a1.906 1.906 0 0 1-1.026 1.67l.207.283a2.055 2.055 0 0 0 1-1.256 2 2 0 0 0 1.012 1.179l.2-.283a1.808 1.808 0 0 1-1.027-1.595zm1.562-1V33.2h-.873v.3h.873v2.124h.369v-4.05zm1.287.437v.306h1.481a2.745 2.745 0 0 1-1.67 2.246l.2.288a3.034 3.034 0 0 0 1.832-2.839zm3.537 1.206h-.648v-1.631h-.369v4.036h.369v-2.092h.648zm1.5.144a2.008 2.008 0 0 0 1.5-.707 2 2 0 0 0 1.5.707l.112-.288c-.756-.063-1.368-.369-1.409-.806h1.247v-.293h-1.268v-.409H23.7v.409h-1.267v.293h1.242c-.04.437-.653.743-1.4.806zm2.5 1.579c0 .252-.374.392-1.008.392s-1.008-.14-1.008-.392.369-.391 1.008-.391 1.009.151 1.009.398zm.819-1.071v-.3h-3.65v.3H23.7v.405c-.761.031-1.2.265-1.2.666 0 .437.513.671 1.386.671s1.377-.234 1.377-.671c0-.4-.441-.634-1.2-.666v-.405zm.72-.648a1.9 1.9 0 0 0 1.485-.823 1.907 1.907 0 0 0 1.49.823l.131-.288c-.711-.081-1.359-.437-1.381-.891H29.4v-.3h-2.985v.3h1.256c-.023.454-.68.81-1.382.891zm.063 1.382h2.426v1.017h.369v-1.307h-2.794zm1.6-1V33h-.366v.6h-1.638v.3h3.663v-.3zm3.019.77a.617.617 0 1 1 .536-.616.557.557 0 0 1-.532.623zm0-1.535a.922.922 0 1 0 .864.918.859.859 0 0 0-.86-.91zm.18-1.143h-.365v.571h-.819v.3h2v-.3h-.819zm1.886-.121v1.705h-.518v-1.603h-.343v3.748h.347V33.58h.518v2.03h.356v-4.036zm2.038 2.8c-.391 0-.666-.428-.666-1.084s.275-1.071.666-1.071.661.423.661 1.071-.27 1.095-.658 1.095zm0-2.488c-.594 0-1.017.549-1.017 1.4s.423 1.413 1.017 1.413 1.013-.549 1.013-1.413-.416-1.389-1.01-1.389zm2.677 1.022v-.306h-.644v-1.011h-.369v4.032h.369V34.1h.644v-.3h-.644v-.9zm1.462 1.508a.623.623 0 1 1 .634-.621.605.605 0 0 1-.634.622zm0-1.553a.931.931 0 1 0 .986.931.92.92 0 0 0-.986-.93zm.18-1.228h-.369v.6h-1.017v.3h2.381v-.3h-.994zm2.407 1.611h-.662v-1.655H40.9v4.032h.369v-2.066h.662zm3.492-.446h-2.375v-1.065h-.369v1.368h2.745zm-2.4 1.544h-.369v1.179h2.792v-.3h-2.425zm-.837-.7v.3h3.659v-.3zm6.6-.423h-1.144v-.6h1.143zm.36-1.467h-.36v.58h-1.144v-.58h-.365v1.764h1.868zm-1.093 3.091h2.191v-.981h-2.566v.292h2.2v.414H47.7v1.008h2.7v-.292h-2.34zm2.191-2.389v-.864h-.369v2.083h.369v-.914h.6v-.306zM51.5 33.54a2.04 2.04 0 0 0 1.467-.923 2.031 2.031 0 0 0 1.467.923l.144-.292c-.711-.1-1.408-.567-1.408-1.1v-.023h1.264v-.3h-2.945v.3h1.273v.023c0 .531-.7.994-1.4 1.1zm3.29.337h-3.643v.3h1.629v1.435h.369v-1.433H54.8zm1.606.081a2.175 2.175 0 0 0 1.5-1.089 2.146 2.146 0 0 0 1.512 1.071l.148-.3c-.7-.113-1.471-.666-1.471-1.31v-.085h1.337v-.3h-3.055v.3H57.7v.085c0 .643-.765 1.206-1.462 1.323zm1.683.833v-.977h-.369v.977h-1.644v.309h3.663v-.306zm4.09-1.967v.3h.873v1.436h.373v-2.977h-.373v1.242zm-1.813-.931v.3h1.435a2.126 2.126 0 0 1-1.635 1.607l.158.3a2.388 2.388 0 0 0 1.876-2.2zm.877 3.33v-.963h-.369v1.264h2.655v-.3z" class="cls-4" transform="translate(47.608 3288.219)"/>
        <path id="패스_2772" d="M3.582 6.559H2.543v-.49h-.369v.49H1.13v.3h2.452zM1.737 7.833c0-.284.252-.463.621-.463s.617.18.617.463-.252.459-.617.459-.621-.18-.621-.459zm.806.738c.477-.058.783-.337.783-.738 0-.455-.391-.747-.967-.747s-.972.292-.972.747c0 .405.311.684.787.743v.432c-.4.014-.787.018-1.13.018l.054.31a16.506 16.506 0 0 0 2.615-.162L3.686 8.9c-.369.05-.761.076-1.143.095zm1.4-2.5V10.1h.369V6.069zm2.457.345h-.361v.724A2.139 2.139 0 0 1 5 8.945l.22.3a2.235 2.235 0 0 0 1-1.337 2.226 2.226 0 0 0 .98 1.253l.229-.293A2.038 2.038 0 0 1 6.4 7.14zM8.82 7.7h-.666V6.069h-.369V10.1h.369V8.009h.666zm1.566-1.341a.957.957 0 1 0 0 1.9.957.957 0 1 0 0-1.9zm0 .315a.64.64 0 1 1 0 1.269.64.64 0 1 1 0-1.269zM12 6.065v4.045h.369V6.065zM9.149 9.224a14.421 14.421 0 0 0 2.614-.176l-.031-.274a18.175 18.175 0 0 1-2.628.14zM15.2 6.447h-.356v.769a2.049 2.049 0 0 1-.886 1.742l.23.279A2.067 2.067 0 0 0 15.021 8a1.973 1.973 0 0 0 .8 1.152l.212-.288A1.963 1.963 0 0 1 15.2 7.2zm1.062 1.067h-.666v.306h.666V9.9h.347V6.155h-.347zm.819-1.449V10.1h.351V6.065zm3.776 1.607h-2v-.595h2zm.369-1.445h-.369v.553h-2v-.553h-.364v1.746h2.736zm.464 2.232h-3.667v.3h1.638v1.35h.369V8.756h1.656zm2.749-.423a1.39 1.39 0 0 1-.985-1.236v-.159h.887v-.3h-2.156v.3h.9V6.8a1.466 1.466 0 0 1-1.017 1.323l.193.293a1.71 1.71 0 0 0 1.013-1.006 1.673 1.673 0 0 0 .977.914zM22.68 9h2.326v1.107h.369V8.7h-2.7zm2.326-2.934v1.052h-.787v.3h.787v1.063h.369V6.065zm4.387 0h-.369v2.951h.369zm-2.856 1.272a.693.693 0 1 1 .688.68.66.66 0 0 1-.688-.68zm1.746 0a1.054 1.054 0 1 0-1.058 1 .993.993 0 0 0 1.058-1zM27.167 9.71v-.995H26.8v1.3h2.718v-.3zm4.076-3.21v.3h1.517a2.669 2.669 0 0 1-1.7 2.25l.2.3a3.023 3.023 0 0 0 1.874-2.85zm2.7-.436V10.1h.369V6.065zM38.484 7.2c-.733-.081-1.435-.477-1.435-.968v-.149h-.379v.153c0 .491-.711.887-1.444.968l.126.279a2.036 2.036 0 0 0 1.5-.8 2.053 2.053 0 0 0 1.5.8zm.2.841v-.3h-3.656v.3h1.642v.4h-1.2v.283h2.38V9.1h-2.368v.959h2.853v-.291h-2.492v-.4h2.372v-.923H37.04v-.4zm2.484.284a10.036 10.036 0 0 0 .112-1.6v-.219h-2.04v.3h1.678a8.559 8.559 0 0 1-.118 1.486zm-.927-.671h-.365V8.9c-.3.009-.6.014-.855.014l.041.306a16.448 16.448 0 0 0 2.5-.153L41.54 8.8c-.41.054-.86.077-1.3.095zm2.56.095h-.643V6.065h-.369V10.1h.369V8.063h.642zm3.3.036a5.838 5.838 0 0 0 .1-1.2v-.206H44.2v.3h1.647a5.131 5.131 0 0 1-.108 1.067zm.383.243c-.41.059-.869.09-1.31.108V7.28h-.364v.873c-.306 0-.6.009-.855.009l.036.3a16.174 16.174 0 0 0 2.52-.162zm-1.544.8h-.369v1.183h2.682v-.3h-2.312zm2.183-1.449V6.065h-.369v3.042h.369V7.685h.577v-.307zm3.839 1.656h.374V6.069h-.374v.68h-.782v.3h.783v.6h-.783v.3h.783zm-.814-.945a8.529 8.529 0 0 1-1.606.1v-.658h1.368V6.353h-1.742v.3h1.372v.594h-1.363v1.248h.292a9.193 9.193 0 0 0 1.715-.1zM49.091 9.7v-.881h-.369v1.174h2.736V9.7zm4.131-.8a.623.623 0 1 1 .634-.621.605.605 0 0 1-.634.621zm0-1.553a.931.931 0 1 0 .986.932.92.92 0 0 0-.986-.937zm.18-1.228h-.369v.6h-1.018v.3H54.4v-.3h-1zm2.407 1.611h-.661V6.069h-.369V10.1h.369V8.036h.661zm2.3.518a2.4 2.4 0 0 0 .045-.459 2.293 2.293 0 0 0-.058-.513h.932v.972zm-.958.621c-.387 0-.657-.423-.657-1.08s.27-1.075.657-1.075.657.423.657 1.075-.28 1.075-.662 1.075zm1.876-2.8v.9h-1.04a.91.91 0 0 0-.841-.594c-.59 0-1.008.549-1.008 1.409s.418 1.408 1.008 1.408a.935.935 0 0 0 .869-.648h1.008v1.566h.369V6.065zm2.556 1.206a.726.726 0 0 1 1.44 0 .725.725 0 0 1-1.44 0zm.9.94a.943.943 0 0 0 .9-.94 1.09 1.09 0 0 0-2.16 0 .948.948 0 0 0 .891.94v.7c-.4.014-.77.014-1.094.014l.045.311a14.422 14.422 0 0 0 2.614-.175l-.031-.275c-.374.059-.774.09-1.166.113zm1.426-2.155v4.05h.369V6.06zm3.933 1.611h-2v-.594h2zm.369-1.445h-.369v.554h-2v-.553h-.365v1.746h2.736zm.463 2.232h-3.662v.3h1.638v1.35h.369V8.756h1.656zm2.381.841V8.54h1.291v-.3h-2.483v-.65h2.39V6.361h-2.764v.3h2.4v.63H69.5V8.54h1.184v.76h-1.645v.3h3.667v-.3zm4.729-2.776c.617 0 1.035.225 1.035.581s-.419.585-1.035.585-1.03-.23-1.03-.585.419-.581 1.03-.581zm0 1.463c.842 0 1.413-.342 1.413-.882s-.571-.877-1.413-.877-1.408.338-1.408.877.572.882 1.408.882zm1.836.378h-3.654v.3h.941V10.1h.374V8.666h1.012V10.1h.373V8.666h.954zm.675-.689a2.032 2.032 0 0 0 1.525-.634 2.018 2.018 0 0 0 1.516.634l.114-.275c-.752-.049-1.359-.3-1.422-.7h1.242v-.28h-1.265v-.382h-.369v.382h-1.269v.28h1.246c-.063.4-.679.648-1.426.7zm3.343.463v-.282H78v.283h1.633v.374h-1.2v.274h2.38v.342h-2.369v.927H81.3v-.279h-2.5v-.382h2.371v-.882h-1.17v-.374zm1.9-.031h.868v-.3h-1.7V6.749h1.678v-.306h-2.039v1.665h.823v.8c-.392.014-.774.014-1.12.014l.045.311a17.873 17.873 0 0 0 2.615-.153l-.032-.27c-.36.045-.751.068-1.139.086zm1.4-2.048v4.05h.369V6.06zm2.547.724h.95v-.304h-2.251v.306h.936V7.3a2.064 2.064 0 0 1-1.071 1.73l.216.3A2.264 2.264 0 0 0 87.3 8a2.132 2.132 0 0 0 1.058 1.233l.207-.3A1.879 1.879 0 0 1 87.489 7.3zm1.494-.715V10.1h.369V6.069zm2.425 1.157a.684.684 0 1 1 .684.63.637.637 0 0 1-.68-.629zm1.723 0a1.048 1.048 0 1 0-1.039.931.954.954 0 0 0 1.044-.93zm-1.372 1.288h-.36V10h.194a3.326 3.326 0 0 0 1.035-.148l-.058-.292a3.105 3.105 0 0 1-.81.135zm1.737 1.323c-.248 0-.418-.126-.418-.311s.171-.306.418-.306.419.122.419.306-.176.311-.419.311zm0-.877c-.436 0-.747.22-.747.567s.311.572.747.572.747-.221.747-.572-.311-.568-.747-.568zm.18-.783h-.36v.364h-.837v.274H94.5V8.54h-.833zm.428-1.207v-.9h-.369v2.007h.369v-.8h.6v-.307zm1.971 1.895c-.392 0-.666-.423-.666-1.08s.275-1.075.666-1.075.661.423.661 1.075-.27 1.08-.657 1.08zm0-2.489c-.594 0-1.017.549-1.017 1.409s.423 1.408 1.017 1.408 1.012-.549 1.012-1.408-.414-1.409-1.008-1.409zm2.7 1.3H98.1V6.069h-.369V10.1h.369V7.986h.666zm1.329 1.189c-.392 0-.666-.427-.666-1.085s.274-1.071.666-1.071.662.423.662 1.071-.273 1.085-.662 1.085zm0-2.489c-.594 0-1.017.549-1.017 1.4s.423 1.413 1.017 1.413 1.012-.549 1.012-1.413-.412-1.4-1.012-1.4zm2.673 1.013v-.306h-.644V6.069h-.369V10.1h.369V8.589h.644v-.306h-.644v-.9zm3.568-.954h-1.008v-.41h-.369v.409h-1v.284h2.381zm-1.8 1.125c0-.243.238-.387.612-.387s.616.144.616.387-.243.387-.616.387-.614-.146-.614-.387zm1.579 0c0-.409-.382-.661-.967-.661s-.963.252-.963.661.382.662.963.662.966-.253.966-.662zm-1.23 1.826h2.191v-.9h-2.565v.274h2.2v.351h-2.186v.941h2.7v-.278h-2.34zm2.191-2.362v-.972h-.369v2.232h.369v-.954h.6v-.306zm2.358-.468h-.369v2.5h.257a7.468 7.468 0 0 0 1.444-.126l-.036-.32a7.017 7.017 0 0 1-1.3.126zm2.5-.49v1.642h-.572V6.155h-.346v3.74h.346V8.013h.572V10.1h.355V6.065zm2.781 3.748c-.634 0-1.008-.158-1.008-.432s.374-.432 1.008-.432 1.008.157 1.008.432-.375.432-1.005.432zm0-1.152c-.864 0-1.382.257-1.382.72s.518.715 1.382.715 1.381-.252 1.381-.715-.51-.72-1.378-.72zm-.558-1.071a3.51 3.51 0 0 0 1.121 0v.473h-1.121zm-.481-.7c0-.293.4-.463 1.04-.463s1.039.171 1.039.463-.4.464-1.039.464-1.038-.178-1.038-.466zm1.966 1.175v-.574a.666.666 0 0 0 .491-.6c0-.473-.54-.751-1.418-.751s-1.417.279-1.417.751a.664.664 0 0 0 .495.607v.567h-.9v.3h3.654v-.3zm3.1-1.652c.662 0 1.04.153 1.04.423s-.378.423-1.04.423-1.039-.153-1.039-.423.381-.425 1.042-.425zm0 1.121c.887 0 1.418-.243 1.418-.7s-.531-.7-1.418-.7-1.417.247-1.417.7.534.698 1.42.698zm-1.012 1.827h2.371V8.45h-2.745v.279h2.381v.36h-2.367v.968h2.853v-.289h-2.493zm-.814-1.553v.3h3.654v-.3zm7.87-1.737v2.163h.369V6.069zm-2.232 2.363v1.615h2.6V8.432h-.359v.495h-1.872v-.495zm.365.783h1.876v.533h-1.872zm.068-2.956a.937.937 0 1 0 1.057.927.954.954 0 0 0-1.055-.93zm0 .306a.626.626 0 1 1-.689.621.635.635 0 0 1 .691-.624zm5.017 1.4a9.117 9.117 0 0 1-1.6.095v-.611h1.368V6.307h-1.742v.3h1.381v.558h-1.368v1.2h.288a9.318 9.318 0 0 0 1.71-.1zm-1.512 1.1h2.331v1.039h.369V8.765h-2.7zm2.331-3v.594h-.788v.3h.788V7.5h-.788v.3h.788v.747h.369V6.069zm2.074 2.79a.557.557 0 0 1-.536-.616.54.54 0 1 1 1.071 0 .559.559 0 0 1-.537.618zm0-1.535a.859.859 0 0 0-.864.918.866.866 0 1 0 1.728 0 .859.859 0 0 0-.866-.916zm.18-1.143h-.365v.572h-.817v.3h2v-.3h-.819zm1.885-.121v1.708h-.517V6.155h-.347V9.9h.347V8.067h.517V10.1h.356V6.06zm1.323 1.966a2.04 2.04 0 0 0 1.47-.924 2.031 2.031 0 0 0 1.467.922l.144-.293c-.711-.1-1.408-.567-1.408-1.1v-.015h1.265v-.3h-2.948v.3h1.273v.023c0 .531-.7.994-1.4 1.1zm3.29.338h-3.645v.3h1.629V10.1h.369V8.666h1.652zm1.575-1.917h-.355v.769a2.049 2.049 0 0 1-.887 1.742l.23.279A2.067 2.067 0 0 0 138.982 8a1.973 1.973 0 0 0 .8 1.152l.212-.288a1.963 1.963 0 0 1-.832-1.656zm1.062 1.067h-.666v.308h.666V9.9h.346V6.155h-.346zm.819-1.449V10.1h.351V6.065zm2.214 2.264a2.406 2.406 0 0 0 .558.063 2.486 2.486 0 0 0 .567-.063v.949h-1.125zm.558-1.719c.648 0 1.116.3 1.116.747s-.468.747-1.116.747-1.112-.3-1.112-.747.467-.746 1.115-.746zm.936 2.668V8.184a.915.915 0 0 0 .531-.828c0-.63-.607-1.035-1.467-1.035s-1.467.405-1.467 1.035a.922.922 0 0 0 .54.833v1.088h-.9v.306h3.667v-.306zm1.656.549a.3.3 0 0 0 .3-.311.3.3 0 1 0-.594 0 .3.3 0 0 0 .294.313z" class="cls-4" transform="translate(47.217 3349.982)"/>
        <path id="패스_2780" d="M1.652-14.135h.662v1.962c-.221.009-.446.018-.662.022zm1.022 0h.432v-.3H.86v.3h.432v1.989H.756l.045.311a16.685 16.685 0 0 0 2.516-.149l-.027-.275c-.2.027-.405.045-.617.059zm1.9.882h-.663v-1.611h-.369v4.032h.369v-2.115h.666zm3.569-1.615h-.367v2.07h.369zm-2.86 1.044a.624.624 0 0 1 .684-.6.622.622 0 0 1 .684.6.621.621 0 0 1-.684.594.624.624 0 0 1-.684-.594zm1.728 0a.94.94 0 0 0-1.044-.9.936.936 0 0 0-1.039.9.932.932 0 0 0 1.039.891.937.937 0 0 0 1.044-.891zM5.9-11.178v-.445h2.245v-.977H5.531v.293h2.25v.41H5.54v1.013h2.74v-.293zm5.35-1.732a1.25 1.25 0 0 1-1.017-1.112v-.078h.891v-.3h-.891v-.491h-.365v.491h-.9v.3h.9v.076A1.318 1.318 0 0 1 8.86-12.83l.18.288a1.6 1.6 0 0 0 1.017-.9 1.62 1.62 0 0 0 1.021.828zm-1.332.936h1.9v.792h-1.9zm-.36 1.089h2.623v-1.382H9.563zm2.25-3.983v1.125h-.8v.306h.8v.958h.373v-2.39zm3.9 1.606h-2v-.594h2zm.369-1.444h-.369v.554h-2v-.554h-.364v1.746h2.736zm.464 2.232h-3.657v.3h1.638v1.35h.369v-1.35h1.656z" class="cls-7" transform="translate(47.433 3481.664)"/>
        <path id="Mask" d="M3.446 5.25H1a.974.974 0 0 1-1-.944V2.065a.974.974 0 0 1 1-.944h2.446a.974.974 0 0 1 1 .944v2.241a.974.974 0 0 1-1 .944zM1 1.593a.487.487 0 0 0-.5.472v2.241a.487.487 0 0 0 .5.472h2.446a.487.487 0 0 0 .5-.472V2.065a.487.487 0 0 0-.5-.472zm1.223 2.713a.183.183 0 0 1-.187-.177v-.767h-.812a.177.177 0 1 1 0-.354h.812v-.766a.188.188 0 0 1 .375 0v.767h.812a.177.177 0 1 1 0 .354H2.41v.767a.183.183 0 0 1-.187.176zM4.8 4.124v-.472a.48.48 0 0 0 .448-.467V.944a.487.487 0 0 0-.5-.472H2.3a.494.494 0 0 0-.481.353h-.5A.98.98 0 0 1 2.3 0h2.451a.974.974 0 0 1 1 .944v2.242a.967.967 0 0 1-.948.939z" class="cls-7" transform="translate(65.5 3466)"/>
        <path id="패스_2775" d="M4.334-14.99v4.046H4.7v-4.046zm-1.76.31c-.6 0-1.026.549-1.026 1.409s.428 1.408 1.026 1.408S3.6-12.411 3.6-13.271s-.427-1.408-1.026-1.408zm0 .333c.392 0 .67.423.67 1.075s-.279 1.08-.67 1.08-.675-.423-.675-1.08.279-1.074.675-1.074zm3.087-.248v2.623h1.854v-2.623zm1.494.3v2.034H6.021V-14.3zm1.206-.693v4.046h.369v-4.048zm2.534.72h.949v-.306H9.589v.306h.936v.513a2.064 2.064 0 0 1-1.071 1.733l.216.3a2.264 2.264 0 0 0 1.04-1.332 2.132 2.132 0 0 0 1.058 1.233l.207-.3a1.879 1.879 0 0 1-1.08-1.634zm1.494-.715v4.032h.369v-4.032zm5.427.347h-1.427v-.41h-.369v.41h-1.453v.283h3.249zm-3.047 2.846h2.408v.837h.369v-1.125h-2.777zm.509-1.818c0-.207.333-.324.927-.324s.918.117.918.324-.324.324-.918.324-.928-.116-.928-.324zm1.111.914v-.328c.707-.032 1.116-.23 1.116-.585 0-.383-.477-.59-1.3-.59s-1.3.207-1.3.59c0 .356.4.558 1.12.585v.328h-1.648v.292h3.645v-.292zm3.839-1.859c.634 0 1.039.189 1.039.508s-.405.5-1.039.5-1.04-.184-1.04-.5.405-.508 1.04-.508zm0 1.309c.864 0 1.417-.3 1.417-.8s-.553-.805-1.417-.805-1.418.3-1.418.805.554.8 1.418.8zm-.986 1.03h-.369v1.17h2.777v-.3h-2.408zm-.841-.652v.3h3.649v-.3zm5.139 1.579h.418V-12.6h.542c.72 0 1.215-.324 1.215-1.021 0-.72-.5-.967-1.238-.967h-.94zm.418-1.647v-1.314h.472c.58 0 .873.153.873.63s-.274.684-.855.684zm2.313 1.647h.846a1.456 1.456 0 0 0 1.539-1.66 1.442 1.442 0 0 0-1.556-1.638h-.828zm.418-.342v-2.619h.374c.778 0 1.161.464 1.161 1.3s-.382 1.319-1.161 1.319zm2.561.342h.418v-1.48h1.26v-.351h-1.26v-1.116h1.485v-.351h-1.9zm4.414-2.984h.9v-.306h-2.187v.306h.923v.513a2.11 2.11 0 0 1-1.062 1.737l.216.293a2.279 2.279 0 0 0 1.031-1.336 2.178 2.178 0 0 0 1.015 1.238l.211-.3a1.941 1.941 0 0 1-1.044-1.634zm2.412.909h-.666v-1.624h-.369v4.032h.369v-2.1h.666zm1.643.842h.922v.765h-.922zm1.287.765v-.765h.63v-.3h-2.484v-.648h2.39v-1.224h-2.764v.3h2.4v.626h-2.39v1.247h.567v.765h-1.026v.3H40v-.3zm3.015-1.3h-1.134v-1.278h1.134zm.36-1.575h-1.854v1.867h1.854zm-1.03 2.318h-.369v1.269h2.691v-.3h-2.322zm2.142-1.449v-1.233h-.369v2.957h.369v-1.413h.6v-.31zM48.24-11.3h-1.85v-.522h1.85zm0-.81h-1.85v-.508h-.365v1.615h2.583v-1.615h-.368zm-1.854-1.125a.636.636 0 0 1-.688-.63.633.633 0 0 1 .688-.626.633.633 0 0 1 .689.626.636.636 0 0 1-.689.626zm1.85-1.746v.958h-.823a.961.961 0 0 0-1.026-.774.949.949 0 0 0-1.039.932.95.95 0 0 0 1.039.936.963.963 0 0 0 1.031-.792h.819v.9h.373v-2.165zm3.087 3.231v-.76h1.291v-.3H50.13v-.653h2.39v-1.229h-2.764v.3h2.4v.63h-2.39v1.247h1.184v.76h-1.643v.3h3.667v-.3zm5.251-1.3h-2.407v-1.26h2.367v-.306H53.8v1.868h2.772zm-3.24 1.25v.306H57v-.306zm5.143-2.754v.306h1.481a2.745 2.745 0 0 1-1.67 2.245l.2.288a3.034 3.034 0 0 0 1.832-2.839zm3.537 1.206h-.648v-1.642H61v4.036h.369v-2.092h.648zm3.51-.513h-2.371V-14.9h-.369v1.336h2.741zm-1.413 2.61c-.634 0-1.008-.166-1.008-.445s.374-.45 1.008-.45 1.008.162 1.008.45-.377.441-1.007.441zm0-1.184c-.86 0-1.381.266-1.381.738s.522.733 1.381.733 1.381-.265 1.381-.733-.521-.741-1.38-.741zm-1.817-.665v.3h3.649v-.3zm6.417-1.476H67.7v-.455h-.369v.455h-1v.3h2.38zm-1.8 1.192c0-.261.243-.428.612-.428s.617.166.617.428-.248.428-.617.428-.617-.162-.617-.427zm1.579 0c0-.428-.392-.7-.967-.7s-.963.274-.963.7.387.707.963.707.963-.274.963-.706zm.6 2.079h-1.815v-.446h1.809zm0-.733h-1.815v-.428h-.365v1.458h2.538v-1.458h-.365zm.963-1.926h-.6v-1.026h-.373v2.345h.369v-1.008h.6zm.918-.635H70.6V-12h.333a9.589 9.589 0 0 0 1.98-.189l-.041-.315a9.536 9.536 0 0 1-1.9.189zm2.318-.392v4.032h.369v-4.031zm1.629.693h1.507v-.302h-1.882v2.651h.319a9.569 9.569 0 0 0 1.908-.151l-.041-.306a9.81 9.81 0 0 1-1.818.135zm3.231.9h-.666v-1.592h-.369v4.046h.369v-2.146h.666zm.643 2.169a.3.3 0 0 0 .3-.311.305.305 0 0 0-.3-.319.305.305 0 0 0-.3.319.3.3 0 0 0 .294.312zm3.789-2.646v.3h.81v1.544h.374v-2.956h-.374v1.111zm.239.95a1.386 1.386 0 0 1-.981-1.238v-.2h.886v-.3h-2.162v.3h.9v.2a1.471 1.471 0 0 1-1.017 1.323l.194.288a1.723 1.723 0 0 0 1.017-1 1.665 1.665 0 0 0 .972.914zm-1.265 1.579v-.945h-.373v1.246h2.7v-.3zm5.729-2.335h-1.996v-.819h1.989zm.365-1.12h-2.721v1.417h2.714zM85.288-12.2h-.369v1.152h2.79v-.3h-2.421zm-.837-.729v.3h1.679v.814h.37v-.814h1.62v-.3zm7.884.023h.374v-2.084h-.374v.729h-.877v.3h.877zm-.594-.374a1.356 1.356 0 0 1-.99-1.211v-.373h-.365v.373a1.4 1.4 0 0 1-1.008 1.3l.194.292a1.684 1.684 0 0 0 1.008-.981 1.636 1.636 0 0 0 .972.887zm-1.26 1.98v-.432h2.228v-.968h-2.6v.293h2.237v.4h-2.229v1h2.745v-.293zm5.2-2.565h-.6a3.476 3.476 0 0 0 .054-.612h-1.549v.3h1.184a2.582 2.582 0 0 1-1.364 2.088l.216.261a2.9 2.9 0 0 0 1.391-1.741h.666v.711h-.729v.3h.729v1.395h.351v-3.721h-.351zm.81-1.125v4.032h.351v-4.032zm3.667 3.748c-.634 0-1.008-.158-1.008-.432s.373-.432 1.008-.432 1.008.158 1.008.432-.38.433-1.01.433zm0-1.152c-.864 0-1.382.257-1.382.72s.518.716 1.382.716 1.382-.252 1.382-.716-.515-.719-1.384-.719zm-.558-1.07a3.5 3.5 0 0 0 .558.045 3.518 3.518 0 0 0 .562-.045v.473H99.6zm-.481-.7c0-.292.4-.463 1.039-.463s1.039.171 1.039.463-.4.464-1.039.464-1.041-.178-1.041-.466zm1.966 1.175v-.572a.666.666 0 0 0 .49-.6c0-.472-.54-.751-1.417-.751s-1.418.279-1.418.751a.664.664 0 0 0 .495.608v.567h-.9v.3h3.654v-.3zm2.358.8c-.387 0-.657-.423-.657-1.08s.27-1.075.657-1.075.653.423.653 1.075-.272 1.079-.655 1.079zm1.877-2.8v1.539h-.877c-.059-.756-.455-1.229-1-1.229-.589 0-1.008.549-1.008 1.409s.419 1.408 1.008 1.408c.563 0 .963-.5 1-1.287h.877v2.205h.369v-4.046zm1.566 1.21a.65.65 0 0 1 .711-.639.648.648 0 0 1 .706.639.643.643 0 0 1-.706.635.644.644 0 0 1-.713-.635zm.9.936a.942.942 0 0 0 .882-.936.971.971 0 0 0-1.066-.949.97.97 0 0 0-1.071.949.936.936 0 0 0 .887.936v.7c-.378.009-.747.014-1.067.014l.05.31a15.6 15.6 0 0 0 2.507-.158l-.031-.27c-.347.05-.72.072-1.089.09zm2.354-.482h-.639v-1.669h-.369v4.041h.369v-2.061h.639zm1.417-1.228v.3h1.517a2.669 2.669 0 0 1-1.7 2.25l.2.3a3.023 3.023 0 0 0 1.876-2.848zm2.7-.437v4.036h.369v-4.036zm4.54.59h-1.445v-.527h-.369v.527h-1.463v.3h3.28zm-2.583 1.341c0-.3.364-.477.954-.477s.941.18.941.477-.36.482-.941.482-.956-.181-.956-.482zm1.138 1.332v-.567c.7-.045 1.13-.315 1.13-.765 0-.486-.508-.765-1.314-.765s-1.327.279-1.327.765c0 .45.432.725 1.143.765v.567h-1.643v.3H119v-.3zm4.842-2.556h-2.358v.864h2.795v-.266H120.2v-.347h2.358v-.841h-2.731v.261h2.367zm-2.016 2.637h2.394v-.859H119.8v.266h2.4v.337h-2.394v.9h2.894v-.266h-2.52zm-.81-1.467v.279h3.659v-.279zm6.278-1.525h-.365v.724a2.139 2.139 0 0 1-1.04 1.8l.221.3a2.235 2.235 0 0 0 1-1.336 2.226 2.226 0 0 0 .977 1.256l.229-.293a2.038 2.038 0 0 1-1.026-1.728zm2.417 1.287h-.666v-1.633h-.369v4.032h.369v-2.092h.666zm2.079 2.111c-.634 0-1.008-.158-1.008-.432s.374-.432 1.008-.432 1.008.158 1.008.432-.38.431-1.01.431zm0-1.152c-.864 0-1.382.257-1.382.72s.518.716 1.382.716 1.382-.252 1.382-.716-.516-.721-1.384-.721zm-.558-1.071a3.5 3.5 0 0 0 .558.045 3.518 3.518 0 0 0 .563-.045v.473h-1.121zm-.481-.7c0-.292.4-.463 1.04-.463s1.04.171 1.04.463-.4.464-1.04.464-1.043-.179-1.043-.467zm1.967 1.175v-.572a.666.666 0 0 0 .491-.6c0-.472-.54-.751-1.418-.751s-1.417.279-1.417.751a.664.664 0 0 0 .495.608v.567h-.9v.3h3.654v-.3zm2.277.8a.557.557 0 0 1-.536-.617.554.554 0 0 1 .536-.608.556.556 0 0 1 .536.608.559.559 0 0 1-.539.605zm0-1.535a.859.859 0 0 0-.864.918.858.858 0 0 0 .864.922.858.858 0 0 0 .864-.922.859.859 0 0 0-.867-.925zm.18-1.143h-.364v.572h-.819v.3h2v-.3h-.819zm1.886-.122v1.705h-.517V-14.9h-.347v3.748h.347v-1.836h.517v2.03h.355v-4.037zm2.218 1.967a2.04 2.04 0 0 0 1.467-.923 2.031 2.031 0 0 0 1.467.923l.144-.293c-.711-.1-1.408-.567-1.408-1.1v-.023h1.264v-.3h-2.947v.3h1.273v.023c0 .531-.7.994-1.4 1.1zm3.289.338h-3.645v.3h1.625v1.435h.369v-1.435h1.652zm1.809-1.949h-.365v.724a2.121 2.121 0 0 1-1.084 1.823l.225.3a2.243 2.243 0 0 0 1.044-1.354 2.192 2.192 0 0 0 1.04 1.278l.22-.3a2.008 2.008 0 0 1-1.08-1.75zm1.5-.351v4.046h.369v-4.053zm2.758 1.944h-1.116v-1.3h1.116zm1.287-.931v.562h-.927v-.562zm-.927.864h.927v1.071h.374v-2.943h-.374v.707h-.927v-.356h-1.84v1.881h1.84zm-.927 1.768v-.962h-.369v1.26h2.691v-.3zm4.14-2.2a1.9 1.9 0 0 0 1.512-.742 1.891 1.891 0 0 0 1.512.742l.117-.279c-.7-.058-1.341-.351-1.386-.751h1.247v-.288h-2.979v.288h1.247c-.045.4-.688.693-1.39.751zm1.508 2.363c-.536 0-.832-.095-.832-.275s.3-.279.832-.279.837.09.837.279-.305.267-.837.267zm0-.815c-.778 0-1.211.184-1.211.54s.432.527 1.211.527 1.215-.18 1.215-.527-.436-.55-1.215-.55zm.189-.859h-.369v.378h-1.3v.284h2.975v-.284h-1.3zm0-.459v-.477h-.369v.477h-1.638v.3h3.65v-.3zm5.463-.414c-.715-.09-1.426-.535-1.426-1.035v-.18h-.378v.18c0 .513-.706.945-1.431 1.035l.135.3a2.079 2.079 0 0 0 1.48-.878 2.087 2.087 0 0 0 1.48.864zm-.635 2.425H155.1v-.513h1.984zm0-.8H155.1v-.473h-.365v1.566h2.713v-1.566h-.365zm-2.812-1.048v.3h3.654v-.3zm4.653-1.449h-.369V-12h.333a9.589 9.589 0 0 0 1.98-.189l-.04-.315a9.536 9.536 0 0 1-1.9.189zm2.318-.392v4.032h.369v-4.036zm1.629.693h1.507v-.307h-1.88v2.651h.32a9.569 9.569 0 0 0 1.908-.144l-.04-.306a9.81 9.81 0 0 1-1.818.135zm3.231.9h-.666v-1.597h-.369v4.046h.369v-2.146h.666zm.643 2.169a.3.3 0 0 0 .3-.311.305.305 0 0 0-.3-.319.305.305 0 0 0-.3.319.3.3 0 0 0 .296.307z" class="cls-8" transform="translate(61.589 3451.536)"/>
        <path id="패스_2778" d="M1.742-14.238h2.065v1.309H1.742zm1.224 2.583v-.981h1.2v-1.894h-2.78v1.894h1.206v.981H.954v.306h3.659v-.306zm5.216-1.71H5.859v-.963h2.273v-.3H5.481v1.561h2.7zm.459.823H4.982v.3h1.633v1.391h.369v-1.389H8.64zm1.283.482c-.324 0-.527-.41-.527-1.071s.2-1.057.527-1.057.522.41.522 1.057-.208 1.071-.523 1.071zm1.362-1.24h-.509c-.045-.76-.369-1.233-.855-1.233-.527 0-.864.54-.864 1.4s.338 1.413.864 1.413c.495 0 .823-.486.855-1.278h.509v1.967h.351v-3.749h-.351zm.8-1.57v4.036h.351v-4.036zm3.186 1.651h-.7a3.221 3.221 0 0 0 .193-1.138h-1.553v.3H14.4a2.6 2.6 0 0 1-1.363 2.088l.216.266a3.072 3.072 0 0 0 1.188-1.219h.828v1.885h.351v-3.723h-.351zm.842-1.651v4.036h.351v-4.036zm4.666.549a3.651 3.651 0 0 1-.108 1.026l.36.04a3.743 3.743 0 0 0 .112-1.066v-.342H18.4v.3h2.385zm-1.012 3.2c-.63 0-1.035-.171-1.035-.45s.405-.459 1.035-.459 1.04.171 1.04.459-.408.447-1.039.447zm0-1.193c-.859 0-1.4.275-1.4.743s.545.738 1.4.738 1.408-.279 1.408-.738-.548-.746-1.407-.746zm.059-.671v-.774h-.369v.774h-1.49v.3H21.6v-.3zm2.313-1.359v.3h1.21a2.444 2.444 0 0 1-1.364 2.084l.216.266a2.823 2.823 0 0 0 1.512-2.651zm2.916-.522v1.625h-.549v-1.519h-.347v3.726h.347v-1.908h.549v2.111h.355v-4.036zm4.271 0h-.369v2.166h.369zm-.68 1.66c-.351.045-.724.068-1.1.086v-.4h.8v-.288H26.78v-.6h1.52v-.292h-1.9v1.175h.774v.418c-.4.014-.787.018-1.138.018l.049.293a19.261 19.261 0 0 0 2.583-.149zm-1.611 2.034v-.4h2.291v-.936h-2.664v.288h2.3v.374h-2.291v.972h2.794v-.293zm7.375-2.16c-.734-.108-1.453-.608-1.453-1.17v-.225h-.387v.225c0 .576-.711 1.062-1.444 1.17l.149.3a2.068 2.068 0 0 0 1.489-.945 2.118 2.118 0 0 0 1.494.945zm.176.734h-3.645v.306h1.629v1.462h.369v-1.46h1.652zm4.585-2.268H38.8v2.3h.369zM37-14.324a.648.648 0 0 1 .7.635.645.645 0 0 1-.7.635.637.637 0 0 1-.688-.635.64.64 0 0 1 .688-.635zm0 1.575a.964.964 0 0 0 1.058-.94A.964.964 0 0 0 37-14.63a.958.958 0 0 0-1.048.941.958.958 0 0 0 1.048.94zm1.719.365h-.36v.216a1.191 1.191 0 0 1-.58.959 1.121 1.121 0 0 1-.558-.959v-.216h-.355v.216a1.146 1.146 0 0 1-.81 1l.184.279a1.417 1.417 0 0 0 .8-.747 1.288 1.288 0 0 0 .752.783 1.4 1.4 0 0 0 .747-.8 1.345 1.345 0 0 0 .81.761l.185-.279a1.1 1.1 0 0 1-.81-1zm4.4-1.269h-2.371v-1.067h-.369v1.368h2.745zm-2.4 1.543h-.369v1.179h2.794v-.3h-2.423zm-.837-.7v.3h3.659v-.3zm6.286-1.337h.9v-.306h-2.185v.306h.923v.513a2.11 2.11 0 0 1-1.062 1.734l.216.293a2.279 2.279 0 0 0 1.031-1.337A2.178 2.178 0 0 0 47-11.7l.212-.3a1.941 1.941 0 0 1-1.044-1.633zm2.412.909h-.666v-1.625h-.369v4.032h.369v-2.1h.666zm1.643.842h.923v.765h-.923zm1.287.765v-.769h.63v-.3h-2.482v-.648h2.39v-1.224h-2.764v.3h2.4v.626h-2.391v1.246h.567v.765h-1.026v.3H52.5v-.3zm4.181-2.529h-2.357v.864h2.794v-.266H53.7v-.346h2.358v-.841h-2.733v.261h2.367zm-2.016 2.637h2.395v-.86H53.3v.266h2.4v.337h-2.388v.9H56.2v-.266h-2.52zm-.81-1.467v.279h3.658v-.279zm7.317.081a1.25 1.25 0 0 1-1.017-1.112v-.079h.891v-.3h-.891v-.491H58.8v.491h-.9v.3h.9v.076a1.318 1.318 0 0 1-1.008 1.192l.18.288a1.6 1.6 0 0 0 1.017-.9 1.62 1.62 0 0 0 1.022.828zm-1.332.936h1.9v.792h-1.9zm-.36 1.089h2.623v-1.382h-2.622zm2.25-3.983v1.125h-.8v.306h.8v.958h.373v-2.39zm3.9 1.606h-2v-.594h2zm.369-1.444h-.369v.554h-2v-.554h-.364v1.746h2.736zm.463 2.232h-3.66v.3h1.638v1.35h.369v-1.35h1.656zm1.368.4a.557.557 0 0 1-.535-.617.554.554 0 0 1 .535-.608.556.556 0 0 1 .535.608.559.559 0 0 1-.532.616zm0-1.534a.859.859 0 0 0-.864.918.858.858 0 0 0 .864.923.858.858 0 0 0 .864-.923.859.859 0 0 0-.861-.919zm.18-1.143h-.365v.571h-.815v.3h2v-.3h-.819zm1.886-.122v1.705h-.518v-1.611h-.346v3.749h.346v-1.836h.518v2.03h.355v-4.036zm1.323 1.966a2.04 2.04 0 0 0 1.467-.923 2.031 2.031 0 0 0 1.467.923l.144-.292c-.711-.1-1.409-.567-1.409-1.1v-.022h1.265v-.3h-2.945v.3h1.273v.022c0 .531-.7.995-1.4 1.1zm3.289.337h-3.642v.3h1.629v1.435h.369v-1.435h1.651zm1.582-1.917h-.356v.77a2.049 2.049 0 0 1-.887 1.741l.23.279a2.067 2.067 0 0 0 .837-1.242 1.973 1.973 0 0 0 .8 1.152l.212-.288a1.963 1.963 0 0 1-.836-1.656zm1.062 1.066h-.666v.306h.666v2.084h.338v-3.749h-.347zm.819-1.449v4.036h.351v-4.036zm2.21 2.269a2.406 2.406 0 0 0 .558.063 2.486 2.486 0 0 0 .567-.063v.95h-1.125zm.558-1.719c.648 0 1.116.3 1.116.747s-.468.747-1.116.747-1.112-.3-1.112-.747.463-.752 1.112-.752zm.936 2.668v-1.094a.915.915 0 0 0 .531-.828c0-.63-.607-1.035-1.467-1.035s-1.467.405-1.467 1.035a.922.922 0 0 0 .54.833v1.089h-.9v.306h3.668v-.306zm1.656.549a.3.3 0 0 0 .3-.31.305.305 0 0 0-.3-.32.305.305 0 0 0-.3.32.3.3 0 0 0 .3.306z" class="cls-8" transform="translate(65.284 3468.414)"/>
        <path id="패스_2777" d="M4.485-14.725a4.276 4.276 0 0 0 .125-1.2v-.38h-3.1v.415H4.1a4.027 4.027 0 0 1-.12 1.11zM3.06-12.4c-.67 0-1.08-.165-1.08-.45s.41-.445 1.08-.445 1.065.165 1.065.445-.4.45-1.065.45zm0-1.29c-.975 0-1.59.32-1.59.84s.615.845 1.59.845c.96 0 1.58-.32 1.58-.845s-.62-.84-1.58-.84zm.1-.765v-.83h-.52v.83h-1.6v.415h4.07v-.415zm2.515-1.495v.42H6.94a2.645 2.645 0 0 1-1.455 2.215l.3.365a3.173 3.173 0 0 0 1.665-3zm3.185-.57v1.765h-.515V-16.4H7.86v4.185h.485v-2.12h.515v2.33h.49v-4.515zm3.7.875h.955v-.425h-2.45v.425h.985v.435a2.242 2.242 0 0 1-1.15 1.935l.3.41a2.353 2.353 0 0 0 1.12-1.425 2.281 2.281 0 0 0 1.1 1.31l.285-.405a2.115 2.115 0 0 1-1.13-1.825zm2.62.9h-.7v-1.78h-.515v4.515h.515v-2.31h.705zm1.88 1h.925v.78h-.925zm1.435.78v-.78h.665v-.415h-2.7v-.625h2.6v-1.425h-3.12v.415h2.61v.6h-2.6v1.45h.6v.78h-1.09v.425h4.09v-.425z" class="cls-6" transform="translate(43.22 3469.641)"/>
        <path id="패스_2781" d="M4.935-16.54v4.53h.52v-4.53zm-2.955.375v3.08h2.17v-3.08h-.515v1.15H2.49v-1.15zm.51 1.56h1.145v1.105H2.49zm7.175-.135a4.276 4.276 0 0 0 .125-1.2v-.38h-3.1v.415h2.59a4.027 4.027 0 0 1-.12 1.11zM8.24-12.415c-.67 0-1.08-.165-1.08-.45s.41-.445 1.08-.445 1.065.165 1.065.445-.4.45-1.065.45zm0-1.29c-.975 0-1.59.32-1.59.84s.615.845 1.59.845c.96 0 1.58-.32 1.58-.845s-.62-.84-1.58-.84zm.1-.765v-.83h-.52v.83h-1.6v.415h4.07v-.415zm2.515-1.5v.42h1.265a2.645 2.645 0 0 1-1.455 2.215l.3.365a3.173 3.173 0 0 0 1.665-3zm3.185-.57v1.765h-.515v-1.645h-.485v4.185h.485v-2.12h.515v2.33h.49v-4.515zm3.7.875h.96v-.425h-2.455v.425h.985v.435a2.242 2.242 0 0 1-1.15 1.935l.3.41a2.353 2.353 0 0 0 1.12-1.425A2.281 2.281 0 0 0 18.59-13l.285-.405a2.115 2.115 0 0 1-1.13-1.825zm2.62.905h-.7v-1.78h-.515v4.515h.515v-2.31h.705zm1.88 1h.925v.78h-.925zm1.435.78v-.78h.665v-.415h-2.7v-.625h2.605v-1.42h-3.12v.415h2.61v.6h-2.6v1.45h.6v.78h-1.1v.425h4.09v-.425z" class="cls-6" transform="translate(42.515 3499.905)"/>
        <path id="패스_2759" d="M1.25 0h297.5A1.25 1.25 0 0 1 300 1.25V24.5a1.25 1.25 0 0 1-1.25 1.25H1.25A1.25 1.25 0 0 1 0 24.5V1.25A1.25 1.25 0 0 1 1.25 0z" class="cls-5" transform="translate(38 3206)"/>
        <path id="패스_2760" d="M4.824-18.186a12.246 12.246 0 0 1-2.112.216v-1.854H1.92v2.508h.468a12.767 12.767 0 0 0 2.526-.234zm.438 2.964H3.21v-.51h2.052zm0-1.122H3.21v-.556h-.786v2.3h3.624v-2.3h-.786zM6.78-18.93h-.732v-1.128h-.792v2.9h.792v-1.122h.732zm.594-.558v.63h1.842a3.234 3.234 0 0 1-2.136 2.766l.414.624a4.031 4.031 0 0 0 2.532-4.02zm3.5-.576v5.526h.8v-5.526zm7.368.006h-.8v2.766h.8zM14.5-18.636a.638.638 0 0 1 .714-.624.628.628 0 0 1 .7.624.625.625 0 0 1-.7.624.635.635 0 0 1-.714-.624zm2.184 0a1.337 1.337 0 0 0-1.47-1.26 1.345 1.345 0 0 0-1.482 1.26 1.345 1.345 0 0 0 1.478 1.266 1.338 1.338 0 0 0 1.47-1.266zm-1.336 3.426v-.348h2.892v-1.506h-3.684v.606h2.9v.336h-2.894v1.53h3.816v-.618z" class="cls-6" transform="translate(36.56 3215.048)"/>
        <path id="패스_2761" d="M1.25 0h197a1.25 1.25 0 0 1 1.25 1.25V12.5a1.25 1.25 0 0 1-1.25 1.25h-197A1.25 1.25 0 0 1 0 12.5V1.25A1.25 1.25 0 0 1 1.25 0z" class="cls-1" transform="translate(44 3212)"/>
        <path id="패스_2762" d="M2.232-11.376a.759.759 0 0 0 .625-.45l-.234-.166c-.112.216-.238.306-.382.306-.284 0-.5-.423-.891-.423a.759.759 0 0 0-.63.45l.23.162c.117-.216.243-.306.387-.306.283.003.495.427.895.427zm1.787 1.291h2.074v-.356H5.18c-.166 0-.369.018-.54.032a3.256 3.256 0 0 0 1.291-2.061.9.9 0 0 0-.959-.976A1.262 1.262 0 0 0 4-12.96l.239.234a.924.924 0 0 1 .684-.382.58.58 0 0 1 .608.652c0 .567-.477 1.224-1.512 2.129zm3.438.058c.625 0 1.026-.572 1.026-1.719s-.4-1.7-1.026-1.7-1.031.554-1.031 1.7.401 1.72 1.031 1.72zm0-.328c-.378 0-.63-.419-.63-1.391s.252-1.368.63-1.368.625.405.625 1.368-.252 1.391-.625 1.391zm1.332.27h2.075v-.356H9.95c-.166 0-.369.018-.54.032a3.256 3.256 0 0 0 1.29-2.061.9.9 0 0 0-.958-.976 1.262 1.262 0 0 0-.972.486l.238.234a.924.924 0 0 1 .684-.382.58.58 0 0 1 .608.652c0 .567-.477 1.224-1.512 2.129zm2.583 0h1.809v-.342h-.662v-2.957H12.2a2.09 2.09 0 0 1-.684.234v.261h.585v2.462h-.734zm2.615.058a.3.3 0 0 0 .3-.311.305.305 0 0 0-.3-.32.305.305 0 0 0-.3.32.3.3 0 0 0 .299.312zm1.764 0c.625 0 1.026-.572 1.026-1.719s-.4-1.7-1.026-1.7-1.031.554-1.031 1.7.4 1.72 1.03 1.72zm0-.328c-.378 0-.63-.419-.63-1.391s.252-1.368.63-1.368.625.405.625 1.368-.252 1.391-.626 1.391zm1.652-.968l.751-1.125c.095-.162.185-.324.266-.486h.018c-.009.171-.027.437-.027.6v1.012zm1.836 0H18.8v-2.061h-.454l-1.372 2.119v.27h1.436v.909h.39v-.909h.437zm.657 1.3a.3.3 0 0 0 .3-.311.305.305 0 0 0-.3-.32.305.305 0 0 0-.3.32.3.3 0 0 0 .299.308zm1.764 0c.625 0 1.026-.572 1.026-1.719s-.4-1.7-1.026-1.7-1.03.554-1.03 1.7.399 1.716 1.029 1.716zm0-.328c-.378 0-.63-.419-.63-1.391s.252-1.368.63-1.368.625.405.625 1.368-.253 1.387-.626 1.387zm2.025.27h.427a4.521 4.521 0 0 1 .968-3.051v-.248h-2.067v.351h1.6a4.885 4.885 0 0 0-.929 2.944z" class="cls-4" transform="translate(47.46 3230.834)"/>
        <path id="패스_2770" d="M3.468-12a8.415 8.415 0 0 1-1.592.152v-1.256h-.324v1.532h.28a8.373 8.373 0 0 0 1.676-.16zm.368 2H2.22v-.476h1.616zm0-.74H2.22v-.476H1.9v1.48h2.26v-1.48h-.324zm.86-1.732h-.532v-.8h-.332v1.864h.332v-.792H4.7zm.472-.416v.264h1.348a2.373 2.373 0 0 1-1.512 2l.176.268a2.687 2.687 0 0 0 1.668-2.532zm2.4-.388v3.588H7.9v-3.588zm3.908 0h-.328v1.84h.328zm-2.544.928a.555.555 0 0 1 .608-.532.553.553 0 0 1 .608.532.552.552 0 0 1-.608.528.555.555 0 0 1-.604-.528zm1.536 0a.836.836 0 0 0-.928-.8.832.832 0 0 0-.924.8.829.829 0 0 0 .924.792.832.832 0 0 0 .932-.792zM9.488-10v-.4h1.992v-.868H9.156V-11h2v.364H9.164v.9H11.6V-10zm5.44-2.92H14.1v-.4h-.328v.4h-.852v.264h2.008zm-1.5 1.088c0-.24.2-.4.5-.4s.5.156.5.4-.2.4-.5.4-.496-.156-.496-.396zm1.316 0c0-.388-.336-.644-.812-.644s-.812.256-.812.644.332.644.812.644.816-.252.816-.64zm.8 1.832h-1.676v-.38h1.676zm0-.632h-1.676V-11h-.324v1.26h2.324V-11h-.324zm-.008-2.644v.836h-.6v.264h.6v.432h-.608v.268h.608v.316h.332v-2.116zm2.12.26a.869.869 0 0 0-.96.844.871.871 0 0 0 .96.844.869.869 0 0 0 .96-.844.867.867 0 0 0-.96-.84zm0 .28a.58.58 0 0 1 .64.564.582.582 0 0 1-.64.564.582.582 0 0 1-.64-.564.58.58 0 0 1 .64-.56zm1.432-.544v3.6h.328v-3.6zm-2.532 2.808a12.819 12.819 0 0 0 2.324-.156l-.028-.244a16.156 16.156 0 0 1-2.336.124zm4.5-2.424v.272h1.316a2.44 2.44 0 0 1-1.484 2l.18.256a2.7 2.7 0 0 0 1.632-2.524zM24.2-11.82h-.576v-1.456H23.3v3.588h.328v-1.86h.572zm3.12-.456h-2.104v-.924h-.328v1.188h2.436zm-1.256 2.32c-.564 0-.9-.148-.9-.4s.332-.4.9-.4.9.144.9.4-.336.4-.896.4zm0-1.052c-.764 0-1.228.236-1.228.656s.464.652 1.228.652 1.228-.236 1.228-.652-.46-.656-1.224-.656zm-1.612-.592v.268H27.7v-.268z" class="cls-8" transform="translate(259.336 3230.484)"/>
        <path id="패스_2773" d="M3.468-11.9a8.415 8.415 0 0 1-1.592.152V-13h-.324v1.532h.28a8.373 8.373 0 0 0 1.676-.16zm.368 2H2.22v-.476h1.616zm0-.74H2.22v-.476H1.9v1.48h2.26v-1.48h-.324zm.86-1.732h-.532v-.8h-.332v1.872h.332v-.792H4.7zm.472-.416v.264h1.348a2.373 2.373 0 0 1-1.512 2l.176.268a2.687 2.687 0 0 0 1.668-2.524zm2.4-.388v3.596H7.9v-3.588zm3.908 0h-.328v1.84h.328zm-2.544.928a.555.555 0 0 1 .608-.532.553.553 0 0 1 .608.532.552.552 0 0 1-.608.528.555.555 0 0 1-.604-.52zm1.536 0a.836.836 0 0 0-.928-.8.832.832 0 0 0-.924.8.829.829 0 0 0 .924.792.832.832 0 0 0 .932-.784zm-.98 2.36v-.4h1.992v-.868H9.156v.26h2v.364H9.164v.9H11.6v-.26zm3.632-2.928v2.332h1.648v-2.332zm1.328.264v1.808H13.44v-1.808zm1.072-.616v3.6h.328v-3.6zm2.888.932v.268h.708v.94h.332v-2.136h-.332v.928zm.2.816a1.235 1.235 0 0 1-.872-1.1v-.124h.788v-.256h-1.916v.264h.8v.124a1.323 1.323 0 0 1-.9 1.2l.172.26a1.553 1.553 0 0 0 .9-.912 1.474 1.474 0 0 0 .864.808zm-.344 1.584c-.54 0-.868-.152-.868-.412s.328-.416.868-.416.868.156.868.416-.332.412-.868.412zm0-1.08c-.736 0-1.2.244-1.2.668s.46.668 1.2.668 1.192-.244 1.192-.668-.456-.668-1.192-.668z" class="cls-8" transform="translate(301.836 3230.376)"/>
        <path id="패스_2788" d="M.5 0h3.75a.5.5 0 0 1 .5.5v3.75a.5.5 0 0 1-.5.5H.5a.5.5 0 0 1-.5-.5V.5A.5.5 0 0 1 .5 0z" class="cls-7" transform="translate(252.25 3216.5)"/>
        <path id="패스_2537" d="M1228.172-3704.921l1.072 1.072 1.44-1.86" class="cls-9" transform="translate(-974.754 6923.845)"/>
        <path id="패스_2795" d="M.5 0h3.75a.5.5 0 0 1 .5.5v3.75a.5.5 0 0 1-.5.5H.5a.5.5 0 0 1-.5-.5V.5A.5.5 0 0 1 .5 0z" class="cls-4" transform="translate(294.75 3216.5)"/>
        <path id="패스_2537-2" d="M1228.172-3704.921l1.072 1.072 1.44-1.86" class="cls-9" transform="translate(-932.254 6923.845)"/>
        <path id="패스_2789" d="M.25 0h5.587a.25.25 0 0 1 .25.25v5.124a.25.25 0 0 1-.25.25H.25a.25.25 0 0 1-.25-.25V.25A.25.25 0 0 1 .25 0z" class="cls-4" transform="translate(232.844 3216.203)"/>
        <path id="패스_2538" d="M362.181 379.916h-6.237v-5.774h6.237zm-6.086-.151h5.936v-5.473h-5.936z" class="cls-10" transform="translate(-123.176 2841.986)"/>
        <path id="패스_2790" d="M.25 0h4.587a.25.25 0 0 1 .25.25v3.292a.25.25 0 0 1-.25.25H.25a.25.25 0 0 1-.25-.25V.25A.25.25 0 0 1 .25 0z" class="cls-1" transform="translate(233.344 3217.535)"/>
        <path id="패스_2539" d="M362.181 386.271h-6.237v-4.943h6.237zm-6.086-.151h5.936v-4.641h-5.936z" class="cls-10" transform="translate(-123.176 2835.632)"/>
        <path id="패스_2791" d="M0 0h.386v.874H0z" class="cls-11" transform="translate(233.692 3215.848)"/>
        <path id="패스_2792" d="M0 0h.386v.874H0z" class="cls-11" transform="translate(235.027 3215.848)"/>
        <path id="패스_2793" d="M0 0h.386v.874H0z" class="cls-11" transform="translate(236.362 3215.848)"/>
        <path id="패스_2794" d="M0 0h.386v.874H0z" class="cls-11" transform="translate(237.696 3215.848)"/>
        <path id="패스_2782" d="M1.25 0h285.5A1.25 1.25 0 0 1 288 1.25v20.5a1.25 1.25 0 0 1-1.25 1.25H1.25A1.25 1.25 0 0 1 0 21.75V1.25A1.25 1.25 0 0 1 1.25 0z" class="cls-1" transform="translate(44 3492)"/>
        <path id="패스_2783" d="M1.652-14.135h.662v1.962c-.221.009-.446.018-.662.022zm1.022 0h.432v-.3H.86v.3h.432v1.989H.756l.045.311a16.685 16.685 0 0 0 2.516-.149l-.027-.275c-.2.027-.405.045-.617.059zm1.9.882h-.663v-1.611h-.369v4.032h.369v-2.115h.666zm3.569-1.615h-.367v2.07h.369zm-2.86 1.044a.624.624 0 0 1 .684-.6.622.622 0 0 1 .684.6.621.621 0 0 1-.684.594.624.624 0 0 1-.684-.594zm1.728 0a.94.94 0 0 0-1.044-.9.936.936 0 0 0-1.039.9.932.932 0 0 0 1.039.891.937.937 0 0 0 1.044-.891zM5.9-11.178v-.445h2.245v-.977H5.531v.293h2.25v.41H5.54v1.013h2.74v-.293zm5.35-1.732a1.25 1.25 0 0 1-1.017-1.112v-.078h.891v-.3h-.891v-.491h-.365v.491h-.9v.3h.9v.076A1.318 1.318 0 0 1 8.86-12.83l.18.288a1.6 1.6 0 0 0 1.017-.9 1.62 1.62 0 0 0 1.021.828zm-1.332.936h1.9v.792h-1.9zm-.36 1.089h2.623v-1.382H9.563zm2.25-3.983v1.125h-.8v.306h.8v.958h.373v-2.39zm3.9 1.606h-2v-.594h2zm.369-1.444h-.369v.554h-2v-.554h-.364v1.746h2.736zm.464 2.232h-3.657v.3h1.638v1.35h.369v-1.35h1.656z" class="cls-7" transform="translate(47.433 3511.914)"/>
        <path id="Mask-2" d="M3.446 5.25H1a.974.974 0 0 1-1-.944V2.065a.974.974 0 0 1 1-.944h2.446a.974.974 0 0 1 1 .944v2.241a.974.974 0 0 1-1 .944zM1 1.593a.487.487 0 0 0-.5.472v2.241a.487.487 0 0 0 .5.472h2.446a.487.487 0 0 0 .5-.472V2.065a.487.487 0 0 0-.5-.472zm1.223 2.713a.183.183 0 0 1-.187-.177v-.767h-.812a.177.177 0 1 1 0-.354h.812v-.766a.188.188 0 0 1 .375 0v.767h.812a.177.177 0 1 1 0 .354H2.41v.767a.183.183 0 0 1-.187.176zM4.8 4.124v-.472a.48.48 0 0 0 .448-.467V.944a.487.487 0 0 0-.5-.472H2.3a.494.494 0 0 0-.481.353h-.5A.98.98 0 0 1 2.3 0h2.451a.974.974 0 0 1 1 .944v2.242a.967.967 0 0 1-.948.939z" class="cls-7" transform="translate(65.5 3496.25)"/>
        <path id="패스_2784" d="M1.76-10.688a1.309 1.309 0 0 0 .81-.351h.013l.036.293h.337v-1.5c0-.6-.252-1-.846-1a1.838 1.838 0 0 0-.963.32l.162.283a1.346 1.346 0 0 1 .734-.261c.4 0 .5.3.5.616-1.04.117-1.5.383-1.5.914a.662.662 0 0 0 .717.686zm.117-.328c-.243 0-.432-.113-.432-.392 0-.315.279-.518 1.1-.617v.684a1 1 0 0 1-.668.325zm2.133.27h.482l.342-1.309c.063-.234.113-.464.167-.711h.023c.058.247.1.472.166.7l.355 1.318h.5l.655-2.441h-.391l-.36 1.413c-.054.234-.1.455-.153.684h-.018l-.171-.684-.382-1.413h-.4l-.378 1.413c-.063.23-.113.455-.167.684h-.023c-.045-.23-.094-.45-.144-.684l-.364-1.413H3.33zm3.924.059a1.09 1.09 0 0 0 .743-.346h.009l.041.288h.333v-3.582h-.411v.941l.022.423a.994.994 0 0 0-.689-.288 1.156 1.156 0 0 0-1.058 1.287c.001.813.398 1.276 1.01 1.276zm.09-.342c-.432 0-.675-.351-.675-.941 0-.558.31-.936.707-.936a.858.858 0 0 1 .594.257v1.283a.84.84 0 0 1-.626.337zm2.318.342a1.309 1.309 0 0 0 .81-.351h.014l.036.293h.338v-1.5c0-.6-.252-1-.846-1a1.838 1.838 0 0 0-.963.32l.162.283a1.346 1.346 0 0 1 .734-.261c.4 0 .5.3.5.616-1.039.117-1.5.383-1.5.914a.662.662 0 0 0 .714.685zm.117-.328c-.243 0-.432-.113-.432-.392 0-.315.279-.518 1.1-.617v.684a1 1 0 0 1-.669.324zm2.133.27h.481l.342-1.309c.063-.234.112-.464.166-.711h.019c.059.247.1.472.167.7l.356 1.318h.495l.657-2.443h-.387l-.36 1.413c-.054.234-.1.455-.153.684h-.015c-.059-.23-.112-.45-.171-.684l-.382-1.413h-.4l-.378 1.413c-.063.23-.113.455-.166.684h-.023c-.045-.23-.094-.45-.144-.684l-.365-1.413h-.419zm3.924.059a1.09 1.09 0 0 0 .743-.346h.009l.041.288h.333v-3.582h-.409v.941l.023.423a.994.994 0 0 0-.689-.288 1.156 1.156 0 0 0-1.058 1.287c-.002.812.391 1.275 1.006 1.275zm.09-.342c-.432 0-.675-.351-.675-.941 0-.558.311-.936.707-.936a.858.858 0 0 1 .594.257v1.283a.84.84 0 0 1-.627.336zm2.317.342a1.309 1.309 0 0 0 .81-.351h.013l.036.293h.338v-1.5c0-.6-.252-1-.846-1a1.838 1.838 0 0 0-.963.32l.162.283a1.346 1.346 0 0 1 .733-.261c.4 0 .5.3.5.616-1.039.117-1.5.383-1.5.914a.662.662 0 0 0 .717.684zm.117-.328c-.243 0-.432-.113-.432-.392 0-.315.279-.518 1.1-.617v.684a1 1 0 0 1-.669.323zm2.385.328c.576 0 .891-.328.891-.724 0-.464-.392-.608-.747-.743-.274-.1-.54-.189-.54-.423 0-.189.139-.351.445-.351a.919.919 0 0 1 .563.216l.2-.266a1.266 1.266 0 0 0-.761-.275c-.531 0-.841.306-.841.693 0 .414.387.581.729.707.27.1.558.216.558.464 0 .211-.158.382-.482.382a1.108 1.108 0 0 1-.725-.288l-.2.27a1.474 1.474 0 0 0 .91.336zm2.187 0a1.09 1.09 0 0 0 .743-.346h.009l.04.288h.333v-3.582h-.41v.941l.023.423a.994.994 0 0 0-.689-.288 1.156 1.156 0 0 0-1.061 1.284c0 .815.4 1.278 1.012 1.278zm.09-.342c-.432 0-.675-.351-.675-.941 0-.558.311-.936.706-.936a.858.858 0 0 1 .594.257v1.283a.84.84 0 0 1-.627.336zm1.966.342a.3.3 0 0 0 .3-.311.305.305 0 0 0-.3-.319.305.305 0 0 0-.3.319.3.3 0 0 0 .3.309zm.806 1.035c.482 0 .666-.315.666-.815v-2.722h-.41v2.722c0 .3-.059.481-.306.481a.693.693 0 0 1-.23-.045l-.081.315a1.057 1.057 0 0 0 .361.062zm.464-4.041a.27.27 0 0 0 .284-.266.262.262 0 0 0-.284-.266.26.26 0 0 0-.284.266.268.268 0 0 0 .283.264zm.913 3.978h.41v-.828l-.009-.427a1.1 1.1 0 0 0 .675.283c.562 0 1.062-.482 1.062-1.318 0-.752-.342-1.247-.972-1.247a1.3 1.3 0 0 0-.779.342h-.013l-.036-.279h-.337zm1.008-1.314a.947.947 0 0 1-.6-.257v-1.283a1.019 1.019 0 0 1 .657-.338c.464 0 .644.365.644.9.001.612-.296.977-.701.977zm2.493 1.408c.756 0 1.233-.392 1.233-.846 0-.4-.284-.581-.851-.581h-.477c-.328 0-.427-.108-.427-.266a.364.364 0 0 1 .158-.292.85.85 0 0 0 .365.086.838.838 0 0 0 .891-.851.7.7 0 0 0-.2-.5h.5v-.315h-.85a1.008 1.008 0 0 0-.342-.063.87.87 0 0 0-.918.873.858.858 0 0 0 .319.657v.018a.6.6 0 0 0-.274.455.442.442 0 0 0 .225.4v.018a.692.692 0 0 0-.365.554c0 .418.414.652 1.013.652zm0-2.178a.535.535 0 0 1-.522-.581.522.522 0 0 1 .522-.572.522.522 0 0 1 .518.572.535.535 0 0 1-.518.579zm.059 1.9c-.446 0-.711-.171-.711-.432a.516.516 0 0 1 .252-.414 1.374 1.374 0 0 0 .315.041h.423c.324 0 .5.076.5.3-.001.255-.312.503-.78.503z" class="cls-6" transform="translate(80.467 3511.496)"/>
        <path id="패스_2785" d="M1.539-10.863c.644 0 .9-.459.9-1.026v-2.331H2.03v2.29c0 .5-.176.7-.531.7a.623.623 0 0 1-.572-.37l-.3.212a.973.973 0 0 0 .912.525zm2.048-.058h.5l.49-1.989c.054-.261.113-.5.167-.752h.018c.054.252.1.491.162.752l.5 1.989h.5l.684-3.3H6.2l-.346 1.8q-.095.526-.189 1.066h-.022c-.076-.36-.153-.716-.234-1.066l-.464-1.8h-.377l-.454 1.8c-.081.356-.162.711-.239 1.066h-.018c-.063-.356-.131-.711-.194-1.066l-.346-1.8h-.432zm3.474 0h.418v-1.31h.544c.72 0 1.215-.324 1.215-1.021 0-.72-.5-.967-1.238-.967h-.94zm.418-1.647v-1.314h.472c.58 0 .873.153.873.63s-.274.684-.855.684zm2.277 1.647h.41v-1.773a.9.9 0 0 1 .616-.374c.311 0 .455.194.455.653v1.494h.409v-1.773a.9.9 0 0 1 .617-.374c.31 0 .454.194.454.653v1.494h.41v-1.549c0-.625-.238-.958-.742-.958a1.155 1.155 0 0 0-.806.468.644.644 0 0 0-.675-.468 1.074 1.074 0 0 0-.76.418h-.013l-.036-.356h-.339zm5 .058a1.167 1.167 0 0 0 1.134-1.278 1.172 1.172 0 0 0-1.134-1.287 1.172 1.172 0 0 0-1.134 1.287 1.167 1.167 0 0 0 1.138 1.278zm0-.342c-.423 0-.707-.374-.707-.936s.284-.945.707-.945.711.382.711.945-.284.936-.707.936zm1.665.284h.409v-1.571c.162-.418.414-.562.616-.562a.578.578 0 0 1 .239.041l.076-.36a.521.521 0 0 0-.261-.054.844.844 0 0 0-.693.509H16.8l-.036-.446h-.337zm1.633 0h.41v-2.444h-.41zm.207-2.948a.268.268 0 0 0 .283-.266.26.26 0 0 0-.283-.266.26.26 0 0 0-.284.266.268.268 0 0 0 .289.266zm.918 2.948h.409v-1.773a.929.929 0 0 1 .671-.374c.324 0 .463.194.463.653v1.494h.41v-1.549c0-.625-.234-.958-.747-.958a1.172 1.172 0 0 0-.819.414h-.014l-.036-.351h-.337zM22.644-9.8c.756 0 1.233-.391 1.233-.846 0-.4-.284-.581-.851-.581h-.477c-.328 0-.427-.108-.427-.266a.364.364 0 0 1 .157-.293.85.85 0 0 0 .365.085.838.838 0 0 0 .891-.85.7.7 0 0 0-.2-.5h.5v-.315h-.851a1.008 1.008 0 0 0-.342-.063.87.87 0 0 0-.918.873.858.858 0 0 0 .319.657v.018a.6.6 0 0 0-.275.455.442.442 0 0 0 .225.4v.018a.692.692 0 0 0-.365.554c.004.424.417.654 1.016.654zm0-2.178a.535.535 0 0 1-.522-.581.522.522 0 0 1 .522-.571.522.522 0 0 1 .518.571.535.535 0 0 1-.518.584zm.058 1.9c-.445 0-.711-.171-.711-.432a.515.515 0 0 1 .252-.414 1.374 1.374 0 0 0 .315.04h.423c.324 0 .5.076.5.3 0 .261-.311.508-.781.508zm1.751-.787a.3.3 0 0 0 .3-.31.305.305 0 0 0-.3-.32.305.305 0 0 0-.3.32.3.3 0 0 0 .3.312zm.927.972h.41v-.828l-.009-.428a1.1 1.1 0 0 0 .675.284c.563 0 1.062-.481 1.062-1.319 0-.751-.342-1.246-.972-1.246a1.3 1.3 0 0 0-.778.342h-.014l-.036-.279h-.338zm1.008-1.314a.947.947 0 0 1-.6-.257v-1.282a1.019 1.019 0 0 1 .657-.338c.464 0 .643.365.643.9.002.614-.295.979-.7.979zm2.5.342a1.09 1.09 0 0 0 .743-.347h.009l.04.288h.333V-14.5h-.409v.941l.023.423a.994.994 0 0 0-.689-.288 1.156 1.156 0 0 0-1.057 1.287c.001.81.397 1.274 1.009 1.274zm.09-.342c-.432 0-.675-.351-.675-.941 0-.558.311-.936.707-.936a.858.858 0 0 1 .594.256v1.282a.84.84 0 0 1-.624.341zm2.943-3.276a1.071 1.071 0 0 0-.41-.081c-.486 0-.711.31-.711.805v.392l-.333.022v.311h.333v2.111h.409v-2.111h.518v-.333h-.518v-.387c0-.315.113-.481.347-.481a.694.694 0 0 1 .274.063z" class="cls-6" transform="translate(80.778 3520.922)"/>
        <path id="패스_2796" d="M2.25 0A2.25 2.25 0 1 1 0 2.25 2.25 2.25 0 0 1 2.25 0z" class="cls-12" transform="translate(115.5 3497.25)"/>
        <path id="Shape" d="M2.185.944h-.811V.177a.188.188 0 0 0-.374 0v.767H.187a.177.177 0 1 0 0 .354H1v.767a.188.188 0 0 0 .375 0V1.3h.812a.177.177 0 1 0 0-.354" class="cls-2" transform="rotate(45 -4163.463 1890.982)"/>
        <path id="패스_2797" d="M2.25 0A2.25 2.25 0 1 1 0 2.25 2.25 2.25 0 0 1 2.25 0z" class="cls-12" transform="translate(115.25 3506.5)"/>
        <path id="Shape-2" d="M2.185.944h-.811V.177a.188.188 0 0 0-.374 0v.767H.187a.177.177 0 1 0 0 .354H1v.767a.188.188 0 0 0 .375 0V1.3h.812a.177.177 0 1 0 0-.354" class="cls-2" transform="rotate(45 -4174.754 1895.305)"/>
        <path id="패스_2786" d="M1.25 0h58a1.25 1.25 0 0 1 1.25 1.25V14a1.25 1.25 0 0 1-1.25 1.25h-58A1.25 1.25 0 0 1 0 14V1.25A1.25 1.25 0 0 1 1.25 0z" class="cls-7" transform="translate(157.75 3537.5)"/>
        <path id="패스_2787" d="M3.365-14.7a1.35 1.35 0 0 1-1.035-1.32v-.47h-.67v.415a1.5 1.5 0 0 1-1.08 1.49l.345.52a1.772 1.772 0 0 0 1.08-.99 1.691 1.691 0 0 0 1.015.86zm-.6 2.055c-.59 0-.9-.12-.9-.38s.315-.375.9-.375.9.12.9.375-.31.375-.895.375zm0-1.265c-.96 0-1.56.33-1.56.885s.6.89 1.56.89 1.555-.33 1.555-.89-.595-.89-1.55-.89zm1.505-1.76v-1.07h-.66v2.72h.66v-1.11h.61v-.545zm3.455.685a8.343 8.343 0 0 1-1.775.14v-1.085h1.4v-.53H5.3v2.145h.385a9.3 9.3 0 0 0 2.11-.15zm-1.32 1.54h1.7v.735h-1.7zm-.65 1.25h3v-1.77h-3zM9.36-15.71h-.61v-1.04h-.66v2.585h.66v-1.01h.61zm5.075-1.03h-.665v3.355h.665zm-1 2.135a1.453 1.453 0 0 1-1.07-1.435v-.45h-.67v.45a1.562 1.562 0 0 1-1.095 1.515l.33.525a1.855 1.855 0 0 0 1.1-1.025 1.767 1.767 0 0 0 1.06.945zm-1.4 1.86v-.96h-.66v1.485h3.18v-.525zm5.53-2.77v.53h.715v1.02h.66v-2.78h-.66v1.23zm.29.9a1.25 1.25 0 0 1-1.075-1.135h.91v-.52h-.91v-.49h-.66v.49h-.9v.52h.9a1.324 1.324 0 0 1-1.06 1.245l.31.51a1.7 1.7 0 0 0 1.1-.9 1.7 1.7 0 0 0 1.085.785zm-.47 1.97c-.61 0-.92-.115-.92-.365s.31-.37.92-.37.915.12.915.37-.32.365-.92.365zm0-1.24c-.98 0-1.58.32-1.58.875s.6.87 1.58.87 1.575-.32 1.575-.87-.605-.875-1.58-.875zm4.52.265a.52.52 0 0 1-.54-.56.524.524 0 0 1 .54-.565.519.519 0 0 1 .535.56.518.518 0 0 1-.54.565zm0-1.66a1.1 1.1 0 0 0-1.17 1.1 1.1 1.1 0 0 0 1.165 1.1 1.1 1.1 0 0 0 1.16-1.105 1.093 1.093 0 0 0-1.16-1.095zm.325-1.385h-.66v.6h-1.02v.525h2.68v-.525h-1zm2.62 1.72h-.66v-1.8h-.66v4.605h.66v-2.26h.66zm.45-1.325v.525h1.535a2.7 2.7 0 0 1-1.78 2.305l.345.52a3.359 3.359 0 0 0 2.11-3.35zm2.915-.48v4.605h.665v-4.605z" class="cls-1" transform="translate(173.065 3559.82)"/>
    </g>
</svg>
