<svg xmlns="http://www.w3.org/2000/svg" width="279.763" height="130.676" viewBox="0 0 279.763 130.676">
    <defs>
        <style>
            .cls-2{fill:#0933b3}.cls-3{isolation:isolate}.cls-4{fill:#707070}.cls-5{fill:#282c36}
        </style>
    </defs>
    <g id="그룹_1370" transform="translate(-156.006 -567.682)">
        <path id="패스_1031" d="M266.982 646.466a1 1 0 0 1-.681-1.726l5.628-5.258-5.628-5.257a1 1 0 1 1 1.362-1.458l6.408 5.987a1 1 0 0 1 0 1.458l-6.408 5.987a1 1 0 0 1-.681.267z" class="cls-2" transform="translate(-.243 -.143)"/>
        <path id="패스_1032" d="M274.841 646.466a1 1 0 0 1-.681-1.726l5.628-5.258-5.628-5.257a1 1 0 1 1 1.363-1.458l6.408 5.987a1 1 0 0 1 0 1.458l-6.408 5.987a1 1 0 0 1-.682.267z" class="cls-2" transform="translate(-.26 -.143)"/>
        <path id="패스_1033" d="M282.7 646.466a1 1 0 0 1-.681-1.726l5.627-5.258-5.627-5.257a1 1 0 1 1 1.362-1.458l6.408 5.987a1 1 0 0 1 0 1.458l-6.408 5.987a1 1 0 0 1-.681.267z" class="cls-2" transform="translate(-.278 -.143)"/>
        <path id="패스_1034" d="M290.56 646.466a1 1 0 0 1-.682-1.726l5.628-5.258-5.628-5.257a1 1 0 1 1 1.362-1.458l6.408 5.987a1 1 0 0 1 0 1.458l-6.408 5.988a.993.993 0 0 1-.68.266z" class="cls-2" transform="translate(-.295 -.143)"/>
        <g id="그룹_1033" class="cls-3" transform="translate(362.81 633.684)">
            <path id="패스_1035" d="M363.268 655.174h5.36v-17.05h-4.394v-2.431a15.052 15.052 0 0 0 5.326-1.864h2.9v21.344h4.794v3.163h-13.986z" class="cls-2" transform="translate(-363.268 -633.83)"/>
        </g>
        <g id="그룹_1034" class="cls-3" transform="translate(379.132 641.762)">
            <path id="패스_1036" d="M396.217 656v1.7h-16.591V656h7.24v-3.894h2.09V656zm-15.862-4.928c3.853-.528 6.369-2.618 6.491-5.071h-5.739v-1.7h5.759v-2.373h2.09v2.372h5.744v1.7h-5.719c.121 2.453 2.637 4.543 6.491 5.071l-.791 1.682c-3.082-.486-5.557-1.906-6.755-3.975-1.216 2.069-3.691 3.489-6.773 3.975z" class="cls-2" transform="translate(-379.626 -641.926)"/>
        </g>
        <g id="그룹_1035" class="cls-3" transform="translate(346.652 614.351)">
            <path id="패스_1037" d="M347.074 614.622h2.932c1.819 0 3.208.526 3.208 2.178a2.01 2.01 0 0 1-1.209 1.915v.059a2.015 2.015 0 0 1 1.663 2.1c0 1.783-1.484 2.608-3.434 2.608h-3.16zm2.8 3.6c1.125 0 1.615-.455 1.615-1.161 0-.777-.526-1.088-1.59-1.088h-1.054v2.249zm.2 3.889c1.208 0 1.867-.431 1.867-1.353 0-.861-.646-1.22-1.867-1.22h-1.232v2.573z" class="cls-2" transform="translate(-347.074 -614.454)"/>
            <path id="패스_1038" d="M354.5 619.013c0-2.884 1.615-4.559 3.961-4.559s3.961 1.688 3.961 4.559-1.616 4.632-3.961 4.632-3.961-1.759-3.961-4.632zm6.115 0c0-1.9-.838-3.038-2.154-3.038s-2.154 1.135-2.154 3.038.838 3.1 2.154 3.1 2.157-1.213 2.157-3.1z" class="cls-2" transform="translate(-347.09 -614.454)"/>
            <path id="패스_1039" d="M363.887 614.622h1.77v7.372h3.591v1.484h-5.361z" class="cls-2" transform="translate(-347.111 -614.454)"/>
            <path id="패스_1040" d="M370.636 616.094h-2.488v-1.472h6.773v1.472h-2.513v7.384h-1.771z" class="cls-2" transform="translate(-347.121 -614.454)"/>
            <path id="패스_1041" d="M383.162 623.645a7.159 7.159 0 0 1-2.2-.934 4.278 4.278 0 0 1-2.717.934 2.583 2.583 0 0 1-2.9-2.513 2.936 2.936 0 0 1 1.663-2.512 4.19 4.19 0 0 1-.563-1.915 2.208 2.208 0 0 1 2.323-2.25 1.872 1.872 0 0 1 2.057 1.927c0 1.173-.957 1.9-1.9 2.56a11.24 11.24 0 0 0 1.915 1.844 6.705 6.705 0 0 0 1.09-2.25h1.591a9.705 9.705 0 0 1-1.5 3.039 5.38 5.38 0 0 0 1.568.635zm-4.7-1.352a2.4 2.4 0 0 0 1.293-.443 12.528 12.528 0 0 1-2-2.07 1.7 1.7 0 0 0-.729 1.244 1.294 1.294 0 0 0 1.432 1.269zm-.227-4.4c.694-.418 1.232-.849 1.232-1.5 0-.443-.2-.765-.67-.765-.515 0-.886.418-.886 1.076a2.744 2.744 0 0 0 .321 1.184z" class="cls-2" transform="translate(-347.136 -614.454)"/>
            <path id="패스_1042" d="M384.647 614.622h1.806l2.573 4.715.886 1.915h.06c-.1-.922-.228-2.1-.228-3.1v-3.53h1.675v8.855h-1.8l-2.56-4.739-.9-1.9h-.06c.084.957.215 2.07.215 3.087v3.554h-1.674z" class="cls-2" transform="translate(-347.157 -614.454)"/>
            <path id="패스_1043" d="M393.286 619.492v-4.87h1.772v5.026c0 1.843.635 2.466 1.674 2.466s1.724-.623 1.724-2.466v-5.026h1.7v4.87c0 2.945-1.257 4.153-3.423 4.153s-3.447-1.208-3.447-4.153z" class="cls-2" transform="translate(-347.176 -614.454)"/>
            <path id="패스_1044" d="M403.768 616.094h-2.489v-1.472h6.773v1.472h-2.513v7.384h-1.77z" class="cls-2" transform="translate(-347.194 -614.454)"/>
        </g>
        <path id="패스_1045" d="M426.909 607.558a58.851 58.851 0 0 0-12.717-14.228l4.991-5.343 4.5 3.823a1 1 0 1 0 1.292-1.52l-10.426-8.863a1 1 0 0 0-1.292 1.521l4.408 3.747-5.044 5.4a59.432 59.432 0 0 0-34.848-11.885v-10.532h10.472a1 1 0 0 0 0-2H365.3a1 1 0 0 0 0 2h10.471v10.539a58.721 58.721 0 0 0-30.449 9.2 1 1 0 1 0 1.078 1.683 57.1 57.1 0 1 1-19.327 20.557 1 1 0 0 0-1.746-.965 59.1 59.1 0 1 0 101.585-3.13z" class="cls-4" transform="translate(-.358)"/>
        <g id="그룹_1036" class="cls-3" transform="translate(185.776 638.012)">
            <path id="패스_1046" d="M195 647.683h-1.493v3.257h-2.323v-3.257h-5.343v-1.7l4.682-7.6h2.984v7.395H195zm-3.816-1.9v-2.561c0-.728.068-1.866.1-2.594h-.068c-.305.661-.645 1.357-1 2.035l-1.951 3.12z" class="cls-5" transform="translate(-185.842 -638.168)"/>
            <path id="패스_1047" d="M195.872 647.819a3.651 3.651 0 0 1 2.154-3.273v-.085a3.579 3.579 0 0 1-1.662-2.986c0-2.018 1.594-3.307 3.783-3.307 2.221 0 3.646 1.34 3.646 3.342a3.656 3.656 0 0 1-1.611 2.867v.085a3.648 3.648 0 0 1 2.1 3.358c0 1.9-1.678 3.358-4.223 3.358-2.389-.001-4.187-1.392-4.187-3.359zm6.09-.085c0-1.306-1.153-1.849-2.782-2.51a3.018 3.018 0 0 0-1.153 2.324 1.924 1.924 0 0 0 2.1 1.866 1.646 1.646 0 0 0 1.835-1.68zm-.2-6.072a1.6 1.6 0 0 0-1.662-1.747 1.459 1.459 0 0 0-1.526 1.56c0 1.188.967 1.765 2.29 2.29a3.005 3.005 0 0 0 .893-2.103z" class="cls-5" transform="translate(-185.864 -638.168)"/>
        </g>
        <g id="그룹_1037" class="cls-3" transform="translate(204.982 642.536)">
            <path id="패스_1048" d="M208.49 644.936a4.36 4.36 0 0 0 2.334 3.948l-.6.819a4.5 4.5 0 0 1-2.234-2.7 4.68 4.68 0 0 1-2.294 2.9l-.609-.857a4.53 4.53 0 0 0 2.374-4.109v-1.477h1.027zm4.089-2.234v9.036h-1.037V642.7z" class="cls-5" transform="translate(-205.09 -642.702)"/>
            <path id="패스_1049" d="M218.728 643.4c0 2.384-1.585 4.078-4.209 4.876l-.429-.817c2.065-.629 3.342-1.795 3.521-3.222h-3.142v-.837zm-2.254 7.31h5.026v.837h-6.064v-2.971h1.037zm5.954-5.365v.847h-1.286v3.042h-1.028v-6.523h1.028v2.633z" class="cls-5" transform="translate(-205.11 -642.702)"/>
        </g>
        <g id="그룹_1038" class="cls-3" transform="translate(174.871 620.026)">
            <path id="패스_1050" d="M180.179 625.108a32.245 32.245 0 0 1-5.127.318l-.14-1.067h.958v-2.552h-.728v-1.047h4.847v1.047h-.728v2.413c.289-.02.569-.049.838-.08zm2.453 2.522c0 1.078-1.186 1.715-3.151 1.715s-3.141-.638-3.141-1.715 1.186-1.714 3.141-1.714 3.151.629 3.151 1.714zm-5.495-3.3c.279 0 .569-.02.858-.029v-2.494h-.858zm4.179 3.3c0-.488-.619-.718-1.835-.718s-1.825.229-1.825.718.618.718 1.825.718 1.835-.239 1.835-.718zm-.04-3.231H180.2v-1.047h1.077v-.669H180.2v-1.057h1.077v-1.477h1.316v5.615h-1.316z" transform="translate(-174.913 -620.142)"/>
            <path id="패스_1051" d="M192.341 623.971v1.048h-2.054v1.995h-1.3v-1.995h-.918v1.995h-1.3v-1.995h-2.753v-1.048h5.854a11.625 11.625 0 0 0 .2-2.343h-5.066v-1.048h6.362v.788a14.219 14.219 0 0 1-.18 2.6zm-6.133 4.159h5.425v1.047h-6.741v-3h1.316z" transform="translate(-174.933 -620.143)"/>
            <path id="패스_1052" d="M197.591 622.964a5.835 5.835 0 0 1-3.8 3l-.539-1.048c1.945-.6 3.151-1.7 3.361-3.031h-2.872v-1.048h4.3a5.4 5.4 0 0 1-.11 1.078h1.569v-1.766h1.316v6.762H199.5v-1.885h-2.054v-1.057h2.054v-1.007zm3.45 5.166v1.047h-6.233v-2.921h1.317v1.874z" transform="translate(-174.953 -620.142)"/>
            <path id="패스_1053" d="M207.14 625.368a3.411 3.411 0 0 1-2.084-1.806 3.6 3.6 0 0 1-2.194 1.986l-.668-1.037a2.985 2.985 0 0 0 2.164-2.8h-1.806v-1.051h4.937v1.048H205.7a2.84 2.84 0 0 0 2.073 2.633zm-3.48.657h6.262v3.321h-1.316v-2.273h-4.946zm6.262-5.863v5.455h-1.316V623.4h-1.357v-1.057h1.357v-2.184z" transform="translate(-174.973 -620.142)"/>
            <path id="패스_1054" d="M214.913 622.2a4.213 4.213 0 0 0 2.284 4.05l-.747 1.067a4.2 4.2 0 0 1-2.175-2.513 4.444 4.444 0 0 1-2.253 2.732l-.787-1.088a4.428 4.428 0 0 0 2.365-4.248v-1.34h1.316zm4.049-2.053v9.215h-1.316v-9.215z" transform="translate(-174.993 -620.142)"/>
            <path id="패스_1055" d="M225.209 620.839c0 2.493-1.536 4.219-4.268 5.006l-.549-1.046c2.044-.56 3.181-1.626 3.391-2.913h-2.991v-1.048zm-2.133 7.29H228v1.047h-6.243v-3.111h1.317zm5.833-5.414v1.077h-1.226v2.931h-1.316v-6.572h1.316v2.564z" transform="translate(-175.013 -620.142)"/>
        </g>
        <path id="패스_1056" d="M231.133 602l3.306-3.537 3.353 2.851a1 1 0 0 0 1.292-1.521l-8.145-6.923a1 1 0 1 0-1.292 1.52l3.271 2.78-3.363 3.6a45.84 45.84 0 0 0-26.739-9.072v-7.677h7.964a1 1 0 0 0 0-2h-17.92a1 1 0 1 0 0 2h7.959v7.679a45.3 45.3 0 0 0-23.523 7.175 1 1 0 0 0 1.079 1.68 43.317 43.317 0 0 1 23.452-6.878h.279a44.1 44.1 0 0 1 .214 88.2h-.22a44.1 44.1 0 0 1-38.645-65.347 1 1 0 0 0-1.749-.961 46.1 46.1 0 0 0 40.395 68.3h.229A46.077 46.077 0 0 0 231.133 602z" class="cls-4" transform="translate(0 -.032)"/>
    </g>
</svg>
