<svg xmlns="http://www.w3.org/2000/svg" width="100" height="82" viewBox="0 0 100 82">
    <defs>
        <style>
            .cls-1{fill:#fff}.cls-3{fill:#e1e2e4}
        </style>
    </defs>
    <g id="그룹_898" transform="translate(-50 -523)">
        <path id="사각형_1734" d="M0 0H100V82H0z" class="cls-1" transform="translate(50 523)"/>
        <g id="그룹_896" transform="translate(53 548)">
            <path id="패스_977" fill="none" d="M565.911 389.491l-4.362-1.625v-17.577l4.362-1.625.042-.016 3.336-1.229a.173.173 0 0 0 .1-.222l-.413-1.082a.17.17 0 0 0-.218-.1l-2.846 1.048v-.012l-5.922 2.179a.173.173 0 0 0-.112.161v9.068h-.65v1.24h.652v9.188l6.034 2.22v.012l3 1.105.534-1.4-3.539-1.318z" transform="translate(-484.115 -356.476)"/>
            <path id="패스_978" d="M529.137 351.389H506.879a.342.342 0 0 0-.341.343v15.3a.164.164 0 0 1-.164.163h-2.725a.173.173 0 0 1-.173-.17v-3.786a.34.34 0 0 0-.341-.341h-39.03a.173.173 0 0 1-.17-.177.152.152 0 0 1 .006-.043l3.881-12.957a.174.174 0 0 0-.121-.213.18.18 0 0 0-.043-.006h-2.413a.17.17 0 0 0-.163.124l-3.766 13.272h-5.954l-3.762-13.277a.174.174 0 0 0-.164-.124h-2.416a.174.174 0 0 0-.17.177.154.154 0 0 0 .006.043l3.881 12.957a.174.174 0 0 1-.121.214.176.176 0 0 1-.043.006h-12.982a.34.34 0 0 0-.341.341v17.532a.34.34 0 0 0 .341.341h63.55a.34.34 0 0 0 .341-.341V376.9a.173.173 0 0 1 .173-.173h2.722a.164.164 0 0 1 .164.164v15.556a.342.342 0 0 0 .341.343h22.256a.342.342 0 0 0 .341-.343v-40.715a.342.342 0 0 0-.342-.343zm-9.464 33.7a.163.163 0 0 1-.21.1l-2.85-1.049v-.012l-5.927-2.18a.164.164 0 0 1-.107-.154v-9.074h-4.2l-5.675 2.069v3.411a.341.341 0 0 1-.341.341H442.37a.34.34 0 0 1-.341-.341v-12.4a.34.34 0 0 1 .341-.341h57.995a.34.34 0 0 1 .341.341v4.169l5.668 1.513h4.2v-9.068a.173.173 0 0 1 .112-.161l5.922-2.179v.012l2.846-1.048a.17.17 0 0 1 .217.1l.413 1.083a.173.173 0 0 1-.1.222l-3.336 1.229-.042.016-4.363 1.625v17.464a.163.163 0 0 0 .106.154l4.256 1.585v.012l3.385 1.261a.163.163 0 0 1 .1.211z" class="cls-3" transform="translate(-434.814 -349.497)"/>
            <path id="패스_979" fill="#0933b3" d="M527.06 387.436v-.012l-4.256-1.585a.164.164 0 0 1-.107-.154v-14.913a.163.163 0 0 0-.163-.164h-1.343a.164.164 0 0 0-.164.164v5.618h-4.205l-5.546-1.481a.164.164 0 0 1-.121-.158v-4.043a.34.34 0 0 0-.341-.341h-38.883a.164.164 0 0 1-.163-.163v-2.4l1.84-6.483a.163.163 0 0 0-.157-.208h-9.319a.164.164 0 0 0-.158.208l1.84 6.483v15.487a.164.164 0 0 0 .163.163h44.835a.34.34 0 0 0 .341-.341v-3.3a.163.163 0 0 1 .107-.154l5.567-2.03h4.2v9.071a.165.165 0 0 0 .107.154l5.927 2.18v.012l2.85 1.049a.163.163 0 0 0 .209-.1l.419-1.1a.164.164 0 0 0-.1-.211z" transform="translate(-445.264 -354.409)"/>
            <path id="패스_953" d="M489.579 380.864H431.9a.34.34 0 0 0-.341.341v8.421a.34.34 0 0 0 .341.341h57.675a.341.341 0 0 0 .3-.173l2.38-4.21a.346.346 0 0 0 0-.335l-2.38-4.214a.34.34 0 0 0-.296-.171z" class="cls-3" transform="translate(-431.564 -362.759)"/>
            <rect id="사각형_1623" width="11.016" height="2.101" class="cls-1" rx=".283" transform="rotate(-75.05 43.462 -19.267)"/>
            <rect id="사각형_1623-2" width="11.016" height="2.101" class="cls-1" rx=".283" transform="rotate(-75.05 39.35 -13.915)"/>
            <rect id="사각형_1623-3" width="11.016" height="2.101" class="cls-1" rx=".283" transform="rotate(-75.05 35.24 -8.562)"/>
            <rect id="사각형_1623-4" width="11.016" height="2.101" class="cls-1" rx=".283" transform="rotate(-75.05 31.128 -3.21)"/>
        </g>
    </g>
</svg>
