<svg xmlns="http://www.w3.org/2000/svg" width="100" height="82" viewBox="0 0 100 82">
    <defs>
        <style>
            .cls-3{fill:#d6d6d6}
        </style>
    </defs>
    <g id="그룹_900" transform="translate(-50 -202)">
        <path id="사각형_1736" fill="#fff" d="M0 0H100V82H0z" transform="translate(50 202)"/>
        <g id="그룹_909" transform="translate(-678.995 50.025)">
            <path id="패스_986" fill="#e1e2e4" d="M804.925 157.974h-51.86a.789.789 0 0 0-.789.789v68.567a.789.789 0 0 0 .789.789h51.86a.789.789 0 0 0 .789-.789v-68.567a.789.789 0 0 0-.789-.789zm-3.107 61.006a.789.789 0 0 1-.789.789h-44.068a.789.789 0 0 1-.789-.789v-46.531h10.491v4.3a.315.315 0 0 0 .316.316h3.326v-3.8a.157.157 0 0 1 .158-.158h.8a.158.158 0 0 1 .158.158v3.8h1.988v10.386a.316.316 0 0 0 .316.316h2.768V194a.158.158 0 0 0 .158.158h4.694a.158.158 0 0 0 .155-.158v-6.233h2.767a.316.316 0 0 0 .316-.316v-10.384h1.989v-3.8a.158.158 0 0 1 .158-.158h.8a.158.158 0 0 1 .158.158v3.8h3.326a.316.316 0 0 0 .316-.316v-4.3h10.491zm-23.38-41.912v-3.8a.158.158 0 0 1 .158-.158h.8a.158.158 0 0 1 .158.158v3.8zm23.38-10.186h-45.645v-4.222a.789.789 0 0 1 .789-.789h44.067a.789.789 0 0 1 .789.789z"/>
            <path id="패스_733" d="M766.261 288.412h-5.63a.316.316 0 0 1-.306-.239l-1.054-4.214h8.35l-1.053 4.214a.316.316 0 0 1-.307.239z" class="cls-3" transform="translate(-3.101 -55.848)"/>
            <path id="패스_731" d="M833.27 288.412h-5.63a.315.315 0 0 1-.306-.239l-1.054-4.214h8.35l-1.054 4.214a.316.316 0 0 1-.306.239z" class="cls-3" transform="translate(-32.81 -55.848)"/>
            <path id="사각형_1545" d="M798.737 222.962h1.713v2.538a.158.158 0 0 1-.158.158h-1.4a.158.158 0 0 1-.158-.158z" class="cls-3" transform="translate(-20.599 -28.809)"/>
            <path id="패스_987" fill="#0933b3" d="M804.868 247.231h-35.455a3.147 3.147 0 0 1 0-6.295h27.747a1.477 1.477 0 0 0 0-2.954h-9.635a3.151 3.151 0 0 1-3.147-3.147v-2.7a.835.835 0 1 1 1.67 0v2.7a1.479 1.479 0 0 0 1.477 1.477h9.635a3.147 3.147 0 0 1 0 6.294h-27.747a1.477 1.477 0 0 0 0 2.955h35.455a.835.835 0 1 1 0 1.67z" transform="translate(-6.202 -31.392)"/>
            <path id="패스_988" fill="#c6c7cc" d="M778.438 188.577h3.327v-3.8a.157.157 0 0 1 .158-.158h.8a.157.157 0 0 1 .158.158v3.8h7.019v-3.711a.158.158 0 0 1 .158-.158h.8a.158.158 0 0 1 .158.158v3.711h7.02v-3.8a.157.157 0 0 1 .157-.158h.8a.157.157 0 0 1 .158.158v3.8h3.327a.316.316 0 0 0 .316-.316v-4.3h-24.672v4.3a.315.315 0 0 0 .316.316z" transform="translate(-11.459 -11.519)"/>
        </g>
    </g>
</svg>
