<svg xmlns="http://www.w3.org/2000/svg" width="100" height="82" viewBox="0 0 100 82">
    <defs>
        <style>
            .cls-2{fill:#e1e2e4}.cls-4{fill:#0933b3}
        </style>
    </defs>
    <g id="그룹_899" transform="translate(-50 -372)">
        <path id="사각형_1735" fill="#fff" d="M0 0H100V82H0z" transform="translate(50 372)"/>
        <g id="그룹_833" transform="translate(-39.317 278.066)">
            <path id="패스_970" d="M174.875 103.606H131.62a.416.416 0 0 0-.417.416v6.463a.416.416 0 0 0 .417.416h15.08v9.938a.294.294 0 0 0 .295.294h1.258a.291.291 0 0 0-.012.063v3.252a.294.294 0 0 0 .294.294h9.422a.294.294 0 0 0 .295-.294V121.2a.292.292 0 0 0-.013-.063h1.261a.294.294 0 0 0 .295-.294V110.9h15.082a.416.416 0 0 0 .417-.416v-6.463a.416.416 0 0 0-.419-.415z" class="cls-2" transform="translate(-13.913)"/>
            <path id="패스_971" fill="#c6c7cc" d="M173.885 143.769h-15.538a.294.294 0 0 0-.294.294v5.555a.294.294 0 0 0 .294.294h2.269v-4.787a.147.147 0 0 1 .147-.147h.743a.147.147 0 0 1 .147.147v4.787h3.947v-4.787a.147.147 0 0 1 .147-.147h.743a.147.147 0 0 1 .147.147v4.787h3.945v-4.787a.147.147 0 0 1 .147-.147h.743a.147.147 0 0 1 .147.147v4.787h2.269a.294.294 0 0 0 .294-.294v-5.555a.294.294 0 0 0-.297-.294z" transform="translate(-26.781 -19.323)"/>
            <path id="패스_589" d="M173.691 155.62h-2.351v3.965a.147.147 0 0 0 .246.108l2.057-1.881a.147.147 0 0 0 .048-.108z" class="cls-4" transform="translate(-33.181 -25.025)"/>
            <path id="패스_590" d="M171.586 170.311l2.057-1.881a.147.147 0 0 0 .048-.109v-3.9a.147.147 0 0 0-.246-.108l-2.057 1.881a.149.149 0 0 0-.048.108v3.9a.147.147 0 0 0 .246.109z" class="cls-4" transform="translate(-33.181 -29.188)"/>
            <path id="패스_591" d="M171.586 182.75l2.057-1.881a.147.147 0 0 0 .048-.108v-3.9a.147.147 0 0 0-.246-.108l-2.057 1.881a.149.149 0 0 0-.048.108v3.9a.147.147 0 0 0 .246.108z" class="cls-4" transform="translate(-33.181 -35.172)"/>
            <path id="패스_592" d="M171.487 195.416h2.057a.147.147 0 0 0 .147-.147V189.3a.147.147 0 0 0-.246-.108l-2.057 1.881a.149.149 0 0 0-.048.108v4.087a.147.147 0 0 0 .147.148z" class="cls-4" transform="translate(-33.181 -41.157)"/>
            <path id="패스_972" d="M176.058 202.1h-28.352a.294.294 0 0 0-.294.294v3.559a.294.294 0 0 1-.294.294h-15.566a.294.294 0 0 1-.294-.294V202.4a.294.294 0 0 0-.294-.294h-28.353a.294.294 0 0 0-.294.294v10.162a.294.294 0 0 0 .294.294h73.447a.294.294 0 0 0 .294-.294V202.4a.294.294 0 0 0-.294-.3z" class="cls-2" transform="translate(0 -47.384)"/>
        </g>
    </g>
</svg>
