<svg xmlns="http://www.w3.org/2000/svg" width="1199" height="484" viewBox="0 0 1199 484">
    <defs>
        <style>
            .cls-1{fill:#c6c7cc}.cls-2{fill:#0933b3}.cls-3,.cls-5,.cls-8,.cls-9{fill:none}.cls-3{stroke:#86888c}.cls-4{fill:#fff}.cls-5{stroke:#c6c7cc}.cls-5,.cls-9{stroke-width:2px}.cls-6{isolation:isolate}.cls-7{fill:#0a2165}.cls-9{stroke:#fff}
        </style>
    </defs>
    <g id="그룹_1346" transform="translate(-414 -496)">
        <g id="그룹_1345" transform="translate(402.134 -480)">
            <path id="패스_1278" d="M421.8 1128.854l-8.649-8.649a.361.361 0 0 0-.255-.106h-10.153a.358.358 0 0 0-.255.106l-2.671 2.671a.361.361 0 0 1-.255.106h-32.493a.355.355 0 0 1-.254-.106l-5.735-5.734a.361.361 0 0 0-.255-.106h-15.736a.36.36 0 0 1-.255-.1l-5.825-5.825a.361.361 0 0 0-.255-.106h-9.881a.355.355 0 0 0-.254.106l-7.041 7.041a.367.367 0 0 1-.255.1H312.3a.359.359 0 0 1-.255-.1l-6.793-6.793a.361.361 0 0 0-.255-.106h-28.013a.355.355 0 0 0-.254.106l-23.061 14a.359.359 0 0 0 0 .509l7.519 7.519a.361.361 0 0 1 0 .509l-14.217 15a.36.36 0 0 0 0 .508l19.329 24.176a.364.364 0 0 0 .255.1h9.251a.367.367 0 0 0 .255-.1l21.77-21.1a.355.355 0 0 1 .254-.106h13.845a.361.361 0 0 1 .255.106l33.948 23.865a.358.358 0 0 1 .106.255v17.819a.357.357 0 0 0 .1.255l20.816 20.816a.362.362 0 0 1 .106.255v12.306a.36.36 0 0 0 .106.255l19.056 19.056 3.978 3.978a.358.358 0 0 0 .255.106h15.02a.363.363 0 0 1 .254.1l5.343 5.343a.356.356 0 0 0 .255.1h6.88a.357.357 0 0 1 .254.106l4.353 4.352 8.994 8.994a.36.36 0 0 0 .509 0l2.388-2.388a.364.364 0 0 1 .255-.1h5.856a.361.361 0 0 0 .36-.361v-1.772a.366.366 0 0 0-.1-.255l-1.711-1.711a.366.366 0 0 0-.255-.1h-5.947a.358.358 0 0 1-.255-.106l-4.473-4.473a.358.358 0 0 1-.106-.255v-5.587a.366.366 0 0 0-.1-.255l-7.3-7.3a.357.357 0 0 1-.106-.255v-4.715a.36.36 0 0 0-.36-.36h-5.316a.366.366 0 0 0-.255.1l-3.873 3.873a.357.357 0 0 1-.254.106h-9.1a.361.361 0 0 1-.36-.361v-15.816a.361.361 0 0 1 .1-.254l6.4-6.4a.363.363 0 0 1 .255-.105h18.319a.364.364 0 0 1 .255.105l5.225 5.225a.36.36 0 0 0 .615-.254v-8.17a.358.358 0 0 1 .106-.255l10.509-10.509a.365.365 0 0 0 .1-.255v-5.8a.36.36 0 0 1 .106-.255l8.618-8.617 7.192-7.193a.361.361 0 0 1 .509 0l4.731 4.731a.36.36 0 0 0 .508 0l7.808-7.808a.363.363 0 0 1 .255-.1h15.7a.361.361 0 0 0 .361-.36v-6.337a.358.358 0 0 0-.106-.255l-3.633-3.633a.359.359 0 0 1-.1-.254v-6.909a.358.358 0 0 0-.106-.255l-17.058-17.049a.361.361 0 0 0-.509 0l-5.601 5.616a.362.362 0 0 1-.51 0l-5.285-5.285a.36.36 0 0 1-.106-.255v-4.146a.366.366 0 0 0-.1-.255l-4.654-4.653a.357.357 0 0 0-.254-.106h-9.131a.363.363 0 0 1-.255-.1l-8.9-8.9a.35.35 0 0 0-.226-.1c-1.135-.079-9.33-.627-10.487-.247a.349.349 0 0 1-.357-.099z" class="cls-1"/>
            <path id="패스_1279" d="M510.336 1146.044v-9.944a.354.354 0 0 1 .105-.255l8.8-8.8a.363.363 0 0 1 .255-.1h4.386a.361.361 0 0 0 .255-.106l8.8-8.8a.358.358 0 0 1 .255-.106h12.674a.361.361 0 0 0 .255-.106l7.536-7.536a.361.361 0 0 0 .105-.255v-15.37a.362.362 0 0 0-.105-.255l-3.874-3.873a.362.362 0 0 1 0-.51l12.342-12.342a.361.361 0 0 0 .1-.254v-5.832a.357.357 0 0 1 .106-.254l4.144-4.144a.36.36 0 0 0-.255-.615h-19.7a.361.361 0 0 1-.255-.616l4.8-4.8a.36.36 0 0 0 0-.509l-4.053-4.053a.361.361 0 0 0-.255-.106h-25.822a.358.358 0 0 0-.255.106l-2.582 2.581a.361.361 0 0 1-.255.106h-14.925a.361.361 0 0 0-.255.1l-4.789 4.789a.362.362 0 0 1-.255.1H488.5a.364.364 0 0 1-.255-.1l-2.694-2.694a.361.361 0 0 0-.255-.106h-10.485a.358.358 0 0 0-.255.106l-14.371 14.371a.358.358 0 0 0-.106.255v5.636a.36.36 0 0 0 .106.255l4.558 4.557a.366.366 0 0 1 .1.255v5.18a.361.361 0 0 0 .361.36h13.628a.362.362 0 0 1 .254.1l16.756 16.756a.361.361 0 0 1 0 .509l-3.423 3.423a.355.355 0 0 0-.1.255v18.079a.355.355 0 0 0 .1.255l11.14 11.139a.355.355 0 0 0 .254.106h3.468a.352.352 0 0 1 .272.125c.525.612 2.783 3.255 2.783 2.937z" class="cls-1"/>
            <path id="패스_1280" d="M432.3 1085.146h7.973a.364.364 0 0 0 .255-.1l5.4-5.406a.36.36 0 0 0 0-.508l-2.553-2.553a.36.36 0 0 1 .255-.616h7.088a.365.365 0 0 0 .255-.1l14.684-14.684a.36.36 0 0 0-.255-.615h-34.913a.364.364 0 0 0-.255.1l-3.617 3.618a.357.357 0 0 1-.255.1h-11.007a.358.358 0 0 0-.255.106l-10.562 10.572a.359.359 0 0 0 0 .509l4.977 4.977a.358.358 0 0 0 .255.106h8.169a.365.365 0 0 1 .255.1l2.252 2.253a.36.36 0 0 1 0 .508l-3 3a.361.361 0 0 0 0 .509l3.063 3.063a.358.358 0 0 0 .255.106h7.936a.355.355 0 0 0 .307-.172c.467-.773 2.385-3.938 3.025-4.74a.353.353 0 0 1 .268-.133z" class="cls-1"/>
            <path id="패스_1281" d="M398.99 1093.794v-5.765a.361.361 0 0 0-.36-.361h-6.337a.358.358 0 0 0-.255.106l-3.963 3.964a.36.36 0 0 0 .254.615h4.747a.364.364 0 0 1 .255.1l2.576 2.577a.357.357 0 0 0 .44.054c.816-.494 3.405-2.052 2.643-1.29z" class="cls-1"/>
            <path id="패스_1282" d="M396.468 1083.344v-5.044a.361.361 0 0 0-.36-.361h-6.546a.36.36 0 0 0-.18.673c2.395 1.354 7.501 4.317 7.086 4.732z" class="cls-1"/>
            <path id="패스_1283" d="M402.04 1087.308h4.729a.357.357 0 0 1 .254.106l2.883 2.882a.361.361 0 0 1-.255.616H403.1a.355.355 0 0 1-.254-.106l-2.769-2.769a.36.36 0 0 1 .287-.613 3.359 3.359 0 0 0 1.476-.055z" class="cls-1"/>
            <path id="패스_1284" d="M413.151 1095.7l-3.1-3.1a.36.36 0 0 1 .255-.615h10.512a.364.364 0 0 1 .255.1l2.491 2.492a.363.363 0 0 0 .255.1h11.562a.36.36 0 0 1 .36.36v2.7a.36.36 0 0 1-.36.36h-19.624a.353.353 0 0 1-.3-.154c-.37-.542-1.613-2.313-1.964-2.225a.317.317 0 0 1-.342-.018z" class="cls-1"/>
            <path id="패스_1285" d="M392.865 1112.892H385.8a.363.363 0 0 1-.255-.1l-8.257-8.257a.357.357 0 0 0-.254-.106h-7.089a.363.363 0 0 1-.255-.1l-7.085-7.086a.361.361 0 0 0-.255-.106h-16.18a.358.358 0 0 0-.255.106l-7.162 7.162a.36.36 0 0 0 0 .508l2.838 2.838a.358.358 0 0 0 .255.106h16.066a.36.36 0 0 1 .36.36v3.094a.357.357 0 0 0 .106.254l3.212 3.213a.359.359 0 0 0 .254.1h6.518a.36.36 0 0 1 .36.36v4.144a.361.361 0 0 0 .36.361h18.536a.361.361 0 0 0 .306-.17c.676-1.105 4.449-7.173 4.941-6.681z" class="cls-1"/>
            <path id="패스_1286" d="M402.764 1105.135l-3.848-3.848a.361.361 0 0 0-.255-.106h-8.319a.361.361 0 0 0-.36.361v3.634a.361.361 0 0 0 .1.255l5.194 5.194a.364.364 0 0 0 .255.1h5.686a.354.354 0 0 0 .351-.278 49.051 49.051 0 0 1 1.271-4.931.351.351 0 0 0-.075-.381z" class="cls-1"/>
            <path id="패스_1287" d="M417.368 1110.73v-6.7a.357.357 0 0 1 .1-.255l5.014-5.014a.363.363 0 0 1 .255-.1h12.854a.364.364 0 0 1 .255.1l5.464 5.465a.36.36 0 0 0 .255.1h3.035a.361.361 0 0 1 .255.106l12.356 12.356a.363.363 0 0 0 .255.1h2.634a.361.361 0 0 1 .255.106l9.526 9.526a.36.36 0 0 1-.255.615H460.4a.36.36 0 0 0-.254.615l6.235 6.236a.36.36 0 0 1 0 .508l-5.334 5.335a.36.36 0 0 1-.509 0l-8.288-8.288a.364.364 0 0 0-.255-.1h-9.76a.361.361 0 0 1-.36-.361v-3.262a.355.355 0 0 1 .1-.254l5.946-5.946a.36.36 0 0 0 0-.509l-9.2-9.2a.347.347 0 0 0-.218-.1c-1.787-.167-22.003-1.94-21.135-1.079z" class="cls-1"/>
            <path id="패스_1288" d="M441.963 1271.11l9.291-9.292a.364.364 0 0 1 .255-.1h11.353a.366.366 0 0 1 .254.1l3.453 3.453a.36.36 0 0 0 .255.1h9.976a.361.361 0 0 1 .255.106l6.665 6.665a.358.358 0 0 0 .255.106h7.225a.363.363 0 0 1 .255.1l6.831 6.831a.363.363 0 0 1 .105.255v4.61a.361.361 0 0 0 .361.36h7.348a.361.361 0 0 1 .255.106l5.915 5.914a.358.358 0 0 0 .255.106h10.631a.364.364 0 0 1 .255.1l2.732 2.732a.358.358 0 0 1 .106.255v9.611a.364.364 0 0 1-.106.255l-7.987 7.986a.361.361 0 0 0-.1.255v12.644a.364.364 0 0 1-.106.255l-7 7-20.539 20.539-15.151 15.152a.361.361 0 0 1-.255.106h-5.122a.355.355 0 0 0-.254.1l-4.766 4.766a.358.358 0 0 0-.106.255v12.859a.358.358 0 0 1-.106.255l-4.867 4.868a.353.353 0 0 0-.106.254v9.277a.36.36 0 0 0 .106.255l2.9 2.9a.357.357 0 0 1 .106.255v3.081a.358.358 0 0 1-.106.255l-3.372 3.372a.361.361 0 0 1-.509 0l-12.741-12.741a.357.357 0 0 1-.1-.255v-14.832a.357.357 0 0 1 .1-.255l3.993-3.993a.362.362 0 0 0 .106-.255v-20.481a.357.357 0 0 1 .1-.255l2.612-2.611a.366.366 0 0 0 .1-.255v-33.153a.366.366 0 0 0-.1-.255l-10.49-10.494-11.183-11.193a.364.364 0 0 1-.105-.255v-7.119a.363.363 0 0 1 .105-.255l4.338-4.338a.358.358 0 0 0 .106-.255v-4.28a.358.358 0 0 1 .106-.255l5.207-5.208a.354.354 0 0 0 .1-.2c.11-.743.718-4.887.806-5.662a.338.338 0 0 1 .1-.207z" class="cls-1"/>
            <path id="패스_1289" d="M666.166 1228.005l-8.166-8.166a.357.357 0 0 0-.254-.106h-11.413a.364.364 0 0 1-.255-.1l-4.234-4.234a.359.359 0 0 0-.508 0l-6.067 6.066a.36.36 0 0 1-.509 0L623.3 1210l-4.4-4.4a.365.365 0 0 0-.254-.1H610.3a.364.364 0 0 0-.255.1l-5.734 5.735a.365.365 0 0 1-.255.1h-19.34a.358.358 0 0 0-.255.106l-6.005 6.005a.353.353 0 0 0-.1.254v5.918a.364.364 0 0 1-.106.255l-14.35 14.337a.358.358 0 0 0-.106.255v21.187a.359.359 0 0 0 .106.255l16.116 16.116a.358.358 0 0 0 .255.106h15.669a.361.361 0 0 0 .255-.106l6.9-6.9a.357.357 0 0 1 .507 0l12.046 12.046a.36.36 0 0 1 0 .508l-4.535 4.535a.36.36 0 0 0 0 .509l12.977 12.979a.358.358 0 0 1 .106.255v8.35a.357.357 0 0 1-.106.254l-5.194 5.2a.353.353 0 0 0-.1.254v7.629a.361.361 0 0 0 .1.255l9.7 9.7a.365.365 0 0 1 .1.255v7.449a.358.358 0 0 0 .106.255l7.986 7.986a.36.36 0 0 1 .106.255v7.869a.36.36 0 0 0 .36.36H651.8a.361.361 0 0 0 .255-.106l15.645-15.64a.362.362 0 0 0 .1-.254v-5.107a.358.358 0 0 1 .106-.255l3.933-3.933a.362.362 0 0 0 .1-.254v-11.058a.357.357 0 0 1 .106-.254l7.806-7.807a.358.358 0 0 0 .106-.255v-9.7a.355.355 0 0 0-.106-.254l-5.18-5.18a.359.359 0 0 1 0-.509l26.71-26.71a.36.36 0 0 0 .106-.255v-9.039a.361.361 0 0 0-.36-.361h-12.634a.364.364 0 0 1-.255-.1l-11.245-11.245-8.756-8.756a.357.357 0 0 1-.1-.173c-.235-1.015-2.166-9.436-1.879-10.581a.34.34 0 0 0-.092-.335z" class="cls-1"/>
            <path id="패스_1290" d="M685.461 1334.4v-4.431a.361.361 0 0 1 .1-.255l3.212-3.212a.357.357 0 0 0 .106-.254v-9.611a.353.353 0 0 1 .106-.255l5.284-5.284a.356.356 0 0 1 .254-.106h6.067a.361.361 0 0 1 .36.361v7.869a.369.369 0 0 1-.105.255l-4.654 4.653a.357.357 0 0 0-.1.255v10.692a.359.359 0 0 1-.106.255l-5.792 5.792a.361.361 0 0 1-.511 0 .351.351 0 0 1-.048-.06l-4.117-6.469a.351.351 0 0 1-.056-.195z" class="cls-1"/>
            <path id="패스_1291" d="M882.479 1319.935l5.839-5.838a.358.358 0 0 1 .507 0l4.084 4.084a.357.357 0 0 1 .106.254v5.948a.364.364 0 0 0 .1.255l8.423 8.422 6.5 6.5a.357.357 0 0 1 .106.255v8.349a.362.362 0 0 1-.106.255l-6.275 6.275a.357.357 0 0 0-.1.255v8.109a.362.362 0 0 1-.106.255l-5.645 5.645a.361.361 0 0 1-.51 0l-4.174-4.174a.361.361 0 0 0-.51 0l-2.042 2.042a.365.365 0 0 1-.255.1h-7.3a.36.36 0 0 1-.36-.36v-5.616a.366.366 0 0 0-.1-.255l-5.165-5.165a.361.361 0 0 0-.51 0l-2.974 2.974a.361.361 0 0 1-.509 0l-6.246-6.246a.361.361 0 0 0-.255-.106h-14.108a.358.358 0 0 0-.255.106l-4.713 4.713a.361.361 0 0 1-.255.106H838.4a.368.368 0 0 0-.256.1l-2.942 2.943a.36.36 0 0 1-.509 0l-4.355-4.355a.36.36 0 0 1 0-.509l2.734-2.733a.36.36 0 0 0 0-.51l-6.125-6.125a.359.359 0 0 1-.106-.255v-14.229a.354.354 0 0 1 .106-.255l5.734-5.735a.364.364 0 0 1 .255-.1h8.048a.358.358 0 0 0 .255-.106l7.492-7.491 4.819-4.82a.368.368 0 0 1 .255-.1h3.275a.362.362 0 0 1 .254.1l2.509 2.508a.36.36 0 0 0 .615-.255v-3.2a.36.36 0 0 1 .1-.255l3.942-3.94a.359.359 0 0 1 .255-.1h4.813a.362.362 0 0 1 .255.1l2.826 2.826a.362.362 0 0 1 .1.254v5.036a.354.354 0 0 0 .234.338c1.317.473 7.781 2.823 9.017 3.754a.36.36 0 0 0 .479-.028z" class="cls-1"/>
            <g id="그룹_1152">
                <path id="패스_1292" d="M903.142 1219.934v-6.5a.356.356 0 0 1 .1-.254l2.222-2.222a.362.362 0 0 0 .1-.254v-10.748a.361.361 0 0 0-.36-.361h-3.153a.361.361 0 0 0-.36.361v7.6a.357.357 0 0 1-.106.254l-2.4 2.4a.358.358 0 0 0-.106.255v8.493a.358.358 0 0 0 .263.347c.672.182 2.456.671 3.315.971a.36.36 0 0 0 .459-.219.369.369 0 0 0 .026-.123z" class="cls-1"/>
                <path id="패스_1293" d="M907.025 1225.819l-3.718-3.718a.361.361 0 0 0-.51 0l-3.709 3.709-2.177 2.178a.36.36 0 0 0 .254.615h3.666a.362.362 0 0 1 .254.1l1.982 1.982a.36.36 0 0 0 .509 0l4.339-4.339a3.934 3.934 0 0 0-.75-.48z" class="cls-1"/>
                <path id="패스_1294" d="M900.259 1237.071v-5.586a.36.36 0 0 0-.36-.36h-2.734a.355.355 0 0 0-.254.106l-1.681 1.68a.359.359 0 0 0-.106.255v5.737a.366.366 0 0 1-.1.255l-5.421 5.419a.361.361 0 0 1-.255.106h-7.674a.364.364 0 0 0-.255.1l-4.662 4.662a.36.36 0 0 0 .255.615h12.111a.365.365 0 0 0 .254-.1l2.773-2.773a.358.358 0 0 1 .255-.106h5.335a.36.36 0 0 0 .36-.36v-6.468a.34.34 0 0 1 .07-.212 29.467 29.467 0 0 0 2.089-2.97z" class="cls-1"/>
            </g>
            <path id="패스_1295" d="M371.725 1097.278h5.616a.361.361 0 0 0 .255-.106l3.632-3.633a.363.363 0 0 1 .255-.1h2.854a.36.36 0 0 0 .36-.36v-2.643a.36.36 0 0 0-.36-.36h-5.285a.361.361 0 0 1-.361-.361v-2.4a.36.36 0 0 0-.36-.36h-4.8a.36.36 0 0 0-.36.36v3.809a.36.36 0 0 1-.615.254l-3.6-3.6a.359.359 0 0 0-.255-.106h-4.747a.354.354 0 0 1-.254-.1l-2.192-2.191a.357.357 0 0 0-.254-.106h-6.428a.358.358 0 0 0-.255.106l-4.324 4.324a.36.36 0 0 0 .255.615h5.226a.36.36 0 0 0 .255-.106l2.4-2.4a.359.359 0 0 1 .508 0l2.493 2.493a.36.36 0 0 1 0 .509l-1.172 1.172a.36.36 0 0 0 .255.615h7.3a.36.36 0 0 1 .36.36v3.773a.358.358 0 0 0 .308.356c.919.127 3.588.484 3.29.186z" class="cls-1"/>
            <path id="패스_1296" d="M410.39 1105.456l4.921-4.921a.36.36 0 0 0 0-.508l-1.922-1.922a.357.357 0 0 0-.254-.106h-7.658a.361.361 0 0 0-.361.361v3.071a.358.358 0 0 0 .134.28l4.659 3.771a.36.36 0 0 0 .481-.026z" class="cls-1"/>
            <path id="패스_1297" d="M376.049 1081.335v-2.2a.361.361 0 0 0-.361-.36h-6.937a.358.358 0 0 0-.255.106l-2.4 2.4a.36.36 0 0 0 .255.615h4.025a.36.36 0 0 1 .255.615l-.932.932a.36.36 0 0 0 .255.615h3.286a.353.353 0 0 0 .272-.124 12.368 12.368 0 0 1 2.321-2.278.355.355 0 0 0 .216-.321z" class="cls-1"/>
            <path id="패스_1298" d="M974.255 1130.238l-19.515-19.519a.362.362 0 0 0-.254-.1h-46.794a.358.358 0 0 1-.255-.106l-8.91-8.91a.359.359 0 0 0-.254-.106h-14.341a.358.358 0 0 0-.255.106l-4.968 4.969a.364.364 0 0 1-.255.1h-14.025a.361.361 0 0 1-.255-.1l-8.167-8.167a.361.361 0 0 0-.255-.106h-33.393a.36.36 0 0 1-.255-.615l5.977-5.976a.36.36 0 0 0 0-.509l-7.027-7.026a.357.357 0 0 0-.254-.106h-20.6a.356.356 0 0 0-.254.106l-8.8 8.8a.36.36 0 0 1-.255.1h-15.345a.361.361 0 0 0-.36.361v5.923a.361.361 0 0 1-.361.36h-10.5a.358.358 0 0 0-.255.106l-4.271 4.271a.362.362 0 0 1-.254.1h-19.566a.356.356 0 0 0-.254.106l-10.925 10.919a.356.356 0 0 1-.255.1h-27.174a.358.358 0 0 0-.255.106l-7.986 7.987a.364.364 0 0 1-.255.1H682.9a.361.361 0 0 1-.255-.1l-8.257-8.257a.361.361 0 0 0-.255-.106h-7.989a.363.363 0 0 1-.255-.1l-6.635-6.636a.368.368 0 0 0-.255-.1h-10.144a.362.362 0 0 0-.254.1l-4.113 4.113a.361.361 0 0 1-.255.106h-7.269a.363.363 0 0 0-.255.1l-27.9 27.9a.354.354 0 0 0-.106.255v8.5a.361.361 0 0 0 .361.36h9.58a.357.357 0 0 1 .254.106l7.23 7.229a.358.358 0 0 0 .507 0l7.23-7.229a.368.368 0 0 0 .1-.255v-12.279a.36.36 0 0 1 .106-.255l8.392-8.391a.358.358 0 0 1 .255-.106h3.755a.36.36 0 0 1 .255.615l-5.315 5.315a.36.36 0 0 0-.106.255v6.368a.357.357 0 0 0 .106.254l4.653 4.654a.358.358 0 0 1 .106.255v6.337a.361.361 0 0 1-.361.36h-5.4a.36.36 0 0 0-.36.36v7.387a.361.361 0 0 1-.36.361h-20.924a.363.363 0 0 0-.255.1l-3.209 3.216a.361.361 0 0 1-.255.106H612.1a.361.361 0 0 0-.255.1l-5.915 5.915a.361.361 0 0 1-.255.106h-6.336a.361.361 0 0 0-.361.36v4.5a.361.361 0 0 1-.36.361h-6.157a.364.364 0 0 0-.255.1l-3.062 3.063a.359.359 0 0 0 0 .509l7.057 7.057a.361.361 0 0 1 0 .509l-3.6 3.6a.361.361 0 0 1-.255.106h-12.1a.36.36 0 0 0-.36.36v14.107a.352.352 0 0 0 .238.338c1.342.455 7.941 3.852 9.261 4.534a.357.357 0 0 0 .417-.067l4.678-4.678 3.964-3.964 4.759-4.759a.369.369 0 0 0 .1-.255v-3.274a.361.361 0 0 1 .361-.36h7.6a.361.361 0 0 0 .255-.106l3.693-3.693a.36.36 0 0 1 .509 0l14.534 14.534a.36.36 0 0 0 .615-.255v-4.926a.366.366 0 0 0-.1-.255l-6.455-6.455a.357.357 0 0 1-.106-.255v-5.107a.36.36 0 0 1 .615-.254l18.949 18.948a.36.36 0 0 0 .509 0 .368.368 0 0 0 .106-.255v-5.256a.361.361 0 0 1 .36-.361h6.7a.359.359 0 0 1 .254.106l8.077 8.077a.364.364 0 0 0 .255.1h5.106a.361.361 0 0 1 .255.106l3.243 3.243a.36.36 0 0 1 0 .508l-5.526 5.527a.361.361 0 0 0 0 .509l8.378 8.378a.357.357 0 0 1 .106.255v8.169a.36.36 0 0 0 .105.255l9.338 9.338a.362.362 0 0 1 .106.255v7.629a.357.357 0 0 0 .1.255l9.1 9.1a.36.36 0 0 0 .509 0l10.359-10.36a.364.364 0 0 1 .255-.1h5.647a.361.361 0 0 0 .255-.106L719 1238.63a.36.36 0 0 0 0-.509l-2.643-2.644a.36.36 0 0 1 .254-.615h17.179a.36.36 0 0 1 .255.106l3.678 3.678 4.159 4.159a.36.36 0 0 0 .509 0l3.544-3.544a.362.362 0 0 1 .616.255v15.737a.355.355 0 0 0 .1.254l6.455 6.455a.368.368 0 0 1 .106.255v8.71a.36.36 0 0 0 .615.255l6.845-6.846a.359.359 0 0 0 .106-.255v-10.145a.363.363 0 0 1 .1-.255l16.005-16.005a.365.365 0 0 1 .254-.1h8.725a.36.36 0 0 1 .36.36v10.436a.368.368 0 0 0 .106.255l5.058 5.059a.353.353 0 0 1 .106.255v10.779a.363.363 0 0 0 .105.255l14.864 14.864a.361.361 0 0 0 .616-.255v-6.007a.357.357 0 0 0-.106-.255l-6.455-6.455a.359.359 0 0 1-.106-.255v-8.71a.361.361 0 0 1 .616-.255l6.591 6.592 5.331 5.33a.36.36 0 0 0 .508 0l6.667-6.666a.357.357 0 0 0 .1-.255v-6.908a.361.361 0 0 0-.1-.255l-10.135-10.134a.36.36 0 0 1 0-.509l4.369-4.369a.361.361 0 0 1 .255-.106h12.95c1.1.035 1.942.063 2.313.076a.46.46 0 0 0 .28-.091.359.359 0 0 0 .178-.09l14.833-14.833a.353.353 0 0 0 .1-.206.482.482 0 0 0 .047-.2v-10.542a.5.5 0 0 0-.147-.353l-4.258-4.258a.5.5 0 0 1-.137-.306v-5.192a.5.5 0 0 1 .137-.3l5.392-5.392a.5.5 0 0 0 .146-.353v-.387h.662a.357.357 0 0 1 .255.1l1.607 1.607v.086l-1.016 1.015a.5.5 0 0 0-.146.354v3.763l.084 1.194c-.012.265.08 2.413.1 2.625l.191 4.372a.5.5 0 0 0 .707 0l2.065-2.065 1.914 1.915 4.313 4.312-3.733 3.733a.5.5 0 0 0 0 .707l2.373 2.372v3.41a.5.5 0 0 0 .146.354l1.113 1.113v3.285l-4.04 4.039a.5.5 0 0 0 0 .707l2.406 2.406-1.926 1.926a.5.5 0 0 0 .354.853h3.825a.5.5 0 0 0 .353-.146l3.2-3.2h5.589a.5.5 0 0 0 .354-.146l3.166-3.166h2.842a.5.5 0 0 0 .353-.146l4.691-4.691a.5.5 0 0 0 .146-.353v-1.815a.5.5 0 0 0-.146-.353l-.809-.809v-6.709a.5.5 0 0 0-.147-.354l-1.106-1.106v-3.663a.5.5 0 0 0-.147-.354l-3.96-5.112-1.149-1.647a.577.577 0 0 0-.147-.354l-4.408-4.408-4.509-4.51 1.542-1.542a.5.5 0 0 0 .146-.353v-3.49h3.11a.34.34 0 0 0 .056-.011h.016a.5.5 0 0 0 .354-.146l12.887-7.885v-.119l3.711-3.712a.354.354 0 0 0 .106-.255v-12.851a.354.354 0 0 0-.106-.255l-1.909-3.159a9.335 9.335 0 0 1-.333-2.757l9.374-2.7c.068-.068 5.075-4.042 5.171-4.042l9.129-5.617c.1 0 1.324-1.789 1.391-1.856l6.23-7.676a.361.361 0 0 1 .255-.106h12.583a.361.361 0 0 1 .255.616l-11.62 11.62a.357.357 0 0 0-.1.255v16.1a.36.36 0 0 0 .615.255L925 1159.127a.361.361 0 0 0 .106-.254v-9.58a.361.361 0 0 1 .36-.361h12.1a.363.363 0 0 0 .255-.1l10.239-10.239a.358.358 0 0 1 .255-.106h9.579a.36.36 0 0 0 .36-.36v-6.9a.361.361 0 0 1 .361-.36h15.4a.36.36 0 0 0 .243-.624z" class="cls-1"/>
            <path id="패스_1299" d="M883.772 1302.8a.356.356 0 0 0 .5.006l.012-.012h-.521z" class="cls-1"/>
            <path id="패스_1300" d="M903.212 1303.257l-7.312-7.312-9.264-9.263a.361.361 0 0 0-.255-.106h-2.094v16.213c.94-1.052 5.257-3.844 6.327-4.529a.355.355 0 0 1 .445.052l5.456 5.455a.355.355 0 0 0 .254.106h6.188a.361.361 0 0 0 .255-.616z" class="cls-1"/>
            <path id="패스_1301" d="M830.259 1291.5l2.926-2.925a.366.366 0 0 0 .1-.255v-2.134a.359.359 0 0 1 .106-.255l2.626-2.626a.358.358 0 0 1 .255-.106h1.819a.361.361 0 0 0 .255-.615l-2.545-2.545a.353.353 0 0 1-.106-.255v-4.769a.357.357 0 0 1 .106-.254l1.723-1.723a.362.362 0 0 0 0-.51l-1.732-1.731a.359.359 0 0 0-.508 0l-5.314 5.315a.368.368 0 0 1-.255.1h-3.035a.362.362 0 0 0-.256.106l-5 5a.362.362 0 0 1-.51 0l-1.607-1.608a.362.362 0 0 0-.51 0l-2.463 2.463a.36.36 0 0 0 0 .509l4.414 4.414a.359.359 0 0 1 .106.255v3.383a.356.356 0 0 0 .335.36c1.509.083 7.658.424 8.786.505a.36.36 0 0 0 .284-.099z" class="cls-2"/>
            <path id="패스_1302" d="M811.76 1294.219v-5.147a.358.358 0 0 0-.106-.255l-6.56-6.561-1.877-1.876a.357.357 0 0 0-.254-.106h-1.684a.363.363 0 0 1-.255-.105l-5.554-5.555a.365.365 0 0 0-.255-.1h-4.025a.36.36 0 0 0-.255.615l6.666 6.666a.359.359 0 0 1 .106.255v3.125a.362.362 0 0 0 .1.255l3.318 3.317 7.191 7.192a.363.363 0 0 0 .255.1h3.016a.359.359 0 0 0 .361-.352 3.725 3.725 0 0 0-.133-1.269.459.459 0 0 1-.055-.199z" class="cls-2"/>
            <path id="패스_1303" d="M812.279 1298.129l1.9-1.9a.358.358 0 0 1 .255-.106h3.3a.357.357 0 0 1 .254.106l1.681 1.68a.358.358 0 0 0 .255.106h7.178a.359.359 0 0 1 .255.106l3.018 3.017a.361.361 0 0 1-.255.616h-7.584a.358.358 0 0 1-.255-.106l-1.072-1.073a.366.366 0 0 0-.255-.1H816.7a.341.341 0 0 1-.127-.023c-.432-.171-3.111-1.23-4.19-1.742a.358.358 0 0 1-.173-.477.346.346 0 0 1 .069-.104z" class="cls-2"/>
            <path id="패스_1304" d="M401.175 1228.153h-10.458a.5.5 0 0 1-.5-.5v-4.125a.5.5 0 0 0-.5-.5h-9.571a.5.5 0 0 1-.353-.147l-7.346-7.346a.5.5 0 0 0-.354-.146h-4.739a.5.5 0 0 1-.354-.147l-20.624-20.623a.5.5 0 0 1-.146-.354v-17.659a.5.5 0 0 1 .146-.353l3.7-3.7a.5.5 0 0 1 .354-.146h41.4a.5.5 0 0 1 .354.146l8.4 8.4a.5.5 0 0 0 .354.146h26.685a.5.5 0 0 1 .353.146l12.3 12.3a.5.5 0 0 0 .354.146h9.286a.5.5 0 0 1 .353.854l-6.766 6.774a.5.5 0 0 0-.147.354v5.536a.5.5 0 0 1-.146.354l-10.479 10.476a.5.5 0 0 0-.147.354v7.965a.5.5 0 0 1-.853.353l-5.1-5.1a.5.5 0 0 0-.353-.147h-18.2a.5.5 0 0 0-.359.152l-6.184 6.384a.5.5 0 0 1-.36.153z" class="cls-2"/>
            <path id="패스_1305" d="M814.164 1240.08L798.087 1224a.5.5 0 0 0-.354-.147h-8.671a.5.5 0 0 0-.354.147l-2.885 2.885a.5.5 0 0 1-.353.146h-20.112a.5.5 0 0 1-.354-.146l-27.721-27.722a.5.5 0 0 1-.146-.354v-4.983a.5.5 0 0 0-.147-.354l-4.126-4.125a.5.5 0 0 1 0-.707l5.548-5.548a.5.5 0 0 1 .353-.146H752.5a.5.5 0 0 0 .354-.147l12.958-12.958a.5.5 0 0 1 .707 0l4.918 4.918a.5.5 0 0 0 .354.147h6.042a.5.5 0 0 1 .353.146l8.2 8.2a.5.5 0 0 0 .353.146h13.612a.5.5 0 0 1 .354.146l5.533 5.534a.5.5 0 0 0 .707 0l11.41-11.411 8.892-8.892a.5.5 0 0 1 .354-.146h3.865a.5.5 0 0 0 .5-.5v-2.529a.5.5 0 0 0-.147-.353l-2.537-2.537a.5.5 0 0 0-.707 0l-2.052 2.052a.5.5 0 0 1-.707 0 .494.494 0 0 1-.147-.355v-6.289a.5.5 0 0 1 .147-.354l2.349-2.349a.5.5 0 0 0 .146-.353v-8.352a.5.5 0 0 1 .147-.353l3.383-3.384a.5.5 0 0 1 .354-.146h3.786a.5.5 0 0 1 .353.146l19.339 19.338a.5.5 0 0 0 .707 0l2.936-2.936a.5.5 0 0 1 .707 0l3.437 3.437a.5.5 0 0 1 .146.354v11.952a.5.5 0 0 1-.146.354l-12.22 12.228-4.652 4.652a.5.5 0 0 0-.147.354v5.637a.5.5 0 0 1-.146.353l-5.392 5.392a.5.5 0 0 0-.146.353v5.1a.5.5 0 0 0 .146.354l4.258 4.258a.5.5 0 0 1 .147.353v10.535a.5.5 0 0 1-.147.353l-14.928 14.929a.481.481 0 0 1-.363.146c-1.727-.059-13.352-.242-15.05-.025a1.41 1.41 0 0 1-.656-.364z" class="cls-2"/>
            <path id="패스_1306" d="M877.425 1227.291v-6.709a.5.5 0 0 0-.147-.354l-1.106-1.106v-3.655a.5.5 0 0 0-.147-.354l-3.964-5.113-1.149-1.647a.576.576 0 0 0-.147-.354l-3.886-3.886-3.312 3.312a.5.5 0 0 1-.354.146H858a.5.5 0 0 0-.5.5v2.048a.5.5 0 0 1-.147.354l-3.468 3.468 3.279 3.278-3.733 3.733a.5.5 0 0 0 0 .707l2.372 2.372v3.41a.5.5 0 0 0 .147.354l1.113 1.113v3.285l-4.04 4.039a.5.5 0 0 0 0 .707l2.406 2.4-1.926 1.926a.5.5 0 0 0 .354.853h3.822a.5.5 0 0 0 .353-.146l3.2-3.2h5.589a.5.5 0 0 0 .354-.147l3.165-3.166h2.843a.5.5 0 0 0 .353-.146l4.691-4.691a.5.5 0 0 0 .146-.353v-1.815a.5.5 0 0 0-.146-.353z" class="cls-2"/>
            <path id="패스_1307" d="M875.389 1286.576a.358.358 0 0 0-.255.106l-2.882 2.882a.36.36 0 0 1-.509 0l-5.139-5.135a.359.359 0 0 0-.508 0l-3.454 3.454a.36.36 0 0 0 0 .508l5.044 5.045a.358.358 0 0 0 .255.106h9.551a.365.365 0 0 1 .255.1l2.671 2.672a.358.358 0 0 1 .106.255v2.824a.358.358 0 0 0 .1.255l3.136 3.135h.521v-16.213z" class="cls-2"/>
            <path id="패스_1574" d="M166.951 1032.524l205.663 162.226" class="cls-3"/>
            <path id="선_852" d="M0 172L239 0" class="cls-3" transform="translate(816.866 1027)"/>
            <path id="선_868" d="M0 50L72 0" class="cls-3" transform="translate(740.866 1296)"/>
            <path id="선_866" d="M0 0L79 35" class="cls-3" transform="translate(872.866 1227)"/>
            <rect id="사각형_1992" width="156" height="93" class="cls-4" rx="3" transform="translate(11.866 985)"/>
            <rect id="사각형_1993" width="154" height="91" class="cls-5" rx="2" transform="translate(12.866 986)"/>
            <rect id="사각형_1994" width="156" height="93" class="cls-4" rx="3" transform="translate(1054.866 976)"/>
            <rect id="사각형_1995" width="154" height="91" class="cls-5" rx="2" transform="translate(1055.866 977)"/>
            <rect id="사각형_1996" width="156" height="93" class="cls-4" rx="3" transform="translate(951.866 1204)"/>
            <rect id="사각형_1997" width="154" height="91" class="cls-5" rx="2" transform="translate(952.866 1205)"/>
            <rect id="사각형_1998" width="156" height="115" class="cls-4" rx="3" transform="translate(658.866 1345)"/>
            <rect id="사각형_1999" width="154" height="113" class="cls-5" rx="2" transform="translate(659.866 1346)"/>
            <g id="그룹_1336" class="cls-6">
                <path id="패스_1585" d="M48.938 1012.155h3.922c2.433 0 4.29.7 4.29 2.913a2.688 2.688 0 0 1-1.617 2.562v.079a2.7 2.7 0 0 1 2.225 2.8c0 2.385-1.985 3.489-4.594 3.489h-4.226zm3.746 4.819c1.5 0 2.161-.609 2.161-1.553 0-1.041-.7-1.457-2.129-1.457h-1.408v3.01zm.272 5.2c1.617 0 2.5-.576 2.5-1.809 0-1.152-.864-1.633-2.5-1.633h-1.648v3.442z" class="cls-7"/>
                <path id="패스_1586" d="M59.082 1018.029c0-3.857 2.161-6.1 5.3-6.1s5.3 2.257 5.3 6.1-2.16 6.2-5.3 6.2-5.3-2.358-5.3-6.2zm8.179 0c0-2.545-1.12-4.065-2.881-4.065s-2.881 1.52-2.881 4.065 1.121 4.146 2.881 4.146 2.881-1.616 2.881-4.146z" class="cls-7"/>
                <path id="패스_1587" d="M71.834 1012.155H74.2v9.861H79V1024h-7.166z" class="cls-7"/>
                <path id="패스_1588" d="M81.083 1014.124h-3.329v-1.969h9.06v1.969h-3.361V1024h-2.37z" class="cls-7"/>
                <path id="패스_1589" d="M98.046 1024.224a9.567 9.567 0 0 1-2.945-1.248 5.733 5.733 0 0 1-3.634 1.248c-2.481 0-3.873-1.521-3.873-3.362a3.931 3.931 0 0 1 2.225-3.361 5.59 5.59 0 0 1-.753-2.561 2.952 2.952 0 0 1 3.106-3.009 2.5 2.5 0 0 1 2.753 2.577c0 1.569-1.28 2.545-2.545 3.426a15 15 0 0 0 2.561 2.464 8.911 8.911 0 0 0 1.456-3.008h2.129a13 13 0 0 1-2 4.065 7.233 7.233 0 0 0 2.1.849zm-6.29-1.809a3.209 3.209 0 0 0 1.728-.592 16.733 16.733 0 0 1-2.673-2.769 2.276 2.276 0 0 0-.976 1.665 1.731 1.731 0 0 0 1.921 1.696zm-.3-5.89c.928-.56 1.648-1.136 1.648-2 0-.592-.272-1.024-.9-1.024-.688 0-1.184.56-1.184 1.44a3.678 3.678 0 0 0 .432 1.584z" class="cls-7"/>
                <path id="패스_1590" d="M100.234 1012.155h2.417l3.442 6.307 1.184 2.56h.08c-.128-1.232-.3-2.8-.3-4.145v-4.722h2.241V1024h-2.4l-3.425-6.339-1.2-2.545h-.08c.112 1.28.288 2.77.288 4.13V1024h-2.241z" class="cls-7"/>
                <path id="패스_1591" d="M111.994 1018.67v-6.515h2.369v6.723c0 2.465.848 3.3 2.241 3.3 1.409 0 2.305-.832 2.305-3.3v-6.723h2.273v6.515c0 3.937-1.681 5.554-4.578 5.554-2.881 0-4.61-1.617-4.61-5.554z" class="cls-7"/>
                <path id="패스_1592" d="M126.219 1014.124h-3.329v-1.969h9.06v1.969h-3.362V1024h-2.369z" class="cls-7"/>
            </g>
            <g id="그룹_1337" class="cls-6">
                <path id="패스_1593" d="M1091.938 1003.155h3.921c2.434 0 4.29.7 4.29 2.913a2.689 2.689 0 0 1-1.616 2.562v.079a2.7 2.7 0 0 1 2.225 2.8c0 2.385-1.985 3.489-4.594 3.489h-4.226zm3.746 4.819c1.5 0 2.161-.609 2.161-1.553 0-1.041-.7-1.457-2.129-1.457h-1.408v3.01zm.272 5.2c1.616 0 2.5-.576 2.5-1.809 0-1.152-.864-1.633-2.5-1.633h-1.648v3.442z" class="cls-7"/>
                <path id="패스_1594" d="M1102.082 1009.029c0-3.857 2.161-6.1 5.3-6.1s5.3 2.257 5.3 6.1-2.16 6.2-5.3 6.2-5.3-2.358-5.3-6.2zm8.179 0c0-2.545-1.12-4.065-2.881-4.065s-2.881 1.52-2.881 4.065 1.12 4.146 2.881 4.146 2.881-1.616 2.881-4.146z" class="cls-7"/>
                <path id="패스_1595" d="M1114.834 1003.155h2.369v9.861h4.8V1015h-7.171z" class="cls-7"/>
                <path id="패스_1596" d="M1124.083 1005.124h-3.329v-1.969h9.059v1.969h-3.361V1015h-2.369z" class="cls-7"/>
                <path id="패스_1597" d="M1141.046 1015.224a9.557 9.557 0 0 1-2.945-1.248 5.735 5.735 0 0 1-3.634 1.248c-2.481 0-3.873-1.521-3.873-3.362a3.932 3.932 0 0 1 2.224-3.361 5.6 5.6 0 0 1-.752-2.561 2.952 2.952 0 0 1 3.106-3.009 2.5 2.5 0 0 1 2.753 2.577c0 1.569-1.28 2.545-2.545 3.426a14.99 14.99 0 0 0 2.56 2.464 8.93 8.93 0 0 0 1.457-3.008h2.129a13 13 0 0 1-2 4.065 7.239 7.239 0 0 0 2.1.849zm-6.29-1.809a3.209 3.209 0 0 0 1.728-.592 16.729 16.729 0 0 1-2.673-2.769 2.273 2.273 0 0 0-.976 1.665 1.731 1.731 0 0 0 1.921 1.696zm-.3-5.89c.929-.56 1.649-1.136 1.649-2 0-.592-.272-1.024-.9-1.024-.687 0-1.183.56-1.183 1.44a3.689 3.689 0 0 0 .429 1.584z" class="cls-7"/>
                <path id="패스_1598" d="M1143.234 1003.155h2.417l3.442 6.307 1.184 2.56h.08c-.128-1.232-.3-2.8-.3-4.145v-4.722h2.241V1015h-2.4l-3.425-6.339-1.2-2.545h-.08c.112 1.28.288 2.77.288 4.13V1015h-2.241z" class="cls-7"/>
                <path id="패스_1599" d="M1154.994 1009.67v-6.515h2.369v6.723c0 2.465.848 3.3 2.241 3.3 1.409 0 2.3-.832 2.3-3.3v-6.723h2.274v6.515c0 3.937-1.681 5.554-4.578 5.554-2.877 0-4.606-1.617-4.606-5.554z" class="cls-7"/>
                <path id="패스_1600" d="M1169.219 1005.124h-3.329v-1.969h9.059v1.969h-3.361V1015h-2.369z" class="cls-7"/>
            </g>
            <g id="그룹_1338" class="cls-6">
                <path id="패스_1601" d="M988.938 1231.155h3.921c2.434 0 4.291.7 4.291 2.913a2.69 2.69 0 0 1-1.617 2.562v.079a2.7 2.7 0 0 1 2.225 2.8c0 2.385-1.985 3.489-4.594 3.489h-4.226zm3.746 4.819c1.5 0 2.161-.609 2.161-1.553 0-1.041-.7-1.457-2.129-1.457h-1.408v3.01zm.272 5.2c1.616 0 2.5-.576 2.5-1.809 0-1.152-.864-1.633-2.5-1.633h-1.648v3.442z" class="cls-7"/>
                <path id="패스_1602" d="M999.082 1237.029c0-3.857 2.161-6.1 5.3-6.1s5.3 2.257 5.3 6.1-2.16 6.195-5.3 6.195-5.3-2.353-5.3-6.195zm8.18 0c0-2.545-1.121-4.065-2.881-4.065s-2.882 1.52-2.882 4.065c0 2.53 1.12 4.146 2.882 4.146s2.881-1.616 2.881-4.146z" class="cls-7"/>
                <path id="패스_1603" d="M1011.834 1231.155h2.369v9.861h4.8V1243h-7.172z" class="cls-7"/>
                <path id="패스_1604" d="M1021.084 1233.124h-3.33v-1.969h9.06v1.969h-3.361V1243h-2.369z" class="cls-7"/>
                <path id="패스_1605" d="M1038.047 1243.224a9.544 9.544 0 0 1-2.945-1.248 5.738 5.738 0 0 1-3.635 1.248c-2.481 0-3.873-1.521-3.873-3.362a3.934 3.934 0 0 1 2.224-3.361 5.6 5.6 0 0 1-.752-2.561 2.953 2.953 0 0 1 3.106-3.009 2.5 2.5 0 0 1 2.753 2.577c0 1.569-1.28 2.545-2.545 3.426a14.954 14.954 0 0 0 2.561 2.464 8.929 8.929 0 0 0 1.456-3.008h2.129a13 13 0 0 1-2 4.065 7.229 7.229 0 0 0 2.1.849zm-6.291-1.809a3.208 3.208 0 0 0 1.728-.592 16.773 16.773 0 0 1-2.673-2.769 2.273 2.273 0 0 0-.976 1.665 1.731 1.731 0 0 0 1.921 1.696zm-.3-5.89c.929-.56 1.649-1.136 1.649-2 0-.592-.272-1.024-.9-1.024-.687 0-1.183.56-1.183 1.44a3.7 3.7 0 0 0 .429 1.584z" class="cls-7"/>
                <path id="패스_1606" d="M1040.234 1231.155h2.417l3.442 6.307 1.184 2.56h.08c-.128-1.232-.3-2.8-.3-4.145v-4.722h2.241V1243h-2.4l-3.425-6.339-1.2-2.545h-.08c.111 1.28.287 2.77.287 4.13V1243h-2.241z" class="cls-7"/>
                <path id="패스_1607" d="M1051.994 1237.67v-6.515h2.369v6.723c0 2.465.848 3.3 2.241 3.3 1.409 0 2.3-.832 2.3-3.3v-6.723h2.274v6.515c0 3.937-1.681 5.554-4.578 5.554-2.877 0-4.606-1.617-4.606-5.554z" class="cls-7"/>
                <path id="패스_1608" d="M1066.219 1233.124h-3.329v-1.969h9.059v1.969h-3.361V1243h-2.369z" class="cls-7"/>
            </g>
            <g id="그룹_1339" class="cls-6">
                <path id="패스_1609" d="M695.938 1372.155h3.921c2.434 0 4.291.7 4.291 2.913a2.69 2.69 0 0 1-1.617 2.562v.079a2.7 2.7 0 0 1 2.225 2.8c0 2.385-1.985 3.489-4.594 3.489h-4.226zm3.746 4.819c1.5 0 2.161-.609 2.161-1.553 0-1.041-.7-1.457-2.129-1.457h-1.408v3.01zm.272 5.2c1.616 0 2.5-.576 2.5-1.809 0-1.152-.864-1.633-2.5-1.633h-1.648v3.442z" class="cls-7"/>
                <path id="패스_1610" d="M706.082 1378.029c0-3.857 2.161-6.1 5.3-6.1s5.3 2.257 5.3 6.1-2.16 6.195-5.3 6.195-5.3-2.353-5.3-6.195zm8.18 0c0-2.545-1.121-4.065-2.881-4.065s-2.882 1.52-2.882 4.065c0 2.53 1.12 4.146 2.882 4.146s2.881-1.616 2.881-4.146z" class="cls-7"/>
                <path id="패스_1611" d="M718.834 1372.155h2.366v9.861h4.8V1384h-7.172z" class="cls-7"/>
                <path id="패스_1612" d="M728.084 1374.124h-3.33v-1.969h9.06v1.969h-3.361V1384h-2.369z" class="cls-7"/>
                <path id="패스_1613" d="M745.047 1384.224a9.546 9.546 0 0 1-2.945-1.248 5.737 5.737 0 0 1-3.635 1.248c-2.481 0-3.873-1.521-3.873-3.362a3.934 3.934 0 0 1 2.224-3.361 5.6 5.6 0 0 1-.752-2.561 2.953 2.953 0 0 1 3.106-3.009 2.5 2.5 0 0 1 2.753 2.577c0 1.569-1.28 2.545-2.545 3.426a14.956 14.956 0 0 0 2.561 2.464 8.927 8.927 0 0 0 1.456-3.008h2.129a13.02 13.02 0 0 1-2 4.065 7.229 7.229 0 0 0 2.1.849zm-6.291-1.809a3.208 3.208 0 0 0 1.728-.592 16.774 16.774 0 0 1-2.673-2.769 2.273 2.273 0 0 0-.976 1.665 1.731 1.731 0 0 0 1.921 1.696zm-.3-5.89c.929-.56 1.649-1.136 1.649-2 0-.592-.272-1.024-.9-1.024-.687 0-1.183.56-1.183 1.44a3.7 3.7 0 0 0 .429 1.584z" class="cls-7"/>
                <path id="패스_1614" d="M747.234 1372.155h2.417l3.442 6.307 1.184 2.56h.08c-.128-1.232-.3-2.8-.3-4.145v-4.722h2.241V1384h-2.4l-3.425-6.339-1.2-2.545h-.081c.112 1.28.288 2.77.288 4.13V1384h-2.241z" class="cls-7"/>
                <path id="패스_1615" d="M758.994 1378.67v-6.515h2.369v6.723c0 2.465.848 3.3 2.241 3.3 1.409 0 2.3-.832 2.3-3.3v-6.723h2.274v6.515c0 3.937-1.681 5.554-4.578 5.554-2.877 0-4.606-1.617-4.606-5.554z" class="cls-7"/>
                <path id="패스_1616" d="M773.219 1374.124h-3.329v-1.969h9.059v1.969h-3.361V1384h-2.369z" class="cls-7"/>
            </g>
            <g id="그룹_1340" class="cls-6">
                <path id="패스_1617" d="M43.838 1041.14v9.555h-6.787v-9.555zm-5.171 1.312v6.914h3.554v-6.914zm9.508-2.689v14.5h-1.664v-14.5z" class="cls-7"/>
                <path id="패스_1618" d="M58.206 1046.854v2.369h4.161v5.009h-1.648v-3.681h-8.548v-1.328h4.37v-2.369h-5.7v-1.329h9.491a17.355 17.355 0 0 0 .353-3.761h-8.209v-1.329H62.3v1.1a19.262 19.262 0 0 1-.32 3.986h1.953v1.329z" class="cls-7"/>
                <path id="패스_1619" d="M73.228 1043.748c0 2.465.928 4.962 2.945 6.131l-.96 1.2a6.575 6.575 0 0 1-2.769-3.905 7.167 7.167 0 0 1-2.834 4.258l-.992-1.217c2.049-1.28 3.009-3.89 3.009-6.467v-1.04h-2.544v-1.36h6.53v1.36h-2.385zm3.458-3.7h1.552v13.477h-1.552v-7.325h-2.129v-1.344h2.129zm4.481-.288v14.454H79.6v-14.454z" class="cls-7"/>
                <path id="패스_1620" d="M96.5 1051.111v1.345H83.4v-1.345h5.715v-3.378h1.664v3.378zm-12.534-4.13c2.818-.448 5.106-2.449 5.106-4.626v-.032h-4.597v-1.328h10.916v1.328H90.8v.032c0 2.177 2.305 4.13 5.17 4.579l-.672 1.312a7.483 7.483 0 0 1-5.362-3.634 7.4 7.4 0 0 1-5.282 3.682z" class="cls-7"/>
                <path id="패스_1621" d="M108.173 1049.223c.672-.065 1.345-.128 1.985-.208l.1 1.215a56.046 56.046 0 0 1-8.852.545l-.176-1.361H103v-6.851h-1.409v-1.328h7.988v1.328h-1.409zm-3.569.16c.64-.017 1.312-.048 1.968-.08v-6.74H104.6zm10.244-2.594h-2.257v7.459h-1.649v-14.47h1.649v5.651h2.257z" class="cls-7"/>
                <path id="패스_1622" d="M129.072 1051.111v1.345h-13.11v-1.345zm-1.473-2.369h-10.02v-7.795h9.908v1.328h-8.227v1.858h7.907v1.3h-7.907v1.985h8.34z" class="cls-7"/>
                <path id="패스_1623" d="M132.923 1049.431a31.714 31.714 0 0 0 5.971-.577l.192 1.361a33.84 33.84 0 0 1-6.643.592h-1.152v-9.444h1.632zm9.6-9.653v14.487h-1.649v-8.5h-4.193v-1.344h4.193v-4.643z" class="cls-7"/>
            </g>
            <g id="그룹_1341" class="cls-6">
                <path id="패스_1624" d="M1086.629 1038.766v1.344c2.609.161 4.13 1.057 4.13 2.562 0 1.632-1.857 2.56-4.978 2.56-3.1 0-4.978-.928-4.978-2.56 0-1.505 1.552-2.417 4.177-2.577v-1.329h-5.713v-1.313h13.077v1.313zm-6.706-3.345c2.673-.273 4.529-1.393 4.754-2.69h-4.195v-1.331h10.677v1.328h-4.225c.223 1.3 2.081 2.417 4.754 2.69l-.577 1.3c-2.545-.272-4.53-1.313-5.3-2.8-.785 1.488-2.769 2.529-5.3 2.8zm5.858 5.938c-2.113 0-3.3.448-3.3 1.313 0 .832 1.185 1.3 3.3 1.3s3.314-.464 3.314-1.3c0-.865-1.201-1.313-3.314-1.313z" class="cls-7"/>
                <path id="패스_1625" d="M1101.2 1037.854v2.369h4.162v5.009h-1.648v-3.681h-8.548v-1.328h4.37v-2.369h-5.7v-1.329h9.491a17.414 17.414 0 0 0 .353-3.761h-8.211v-1.329h9.827v1.1a19.265 19.265 0 0 1-.32 3.986h1.953v1.329z" class="cls-7"/>
                <path id="패스_1626" d="M1116.228 1034.748c0 2.465.928 4.962 2.945 6.131l-.96 1.2a6.581 6.581 0 0 1-2.77-3.905 7.161 7.161 0 0 1-2.833 4.258l-.992-1.217c2.049-1.28 3.009-3.89 3.009-6.467v-1.04h-2.545v-1.36h6.53v1.36h-2.384zm3.458-3.7h1.551v13.477h-1.551v-7.325h-2.129v-1.344h2.129zm4.481-.288v14.454h-1.567v-14.454z" class="cls-7"/>
                <path id="패스_1627" d="M1139.495 1042.111v1.345H1126.4v-1.345h5.714v-3.378h1.665v3.378zm-12.533-4.13c2.817-.448 5.106-2.449 5.106-4.626v-.032h-4.593v-1.328h10.916v1.328h-4.591v.032c0 2.177 2.305 4.13 5.17 4.579l-.672 1.312a7.483 7.483 0 0 1-5.362-3.634 7.4 7.4 0 0 1-5.283 3.682z" class="cls-7"/>
                <path id="패스_1628" d="M1151.173 1040.223c.672-.065 1.345-.128 1.984-.208l.1 1.215a56.054 56.054 0 0 1-8.852.545l-.176-1.361H1146v-6.851h-1.409v-1.328h7.987v1.328h-1.408zm-3.569.16c.639-.017 1.312-.048 1.968-.08v-6.74h-1.972zm10.244-2.594h-2.257v7.459h-1.65v-14.47h1.65v5.651h2.257z" class="cls-7"/>
                <path id="패스_1629" d="M1172.071 1042.111v1.345h-13.109v-1.345zm-1.472-2.369h-10.02v-7.795h9.907v1.328h-8.226v1.858h7.907v1.3h-7.907v1.985h8.339z" class="cls-7"/>
                <path id="패스_1630" d="M1175.923 1040.431a31.723 31.723 0 0 0 5.971-.577l.192 1.361a33.848 33.848 0 0 1-6.643.592h-1.153v-9.444h1.633zm9.6-9.653v14.487h-1.649v-8.5h-4.193v-1.344h4.193v-4.643z" class="cls-7"/>
            </g>
            <g id="그룹_1342" class="cls-6">
                <path id="패스_1631" d="M984.83 1261.74h-8.53v-1.312h3.441v-1.665h1.649v1.665h3.441zm-4.274 6.147c-2.065 0-3.505-1.089-3.505-2.738 0-1.632 1.44-2.737 3.505-2.737 2.081 0 3.506 1.1 3.506 2.737 0 1.651-1.425 2.738-3.506 2.738zm-.48 3.729h8.068v1.344h-9.733v-4.178h1.665zm.48-5.011c1.153 0 1.937-.543 1.937-1.456s-.784-1.457-1.937-1.457c-1.136 0-1.92.545-1.92 1.457s.784 1.451 1.92 1.451zm9.06-3.216v1.36h-2.049v4.866h-1.649v-10.837h1.649v4.611z" class="cls-7"/>
                <path id="패스_1632" d="M998.205 1265.854v2.369h4.162v5.009h-1.648v-3.681h-8.548v-1.328h4.37v-2.369h-5.7v-1.329h9.491a17.418 17.418 0 0 0 .353-3.761h-8.211v-1.329h9.827v1.1a19.261 19.261 0 0 1-.32 3.986h1.953v1.329z" class="cls-7"/>
                <path id="패스_1633" d="M1013.228 1262.748c0 2.465.928 4.962 2.945 6.131l-.96 1.2a6.58 6.58 0 0 1-2.77-3.905 7.161 7.161 0 0 1-2.833 4.258l-.992-1.217c2.049-1.28 3.009-3.89 3.009-6.467v-1.04h-2.545v-1.36h6.53v1.36h-2.384zm3.458-3.7h1.551v13.477h-1.551v-7.325h-2.129v-1.344h2.129zm4.481-.288v14.454h-1.567v-14.454z" class="cls-7"/>
                <path id="패스_1634" d="M1036.495 1270.111v1.345H1023.4v-1.345h5.714v-3.378h1.665v3.378zm-12.533-4.13c2.817-.448 5.106-2.449 5.106-4.626v-.032h-4.593v-1.328h10.916v1.328h-4.591v.032c0 2.177 2.305 4.13 5.17 4.579l-.672 1.312a7.483 7.483 0 0 1-5.362-3.634 7.4 7.4 0 0 1-5.283 3.682z" class="cls-7"/>
                <path id="패스_1635" d="M1048.173 1268.223c.672-.065 1.345-.128 1.984-.208l.1 1.215a56.054 56.054 0 0 1-8.852.545l-.176-1.361H1043v-6.851h-1.409v-1.328h7.987v1.328h-1.408zm-3.569.16c.639-.017 1.312-.048 1.968-.08v-6.74h-1.972zm10.244-2.594h-2.257v7.459h-1.65v-14.47h1.65v5.651h2.257z" class="cls-7"/>
                <path id="패스_1636" d="M1069.071 1270.111v1.345h-13.109v-1.345zm-1.472-2.369h-10.02v-7.795h9.907v1.328h-8.226v1.858h7.907v1.3h-7.907v1.985h8.339z" class="cls-7"/>
                <path id="패스_1637" d="M1072.923 1268.431a31.723 31.723 0 0 0 5.971-.577l.192 1.361a33.848 33.848 0 0 1-6.643.592h-1.153v-9.444h1.633zm9.6-9.653v14.487h-1.649v-8.5h-4.193v-1.344h4.193v-4.643z" class="cls-7"/>
            </g>
            <g id="그룹_1343" class="cls-6">
                <path id="패스_1638" d="M687.4 1407.974a3.623 3.623 0 1 1 3.826-3.618 3.639 3.639 0 0 1-3.826 3.618zm0-1.424a2.193 2.193 0 1 0-2.225-2.194 2.128 2.128 0 0 0 2.225 2.194zm8.211 6.066v1.344h-9.86v-4.737h1.665v3.393zm-.416-2.337h-1.648v-10.5h1.648z" class="cls-7"/>
                <path id="패스_1639" d="M710.936 1411.144v1.36h-13.093v-1.36h5.7v-3.411h-4.1v-6.866h9.892v1.328h-8.243v4.21h8.371v1.328h-4.274v3.411z" class="cls-7"/>
                <path id="패스_1640" d="M714.659 1409.255a25.461 25.461 0 0 0 4.322-.417l.208 1.377a24.977 24.977 0 0 1-5.186.448h-.977v-9.428h1.633zm5.458-9.189h1.537v13.478h-1.537v-7.7h-3.073v-1.344h3.073zm4.643-.3v14.469h-1.585v-14.469z" class="cls-7"/>
                <path id="패스_1641" d="M732.292 1403.348a7 7 0 0 0 3.746 6.339l-.961 1.312a7.215 7.215 0 0 1-3.585-4.338 7.512 7.512 0 0 1-3.681 4.658l-.977-1.377a7.27 7.27 0 0 0 3.81-6.594v-2.369h1.648zm6.562-3.585v14.5h-1.664v-14.5z" class="cls-7"/>
                <path id="패스_1642" d="M749.077 1405.941c0 3.122-1.553 5.09-3.714 5.09s-3.713-1.968-3.713-5.09 1.553-5.106 3.713-5.106 3.714 1.985 3.714 5.106zm-1.585 0c0-2.256-.88-3.618-2.129-3.618s-2.129 1.362-2.129 3.618.866 3.618 2.129 3.618 2.129-1.359 2.129-3.618zm7.476.848h-2.257v7.459h-1.649v-14.47h1.649v5.651h2.257z" class="cls-7"/>
                <path id="패스_1643" d="M763.908 1403.748c0 2.465.928 4.962 2.946 6.131l-.961 1.2a6.575 6.575 0 0 1-2.769-3.905 7.171 7.171 0 0 1-2.834 4.258l-.992-1.217c2.049-1.28 3.01-3.89 3.01-6.467v-1.04h-2.545v-1.36h6.53v1.36h-2.385zm3.457-3.7h1.553v13.477h-1.553v-7.325h-2.129v-1.344h2.129zm4.482-.288v14.454h-1.569v-14.454z" class="cls-7"/>
                <path id="패스_1644" d="M787.176 1411.111v1.345h-13.094v-1.345h5.718v-3.378h1.664v3.378zm-12.533-4.13c2.817-.448 5.1-2.449 5.1-4.626v-.032h-4.594v-1.328h10.917v1.328h-4.593v.032c0 2.177 2.3 4.13 5.169 4.579l-.672 1.312a7.485 7.485 0 0 1-5.362-3.634 7.4 7.4 0 0 1-5.282 3.682z" class="cls-7"/>
            </g>
            <g id="그룹_1344" class="cls-6">
                <path id="패스_1645" d="M722.613 1431.223c.672-.065 1.345-.128 1.985-.208l.1 1.215a56.047 56.047 0 0 1-8.851.545l-.177-1.361h1.777v-6.851h-1.409v-1.328h7.987v1.328h-1.408zm-3.569.16c.64-.017 1.312-.048 1.969-.08v-6.74h-1.969zm10.244-2.594h-2.257v7.459h-1.649v-14.47h1.649v5.651h2.257z" class="cls-7"/>
                <path id="패스_1646" d="M743.512 1433.111v1.345H730.4v-1.345zm-1.473-2.369H732.02v-7.795h9.907v1.328H733.7v1.858h7.907v1.3H733.7v1.985h8.339z" class="cls-7"/>
                <path id="패스_1647" d="M747.363 1431.431a31.714 31.714 0 0 0 5.971-.577l.192 1.361a33.837 33.837 0 0 1-6.642.592h-1.154v-9.444h1.633zm9.605-9.653v14.487h-1.65v-8.5h-4.193v-1.344h4.193v-4.643z" class="cls-7"/>
            </g>
            <circle id="타원_597" cx="8.5" cy="8.5" r="8.5" class="cls-8" transform="translate(856.866 1215)"/>
            <circle id="타원_598" cx="7.5" cy="7.5" r="7.5" class="cls-9" transform="translate(857.866 1216)"/>
            <circle id="타원_599" cx="8.5" cy="8.5" r="8.5" class="cls-8" transform="translate(810.866 1284)"/>
            <circle id="타원_600" cx="7.5" cy="7.5" r="7.5" class="cls-9" transform="translate(811.866 1285)"/>
            <circle id="타원_601" cx="8.5" cy="8.5" r="8.5" class="cls-8" transform="translate(801.866 1196)"/>
            <circle id="타원_602" cx="7.5" cy="7.5" r="7.5" class="cls-9" transform="translate(802.866 1197)"/>
            <circle id="타원_603" cx="8.5" cy="8.5" r="8.5" class="cls-8" transform="translate(370.866 1191)"/>
            <circle id="타원_604" cx="7.5" cy="7.5" r="7.5" class="cls-9" transform="translate(371.866 1192)"/>
        </g>
    </g>
</svg>
