<svg xmlns="http://www.w3.org/2000/svg" width="88" height="14" viewBox="0 0 88 14">
    <defs>
        <style>
            .cls-1{fill:#0a2165}
        </style>
    </defs>
    <g id="그룹_70673">
        <g id="그룹_6" transform="translate(0 .016)">
            <path id="패스_1" d="M-492.775 289.3a3.918 3.918 0 0 1-4.2 3.876h-5.461v-13.238h5.089a3.829 3.829 0 0 1 4.1 3.781 3.34 3.34 0 0 1-1.133 2.591 3.434 3.434 0 0 1 1.605 2.99zm-6.686-6.524v2.345h2.117a1.087 1.087 0 0 0 .819-.333 1.129 1.129 0 0 0 .313-.84 1.118 1.118 0 0 0-.31-.843 1.077 1.077 0 0 0-.823-.33zm3.713 6.3a1.208 1.208 0 0 0-.335-.911 1.163 1.163 0 0 0-.89-.355h-2.489v2.534h2.489a1.163 1.163 0 0 0 .891-.355 1.208 1.208 0 0 0 .335-.912z" class="cls-1" transform="translate(502.433 -279.674)"/>
            <path id="패스_2" d="M-357.072 290.263v2.912h-7.615v-13.237h2.972v10.325z" class="cls-1" transform="translate(390.419 -279.674)"/>
            <path id="패스_3" d="M-319.3 282.851h-3.343v10.325h-2.972v-10.325h-3.344v-2.913h9.658z" class="cls-1" transform="translate(361.364 -279.674)"/>
            <path id="패스_4" d="M-269.19 292.528l-1.152-1.266a5.7 5.7 0 0 1-3.358 1.038c-2.674 0-4.643-1.492-4.643-3.987a4.5 4.5 0 0 1 2.08-3.8 4.068 4.068 0 0 1-.539-2.1 3.873 3.873 0 0 1 4.179-3.873 4.416 4.416 0 0 1 4.272 2.888l-2.545 1.492c-.334-.889-.854-1.436-1.69-1.436a1.115 1.115 0 0 0-.861.279 1.155 1.155 0 0 0-.384.832 2.845 2.845 0 0 0 1.019 1.87l2.4 2.7a10.123 10.123 0 0 0 .613-2.078l2.489 1.436a9.78 9.78 0 0 1-1.189 2.777l1.635 1.852zm-2.972-3.287l-2.377-2.607-.111-.113a1.876 1.876 0 0 0-.687 1.474c0 .889.557 1.549 1.876 1.549a2.7 2.7 0 0 0 1.3-.3z" class="cls-1" transform="translate(320.204 -278.544)"/>
            <path id="패스_5" d="M-198.863 279.938v13.238h-2.229l-5.018-7.187v7.186h-2.972v-13.237h2.229l5.014 7.186v-7.186z" class="cls-1" transform="translate(263.876 -279.674)"/>
            <path id="패스_6" d="M-73.382 282.851h-3.343v10.325H-79.7v-10.325h-3.34v-2.913h9.658z" class="cls-1" transform="translate(161.382 -279.674)"/>
            <g id="그룹_1" transform="translate(67.055 .36)">
                <path id="패스_7" d="M-139.23 290.694a1.718 1.718 0 0 1-1.029-1.576v-8.665h-3.086v8.974a4.331 4.331 0 0 0 4.114 4.348z" class="cls-1" transform="translate(143.344 -280.453)"/>
                <path id="패스_8" d="M-110.154 280.453v8.664a1.713 1.713 0 0 1-1.215 1.643v3.015a4.33 4.33 0 0 0 4.114-4.348v-8.974z" class="cls-1" transform="translate(117.353 -280.453)"/>
            </g>
        </g>
        <g id="그룹_7" transform="translate(10.538)">
            <path id="패스_9" d="M-437.461 302.3a3.812 3.812 0 0 1-1.917.517 3.833 3.833 0 0 1-3.834-3.833 3.813 3.813 0 0 1 .334-1.561l-2.216-2a6.7 6.7 0 0 0-1.019 3.557 6.732 6.732 0 0 0 6.732 6.732 6.7 6.7 0 0 0 4.133-1.421z" class="cls-1" transform="translate(446.113 -292.009)"/>
            <path id="패스_10" d="M-431.09 282a3.816 3.816 0 0 1 2.141-.655 3.833 3.833 0 0 1 3.833 3.833 3.815 3.815 0 0 1-.448 1.8l2.192 1.974a6.7 6.7 0 0 0 1.154-3.769 6.732 6.732 0 0 0-6.732-6.732 6.7 6.7 0 0 0-4.331 1.579z" class="cls-1" transform="translate(435.684 -278.451)"/>
        </g>
    </g>
</svg>
