<svg xmlns="http://www.w3.org/2000/svg" width="18.679" height="22.999" viewBox="0 0 18.679 22.999">
    <defs>
        <style>
            .prefix__cls-1{fill:#a0a0a0}
        </style>
    </defs>
    <g id="prefix__Icon_delete">
        <g id="prefix__그룹_1301" data-name="그룹 1301" transform="translate(-39.998 .001)">
            <path id="prefix__패스_1354" d="M262.938 154.7a.539.539 0 0 0-.539.539v10.18a.539.539 0 1 0 1.077 0v-10.18a.539.539 0 0 0-.538-.539z" class="prefix__cls-1" data-name="패스 1354" transform="translate(-210.423 -146.372)"/>
            <path id="prefix__패스_1355" d="M144.938 154.7a.539.539 0 0 0-.539.539v10.18a.539.539 0 1 0 1.077 0v-10.18a.539.539 0 0 0-.538-.539z" class="prefix__cls-1" data-name="패스 1355" transform="translate(-98.778 -146.372)"/>
            <path id="prefix__패스_1356" d="M41.527 6.846v13.27a2.972 2.972 0 0 0 .79 2.049 2.652 2.652 0 0 0 1.925.835h10.19a2.652 2.652 0 0 0 1.924-.832 2.972 2.972 0 0 0 .79-2.049V6.846a2.057 2.057 0 0 0-.527-4.046h-2.758v-.674A2.116 2.116 0 0 0 51.728 0h-4.782a2.116 2.116 0 0 0-2.133 2.127V2.8h-2.758a2.057 2.057 0 0 0-.528 4.046zM54.432 21.92h-10.19a1.706 1.706 0 0 1-1.637-1.8V6.893H56.07v13.223a1.706 1.706 0 0 1-1.638 1.804zM45.89 2.126a1.038 1.038 0 0 1 1.056-1.05h4.783a1.038 1.038 0 0 1 1.056 1.05V2.8H45.89zm-3.835 1.75h14.564a.969.969 0 1 1 0 1.939H42.055a.969.969 0 1 1 0-1.939z" class="prefix__cls-1" data-name="패스 1356"/>
            <path id="prefix__패스_1357" d="M203.938 154.7a.539.539 0 0 0-.539.539v10.18a.539.539 0 0 0 1.077 0v-10.18a.539.539 0 0 0-.538-.539z" class="prefix__cls-1" data-name="패스 1357" transform="translate(-154.601 -146.372)"/>
        </g>
    </g>
</svg>
