<svg xmlns="http://www.w3.org/2000/svg" id="prefix__Icon_link" width="20" height="20" viewBox="0 0 20 20">
    <path id="prefix__패스_808" d="M18.348 1.727A6.424 6.424 0 0 0 14.058 0a6.252 6.252 0 0 0-4.29 1.727 1.364 1.364 0 0 0-.365 1 1.9 1.9 0 0 0 .365 1 1.376 1.376 0 0 0 1 .364 1.919 1.919 0 0 0 1-.364 3.428 3.428 0 0 1 4.747 0A3.824 3.824 0 0 1 17.344 6a3.294 3.294 0 0 1-1 2.364L8.4 16.273a3.428 3.428 0 0 1-4.747 0A3.392 3.392 0 0 1 2.739 14a3.294 3.294 0 0 1 1-2.364L7.12 8.273a1 1 0 0 1 1.369 0 1.1 1.1 0 0 1 0 1.455l-2.464 2.454a1.364 1.364 0 0 0-.365 1 1.9 1.9 0 0 0 .365 1 1.518 1.518 0 0 0 1.917 0l2.465-2.455a3.72 3.72 0 0 0 0-5.273 3.664 3.664 0 0 0-2.648-1.09 3.25 3.25 0 0 0-2.556 1L1.826 9.727A5.757 5.757 0 0 0 0 14a6.2 6.2 0 0 0 1.734 4.273A6.424 6.424 0 0 0 6.025 20a6.252 6.252 0 0 0 4.29-1.727l7.942-7.909a5.817 5.817 0 0 0 1.734-4.273 5.941 5.941 0 0 0-1.643-4.364z" data-name="패스 808" style="fill:#898989"/>
</svg>
