<svg xmlns="http://www.w3.org/2000/svg" id="prefix__Icon_star" width="20.169" height="19.328" viewBox="0 0 20.169 19.328">
    <path id="prefix__패스_1358" d="M20.116 18.268a1.07 1.07 0 0 0-.923-.737L13.372 17l-2.3-5.388a1.072 1.072 0 0 0-1.972 0L6.8 17l-5.822.529a1.073 1.073 0 0 0-.608 1.876l4.4 3.859-1.3 5.715a1.07 1.07 0 0 0 1.594 1.158l5.021-3 5.019 3a1.072 1.072 0 0 0 1.6-1.158l-1.3-5.715 4.4-3.858a1.072 1.072 0 0 0 .312-1.138z" data-name="패스 1358" transform="translate(0 -10.964)" style="fill:#a0a0a0"/>
</svg>
