<svg xmlns="http://www.w3.org/2000/svg" width="21" height="13.5" viewBox="0 0 21 13.5">
    <g>
        <path fill="#999" d="M0 12.25a1.25 1.25 0 1 1 1.25 1.25A1.25 1.25 0 0 1 0 12.25zm5.25.75a.75.75 0 1 1 0-1.5h15a.75.75 0 1 1 0 1.5zM0 6.75A1.25 1.25 0 1 1 1.25 8 1.25 1.25 0 0 1 0 6.75zm5.25.75a.75.75 0 0 1 0-1.5h15a.75.75 0 1 1 0 1.5zM0 1.25A1.25 1.25 0 1 1 1.25 2.5 1.25 1.25 0 0 1 0 1.25zM5.25 2a.75.75 0 1 1 0-1.5h15a.75.75 0 1 1 0 1.5z" transform="translate(-.5) translate(.5)"/>
    </g>
</svg>
