<svg xmlns="http://www.w3.org/2000/svg" width="46" height="45" viewBox="0 0 46 45">
    <defs>
        <style>
            .cls-2{fill:#a4aab4;stroke:#282c36;stroke-miterlimit:10;stroke-width:.7px}
        </style>
    </defs>
    <g id="그룹_1644" transform="translate(-23 -1005)">
        <path id="사각형_2255" fill="#fff" d="M0 0H46V45H0z" transform="translate(23 1005)"/>
        <g id="그룹_1638" transform="translate(3.494)">
            <path id="패스_2276" d="M1294.4 1426.9a7.707 7.707 0 0 0-.96-2.317l.817-1.575-1.749-1.749-1.571.819a7.715 7.715 0 0 0-2.316-.96l-.537-1.691h-2.473l-.532 1.691a7.717 7.717 0 0 0-2.317.96l-1.575-.817-1.749 1.748.819 1.572a7.719 7.719 0 0 0-.96 2.316l-1.691.537v2.473l1.691.532a7.718 7.718 0 0 0 .96 2.317l-.817 1.575 1.748 1.748 1.572-.819a7.716 7.716 0 0 0 2.316.958l.537 1.693h2.473l.533-1.692a7.717 7.717 0 0 0 2.317-.957l1.575.817 1.748-1.749-.819-1.572a7.694 7.694 0 0 0 .96-2.316l1.691-.537v-2.473zm-7.551 6.071a4.3 4.3 0 0 1-4.3-4.3 4.3 4.3 0 0 1 4.3-4.3 4.3 4.3 0 0 1 4.3 4.3 4.3 4.3 0 0 1-4.3 4.3z" class="cls-2" transform="translate(-1255.099 -403.34)"/>
            <path id="패스_2277" d="M1352.575 1436.61a9.345 9.345 0 0 0-1.162-2.81l.99-1.909-2.119-2.119-1.9.993a9.349 9.349 0 0 0-2.807-1.164l-.65-2.05h-3l-.645 2.049a9.345 9.345 0 0 0-2.807 1.162l-1.909-.99-2.119 2.119.993 1.9a9.353 9.353 0 0 0-1.164 2.807l-2.05.65v3l2.049.645a9.344 9.344 0 0 0 1.162 2.807l-.99 1.909 2.119 2.119 1.9-.992a9.363 9.363 0 0 0 2.807 1.161l.651 2.053h3l.646-2.051a9.347 9.347 0 0 0 2.807-1.16l1.909.99 2.119-2.119-.992-1.9a9.332 9.332 0 0 0 1.163-2.807l2.05-.65v-3zm-9.152 7.358a5.215 5.215 0 0 1-5.214-5.215 5.215 5.215 0 0 1 5.214-5.215 5.215 5.215 0 0 1 5.215 5.215 5.214 5.214 0 0 1-5.215 5.215z" class="cls-2" transform="translate(-1290.492 -408.809)"/>
        </g>
    </g>
</svg>
