<svg xmlns="http://www.w3.org/2000/svg" width="346" height="242" viewBox="0 0 346 242">
    <defs>
        <style>
            .cls-1{fill:#c6c7cc}.cls-2,.cls-5{fill:#0933b3}.cls-11,.cls-4{fill:none}.cls-4{stroke:#707070}.cls-5{stroke:#fff}.cls-6{fill:#fff;stroke:#c6c7cc}.cls-7,.cls-8{fill:#0a2165;font-size:10px;letter-spacing:-.025em}.cls-7{font-family:NotoSansCJKkr-Bold,Noto Sans CJK KR;font-weight:700}.cls-8{font-family:NotoSansCJKkr-Medium,Noto Sans CJK KR;font-weight:500}.cls-10{stroke:none}
        </style>
    </defs>
    <g id="그룹_1353" transform="translate(-14 -203)">
        <g id="그룹_1352">
            <g id="그룹_1351">
                <g id="그룹_1155" transform="translate(-574.263 -120.264)">
                    <g id="그룹_1153" transform="translate(588.262 363.28)">
                        <path id="패스_1278" d="M671.461 426.272l-4.113-4.114a.17.17 0 0 0-.121-.05H662.4a.172.172 0 0 0-.121.05l-1.27 1.27a.172.172 0 0 1-.121.05h-15.456a.17.17 0 0 1-.121-.05l-2.728-2.727a.171.171 0 0 0-.121-.05h-7.484a.172.172 0 0 1-.121-.05l-2.77-2.77a.17.17 0 0 0-.121-.05h-4.7a.17.17 0 0 0-.121.05l-3.345 3.349a.172.172 0 0 1-.121.05h-4.292a.172.172 0 0 1-.121-.05l-3.231-3.231a.171.171 0 0 0-.121-.05h-13.327a.17.17 0 0 0-.121.05L591.5 424.61a.171.171 0 0 0 0 .243l3.576 3.576a.171.171 0 0 1 0 .243l-6.761 7.134a.171.171 0 0 0 0 .242l9.2 11.5a.173.173 0 0 0 .121.05h4.4a.173.173 0 0 0 .121-.05l10.354-10.036a.17.17 0 0 1 .121-.05h6.585a.171.171 0 0 1 .121.05l16.146 11.35a.17.17 0 0 1 .05.121v8.477a.172.172 0 0 0 .05.121l9.9 9.9a.171.171 0 0 1 .05.121v5.853a.172.172 0 0 0 .05.121l9.063 9.063 1.892 1.892a.171.171 0 0 0 .121.05h7.14a.171.171 0 0 1 .121.05l2.541 2.541a.172.172 0 0 0 .121.05h3.272a.17.17 0 0 1 .121.05l2.07 2.07 4.278 4.278a.171.171 0 0 0 .243 0l1.136-1.136a.172.172 0 0 1 .121-.05h2.785a.172.172 0 0 0 .171-.172v-.843a.173.173 0 0 0-.05-.121l-.814-.814a.172.172 0 0 0-.121-.05h-2.828a.171.171 0 0 1-.121-.05l-2.127-2.127a.171.171 0 0 1-.05-.121v-2.657a.172.172 0 0 0-.05-.121l-3.47-3.47a.17.17 0 0 1-.05-.121v-2.242a.171.171 0 0 0-.171-.171H668.4a.173.173 0 0 0-.121.05l-1.842 1.842a.17.17 0 0 1-.121.05h-4.328a.171.171 0 0 1-.171-.172v-7.527a.171.171 0 0 1 .05-.121l3.042-3.042a.173.173 0 0 1 .121-.05h8.713a.172.172 0 0 1 .121.05l2.485 2.485a.171.171 0 0 0 .292-.121v-3.886a.171.171 0 0 1 .05-.121l5-5a.172.172 0 0 0 .05-.121v-2.757a.172.172 0 0 1 .05-.121l4.1-4.1 3.421-3.421a.172.172 0 0 1 .242 0l2.25 2.25a.171.171 0 0 0 .242 0l3.714-3.714a.172.172 0 0 1 .121-.05h7.469a.171.171 0 0 0 .172-.171v-3.014a.17.17 0 0 0-.05-.121l-1.728-1.728a.171.171 0 0 1-.05-.121v-3.286a.172.172 0 0 0-.05-.121l-8.112-8.112a.172.172 0 0 0-.242 0l-2.671 2.671a.172.172 0 0 1-.243 0l-2.514-2.514a.172.172 0 0 1-.05-.121v-1.972a.173.173 0 0 0-.05-.121l-2.213-2.213a.17.17 0 0 0-.121-.05h-4.343a.173.173 0 0 1-.121-.05l-4.231-4.232a.166.166 0 0 0-.108-.049 38.011 38.011 0 0 0-4.988-.117.166.166 0 0 1-.176-.043z" class="cls-1" transform="translate(-588.262 -391.86)"/>
                        <path id="패스_1279" d="M825.378 405.868v-4.728a.171.171 0 0 1 .05-.121l4.184-4.184a.173.173 0 0 1 .121-.05h2.086a.171.171 0 0 0 .121-.05l4.184-4.184a.172.172 0 0 1 .121-.05h6.028a.172.172 0 0 0 .121-.05l3.584-3.584a.17.17 0 0 0 .05-.121v-7.313a.171.171 0 0 0-.05-.121l-1.843-1.842a.172.172 0 0 1 0-.243l5.87-5.87a.169.169 0 0 0 .05-.121v-2.772a.17.17 0 0 1 .05-.121l1.971-1.971a.171.171 0 0 0-.121-.292h-9.369a.172.172 0 0 1-.121-.293l2.285-2.285a.171.171 0 0 0 0-.243l-1.928-1.928a.172.172 0 0 0-.121-.05h-12.282a.17.17 0 0 0-.121.05l-1.228 1.228a.17.17 0 0 1-.121.05h-7.1a.172.172 0 0 0-.121.05l-2.278 2.278a.172.172 0 0 1-.121.05H815a.173.173 0 0 1-.121-.05l-1.281-1.281a.171.171 0 0 0-.121-.05h-4.989a.172.172 0 0 0-.121.05l-6.835 6.835a.171.171 0 0 0-.05.121v2.681a.172.172 0 0 0 .05.121l2.168 2.167a.173.173 0 0 1 .05.121v2.46a.172.172 0 0 0 .172.171h6.478a.171.171 0 0 1 .121.05l7.969 7.969a.171.171 0 0 1 0 .243l-1.628 1.628a.17.17 0 0 0-.05.121v8.6a.171.171 0 0 0 .05.121l5.3 5.3a.17.17 0 0 0 .121.05h1.649a.167.167 0 0 1 .129.059c.239.288 1.317 1.545 1.317 1.394z" class="cls-1" transform="translate(-700.071 -363.28)"/>
                        <path id="패스_1280" d="M759.087 379.031h3.792a.172.172 0 0 0 .121-.05l2.571-2.571a.171.171 0 0 0 0-.242l-1.214-1.214a.172.172 0 0 1 .121-.293h3.371a.173.173 0 0 0 .121-.05l6.984-6.984a.171.171 0 0 0-.121-.292h-16.61a.173.173 0 0 0-.121.05l-1.72 1.721a.17.17 0 0 1-.121.05h-5.235a.171.171 0 0 0-.121.05l-5.023 5.023a.171.171 0 0 0 0 .243l2.367 2.367a.17.17 0 0 0 .121.05h3.885a.173.173 0 0 1 .121.05l1.071 1.072a.171.171 0 0 1 0 .242l-1.429 1.429a.172.172 0 0 0 0 .242l1.457 1.457a.172.172 0 0 0 .121.05h3.774a.168.168 0 0 0 .146-.082c.222-.368 1.134-1.873 1.439-2.254a.168.168 0 0 1 .132-.064z" class="cls-1" transform="translate(-670.89 -365.406)"/>
                        <path id="패스_1281" d="M734.607 397.363v-2.742a.172.172 0 0 0-.171-.172h-3.014a.172.172 0 0 0-.121.05l-1.885 1.885a.171.171 0 0 0 .121.293h2.258a.174.174 0 0 1 .121.05l1.225 1.226a.17.17 0 0 0 .209.026c.388-.238 1.62-.979 1.257-.616z" class="cls-1" transform="translate(-662.256 -379.625)"/>
                        <path id="패스_1282" d="M734.053 387.291v-2.4a.171.171 0 0 0-.171-.172h-3.113a.171.171 0 0 0-.086.32c1.139.645 3.567 2.054 3.37 2.252z" class="cls-1" transform="translate(-662.901 -374.523)"/>
                        <path id="패스_1283" d="M742.353 394.089h2.247a.17.17 0 0 1 .121.05l1.371 1.371a.172.172 0 0 1-.121.293h-3.114a.17.17 0 0 1-.121-.05l-1.317-1.317a.171.171 0 0 1 .136-.292 1.6 1.6 0 0 0 .7-.026z" class="cls-1" transform="translate(-668.551 -379.436)"/>
                        <path id="패스_1284" d="M752.869 400.539l-1.472-1.472a.171.171 0 0 1 .121-.293h5a.173.173 0 0 1 .121.05l1.185 1.185a.173.173 0 0 0 .121.05h5.5a.171.171 0 0 1 .171.171v1.286a.171.171 0 0 1-.171.171h-9.335a.169.169 0 0 1-.141-.073c-.176-.258-.767-1.1-.934-1.058-.062.015-.122.026-.166-.017z" class="cls-1" transform="translate(-673.783 -381.893)"/>
                        <path id="패스_1285" d="M705.83 411.406h-3.357a.174.174 0 0 1-.121-.05l-3.927-3.927a.17.17 0 0 0-.121-.05h-3.372a.173.173 0 0 1-.121-.05l-3.37-3.37a.172.172 0 0 0-.121-.05h-7.7a.17.17 0 0 0-.121.05l-3.406 3.406a.171.171 0 0 0 0 .242l1.35 1.35a.17.17 0 0 0 .121.05h7.641a.171.171 0 0 1 .171.171v1.472a.17.17 0 0 0 .05.121l1.528 1.528a.171.171 0 0 0 .121.05h3.1a.171.171 0 0 1 .171.171v1.971a.172.172 0 0 0 .171.172h8.816a.171.171 0 0 0 .146-.081c.321-.524 2.121-3.41 2.351-3.176z" class="cls-1" transform="translate(-636.392 -384.585)"/>
                        <path id="패스_1286" d="M737.458 409.843l-1.83-1.83a.171.171 0 0 0-.121-.05h-3.957a.171.171 0 0 0-.171.172v1.728a.173.173 0 0 0 .05.121l2.47 2.47a.173.173 0 0 0 .121.05h2.7a.168.168 0 0 0 .167-.132 23.477 23.477 0 0 1 .6-2.345.167.167 0 0 0-.029-.184z" class="cls-1" transform="translate(-663.312 -386.711)"/>
                        <path id="패스_1287" d="M758.751 411.181V408a.173.173 0 0 1 .05-.121l2.385-2.385a.173.173 0 0 1 .121-.05h6.113a.173.173 0 0 1 .121.05l2.6 2.6a.172.172 0 0 0 .121.05h1.438a.17.17 0 0 1 .121.05l5.877 5.877a.173.173 0 0 0 .121.05h1.25a.171.171 0 0 1 .121.05l4.531 4.531a.171.171 0 0 1-.121.292h-4.389a.171.171 0 0 0-.121.292l2.965 2.966a.171.171 0 0 1 0 .242l-2.537 2.537a.171.171 0 0 1-.243 0l-3.942-3.942a.172.172 0 0 0-.121-.05h-4.642a.172.172 0 0 1-.171-.172v-1.557a.171.171 0 0 1 .05-.121l2.828-2.828a.171.171 0 0 0 0-.243l-4.376-4.376a.165.165 0 0 0-.1-.049c-.848-.078-10.46-.921-10.05-.512z" class="cls-1" transform="translate(-677.659 -385.389)"/>
                        <path id="패스_1288" d="M777.659 572.963l4.419-4.419a.173.173 0 0 1 .121-.05h5.4a.171.171 0 0 1 .121.05l1.642 1.642a.172.172 0 0 0 .121.05h4.742a.172.172 0 0 1 .121.05l3.17 3.17a.171.171 0 0 0 .121.05h3.442a.172.172 0 0 1 .121.05l3.249 3.249a.172.172 0 0 1 .05.121v2.193a.172.172 0 0 0 .172.171h3.492a.17.17 0 0 1 .121.05l2.813 2.813a.17.17 0 0 0 .121.05h5.056a.172.172 0 0 1 .121.05l1.3 1.3a.171.171 0 0 1 .05.121v4.571a.172.172 0 0 1-.05.121l-3.8 3.8a.173.173 0 0 0-.05.121v6.013a.172.172 0 0 1-.05.121l-3.327 3.327-9.768 9.768-7.2 7.2a.171.171 0 0 1-.121.05h-2.436a.169.169 0 0 0-.121.05l-2.267 2.267a.171.171 0 0 0-.05.121v6.11a.17.17 0 0 1-.05.121l-2.315 2.315a.17.17 0 0 0-.05.121v4.412a.171.171 0 0 0 .05.121l1.377 1.377a.171.171 0 0 1 .05.121v1.465a.17.17 0 0 1-.05.121l-1.6 1.6a.172.172 0 0 1-.242 0l-6.06-6.06a.172.172 0 0 1-.05-.121v-7.056a.172.172 0 0 1 .05-.121l1.9-1.9a.171.171 0 0 0 .05-.121v-9.729a.174.174 0 0 1 .05-.121l1.242-1.242a.173.173 0 0 0 .05-.121v-15.768a.172.172 0 0 0-.05-.121l-4.991-4.991-5.32-5.32a.173.173 0 0 1-.05-.121v-3.386a.173.173 0 0 1 .05-.121l2.054-2.068a.171.171 0 0 0 .05-.121v-2.036a.17.17 0 0 1 .05-.121l2.477-2.477a.165.165 0 0 0 .048-.094c.052-.353.341-2.324.383-2.693a.164.164 0 0 1 .051-.095z" class="cls-1" transform="translate(-684.87 -470.893)"/>
                        <path id="패스_1289" d="M953.883 522.984L950 519.1a.17.17 0 0 0-.121-.05h-5.428a.173.173 0 0 1-.121-.05l-2.014-2.014a.171.171 0 0 0-.242 0l-2.885 2.885a.171.171 0 0 1-.243 0l-5.448-5.449-2.092-2.092a.172.172 0 0 0-.121-.05h-3.971a.172.172 0 0 0-.121.05l-2.727 2.728a.173.173 0 0 1-.121.05h-9.2a.171.171 0 0 0-.121.05l-2.856 2.856a.171.171 0 0 0-.05.121v2.815a.172.172 0 0 1-.05.121l-6.819 6.819a.171.171 0 0 0-.05.121v10.077a.172.172 0 0 0 .05.121l7.665 7.665a.172.172 0 0 0 .121.05h7.452a.171.171 0 0 0 .121-.05l3.283-3.283a.171.171 0 0 1 .242 0l5.729 5.729a.171.171 0 0 1 0 .242l-2.157 2.157a.171.171 0 0 0 0 .243l6.17 6.169a.171.171 0 0 1 .05.121v3.971a.17.17 0 0 1-.05.121l-2.47 2.471a.171.171 0 0 0-.05.121v3.628a.173.173 0 0 0 .05.121l4.613 4.612a.174.174 0 0 1 .05.121v3.543a.171.171 0 0 0 .05.121l3.8 3.8a.172.172 0 0 1 .05.121v3.743a.171.171 0 0 0 .171.171h6.913a.172.172 0 0 0 .121-.05l7.44-7.44a.171.171 0 0 0 .05-.121v-2.429a.171.171 0 0 1 .05-.121l1.871-1.871a.171.171 0 0 0 .05-.121v-5.257a.17.17 0 0 1 .05-.121l3.713-3.713a.171.171 0 0 0 .05-.121v-4.614a.17.17 0 0 0-.05-.121l-2.464-2.464a.171.171 0 0 1 0-.243l12.7-12.7a.171.171 0 0 0 .05-.121v-4.3a.171.171 0 0 0-.171-.172H964.5a.173.173 0 0 1-.121-.05l-5.348-5.348-4.164-4.164a.172.172 0 0 1-.046-.082 34.159 34.159 0 0 1-.894-5.032.161.161 0 0 0-.044-.157z" class="cls-1" transform="translate(-754.462 -441.415)"/>
                        <path id="패스_1290" d="M1026.858 628.9v-2.1a.173.173 0 0 1 .05-.121l1.528-1.528a.17.17 0 0 0 .05-.121v-4.571a.171.171 0 0 1 .05-.121l2.513-2.513a.17.17 0 0 1 .121-.05h2.885a.171.171 0 0 1 .171.172v3.742a.173.173 0 0 1-.05.121l-2.214 2.213a.172.172 0 0 0-.05.121v5.085a.172.172 0 0 1-.051.121l-2.755 2.755a.172.172 0 0 1-.266-.029l-1.958-3.077a.171.171 0 0 1-.024-.099z" class="cls-1" transform="translate(-818.26 -496.733)"/>
                        <path id="패스_1291" d="M1194.7 620.273l2.777-2.777a.171.171 0 0 1 .242 0l1.942 1.942a.17.17 0 0 1 .05.121v2.829a.173.173 0 0 0 .05.121l4.006 4.006 3.091 3.092a.17.17 0 0 1 .05.121v3.972a.171.171 0 0 1-.05.121l-2.984 2.984a.172.172 0 0 0-.05.121v3.857a.171.171 0 0 1-.05.121l-2.685 2.685a.171.171 0 0 1-.243 0l-1.985-1.985a.171.171 0 0 0-.243 0l-.971.971a.173.173 0 0 1-.121.05h-3.471a.171.171 0 0 1-.171-.171v-2.671a.171.171 0 0 0-.05-.121l-2.457-2.456a.171.171 0 0 0-.242 0l-1.415 1.414a.172.172 0 0 1-.242 0l-2.971-2.971a.171.171 0 0 0-.121-.05h-6.713a.171.171 0 0 0-.121.05l-2.241 2.242a.172.172 0 0 1-.121.05h-3.457a.174.174 0 0 0-.121.05l-1.4 1.4a.171.171 0 0 1-.243 0l-2.071-2.071a.171.171 0 0 1 0-.243l1.3-1.3a.172.172 0 0 0 0-.243l-2.914-2.913a.172.172 0 0 1-.05-.121v-6.77a.17.17 0 0 1 .05-.121l2.727-2.728a.173.173 0 0 1 .121-.05h3.828a.17.17 0 0 0 .121-.05l3.563-3.563 2.292-2.292a.172.172 0 0 1 .121-.05h1.558a.171.171 0 0 1 .121.05l1.193 1.193a.171.171 0 0 0 .292-.121v-1.522a.173.173 0 0 1 .05-.121l1.874-1.874a.172.172 0 0 1 .121-.05h2.289a.172.172 0 0 1 .121.05l1.344 1.344a.171.171 0 0 1 .05.121v2.4a.169.169 0 0 0 .111.161 33.35 33.35 0 0 1 4.289 1.785.171.171 0 0 0 .23-.019z" class="cls-1" transform="translate(-892.396 -494.982)"/>
                        <g id="그룹_1152" transform="translate(299.527 68.057)">
                            <path id="패스_1292" d="M1242.413 516.049v-3.09a.171.171 0 0 1 .05-.121l1.057-1.057a.171.171 0 0 0 .05-.121v-5.113a.171.171 0 0 0-.171-.172h-1.5a.171.171 0 0 0-.171.172v3.614a.169.169 0 0 1-.051.121l-1.142 1.142a.17.17 0 0 0-.05.121v4.039a.17.17 0 0 0 .125.165c.32.087 1.168.319 1.577.462a.171.171 0 0 0 .226-.162z" class="cls-1" transform="translate(-1229.812 -506.376)"/>
                            <path id="패스_1293" d="M1243.063 530.595l-1.768-1.768a.172.172 0 0 0-.243 0l-1.764 1.764-1.035 1.036a.171.171 0 0 0 .121.293h1.744a.171.171 0 0 1 .121.05l.943.943a.171.171 0 0 0 .243 0l2.064-2.064a1.88 1.88 0 0 0-.357-.228z" class="cls-1" transform="translate(-1228.615 -518.123)"/>
                            <path id="패스_1294" d="M1229.274 540.734v-2.657a.171.171 0 0 0-.171-.171h-1.3a.169.169 0 0 0-.121.05l-.8.8a.172.172 0 0 0-.05.121v2.729a.173.173 0 0 1-.05.121l-2.582 2.573a.171.171 0 0 1-.121.05h-3.65a.173.173 0 0 0-.121.05l-2.217 2.217a.171.171 0 0 0 .121.292h5.76a.171.171 0 0 0 .121-.05l1.319-1.319a.172.172 0 0 1 .121-.05h2.537a.171.171 0 0 0 .171-.171v-3.076a.165.165 0 0 1 .033-.1 13.97 13.97 0 0 0 1-1.409z" class="cls-1" transform="translate(-1218.045 -522.91)"/>
                        </g>
                        <path id="패스_1295" d="M701.8 397.76h2.671a.172.172 0 0 0 .121-.05l1.727-1.728a.172.172 0 0 1 .121-.05h1.36a.171.171 0 0 0 .171-.171V394.5a.171.171 0 0 0-.171-.171h-2.514a.172.172 0 0 1-.172-.172v-1.142a.171.171 0 0 0-.171-.171h-2.285a.171.171 0 0 0-.171.171v1.814a.171.171 0 0 1-.292.121l-1.714-1.714a.172.172 0 0 0-.121-.05h-2.26a.169.169 0 0 1-.121-.05l-1.043-1.042a.17.17 0 0 0-.121-.05h-3.057a.171.171 0 0 0-.121.05l-2.057 2.057a.171.171 0 0 0 .121.292h2.486a.17.17 0 0 0 .121-.05l1.143-1.142a.171.171 0 0 1 .242 0l1.186 1.186a.171.171 0 0 1 0 .243l-.557.557a.171.171 0 0 0 .121.292h3.471a.171.171 0 0 1 .171.171v1.8a.171.171 0 0 0 .146.169c.441.061 1.71.231 1.569.091z" class="cls-1" transform="translate(-642.415 -378.365)"/>
                        <path id="패스_1296" d="M749.021 408.326l2.34-2.34a.171.171 0 0 0 0-.242l-.914-.914a.17.17 0 0 0-.121-.05h-3.642a.172.172 0 0 0-.172.172v1.461a.172.172 0 0 0 .064.133l2.216 1.794a.171.171 0 0 0 .229-.014z" class="cls-1" transform="translate(-671.248 -385.042)"/>
                        <path id="패스_1297" d="M712.17 386.776v-1.044a.171.171 0 0 0-.172-.171h-3.3a.171.171 0 0 0-.121.05l-1.142 1.142a.171.171 0 0 0 .121.293h1.914a.171.171 0 0 1 .121.292l-.443.443a.171.171 0 0 0 .121.293h1.563a.166.166 0 0 0 .129-.059 5.893 5.893 0 0 1 1.1-1.083.168.168 0 0 0 .109-.156z" class="cls-1" transform="translate(-650.73 -374.964)"/>
                        <path id="패스_1298" d="M1108.844 412.806l-9.281-9.281a.171.171 0 0 0-.121-.05h-22.255a.171.171 0 0 1-.121-.05l-4.238-4.238a.17.17 0 0 0-.121-.05h-6.821a.172.172 0 0 0-.121.05l-2.363 2.363a.173.173 0 0 1-.121.05h-6.67a.172.172 0 0 1-.121-.05l-3.884-3.884a.17.17 0 0 0-.121-.05H1036.6a.171.171 0 0 1-.121-.293l2.843-2.842a.171.171 0 0 0 0-.243l-3.342-3.342a.17.17 0 0 0-.121-.05h-9.8a.17.17 0 0 0-.121.05l-4.184 4.184a.17.17 0 0 1-.121.05h-7.3a.172.172 0 0 0-.171.172v2.817a.171.171 0 0 1-.172.171h-5a.171.171 0 0 0-.121.05l-2.031 2.031a.171.171 0 0 1-.121.05h-9.297a.17.17 0 0 0-.121.05l-5.191 5.191a.17.17 0 0 1-.121.05h-12.926a.171.171 0 0 0-.121.05l-3.8 3.8a.173.173 0 0 1-.121.05h-4.742a.171.171 0 0 1-.121-.05l-3.927-3.927a.171.171 0 0 0-.121-.05h-3.8a.172.172 0 0 1-.121-.05l-3.156-3.156a.173.173 0 0 0-.121-.05h-4.828a.171.171 0 0 0-.121.05l-1.956 1.956a.172.172 0 0 1-.121.05h-3.457a.173.173 0 0 0-.121.05L935.039 417.7a.17.17 0 0 0-.05.121v4.042a.172.172 0 0 0 .172.171h4.556a.17.17 0 0 1 .121.05l3.439 3.438a.171.171 0 0 0 .242 0l3.439-3.438a.173.173 0 0 0 .05-.121v-5.835a.172.172 0 0 1 .05-.121l3.991-3.991a.17.17 0 0 1 .121-.05h1.786a.171.171 0 0 1 .121.293l-2.528 2.528a.171.171 0 0 0-.05.121v3.029a.17.17 0 0 0 .05.121l2.213 2.213a.17.17 0 0 1 .05.121v3.014a.172.172 0 0 1-.172.171h-2.57a.171.171 0 0 0-.171.171v3.513a.171.171 0 0 1-.171.172h-9.955a.173.173 0 0 0-.121.05l-1.528 1.528a.17.17 0 0 1-.121.05h-1.4a.172.172 0 0 0-.121.05l-2.813 2.813a.17.17 0 0 1-.121.05h-3.013a.172.172 0 0 0-.172.171v2.142a.172.172 0 0 1-.171.172h-2.928a.173.173 0 0 0-.121.05l-1.456 1.457a.171.171 0 0 0 0 .243l3.356 3.356a.171.171 0 0 1 0 .243l-1.714 1.714a.172.172 0 0 1-.121.05h-5.756a.171.171 0 0 0-.171.171v6.709a.167.167 0 0 0 .113.161c.638.216 3.777 1.832 4.4 2.156a.169.169 0 0 0 .2-.032l2.225-2.225 1.885-1.885 2.263-2.263a.173.173 0 0 0 .05-.121v-1.557a.171.171 0 0 1 .172-.171h3.611a.172.172 0 0 0 .121-.05l1.756-1.756a.171.171 0 0 1 .243 0l6.912 6.912a.171.171 0 0 0 .292-.121v-2.343a.172.172 0 0 0-.05-.121l-3.07-3.07a.171.171 0 0 1-.05-.121v-2.429a.171.171 0 0 1 .293-.121l9.012 9.012a.171.171 0 0 0 .292-.121v-2.5a.171.171 0 0 1 .171-.172h3.186a.172.172 0 0 1 .121.05l3.841 3.841a.172.172 0 0 0 .121.05h2.428a.17.17 0 0 1 .121.05l1.542 1.542a.171.171 0 0 1 0 .242l-2.628 2.629a.172.172 0 0 0 0 .242l3.985 3.985a.171.171 0 0 1 .05.121v3.885a.172.172 0 0 0 .05.121l4.441 4.441a.171.171 0 0 1 .05.121v3.628a.173.173 0 0 0 .05.121l4.328 4.327a.171.171 0 0 0 .243 0l4.927-4.927a.173.173 0 0 1 .121-.05h2.686a.171.171 0 0 0 .121-.05l5.527-5.527a.171.171 0 0 0 0-.243l-1.257-1.257a.171.171 0 0 1 .121-.293h8.17a.17.17 0 0 1 .121.05l1.749 1.749 1.978 1.978a.171.171 0 0 0 .243 0l1.686-1.686a.172.172 0 0 1 .293.121v7.485a.172.172 0 0 0 .05.121l3.07 3.07a.172.172 0 0 1 .05.121v4.143a.171.171 0 0 0 .292.121l3.256-3.256a.172.172 0 0 0 .05-.121v-4.828a.172.172 0 0 1 .05-.121l7.612-7.612a.171.171 0 0 1 .121-.05h4.15a.171.171 0 0 1 .171.171v4.963a.172.172 0 0 0 .05.121l2.406 2.406a.17.17 0 0 1 .05.121v5.128a.172.172 0 0 0 .05.121l7.069 7.069a.172.172 0 0 0 .293-.121v-2.857a.171.171 0 0 0-.05-.121l-3.07-3.07a.171.171 0 0 1-.05-.121v-4.143a.172.172 0 0 1 .293-.121l3.135 3.135 2.535 2.535a.171.171 0 0 0 .242 0l3.171-3.17a.172.172 0 0 0 .05-.121v-3.285a.173.173 0 0 0-.05-.121l-4.82-4.82a.171.171 0 0 1 0-.243l2.078-2.078a.173.173 0 0 1 .121-.05h6.159l1.1.036a.218.218 0 0 0 .133-.043.17.17 0 0 0 .085-.043l7.055-7.055a.17.17 0 0 0 .046-.1.237.237 0 0 0 .022-.1v-5.01a.237.237 0 0 0-.07-.168l-2.025-2.025a.239.239 0 0 1-.065-.146v-2.469a.238.238 0 0 1 .065-.145l2.564-2.564a.237.237 0 0 0 .069-.168V445h.315a.171.171 0 0 1 .121.05l.764.764v.041l-.483.483a.239.239 0 0 0-.069.168v1.79l.04.568c-.006.126.038 1.148.046 1.248l.091 2.079a.238.238 0 0 0 .336 0l.982-.982.91.911 2.051 2.051-1.775 1.775a.238.238 0 0 0 0 .336l1.129 1.128v1.622a.237.237 0 0 0 .069.168l.529.529v1.562l-1.921 1.921a.238.238 0 0 0 0 .336l1.144 1.144-.916.916a.238.238 0 0 0 .168.406h1.818a.237.237 0 0 0 .168-.069l1.523-1.523h2.658a.238.238 0 0 0 .168-.069l1.506-1.506h1.352a.237.237 0 0 0 .168-.069l2.231-2.231a.237.237 0 0 0 .07-.168v-.863a.236.236 0 0 0-.07-.168l-.385-.385v-3.191a.238.238 0 0 0-.07-.168l-.526-.526v-1.738a.238.238 0 0 0-.07-.168l-1.885-2.432-.547-.783a.274.274 0 0 0-.07-.168l-2.1-2.1-2.145-2.145.733-.733a.238.238 0 0 0 .069-.168v-1.66h1.479a.171.171 0 0 0 .027-.005h.008a.238.238 0 0 0 .168-.069l6.129-3.75v-.057l1.765-1.765a.17.17 0 0 0 .05-.121v-6.113a.17.17 0 0 0-.05-.121l-.908-1.5a4.424 4.424 0 0 1-.159-1.311l4.458-1.284c.032-.032 2.414-1.922 2.459-1.922l4.342-2.672c.046 0 .63-.851.662-.883l2.963-3.651a.17.17 0 0 1 .121-.05h5.985a.172.172 0 0 1 .121.293l-5.527 5.527a.171.171 0 0 0-.05.121v7.656a.171.171 0 0 0 .292.121l4.884-4.884a.17.17 0 0 0 .05-.121v-4.556a.171.171 0 0 1 .171-.172h5.756a.172.172 0 0 0 .121-.05l4.87-4.87a.171.171 0 0 1 .121-.05h4.556a.171.171 0 0 0 .171-.171v-3.283a.172.172 0 0 1 .172-.171h7.325a.171.171 0 0 0 .135-.293z" class="cls-1" transform="translate(-762.894 -377.736)"/>
                        <path id="패스_1299" d="M1225.166 609.573a.169.169 0 0 0 .245 0h-.248z" class="cls-1" transform="translate(-922.25 -492.433)"/>
                        <path id="패스_1300" d="M1234.685 601.291l-3.478-3.478-4.406-4.406a.17.17 0 0 0-.121-.05h-1v7.711a25.692 25.692 0 0 1 3.009-2.154.169.169 0 0 1 .212.025l2.595 2.594a.172.172 0 0 0 .121.05h2.943a.172.172 0 0 0 .125-.292z" class="cls-1" transform="translate(-922.524 -483.931)"/>
                    </g>
                    <g id="그룹_1154" transform="translate(635.521 404.338)">
                        <path id="패스_1301" d="M1164.3 587.368l1.392-1.391a.174.174 0 0 0 .05-.121v-1.015a.17.17 0 0 1 .051-.121l1.249-1.249a.172.172 0 0 1 .121-.05h.865a.171.171 0 0 0 .121-.292l-1.21-1.21a.171.171 0 0 1-.051-.121v-2.268a.169.169 0 0 1 .051-.121l.819-.819a.172.172 0 0 0 0-.243l-.824-.823a.17.17 0 0 0-.242 0l-2.528 2.528a.174.174 0 0 1-.121.05h-1.443a.171.171 0 0 0-.121.05l-2.378 2.378a.172.172 0 0 1-.242 0l-.764-.765a.172.172 0 0 0-.243 0l-1.171 1.171a.171.171 0 0 0 0 .243l2.1 2.1a.171.171 0 0 1 .051.121v1.609a.169.169 0 0 0 .159.171c.718.039 3.642.2 4.179.24a.171.171 0 0 0 .13-.052z" class="cls-2" transform="translate(-934.095 -516.659)"/>
                        <path id="패스_1302" d="M1142.181 590.66v-2.448a.17.17 0 0 0-.05-.121l-3.12-3.12-.893-.892a.17.17 0 0 0-.121-.05h-.8a.174.174 0 0 1-.121-.05l-2.642-2.642a.172.172 0 0 0-.121-.05h-1.913a.171.171 0 0 0-.121.292l3.17 3.17a.171.171 0 0 1 .05.121v1.486a.173.173 0 0 0 .05.121l1.578 1.578 3.42 3.421a.174.174 0 0 0 .121.05h1.434a.171.171 0 0 0 .172-.167 1.762 1.762 0 0 0-.063-.6.225.225 0 0 1-.03-.099z" class="cls-2" transform="translate(-920.773 -518.66)"/>
                        <path id="패스_1303" d="M1153.62 603.859l.9-.9a.17.17 0 0 1 .121-.05h1.572a.169.169 0 0 1 .121.05l.8.8a.171.171 0 0 0 .121.05h3.414a.171.171 0 0 1 .121.05l1.435 1.435a.172.172 0 0 1-.121.293h-3.604a.172.172 0 0 1-.121-.05l-.51-.51a.172.172 0 0 0-.121-.05h-2.028a.164.164 0 0 1-.06-.011c-.205-.081-1.48-.585-1.993-.828a.171.171 0 0 1-.047-.279z" class="cls-2" transform="translate(-931.966 -529.997)"/>
                        <path id="패스_1304" d="M713.759 505.7h-4.974a.238.238 0 0 1-.238-.238V503.5a.238.238 0 0 0-.238-.238h-4.552a.236.236 0 0 1-.168-.07L700.1 499.7a.237.237 0 0 0-.168-.069h-2.254a.238.238 0 0 1-.168-.07l-9.809-9.808a.239.239 0 0 1-.069-.168v-8.4a.238.238 0 0 1 .069-.168l1.759-1.759a.238.238 0 0 1 .168-.069h19.691a.237.237 0 0 1 .168.069l3.994 3.994a.239.239 0 0 0 .168.069h12.692a.238.238 0 0 1 .168.069l5.851 5.852a.239.239 0 0 0 .168.069h4.417a.238.238 0 0 1 .168.406l-3.221 3.221a.238.238 0 0 0-.07.168v2.633a.237.237 0 0 1-.069.168l-4.982 4.981a.238.238 0 0 0-.07.168v3.788a.238.238 0 0 1-.406.168l-2.426-2.426a.237.237 0 0 0-.168-.07h-8.656a.238.238 0 0 0-.171.072l-2.941 3.037a.238.238 0 0 1-.174.075z" class="cls-2" transform="translate(-687.627 -465.121)"/>
                        <path id="패스_1305" d="M1112.851 495.862l-7.646-7.646a.238.238 0 0 0-.168-.07h-4.124a.238.238 0 0 0-.168.07l-1.372 1.372a.238.238 0 0 1-.168.069h-9.565a.239.239 0 0 1-.168-.069l-13.186-13.188a.238.238 0 0 1-.069-.168v-2.37a.238.238 0 0 0-.07-.168l-1.962-1.962a.238.238 0 0 1 0-.336l2.639-2.639a.237.237 0 0 1 .168-.069h6.532a.238.238 0 0 0 .168-.07l6.163-6.163a.238.238 0 0 1 .337 0l2.339 2.339a.238.238 0 0 0 .168.07h2.874a.237.237 0 0 1 .168.069l3.9 3.9a.239.239 0 0 0 .168.069h6.474a.239.239 0 0 1 .168.069l2.632 2.632a.238.238 0 0 0 .336 0l5.427-5.427 4.229-4.229a.24.24 0 0 1 .168-.069h1.838a.238.238 0 0 0 .238-.238v-1.2a.236.236 0 0 0-.07-.168l-1.207-1.207a.237.237 0 0 0-.336 0l-.976.976a.238.238 0 0 1-.406-.168v-2.991a.238.238 0 0 1 .07-.168l1.117-1.117a.238.238 0 0 0 .069-.168v-3.972a.238.238 0 0 1 .07-.168l1.609-1.609a.24.24 0 0 1 .168-.069h1.8a.238.238 0 0 1 .168.069l9.2 9.2a.237.237 0 0 0 .336 0l1.4-1.4a.238.238 0 0 1 .336 0l1.635 1.635a.24.24 0 0 1 .069.168v5.687a.24.24 0 0 1-.069.168l-5.814 5.813-2.213 2.212a.238.238 0 0 0-.07.168v2.681a.237.237 0 0 1-.069.168l-2.564 2.564a.239.239 0 0 0-.069.168v2.424a.24.24 0 0 0 .069.168l2.025 2.025a.238.238 0 0 1 .07.168v5.01a.237.237 0 0 1-.07.168l-7.1 7.1a.229.229 0 0 1-.173.069c-.821-.028-6.35-.115-7.158-.012a.67.67 0 0 1-.315-.17z" class="cls-2" transform="translate(-890.3 -449.609)"/>
                        <path id="패스_1306" d="M1205.951 521.918v-3.191a.238.238 0 0 0-.07-.168l-.526-.526v-1.738a.238.238 0 0 0-.07-.168l-1.885-2.432-.546-.783a.274.274 0 0 0-.07-.168l-1.848-1.848-1.575 1.575a.237.237 0 0 1-.168.069h-2.477a.238.238 0 0 0-.238.238v.972a.238.238 0 0 1-.07.168l-1.649 1.649 1.559 1.559-1.775 1.776a.238.238 0 0 0 0 .336l1.128 1.128v1.622a.238.238 0 0 0 .07.168l.53.529v1.562l-1.922 1.921a.239.239 0 0 0 0 .337l1.144 1.144-.916.916a.238.238 0 0 0 .168.406h1.818a.237.237 0 0 0 .168-.069l1.523-1.523h2.658a.238.238 0 0 0 .168-.07l1.505-1.506h1.352a.237.237 0 0 0 .168-.069l2.231-2.231a.237.237 0 0 0 .069-.168v-.863a.237.237 0 0 0-.069-.168z" class="cls-2" transform="translate(-953.313 -481.747)"/>
                        <path id="패스_1307" d="M1210.047 592.176a.172.172 0 0 0-.121.05l-1.371 1.371a.171.171 0 0 1-.243 0l-2.443-2.442a.171.171 0 0 0-.242 0l-1.643 1.643a.171.171 0 0 0 0 .242l2.4 2.4a.172.172 0 0 0 .121.05h4.542a.173.173 0 0 1 .121.05l1.27 1.271a.171.171 0 0 1 .05.121v1.343a.172.172 0 0 0 .05.121l1.491 1.491h.248v-7.711z" class="cls-2" transform="translate(-958.376 -523.809)"/>
                    </g>
                </g>
                <path id="패스_1584" fill="none" stroke="#86888c" d="M-.5-2.213L20 55" transform="translate(62.5 255.5)"/>
                <path id="패스_1581" d="M103.492 20.59l24.261-21.768" class="cls-4" transform="translate(168 359)"/>
                <path id="패스_1582" d="M746.246-17457.7l-139.6 70.547" class="cls-4" transform="translate(-441 17783)"/>
                <g id="타원_595" class="cls-5" transform="translate(304 319)">
                    <circle cx="4" cy="4" r="4" class="cls-10"/>
                    <circle cx="4" cy="4" r="3.5" class="cls-11"/>
                </g>
                <g id="사각형_1989" class="cls-6" transform="translate(218 379)">
                    <rect width="96" height="66" class="cls-10" rx="3"/>
                    <rect width="95" height="65" x=".5" y=".5" class="cls-11" rx="2.5"/>
                </g>
                <text id="BOLT_NUT" class="cls-7" transform="translate(266 401)">
                    <tspan x="-26.015" y="0">BOLT&amp;NUT</tspan>
                </text>
                <text id="인도네시아_제조_파트너" class="cls-8" transform="translate(266 416)">
                    <tspan x="-22.5" y="0">인도네시아</tspan><tspan x="-23.5" y="16">제조 파트너</tspan>
                </text>
                <path id="패스_1583" d="M739-17520.648l-19.066 48.02" class="cls-4" transform="translate(-441 17783)"/>
                <g id="타원_594" class="cls-5" transform="translate(274 309)">
                    <circle cx="4" cy="4" r="4" class="cls-10"/>
                    <circle cx="4" cy="4" r="3.5" class="cls-11"/>
                </g>
                <g id="사각형_1987" class="cls-6" transform="translate(250 212)">
                    <rect width="96" height="50" class="cls-10" rx="3"/>
                    <rect width="95" height="49" x=".5" y=".5" class="cls-11" rx="2.5"/>
                </g>
                <text id="BOLT_NUT-2" class="cls-7" transform="translate(298 234)">
                    <tspan x="-26.015" y="0">BOLT&amp;NUT</tspan>
                </text>
                <text id="중국_제조_파트너" class="cls-8" transform="translate(298 249)">
                    <tspan x="-33.45" y="0">중국 제조 파트너</tspan>
                </text>
                <g id="사각형_1988" class="cls-6" transform="translate(71 369)">
                    <rect width="96" height="50" class="cls-10" rx="3"/>
                    <rect width="95" height="49" x=".5" y=".5" class="cls-11" rx="2.5"/>
                </g>
                <text id="BOLT_NUT-3" class="cls-7" transform="translate(119 391)">
                    <tspan x="-26.015" y="0">BOLT&amp;NUT</tspan>
                </text>
                <text id="한국_제조_파트너" class="cls-8" transform="translate(119 406)">
                    <tspan x="-33.45" y="0">한국 제조 파트너</tspan>
                </text>
                <g id="타원_596" fill="#fff" stroke="#0933b3" transform="translate(294 351)">
                    <circle cx="4" cy="4" r="4" class="cls-10"/>
                    <circle cx="4" cy="4" r="3.5" class="cls-11"/>
                </g>
                <g id="타원_593" class="cls-5" transform="translate(80 309)">
                    <circle cx="4" cy="4" r="4" class="cls-10"/>
                    <circle cx="4" cy="4" r="3.5" class="cls-11"/>
                </g>
                <g id="사각형_1986" class="cls-6" transform="translate(14 203)">
                    <rect width="96" height="50" class="cls-10" rx="3"/>
                    <rect width="95" height="49" x=".5" y=".5" class="cls-11" rx="2.5"/>
                </g>
                <text id="BOLT_NUT-4" class="cls-7" transform="translate(62 225)">
                    <tspan x="-26.015" y="0">BOLT&amp;NUT</tspan>
                </text>
                <text id="미국_제조_파트너" class="cls-8" transform="translate(62 240)">
                    <tspan x="-33.45" y="0">미국 제조 파트너</tspan>
                </text>
            </g>
        </g>
    </g>
</svg>
